<?xml version="1.0" encoding="UTF-8" standalone="no"?>
<!-- Created with Inkscape (http://www.inkscape.org/) -->

<svg
   xmlns:dc="http://purl.org/dc/elements/1.1/"
   xmlns:cc="http://creativecommons.org/ns#"
   xmlns:rdf="http://www.w3.org/1999/02/22-rdf-syntax-ns#"
   xmlns:svg="http://www.w3.org/2000/svg"
   xmlns="http://www.w3.org/2000/svg"
   xmlns:sodipodi="http://sodipodi.sourceforge.net/DTD/sodipodi-0.dtd"
   xmlns:inkscape="http://www.inkscape.org/namespaces/inkscape"
   width="128"
   height="128"
   viewBox="0 0 33.866666 33.866666"
   version="1.1"
   id="svg1380"
   inkscape:version="0.92.4 (5da689c313, 2019-01-14)"
   sodipodi:docname="cvIcon_noBackground.svg">
  <defs
     id="defs1374" />
  <sodipodi:namedview
     id="base"
     pagecolor="#ffffff"
     bordercolor="#666666"
     borderopacity="1.0"
     inkscape:pageopacity="0.0"
     inkscape:pageshadow="2"
     inkscape:zoom="2.8"
     inkscape:cx="-41.177618"
     inkscape:cy="-10.737372"
     inkscape:document-units="mm"
     inkscape:current-layer="layer1"
     showgrid="false"
     units="px"
     inkscape:window-width="1920"
     inkscape:window-height="1137"
     inkscape:window-x="-8"
     inkscape:window-y="-8"
     inkscape:window-maximized="1" />
  <metadata
     id="metadata1377">
    <rdf:RDF>
      <cc:Work
         rdf:about="">
        <dc:format>image/svg+xml</dc:format>
        <dc:type
           rdf:resource="http://purl.org/dc/dcmitype/StillImage" />
        <dc:title />
      </cc:Work>
    </rdf:RDF>
  </metadata>
  <g
     inkscape:label="Layer 1"
     inkscape:groupmode="layer"
     id="layer1"
     transform="translate(0,-263.13334)">
    <g
       transform="matrix(3.557092,0,0,3.557092,-1454.2439,-2239.1125)"
       id="g1361">
      <path
         inkscape:connector-curvature="0"
         id="path4705-6"
         transform="scale(0.26458333)"
         d="m 1552.7031,2658.7188 c -1.8569,0 -2.4003,0.6882 -2.4004,2.3984 v 31.1855 c 0.015,1.3548 0.2646,2.4123 2.4004,2.4004 h 21.5899 c 1.7638,0 2.3984,-0.5834 2.3984,-2.4004 v -26.3867 l -7.1973,-7.1972 z m 4.0196,4.164 c 0.164,0 0.3207,0.015 0.4726,0.043 0.1519,0.027 0.2923,0.062 0.4199,0.1074 0.1306,0.043 0.2463,0.093 0.3496,0.1504 0.1034,0.058 0.1753,0.1078 0.2149,0.1504 0.043,0.04 0.071,0.074 0.086,0.1015 0.015,0.028 0.029,0.061 0.039,0.1036 0.01,0.043 0.017,0.093 0.02,0.1504 0.01,0.058 0.01,0.1296 0.01,0.2148 0,0.091 -8e-4,0.1687 -0.01,0.2324 -0.01,0.064 -0.016,0.1148 -0.031,0.1543 -0.015,0.04 -0.033,0.07 -0.055,0.088 -0.02,0.018 -0.044,0.025 -0.072,0.025 -0.046,0 -0.104,-0.024 -0.1738,-0.076 -0.07,-0.055 -0.1612,-0.114 -0.2734,-0.1777 -0.1094,-0.067 -0.2416,-0.1261 -0.3965,-0.1777 -0.152,-0.055 -0.3343,-0.082 -0.5469,-0.082 -0.2338,0 -0.4435,0.047 -0.6289,0.1446 -0.1822,0.094 -0.338,0.2309 -0.4688,0.4101 -0.1275,0.1761 -0.2259,0.3903 -0.2929,0.6426 -0.067,0.2522 -0.1,0.5375 -0.1,0.8535 0,0.3464 0.036,0.6471 0.1054,0.9024 0.073,0.252 0.1739,0.4589 0.3047,0.623 0.1338,0.164 0.2933,0.287 0.4785,0.3691 0.1885,0.079 0.399,0.1192 0.6328,0.1192 0.2127,0 0.3978,-0.024 0.5528,-0.072 0.1549,-0.052 0.2871,-0.1092 0.3965,-0.1699 0.1123,-0.061 0.2033,-0.1154 0.2734,-0.1641 0.073,-0.049 0.1284,-0.072 0.168,-0.072 0.03,0 0.054,0.01 0.072,0.019 0.018,0.013 0.034,0.036 0.047,0.072 0.013,0.036 0.02,0.088 0.025,0.1543 0.01,0.064 0.01,0.1504 0.01,0.2597 0,0.076 0,0.1426 -0.01,0.1973 0,0.052 -0.01,0.097 -0.019,0.1367 -0.01,0.036 -0.022,0.068 -0.037,0.096 -0.015,0.028 -0.041,0.059 -0.074,0.096 -0.034,0.034 -0.098,0.076 -0.1953,0.1309 -0.094,0.055 -0.2119,0.1085 -0.3515,0.1601 -0.1369,0.049 -0.2935,0.09 -0.4727,0.1231 -0.1761,0.034 -0.3675,0.051 -0.5742,0.051 -0.4041,0 -0.7687,-0.063 -1.0938,-0.1875 -0.3251,-0.1245 -0.6022,-0.3086 -0.83,-0.5547 -0.2278,-0.2492 -0.4019,-0.5591 -0.5235,-0.9297 -0.1214,-0.3707 -0.1836,-0.8027 -0.1836,-1.2949 0,-0.5013 0.067,-0.9471 0.2012,-1.336 0.1335,-0.3889 0.3204,-0.7142 0.5605,-0.9785 0.2402,-0.2643 0.5273,-0.4648 0.8614,-0.6016 0.3372,-0.1368 0.7092,-0.207 1.1133,-0.207 z m 6.7382,0.064 c 0.1399,0 0.2465,0.01 0.3223,0.016 0.079,0.01 0.1327,0.033 0.1602,0.068 0.03,0.034 0.04,0.083 0.027,0.1465 -0.01,0.064 -0.033,0.1476 -0.068,0.2539 l -1.7578,5.2344 c -0.015,0.052 -0.034,0.095 -0.059,0.1289 -0.025,0.031 -0.065,0.054 -0.1191,0.072 -0.055,0.015 -0.1284,0.025 -0.2227,0.027 -0.094,0.01 -0.2172,0.01 -0.3691,0.01 -0.1214,0 -0.2263,0 -0.3145,0 -0.085,0 -0.158,0 -0.2187,-0.01 -0.061,-0.01 -0.1108,-0.015 -0.1504,-0.027 -0.036,-0.013 -0.068,-0.027 -0.096,-0.045 -0.025,-0.018 -0.044,-0.04 -0.059,-0.064 -0.013,-0.027 -0.026,-0.06 -0.039,-0.1 l -1.7539,-5.2285 c -0.036,-0.1094 -0.059,-0.196 -0.068,-0.2598 -0.01,-0.064 0.01,-0.1101 0.045,-0.1406 0.04,-0.034 0.1061,-0.053 0.1973,-0.059 0.091,-0.01 0.2188,-0.016 0.3828,-0.016 0.1398,0 0.2492,0 0.3281,0.01 0.079,0.01 0.1393,0.014 0.1816,0.029 0.043,0.015 0.071,0.038 0.086,0.068 0.018,0.031 0.035,0.07 0.051,0.1153 l 1.4355,4.5469 v 0 l 1.4082,-4.5254 c 0.013,-0.052 0.027,-0.093 0.045,-0.1231 0.018,-0.034 0.049,-0.058 0.092,-0.076 0.046,-0.018 0.1093,-0.032 0.1914,-0.039 0.082,-0.01 0.1953,-0.01 0.3379,-0.01 z m -9.0293,8.9648 h 17.9922 c 2.159,0 2.159,3.5996 0,3.5996 h -17.9922 c -1.9191,0 -1.9191,-3.5996 0,-3.5996 z m 0,4.7988 h 17.9922 c 2.159,0 2.159,3.5977 0,3.5977 h -17.9922 c -1.9191,0 -1.9191,-3.5977 0,-3.5977 z m 0,4.7969 h 17.9922 c 2.159,0 2.159,3.5996 0,3.5996 h -17.9922 c -1.9191,0 -1.9191,-3.5996 0,-3.5996 z m 0,4.7988 h 17.9922 c 2.159,0 2.159,3.5977 0,3.5977 h -17.9922 c -1.9191,0 -1.9191,-3.5977 0,-3.5977 z"
         style="fill:#e4e4e4;fill-opacity:1;stroke:none;stroke-width:0.23988953px;stroke-linecap:butt;stroke-linejoin:miter;stroke-opacity:1" />
      <path
         sodipodi:nodetypes="ccccc"
         inkscape:connector-curvature="0"
         id="path4707-5"
         d="m 415.26219,703.45266 v 1.26942 c 0,0.44228 0.15801,0.63471 0.63471,0.63471 h 1.26941 z"
         style="fill:#b3b3b3;fill-opacity:1;stroke:none;stroke-width:0.06347077px;stroke-linecap:butt;stroke-linejoin:miter;stroke-opacity:1" />
    </g>
  </g>
</svg>
