<?xml version="1.0" encoding="UTF-8" standalone="no"?>
<!-- Created with Inkscape (http://www.inkscape.org/) -->

<svg
   xmlns:dc="http://purl.org/dc/elements/1.1/"
   xmlns:cc="http://creativecommons.org/ns#"
   xmlns:rdf="http://www.w3.org/1999/02/22-rdf-syntax-ns#"
   xmlns:svg="http://www.w3.org/2000/svg"
   xmlns="http://www.w3.org/2000/svg"
   xmlns:sodipodi="http://sodipodi.sourceforge.net/DTD/sodipodi-0.dtd"
   xmlns:inkscape="http://www.inkscape.org/namespaces/inkscape"
   width="128"
   height="128"
   viewBox="0 0 33.866666 33.866666"
   version="1.1"
   id="svg1380"
   inkscape:version="0.92.4 (5da689c313, 2019-01-14)"
   sodipodi:docname="twitterIcon_noBackground.svg">
  <defs
     id="defs1374" />
  <sodipodi:namedview
     id="base"
     pagecolor="#ffffff"
     bordercolor="#666666"
     borderopacity="1.0"
     inkscape:pageopacity="0.0"
     inkscape:pageshadow="2"
     inkscape:zoom="2.8284271"
     inkscape:cx="6.9225695"
     inkscape:cy="26.377839"
     inkscape:document-units="mm"
     inkscape:current-layer="layer1"
     showgrid="false"
     units="px"
     inkscape:window-width="1920"
     inkscape:window-height="1137"
     inkscape:window-x="-8"
     inkscape:window-y="-8"
     inkscape:window-maximized="1" />
  <metadata
     id="metadata1377">
    <rdf:RDF>
      <cc:Work
         rdf:about="">
        <dc:format>image/svg+xml</dc:format>
        <dc:type
           rdf:resource="http://purl.org/dc/dcmitype/StillImage" />
        <dc:title />
      </cc:Work>
    </rdf:RDF>
  </metadata>
  <g
     inkscape:label="Layer 1"
     inkscape:groupmode="layer"
     id="layer1"
     transform="translate(0,-263.13334)">
    <path
       style="fill:#e4e4e4;fill-opacity:1;stroke:none;stroke-width:0.9410969px;stroke-linecap:butt;stroke-linejoin:miter;stroke-opacity:1"
       d="m 27.812062,267.7154 4.880256,-2.11724 -3.404091,6.46751 4.57844,-0.31603 -4.351861,6.06042 C 31.655276,293.95832 10.472068,297.94516 0,293.11472 c 3.9267598,-1.1589 7.3255628,-2.09272 9.4131307,-5.10177 -2.1387452,-0.75251 -2.6256605,-1.52472 -3.4036549,-2.81306 2.3832995,0.0941 3.7528235,-0.51094 5.0894812,-1.83713 -2.7722469,-0.44455 -5.5414364,-2.26613 -6.9599112,-5.04429 2.1541316,0.48107 5.0643245,0.63646 7.4413432,0.15353 -4.3272387,-1.00054 -8.0589267,-5.84869 -10.0507864,-10.03589 5.5979307,2.54105 11.0781204,5.859 17.2297294,4.74642 -2.286661,-6.03297 6.286066,-9.73797 9.05273,-5.46726 z"
       id="path4861-1"
       inkscape:connector-curvature="0"
       sodipodi:nodetypes="ccccccccccccccc" />
  </g>
</svg>
