<?xml version="1.0" encoding="UTF-8" standalone="no"?>
<svg
   xmlns:dc="http://purl.org/dc/elements/1.1/"
   xmlns:cc="http://creativecommons.org/ns#"
   xmlns:rdf="http://www.w3.org/1999/02/22-rdf-syntax-ns#"
   xmlns:svg="http://www.w3.org/2000/svg"
   xmlns="http://www.w3.org/2000/svg"
   xmlns:sodipodi="http://sodipodi.sourceforge.net/DTD/sodipodi-0.dtd"
   xmlns:inkscape="http://www.inkscape.org/namespaces/inkscape"
   version="1.0"
   width="128"
   height="128"
   id="svg143"
   sodipodi:docname="addressIcon.svg"
   inkscape:version="0.92.4 (5da689c313, 2019-01-14)">
  <metadata
     id="metadata147">
    <rdf:RDF>
      <cc:Work
         rdf:about="">
        <dc:format>image/svg+xml</dc:format>
        <dc:type
           rdf:resource="http://purl.org/dc/dcmitype/StillImage" />
        <dc:title></dc:title>
      </cc:Work>
    </rdf:RDF>
  </metadata>
  <sodipodi:namedview
     pagecolor="#ffffff"
     bordercolor="#666666"
     borderopacity="1"
     objecttolerance="10"
     gridtolerance="10"
     guidetolerance="10"
     inkscape:pageopacity="0"
     inkscape:pageshadow="2"
     inkscape:window-width="1920"
     inkscape:window-height="1137"
     id="namedview145"
     showgrid="false"
     inkscape:zoom="0.59064212"
     inkscape:cx="-196.60857"
     inkscape:cy="-154.12878"
     inkscape:window-x="-8"
     inkscape:window-y="-8"
     inkscape:window-maximized="1"
     inkscape:current-layer="svg143"
     units="px" />
  <defs
     id="defs3">
    <pattern
       id="WMFhbasepattern"
       patternUnits="userSpaceOnUse"
       width="6"
       height="6"
       x="0"
       y="0" />
  </defs>
  <g
     id="g883"
     transform="matrix(1.4414414,0,0,1.4427412,-51.89189,-8.1947634)">
    <path
       id="path15"
       d="m 36.08,79.6 0.16,1.36 0.64,2.72 1.92,3.84 4.24,4.16 3.76,2 2.72,0.64 1.36,0.08 h 59.2 l 1.36,-0.08 2.8,-0.64 3.84,-2 4.16,-4.16 1.84,-3.84 0.72,-2.72 V 79.6 20.48 19.12 l -0.72,-2.8 -1.84,-3.84 -4.16,-4.16 -3.84,-1.84 -2.8,-0.8 h -1.36 -59.2 -1.36 l -2.72,0.8 -3.76,1.84 -4.24,4.16 -1.92,3.84 -0.64,2.8 -0.16,1.36 L 36,49.44 Z"
       style="fill:#222222;fill-opacity:1;fill-rule:nonzero;stroke:none"
       inkscape:connector-curvature="0" />
    <path
       id="path17"
       d="m 64.48,50.72 0.8,5.76 -0.08,11.6 -0.72,5.68 4.32,0.72 8.56,0.88 8.4,-0.16 8.48,-0.72 4.08,-0.72 -0.56,-5.36 V 57.12 l 0.56,-6.4 1.12,0.56 1.6,1.52 0.4,0.96 3.04,-1.6 -2.96,-4.4 L 97.6,40.8 95.04,37.28 93.68,36 93.04,33.68 92.56,30.24 92.88,28 l 0.56,-0.96 -0.8,-0.4 -1.92,-0.08 -1.28,0.48 0.48,0.56 0.32,1.28 -0.4,1.68 -0.4,1.12 -1.92,-2.72 -4,-4.32 -2.08,-1.68 -3.68,3.84 -6.56,7.36 -8.24,10.96 -4.64,7.04 3.04,1.6 0.4,-0.64 1.44,-1.6 z"
       style="fill:#e4e4e4;fill-opacity:1;fill-rule:nonzero;stroke:none"
       inkscape:connector-curvature="0" />
  </g>
</svg>
