<?xml version="1.0" encoding="UTF-8" standalone="no"?>
<svg
   xmlns:dc="http://purl.org/dc/elements/1.1/"
   xmlns:cc="http://creativecommons.org/ns#"
   xmlns:rdf="http://www.w3.org/1999/02/22-rdf-syntax-ns#"
   xmlns:svg="http://www.w3.org/2000/svg"
   xmlns="http://www.w3.org/2000/svg"
   xmlns:sodipodi="http://sodipodi.sourceforge.net/DTD/sodipodi-0.dtd"
   xmlns:inkscape="http://www.inkscape.org/namespaces/inkscape"
   version="1.0"
   width="128"
   height="128"
   id="svg143"
   sodipodi:docname="mailIcon.svg"
   inkscape:version="0.92.4 (5da689c313, 2019-01-14)">
  <metadata
     id="metadata147">
    <rdf:RDF>
      <cc:Work
         rdf:about="">
        <dc:format>image/svg+xml</dc:format>
        <dc:type
           rdf:resource="http://purl.org/dc/dcmitype/StillImage" />
        <dc:title></dc:title>
      </cc:Work>
    </rdf:RDF>
  </metadata>
  <sodipodi:namedview
     pagecolor="#ffffff"
     bordercolor="#666666"
     borderopacity="1"
     objecttolerance="10"
     gridtolerance="10"
     guidetolerance="10"
     inkscape:pageopacity="0"
     inkscape:pageshadow="2"
     inkscape:window-width="1920"
     inkscape:window-height="1137"
     id="namedview145"
     showgrid="false"
     inkscape:zoom="2.3625685"
     inkscape:cx="133.57786"
     inkscape:cy="-42.40203"
     inkscape:window-x="-8"
     inkscape:window-y="-8"
     inkscape:window-maximized="1"
     inkscape:current-layer="svg143"
     units="px" />
  <defs
     id="defs3">
    <pattern
       id="WMFhbasepattern"
       patternUnits="userSpaceOnUse"
       width="6"
       height="6"
       x="0"
       y="0" />
  </defs>
  <g
     id="g886"
     transform="matrix(1.4022787,0,0,1.4059754,-52.27695,-5.623902)">
    <path
       id="path5"
       d="m 37.52,79.84 v 1.52 l 0.8,2.8 1.92,3.92 4.24,4.32 4,2 2.72,0.64 h 1.52 60.8 1.36 l 2.8,-0.64 3.92,-2 4.32,-4.32 2,-3.92 0.64,-2.8 V 79.84 19.2 17.68 l -0.64,-2.8 -2,-3.92 L 121.6,6.72 117.68,4.64 114.88,4 h -1.36 -60.8 -1.52 l -2.72,0.64 -4,2.08 -4.24,4.24 -1.92,3.92 -0.8,2.8 v 1.52 l -0.24,29.76 z"
       style="fill:#222222;fill-opacity:1;fill-rule:nonzero;stroke:none"
       inkscape:connector-curvature="0" />
    <path
       id="path7"
       d="m 46.4,64.64 0.16,1.52 2,2.72 3.44,2.16 4.32,1.12 2.24,0.08 h 48.88 l 2.32,-0.08 4.24,-1.12 3.44,-2.16 2,-2.72 0.32,-1.52 V 34.4 l -0.32,-1.52 -2,-2.64 -3.44,-2.16 -4.24,-1.28 h -2.32 -48.88 -2.24 l -4.32,1.28 -3.44,2.16 -2,2.64 -0.16,1.52 -0.08,14.8 z"
       style="fill:#e4e4e4;fill-opacity:1;fill-rule:nonzero;stroke:none"
       inkscape:connector-curvature="0" />
    <path
       id="path9"
       d="m 51.36,13.52 -13.84,18.24 36.08,24.56 3.44,1.36 5.68,1.44 h 5.36 l 5.84,-1.44 3.36,-1.36 5.12,-2.8 7.6,-6.08 6.32,-6.32 7.36,-6.32 4.88,-3.04 -13.52,-18.24 0.16,2.64 -0.56,5.6 -1.36,5.44 -2.16,5.2 -3.04,5.04 -3.68,4.56 -4.32,3.92 -4.88,3.44 -2.56,1.28 -3.68,0.96 H 81.84 L 78.32,50.64 73.04,48.08 65.28,43.28 60.72,39.44 56.64,35.04 53.6,30 51.76,24.16 51.12,17.28 Z"
       style="fill:#222222;fill-opacity:1;fill-rule:nonzero;stroke:none"
       inkscape:connector-curvature="0" />
    <path
       id="path11"
       d="M 46,29.44 52.72,25.28 52.24,71.12 50,70.16 47.44,68 46.32,65.92 46,64.64 Z"
       style="fill:#222222;fill-opacity:1;fill-rule:nonzero;stroke:none"
       inkscape:connector-curvature="0" />
    <path
       id="path13"
       d="m 120.08,29.44 -6.56,-4.16 0.4,45.84 2.24,-0.96 2.56,-2.16 1.12,-2.08 0.24,-1.28 z"
       style="fill:#222222;fill-opacity:1;fill-rule:nonzero;stroke:none"
       inkscape:connector-curvature="0" />
  </g>
</svg>
