<?xml version="1.0" encoding="UTF-8" standalone="no"?>
<svg
   xmlns:dc="http://purl.org/dc/elements/1.1/"
   xmlns:cc="http://creativecommons.org/ns#"
   xmlns:rdf="http://www.w3.org/1999/02/22-rdf-syntax-ns#"
   xmlns:svg="http://www.w3.org/2000/svg"
   xmlns="http://www.w3.org/2000/svg"
   xmlns:sodipodi="http://sodipodi.sourceforge.net/DTD/sodipodi-0.dtd"
   xmlns:inkscape="http://www.inkscape.org/namespaces/inkscape"
   version="1.0"
   width="128"
   height="128"
   id="svg143"
   sodipodi:docname="phoneIcon.svg"
   inkscape:version="0.92.4 (5da689c313, 2019-01-14)">
  <metadata
     id="metadata147">
    <rdf:RDF>
      <cc:Work
         rdf:about="">
        <dc:format>image/svg+xml</dc:format>
        <dc:type
           rdf:resource="http://purl.org/dc/dcmitype/StillImage" />
        <dc:title></dc:title>
      </cc:Work>
    </rdf:RDF>
  </metadata>
  <sodipodi:namedview
     pagecolor="#ffffff"
     bordercolor="#666666"
     borderopacity="1"
     objecttolerance="10"
     gridtolerance="10"
     guidetolerance="10"
     inkscape:pageopacity="0"
     inkscape:pageshadow="2"
     inkscape:window-width="1920"
     inkscape:window-height="1137"
     id="namedview145"
     showgrid="false"
     inkscape:zoom="0.59064212"
     inkscape:cx="219.18743"
     inkscape:cy="-48.504323"
     inkscape:window-x="-8"
     inkscape:window-y="-8"
     inkscape:window-maximized="1"
     inkscape:current-layer="svg143"
     units="px" />
  <defs
     id="defs3">
    <pattern
       id="WMFhbasepattern"
       patternUnits="userSpaceOnUse"
       width="6"
       height="6"
       x="0"
       y="0" />
  </defs>
  <g
     id="g883"
     transform="matrix(1.440144,0,0,1.4440433,-49.886588,-9.2418694)">
    <path
       id="path19"
       d="m 34.72,80.24 v 1.52 l 0.8,2.72 1.92,3.84 4.08,4.16 3.92,2 2.72,0.56 h 1.36 59.2 1.36 l 2.72,-0.56 3.84,-2 4.16,-4.16 2,-3.84 0.56,-2.72 0.16,-1.52 V 21.2 l -0.16,-1.44 -0.56,-2.72 -2,-3.84 -4.16,-4.16 -3.84,-2 -2.72,-0.64 h -1.36 -59.2 -1.36 l -2.72,0.64 -3.92,2 -4.08,4.16 -1.92,3.84 -0.8,2.72 v 1.44 l -0.08,28.96 z"
       style="fill:#222222;fill-opacity:1;fill-rule:nonzero;stroke:none"
       inkscape:connector-curvature="0" />
    <path
       id="path21"
       d="m 55.44,36.4 1.28,3.04 2.4,4.72 2.88,2.8 2.08,1.28 1.76,-0.64 2.72,-1.84 2.08,-2.64 1.6,-3.2 0.64,-1.84 1.92,0.64 3.44,1.84 4.32,3.44 4.32,5.6 3.36,6.16 1.44,3.28 -3.44,0.64 -4.8,2.48 -1.76,1.44 0.64,1.76 2.08,3.04 2.72,2.64 3.36,2.24 2,0.96 2.32,-2 3.6,-4.56 2.8,-5.04 2.08,-5.52 0.88,-2.88 -2.56,-4.4 -6.16,-8.16 -7.04,-7.28 -8,-6.16 -4.48,-2.72 -5.52,1.76 -8,3.04 -4.88,3.44 z"
       style="fill:#e4e4e4;fill-opacity:1;fill-rule:nonzero;stroke:none"
       inkscape:connector-curvature="0" />
  </g>
</svg>
