<?xml version="1.0" encoding="UTF-8" standalone="no"?>
<svg
   xmlns:dc="http://purl.org/dc/elements/1.1/"
   xmlns:cc="http://creativecommons.org/ns#"
   xmlns:rdf="http://www.w3.org/1999/02/22-rdf-syntax-ns#"
   xmlns:svg="http://www.w3.org/2000/svg"
   xmlns="http://www.w3.org/2000/svg"
   xmlns:sodipodi="http://sodipodi.sourceforge.net/DTD/sodipodi-0.dtd"
   xmlns:inkscape="http://www.inkscape.org/namespaces/inkscape"
   version="1.0"
   width="128"
   height="128"
   id="svg143"
   sodipodi:docname="webIcon.svg"
   inkscape:version="0.92.4 (5da689c313, 2019-01-14)">
  <metadata
     id="metadata147">
    <rdf:RDF>
      <cc:Work
         rdf:about="">
        <dc:format>image/svg+xml</dc:format>
        <dc:type
           rdf:resource="http://purl.org/dc/dcmitype/StillImage" />
        <dc:title></dc:title>
      </cc:Work>
    </rdf:RDF>
  </metadata>
  <sodipodi:namedview
     pagecolor="#ffffff"
     bordercolor="#666666"
     borderopacity="1"
     objecttolerance="10"
     gridtolerance="10"
     guidetolerance="10"
     inkscape:pageopacity="0"
     inkscape:pageshadow="2"
     inkscape:window-width="1920"
     inkscape:window-height="1137"
     id="namedview145"
     showgrid="false"
     inkscape:zoom="0.83529409"
     inkscape:cx="-276.27249"
     inkscape:cy="-14.310867"
     inkscape:window-x="-8"
     inkscape:window-y="-8"
     inkscape:window-maximized="1"
     inkscape:current-layer="svg143"
     units="px" />
  <defs
     id="defs3">
    <pattern
       id="WMFhbasepattern"
       patternUnits="userSpaceOnUse"
       width="6"
       height="6"
       x="0"
       y="0" />
  </defs>
  <g
     id="g886"
     transform="matrix(1.4222222,0,0,1.4272971,-58.140444,-8.1070515)">
    <path
       id="path23"
       d="m 41.04,80.4 0.08,1.36 0.64,2.88 2,3.84 4.16,4.24 4,1.84 2.72,0.8 h 1.36 59.84 1.44 l 2.72,-0.8 4,-1.84 4.08,-4.24 2,-3.84 0.64,-2.88 0.16,-1.36 V 20.48 l -0.16,-1.36 -0.64,-2.72 -2,-3.92 L 124,8.24 120,6.32 117.28,5.68 H 115.84 56 54.64 l -2.72,0.64 -4,1.92 -4.16,4.24 -2,3.92 -0.64,2.72 -0.08,1.36 -0.16,29.44 z"
       style="fill:#222222;fill-opacity:1;fill-rule:nonzero;stroke:none"
       inkscape:connector-curvature="0" />
    <path
       id="path25"
       d="m 113.12,49.2 -0.08,2.64 -1.12,5.2 -2,4.72 -2.88,4.24 -3.68,3.68 -4.08,2.8 -4.88,2 -5.12,1.04 -2.72,0.08 -2.72,-0.08 -5.12,-1.04 -4.8,-2 -4.24,-2.8 -3.6,-3.68 -2.88,-4.24 -2,-4.72 -1.12,-5.2 V 49.2 46.48 l 1.12,-5.28 2,-4.72 2.88,-4.24 3.6,-3.6 4.24,-2.88 4.8,-2 5.12,-1.04 2.72,-0.08 2.72,0.08 5.12,1.04 4.88,2 4.08,2.88 3.68,3.6 2.88,4.24 2,4.72 1.12,5.28 z"
       style="fill:#e4e4e4;fill-opacity:1;fill-rule:nonzero;stroke:none"
       inkscape:connector-curvature="0" />
    <path
       id="path27"
       d="m 66.88,43.84 -2.4,-0.16 1.84,13.52 h 2.56 l 1.68,-7.92 1.76,7.92 2.24,-0.16 2.4,-12.8 -3.04,-0.16 -0.72,8.32 -1.76,-6.48 -3.12,0.16 -0.72,7.6 z"
       style="fill:#222222;fill-opacity:1;fill-rule:nonzero;stroke:none"
       inkscape:connector-curvature="0" />
    <path
       id="path29"
       d="m 82.32,47.92 -2.48,-0.08 2,13.44 h 2.48 l 1.76,-8 1.6,7.92 h 2.4 l 2.32,-12.88 -2.96,-0.16 -0.8,8.24 -1.68,-6.32 h -3.12 l -0.8,7.6 z"
       style="fill:#222222;fill-opacity:1;fill-rule:nonzero;stroke:none"
       inkscape:connector-curvature="0" />
    <path
       id="path31"
       d="M 97.52,40.32 H 95.2 l 1.84,13.52 2.64,-0.16 1.6,-7.84 1.76,7.84 2.24,-0.16 2.48,-12.72 -3.12,-0.24 -0.72,8.4 -1.68,-6.4 h -3.12 l -0.72,7.6 z"
       style="fill:#222222;fill-opacity:1;fill-rule:nonzero;stroke:none"
       inkscape:connector-curvature="0" />
  </g>
</svg>
