<svg id="Layer_1" data-name="Layer 1" xmlns="http://www.w3.org/2000/svg" xmlns:xlink="http://www.w3.org/1999/xlink" viewBox="0 0 2804.5 1421.71"><defs><style>.cls-1{fill:#355e68;}.cls-2{fill:none;stroke:#355e68;stroke-miterlimit:10;stroke-width:66px;}.cls-3{clip-path:url(#clip-path);}.cls-4{isolation:isolate;}.cls-5{fill:#2e535b;}.cls-6{clip-path:url(#clip-path-2);}.cls-7{fill:#fcb13d;}</style><clipPath id="clip-path" transform="translate(-51.13 -113.13)"><path class="cls-1" d="M2147.29,573.92l267.46-129.6c-1.21.59-2.42,1.19-3.62,1.8s-2.4,1.23-3.6,1.87-2.38,1.28-3.56,1.94l-3.54,2a197.89,197.89,0,0,0-56.58,48.84,218.34,218.34,0,0,0-21.29,32.57,263.8,263.8,0,0,0-16.55,38L2042.29,694.31a251.37,251.37,0,0,1,16.14-35.86,211.69,211.69,0,0,1,20.62-30.8,193.38,193.38,0,0,1,54.5-46.43c1.12-.66,2.26-1.3,3.39-1.93s2.28-1.25,3.43-1.86,2.29-1.2,3.45-1.79S2146.13,574.48,2147.29,573.92Z"/></clipPath><clipPath id="clip-path-2" transform="translate(-51.13 -113.13)"><path class="cls-1" d="M1186.84,1162.45l-210.12,93a46.18,46.18,0,0,0,7.72-4.31,44,44,0,0,0,6.56-5.61,45.65,45.65,0,0,0,5.42-6.91,53.46,53.46,0,0,0,4.29-8.21l211.4-94.64a57,57,0,0,1-4.49,8.78,47.63,47.63,0,0,1-5.7,7.38,44.43,44.43,0,0,1-6.93,6A47.82,47.82,0,0,1,1186.84,1162.45Z"/></clipPath></defs><title>wtg_name</title><path class="cls-2" d="M2821.88,732.06q-1.17-18.93-3.65-36.59t-6.29-34q-3.8-16.35-8.88-31.43a289.33,289.33,0,0,0-11.46-28.88q-6.42-13.8-13.62-26.45t-15.19-24.15q-8-11.5-16.77-21.88A268,268,0,0,0,2727.67,509q-9.57-9.19-19.64-17.38t-20.65-15.36q-10.58-7.19-21.66-13.37t-22.7-11.4q-11.61-5.13-23.11-9.37T2597,434.61q-11.43-3.33-22.75-5.72T2551.65,425a293.05,293.05,0,0,0-41.48-2.49,243.1,243.1,0,0,0-39,3.61,217.75,217.75,0,0,0-36.59,9.78,212.77,212.77,0,0,0-34.13,16c1.18-.68,2.36-1.36,3.54-2s2.37-1.31,3.56-1.94,2.39-1.26,3.6-1.87,2.41-1.21,3.62-1.8L2242.15,528l-.92-21.72-17.77-2.14,39.72-19.58-3.39-79.08-194.29-24.9-23,12.57-.55-15.59L1950,365.73l-51.42,29.16L1897.5,359l-93.83-12-16,9.5-.31-11.58-207.26-26.56-97.86,63.07-1.24-75.77-216.47-27.74-35.8,26-6.88-31.45-156.79-20.09-78.64,61.85,0-71.93L880,228.6l-61.33,52.22.38-60-109-14L688.84,226.3l2.7-21.85L580.07,190.17l-38.6,37.75-3.91-38.48L414.08,173.65l-43.82,46.52-3.05-57.28L252,148.12,104.88,318.89l27.91,310,155.07,15,33.55-30,1.92,33.47,22.83,2.2c-11.44,6.66-22.16,14-31.41,22.63l1.09-1,1.1-1,1.11-1,1.13-1-.29.25.29-.25L165.37,801.88l-1.06.93c-.35.3-.69.62-1,.93l-1,.94-1,1A155.33,155.33,0,0,0,144.56,824a189.68,189.68,0,0,0-14.63,21.94q-13.64,23.8-23.23,54.9c-5.91,19.21-10.54,40.73-14.12,64.12-.3,1.91-.71,3.6-1,5.54-.19,1.29-.28,2.75-.45,4-2.49,18.18-4.13,37.85-5.27,58.44-.41,7.35-1,14.4-1.22,22.06-.24,7.51-.17,14.41-.26,21.61s-.31,14.54-.25,21.35q.18,20.55,1.25,39.23t3,35.47q1.94,16.78,4.76,31.63a291.25,291.25,0,0,0,7,29,265.3,265.3,0,0,0,9.68,27.13,251,251,0,0,0,12.35,25.31,245.17,245.17,0,0,0,15,23.49,172.81,172.81,0,0,0,17.95,21.23,179.21,179.21,0,0,0,21.24,18.24,199.34,199.34,0,0,0,24.49,15.27c3.87,2,8.25,3.64,12.34,5.49,5.08,2.31,9.93,4.83,15.34,6.84q14.63,5.44,30.75,9.75t33.7,7.49q17.6,3.18,36.67,5.26t39.6,3.06q20.44,1,46.36.5t57.1-2.4q31.15-1.92,67.57-5.26t77.73-8.08l104.08-47.27c1.52,2,2.85,4.14,4.43,6a202.68,202.68,0,0,0,21.84,22,183.62,183.62,0,0,0,17.06,13.81c4.55,3.23,9.56,6,14.43,9A241.7,241.7,0,0,0,802.19,1402c4,1.9,7.88,4,12.12,5.72,2.31.94,4.89,1.63,7.26,2.52A325.74,325.74,0,0,0,873,1425a461.85,461.85,0,0,0,68.18,8.06q20.1,1,38.62.38t35.43-2.66a304.9,304.9,0,0,0,32.26-5.69,246.05,246.05,0,0,0,29.13-8.7l175.48-64.83.69,84.6,367.3,17.85,30.65-9.15.23,10.65,181.48,8.81,260.86-72.46-4.08-113.48,150.6-46.34-3.44-83.74,74.74,5.47,281.35-90.49a60.45,60.45,0,0,1,.37-10.92,51.38,51.38,0,0,1,2.3-10,48.71,48.71,0,0,1,4.21-9.13,51.05,51.05,0,0,1,6.11-8.2q3.53-3.94,7.58-7.73t8.64-7.43q4.57-3.64,9.69-7.15t10.76-6.89q5.57-3.32,11.41-6.63t11.92-6.6q6.08-3.28,12.42-6.54t12.91-6.44q6.63-3.25,13.13-6.83t12.85-7.48q6.34-3.9,12.6-8.16t12.38-8.88a217.27,217.27,0,0,0,23.1-19.36,182.78,182.78,0,0,0,18.84-21.24,164.62,164.62,0,0,0,25.24-48.3,262.59,262.59,0,0,0,7.14-26.81q2.93-13.82,4.56-28.48t1.94-30.13Q2822.88,748.39,2821.88,732.06ZM2145.16,1022a124.67,124.67,0,0,0-4.8,11.74q-2.1,6-3.78,12.14c-.67,2.46-1.18,5-1.75,7.52l-53.85-4.28-.3-8.22,67.75-25.11C2147.32,1017.86,2146.14,1019.9,2145.16,1022ZM936.24,722.14c1.47-1.21,3-2.34,4.53-3.5a171.4,171.4,0,0,0-18.5,16.25c2.2-2.25,4.48-4.44,6.8-6.57S933.79,724.14,936.24,722.14ZM690.9,643.34l-10.1-2.45L691,633.22Zm434.85,214.39c.2,0,.33-.13.52-.15.41-.06,1,0,1.37,0C1127,857.63,1126.36,857.64,1125.75,857.73Zm-18.24,5.61c.28-.14.45-.4.74-.54s1-.22,1.43-.41C1109,862.71,1108.2,863,1107.51,863.34Zm-600,84.16.56.09-35.18,23.64c0-2.33-.13-4.31-.09-6.69.14-7.55.33-14.68.55-21.56C483.79,944.27,495,945.74,507.48,947.5Zm296.94-141,.77-112.73L900.86,703l44.38-29.49,27.51,2.71,4.87,21.11c-4.85,2.18-9.87,4.18-14.42,6.68A179.69,179.69,0,0,0,942,717.7c.6-.45,1.16-.92,1.77-1.36q3.84-2.8,7.87-5.42h0Zm384.05,355c.66-.32,1.26-.72,1.9-1.07-.39.21-.64.59-1,.8C1189.08,1161.4,1188.72,1161.41,1188.47,1161.54Zm14.9-11.52c-.22.26-.32.64-.55.89s-.25.16-.35.27C1202.79,1150.82,1203.05,1150.39,1203.37,1150Zm35.34,199.39c-3.3.49-6.3,1.27-9.69,1.68-1.07.13-2.29.12-3.38.24C1230.14,1350.83,1234.37,1350.06,1238.71,1349.41Zm331.9-622.57.1,5.21-8.45-.84Zm749.31,39.64a92.3,92.3,0,0,1,7.44,5.89,71.55,71.55,0,0,1,9.34,10.39,66.2,66.2,0,0,1,6.84,11.68,68.67,68.67,0,0,1,4.36,13,79.15,79.15,0,0,1,1.9,14.22,81,81,0,0,1-.44,13.19,71.31,71.31,0,0,1-2.57,12.44,70.18,70.18,0,0,1-4.72,11.7,74.24,74.24,0,0,1-6.93,11q-4,5.26-8.45,10.22t-9.26,9.62q-4.84,4.66-10.08,9t-10.87,8.33q-5.68,4-11.38,7.79T2273.81,922l-5.14-120.79-25.91-2.57Zm-200.64-5,32.23,28.11L2073,781.8Zm-929.74,592.25c4.14-.09,8-.48,12-.68-3.44.17-6.6.62-10.13.71C1190.82,1353.76,1190.14,1353.7,1189.54,1353.71Zm176.82-575c-.5-.63-.91-1.36-1.41-2a224.49,224.49,0,0,0-39.08-37.61,260.24,260.24,0,0,0-49.25-29.06c-5.28-2.4-11-4.42-16.57-6.58L1411,615.25l1.89,137.18,1.83.17Zm304.19-6.91,40.33-19.94.7,29.39,88.12,8.51,22.27-10.5.34,12.46-149.75,70Zm873.93-139.27c-1.05,0-2,.12-3.05.17.87,0,1.67-.19,2.55-.19C2544.14,632.52,2544.32,632.55,2544.48,632.55Zm-9.12.63c-1.16.16-2.25.42-3.37.63.83-.16,1.59-.43,2.45-.56C2534.73,633.21,2535.06,633.22,2535.36,633.18Zm-8.43,1.79c-1.12.33-2.19.72-3.27,1.12.69-.25,1.31-.61,2-.83C2526.08,635.13,2526.52,635.09,2526.93,635Z" transform="translate(-51.13 -113.13)"/><polygon class="cls-2" points="2361.93 1071.89 2087.53 1155.91 2095.95 1379.84 2278.63 1388.53 2564.7 1321.42 2552.17 1085.49 2361.93 1071.89"/><polygon class="cls-1" points="2408.87 595.01 2136.88 708.28 1991.16 581.18 2254.88 458.25 2408.87 595.01"/><path class="cls-1" d="M2147.29,573.92l267.46-129.6c-1.21.59-2.42,1.19-3.62,1.8s-2.4,1.23-3.6,1.87-2.38,1.28-3.56,1.94l-3.54,2a197.89,197.89,0,0,0-56.58,48.84,218.34,218.34,0,0,0-21.29,32.57,263.8,263.8,0,0,0-16.55,38L2042.29,694.31a251.37,251.37,0,0,1,16.14-35.86,211.69,211.69,0,0,1,20.62-30.8,193.38,193.38,0,0,1,54.5-46.43c1.12-.66,2.26-1.3,3.39-1.93s2.28-1.25,3.43-1.86,2.29-1.2,3.45-1.79S2146.13,574.48,2147.29,573.92Z" transform="translate(-51.13 -113.13)"/><g class="cls-3"><g class="cls-4"><path class="cls-1" d="M2306,571.38,2042.29,694.31a251.37,251.37,0,0,1,16.14-35.86,211.69,211.69,0,0,1,20.62-30.8,193.38,193.38,0,0,1,54.5-46.43c1.12-.66,2.26-1.3,3.39-1.93s2.28-1.25,3.43-1.86,2.29-1.2,3.45-1.79,2.31-1.16,3.47-1.72l267.46-129.6c-1.21.59-2.42,1.19-3.62,1.8s-2.4,1.23-3.6,1.87-2.38,1.28-3.56,1.94l-3.54,2a197.89,197.89,0,0,0-56.58,48.84,218.34,218.34,0,0,0-21.29,32.57,263.8,263.8,0,0,0-16.55,38" transform="translate(-51.13 -113.13)"/></g></g><polygon class="cls-1" points="2212.05 371.38 1951.1 500 1852.05 489.03 2108.04 358.66 2212.05 371.38"/><polygon class="cls-1" points="2193.43 472.13 1932.42 594.77 1855.03 586.74 2112.13 462.81 2193.43 472.13"/><polygon class="cls-1" points="2024.97 560.18 1771.19 678.83 1763.63 404.26 2014.37 267.4 2024.97 560.18"/><polygon class="cls-1" points="1905.07 443.95 1658.14 570.92 1607.97 565.73 1852.23 437.9 1905.07 443.95"/><polygon class="cls-1" points="2188.68 1118.86 1922.04 1200.91 1776.97 1192.22 2036.05 1108.62 2188.68 1118.86"/><polygon class="cls-1" points="1738.51 315.34 1500.96 451.93 1450.18 446.31 1684.96 308.79 1738.51 315.34"/><polygon class="cls-1" points="1431.31 277.79 1210.05 419.75 1157.35 413.92 1375.57 270.98 1431.31 277.79"/><polygon class="cls-5" points="1099.23 233.84 896.55 381.92 886.06 380.76 1088.1 232.48 1099.23 233.84"/><polygon class="cls-1" points="1115.92 344.29 911.58 484.95 896.55 381.92 1099.23 233.84 1115.92 344.29"/><polygon class="cls-1" points="1135.84 465.08 929.57 597.57 921.62 563.08 1127.16 428.06 1135.84 465.08"/><polygon class="cls-1" points="1240.12 476.23 1027.9 607.07 929.57 597.57 1135.84 465.08 1240.12 476.23"/><polygon class="cls-1" points="828.33 231.36 641.35 382.3 642.5 274.11 828.83 115.47 828.33 231.36"/><polygon class="cls-1" points="827.95 320.71 640.46 465.67 582.78 459.71 766.56 313.68 827.95 320.71"/><path class="cls-1" d="M1186.84,1162.45l-210.12,93a46.18,46.18,0,0,0,7.72-4.31,44,44,0,0,0,6.56-5.61,45.65,45.65,0,0,0,5.42-6.91,53.46,53.46,0,0,0,4.29-8.21l211.4-94.64a57,57,0,0,1-4.49,8.78,47.63,47.63,0,0,1-5.7,7.38,44.43,44.43,0,0,1-6.93,6A47.82,47.82,0,0,1,1186.84,1162.45Z" transform="translate(-51.13 -113.13)"/><g class="cls-6"><g class="cls-4"><path class="cls-1" d="M1186.84,1162.45l-210.11,93a46.48,46.48,0,0,0,7.71-4.31,44,44,0,0,0,6.56-5.61,45.65,45.65,0,0,0,5.42-6.91,53.46,53.46,0,0,0,4.29-8.21l211.4-94.64a57,57,0,0,1-4.49,8.78,47.63,47.63,0,0,1-5.7,7.38,44.43,44.43,0,0,1-6.93,6,47.82,47.82,0,0,1-8.15,4.58" transform="translate(-51.13 -113.13)"/></g></g><polygon class="cls-1" points="516.3 285.05 347.98 435.42 360.91 241.42 528.94 77.04 516.3 285.05"/><polygon class="cls-1" points="423.39 188 261.37 345.94 256.86 344.87 418.57 186.8 423.39 188"/><polygon class="cls-1" points="336.4 264.47 179.53 418 205.37 227.8 362.95 60.52 336.4 264.47"/><polygon class="cls-1" points="544.24 1010.65 370.38 1109.97 371.3 1062.88 544.93 959.94 544.24 1010.65"/><polygon class="cls-1" points="544.93 959.94 371.3 1062.88 343.46 1061.13 515.18 957.85 544.93 959.94"/><rect class="cls-1" x="780.04" y="594.49" width="34.65" height="61.05"/><path class="cls-1" d="M1212.11,1135.73a114.21,114.21,0,0,0,4.52-13.58c.6-2.23,1.19-4.52,1.74-7a254.88,254.88,0,0,0,4.37-26.65c.49-4.19.9-8.61,1.27-13.16.51-6.2.93-12.71,1.23-19.59.16-3.71.28-7.56.38-11.47q.26-9.42.26-19.6c0-2.54,0-5.08,0-7.7s0-5.16-.09-7.71q-.23-14.67-.91-27.8c0-1-.1-2.12-.15-3.14-.57-10.1-1.35-19.45-2.33-28.14-.17-1.55-.34-3.11-.53-4.62q-.91-7.46-2.06-14.17t-2.49-12.71a152.82,152.82,0,0,0-5.13-18c-.37-1-.73-2.08-1.12-3.07a67.24,67.24,0,0,0-3.45-7.25,59,59,0,0,0-5.89-8.86,57.25,57.25,0,0,0-12.11-11.11c-.48-.33-.93-.68-1.42-1a69.6,69.6,0,0,0-14.53-7c-1.07-.38-2.12-.76-3.23-1.1a93.08,93.08,0,0,0-9.17-2.28c-3-.61-6.2-1.1-9.48-1.47-1.12-.13-2.22-.27-3.37-.37q-3.29-.3-6.42-.4t-6.11,0a83.72,83.72,0,0,0-11.32,1c-.4.07-.78.17-1.17.24-1.61.29-3.18.62-4.7,1s-2.88.76-4.25,1.22-2.73,1-4,1.56a50.19,50.19,0,0,0-4.83,2.35l-165.3,92.57L902.1,978.15h0c1-.55,2-1,3-1.51.5-.24,1-.48,1.5-.7,1.25-.54,2.53-1.05,3.86-1.5a62.18,62.18,0,0,1,9.54-2.37c1.33-.23,2.72-.39,4.1-.54l1.62-.18c1.62-.14,3.27-.26,5-.31.94,0,1.92,0,2.88,0,2.88,0,5.83.07,8.92.31a107.32,107.32,0,0,1,15.92,2.4c1.64.39,3.24.81,4.8,1.28,1.36.4,2.68.85,4,1.31.91.32,1.78.68,2.66,1a65.56,65.56,0,0,1,6.81,3.19c1.1.61,2.2,1.23,3.25,1.9a52.37,52.37,0,0,1,12,10.62c.18.21.47.34.65.57a53.93,53.93,0,0,1,5.27,7.81,59.5,59.5,0,0,1,3.42,7.14,114.49,114.49,0,0,1,3.67,11.25c.42,1.5.82,3,1.21,4.63.3,1.22.59,2.42.87,3.68s.61,2.89.9,4.36q1.13,5.71,2.06,12.09c.41,2.78.8,5.62,1.15,8.58q1.65,13.89,2.48,30.52c.13,2.57.23,5.2.33,7.87q.49,13.26.5,28.14c0,3.86,0,7.62-.08,11.31-.12,8.73-.37,17-.77,24.82q-.65,12.51-1.76,23.42c-.26,2.42-.52,4.79-.81,7.1-.5,4-1.06,7.82-1.67,11.47-.79,4.76-1.66,9.24-2.63,13.38a129.77,129.77,0,0,1-4.58,15.47c-.47,1.27-.95,2.51-1.45,3.69h0Z" transform="translate(-51.13 -113.13)"/><path class="cls-1" d="M2629.25,709.88a86.68,86.68,0,0,0-2.14-15.15,74.61,74.61,0,0,0-4.71-13.83,71.12,71.12,0,0,0-7.28-12.5,78,78,0,0,0-9.87-11.14,101,101,0,0,0-11.57-9.35,88.94,88.94,0,0,0-12.33-7.14,84.32,84.32,0,0,0-13.12-4.94,89.25,89.25,0,0,0-23.22-3.31,71.75,71.75,0,0,0-8.67.48,59.73,59.73,0,0,0-8,1.5q-1.93.51-3.78,1.14c-1.24.42-2.45.88-3.63,1.39l-274,117.05a52.66,52.66,0,0,1,7.11-2.44,58,58,0,0,1,7.7-1.48,67.19,67.19,0,0,1,8.29-.52,86,86,0,0,1,22.17,2.9,81.09,81.09,0,0,1,12.5,4.53,83.05,83.05,0,0,1,11.73,6.61,93.9,93.9,0,0,1,11,8.69,71.55,71.55,0,0,1,9.34,10.39,65.84,65.84,0,0,1,6.84,11.68,68,68,0,0,1,4.36,13,79.15,79.15,0,0,1,1.9,14.22,81,81,0,0,1-.44,13.19,71.31,71.31,0,0,1-2.57,12.44,69.34,69.34,0,0,1-4.72,11.7,74.24,74.24,0,0,1-6.93,11q-4,5.26-8.44,10.22t-9.27,9.62q-4.84,4.66-10.08,9t-10.87,8.33q-5.68,4-11.38,7.79T2273.69,922q-5.71,3.42-11.46,6.49t-11.55,5.79q-5.74,2.79-10.85,5.29t-9.54,4.72q-4.45,2.22-8.22,4.17t-6.85,3.63q-7.68,3.95-14.54,8.2c-.81.5-1.56,1-2.35,1.53l65.32-555-683.51-88.57-315.56-40.44L252,148.12,104.88,318.89l27.91,310L900.86,703,1114,723.57l133.91,119.17L1252,1347.5l-.51.1c-7.28,1.38-14.76,2.56-22.51,3.49q-12,1.42-24.74,2.11-4.17.22-8.4.38c-1.49.05-3,.12-4.46.16l-.91,0q-19.26.45-40.13-.66c-8.52-.46-16.85-1.12-25-1.93-2.08-.21-4.15-.42-6.21-.65q-21.51-2.41-41.31-6.49a345.31,345.31,0,0,1-61.8-18.63l-.74-.3a259.32,259.32,0,0,1-52.23-28.86,225.1,225.1,0,0,1-33.75-30.42c-2.61-2.83-5.47-5.43-7.93-8.39a247.25,247.25,0,0,1-31.89-49.76A337.62,337.62,0,0,1,866.85,1146a478.13,478.13,0,0,1-11.52-58.45c-.34-2.48-.67-5-1-7.49s-.61-4.89-.88-7.38q-2.73-24.59-3.65-51.41-.57-16.26-.48-33.34a713.71,713.71,0,0,1,4.95-83.42,469.14,469.14,0,0,1,10.46-57.25c1.08-4.3,2.2-8.54,3.39-12.66,1.08-3.71,2.21-7.33,3.38-10.9a272.22,272.22,0,0,1,19.31-45.61c9-16.6-100.68,37.62-100.68,37.62l-32,20.75-.41.28c-1.11.72-2.17,1.5-3.26,2.24L740,836.57q-29.75-5-54.56-8.69t-44.77-6.28q-19.92-2.54-34.8-3.83t-27.13-2q-12.33-.75-22.11-1c-6.52-.12-12.19-.06-17,.19a80.11,80.11,0,0,0-11.76,1.35q-4.64,1-8.8,2.12t-7.87,2.49q-3.69,1.32-6.92,2.81a66.34,66.34,0,0,0-6,3.1l-.44.27-.44.28-.43.29-.43.31S366.43,936.9,370.92,936.62s9.8-.37,15.91-.3,13,.3,20.7.7,16.17,1,25.42,1.69,20.15,1.83,32.59,3.3,26.41,3.29,41.94,5.49l.56.08-111.36,74.84-2.09,151.85L566.31,1071l.94-114.43q9.88,1.58,20.31,3.27,15,2.46,31.21,5.18L691,919.28q-4.89,11.25-9,23.63c-1,3.12-2.05,6.27-3,9.49a415.16,415.16,0,0,0-13.22,63.74c-.07.48-.14,1-.2,1.44q-2.87,21.93-4.14,46.21-.81,15.26-1,31.44-.24,20.83.59,40.36c0,.29,0,.58,0,.86q.4,9.27,1.06,18.25c0,.33,0,.66.07,1q.69,9.33,1.63,18.33,2.16,20.49,5.7,39.25c1.87,10,4,19.59,6.44,28.83a308.57,308.57,0,0,0,20.91,57.15q3,6.06,6.19,11.8-22.92,1.83-43.75,3.1l-8.18.48q-33.36,1.88-61,2.23-6.93.09-13.49.08-19.68,0-36.07-.9-20-1.1-38.65-3.15l-3.72-.4q-20.43-2.35-39.25-5.9-17.82-3.35-34.2-7.78l-1.92-.51q-17.28-4.74-33-10.71c-3.69-1.4-7.28-2.89-10.83-4.42q-9.79-4.22-18.89-9.07a219.21,219.21,0,0,1-21-12.87c-1.78-1.24-3.55-2.48-5.28-3.76l0,0c-5.1-3.78-9.57-8.14-14.22-12.34-2.82-2.53-6-4.77-8.6-7.45-1.32-1.34-2.59-2.71-3.86-4.08q-6.21-6.67-11.75-13.94c-1.27-1.65-2.52-3.32-3.73-5q-7.65-10.63-14.21-22c-.65-1.14-1.33-2.27-2-3.42-.35-.62-.67-1.25-1-1.87q-3.37-6.15-6.46-12.51t-5.89-13q-2.91-6.88-5.46-14c-.35-1-.69-2-1-3-1.42-4.08-2.78-8.19-4-12.38a318.17,318.17,0,0,1-7.64-31.28c-.62-3.2-1.2-6.48-1.76-9.8q-2-11.68-3.51-24.37c-.63-5.3-1.19-10.75-1.71-16.31-.65-7.12-1.22-14.42-1.68-22q-1.25-20.15-1.54-42.33-.23-17.1.09-35.42c.07-3.6.14-7.22.24-10.89q.31-12.51.93-24.5Q236.79,880,241.07,849q1.63-11.87,3.65-23.05A453.43,453.43,0,0,1,256.91,774c2.06-6.84,4.29-13.41,6.63-19.76s4.8-12.41,7.41-18.24q4.95-11,10.54-20.91a193.23,193.23,0,0,1,20.23-29.27,163,163,0,0,1,13-13.78l1.09-1,1.1-1,1.12-1,1.12-1-.18.16.18-.16L165.37,801.88l-1.06.93-1,.93-1,.94-1,1a154.6,154.6,0,0,0-14.56,15.74,186.26,186.26,0,0,0-16.72,24.52q-13.64,23.8-23.23,54.9a457.24,457.24,0,0,0-15.11,69.66q-4.84,33.79-6.53,73.26-.24,5.6-.41,11.29-.34,11.22-.47,22t0,21q.18,20.55,1.25,39.23t3,35.47q1.94,16.78,4.76,31.63a290.58,290.58,0,0,0,7,29,265.3,265.3,0,0,0,9.68,27.13q1.38,3.27,2.84,6.5,4.38,9.66,9.51,18.81l.64,1.11a245,245,0,0,0,14.34,22.38c3.18,4.43,6.56,8.67,10.12,12.76,2.52,2.9,5.11,5.74,7.83,8.47l0,0a179.74,179.74,0,0,0,21.18,18.18l0,0a198.13,198.13,0,0,0,24.49,15.27,231.77,231.77,0,0,0,23.23,10.6c1.48.58,2.95,1.17,4.45,1.73,4.27,1.59,8.66,3.09,13.12,4.54q3.92,1.26,7.92,2.45c3.19,1,6.42,1.88,9.71,2.76q16.1,4.3,33.71,7.49,5.19.93,10.52,1.77,12.7,2,26.14,3.49,15,1.62,30.86,2.57c2.9.18,5.8.34,8.74.49q3.25.15,6.65.27,17.92.63,39.71.23,11.61-.21,24.32-.73,15.58-.61,32.78-1.67,31.15-1.92,67.57-5.26,24.87-2.3,52.2-5.24,12.51-1.35,25.52-2.84l103.78-47.12q2.32,3,4.74,5.87a205.68,205.68,0,0,0,38.82,35.77l.08.06a241.31,241.31,0,0,0,48.91,26.55q12.48,5.07,26,9.14Q856,1421.56,873,1425q7.57,1.52,15.43,2.75,17.16,2.73,35.64,4.21,8.43.67,17.11,1.1,20.1,1,38.62.38t35.43-2.66c8-1,15.8-2.26,23.31-3.76,3-.61,6-1.24,9-1.93a246.61,246.61,0,0,0,29.13-8.7l175.48-64.83.69,84.6,367.3,17.85,30.65-9.15.23,10.65,181.48,8.81,260.86-72.46,217.82-238.09,281.35-90.49-189.58-15.48q-.36-7.53-.55-15t-.24-14.89q0-7.41.08-14.78t.38-14.66q.27-7.23,1-14.27t2-13.85q1.24-6.81,2.93-13.4t3.83-12.91q2.13-6.33,4.91-12.48t6.17-12.11q3.4-6,7.42-11.73t8.65-11.33a129.8,129.8,0,0,1,10.08-10.75,147.81,147.81,0,0,1,11.75-10q6.3-4.83,13.44-9.31t15.13-8.62h0q3.21-1.77,7.13-3.81t8.56-4.37q4.64-2.33,10-4.94t11.29-5.55q6-2.85,12-6.07t11.92-6.8q5.94-3.57,11.86-7.51t11.82-8.19q5.85-4.2,11.28-8.77t10.44-9.48q5-4.92,9.58-10.16t8.72-10.8a78.45,78.45,0,0,0,7.12-11.64,73.39,73.39,0,0,0,4.81-12.41,76.75,76.75,0,0,0,2.55-13.21A89.31,89.31,0,0,0,2629.25,709.88Z" transform="translate(-51.13 -113.13)"/><polygon class="cls-1" points="2361.93 1071.89 2087.53 1155.91 2095.95 1379.84 2278.63 1388.53 2564.7 1321.42 2373.13 1311.14 2361.93 1071.89"/><rect class="cls-1" x="2213.9" y="1059.79" width="35.48" height="32.18"/><rect class="cls-1" x="2246.9" y="673.69" width="27.23" height="88.28"/><path class="cls-7" d="M2791.6,601.16A289.33,289.33,0,0,1,2803.06,630q5.08,15.08,8.88,31.43t6.28,34q2.49,17.65,3.65,36.59,1,16.34.69,31.81T2820.61,794q-1.62,14.65-4.55,28.47a262.59,262.59,0,0,1-7.14,26.81,164.62,164.62,0,0,1-25.24,48.3,182.78,182.78,0,0,1-18.84,21.24,217.27,217.27,0,0,1-23.1,19.36q-6.15,4.62-12.38,8.88t-12.6,8.16q-6.37,3.91-12.85,7.48t-13.13,6.83q-6.59,3.19-12.92,6.44t-12.41,6.54q-6.09,3.29-11.92,6.6t-11.42,6.63q-5.62,3.39-10.75,6.89t-9.69,7.15q-4.59,3.65-8.64,7.43t-7.58,7.73a50.69,50.69,0,0,0-6.11,8.21,48.33,48.33,0,0,0-4.21,9.12,50.67,50.67,0,0,0-2.3,10,60.48,60.48,0,0,0-.37,10.92l-189.58-15.48q-.36-7.53-.55-15t-.24-14.89q0-7.41.08-14.78t.38-14.66q.27-7.23,1-14.27t2-13.85q1.24-6.81,2.93-13.4t3.83-12.91q2.13-6.33,4.91-12.48t6.17-12.11q3.4-6,7.42-11.73t8.65-11.33a129.8,129.8,0,0,1,10.08-10.75,147.81,147.81,0,0,1,11.75-10q6.3-4.83,13.43-9.31t15.14-8.62q3.21-1.77,7.13-3.81t8.56-4.37q4.64-2.33,10-4.94t11.29-5.55q6-2.85,12-6.07t11.92-6.8q5.94-3.57,11.86-7.51t11.82-8.19q5.85-4.2,11.28-8.77t10.44-9.48q5-4.92,9.58-10.16t8.72-10.8a78.45,78.45,0,0,0,7.12-11.64,73.39,73.39,0,0,0,4.81-12.41,76.75,76.75,0,0,0,2.55-13.21,89.31,89.31,0,0,0,.31-14,86.68,86.68,0,0,0-2.14-15.15,74.61,74.61,0,0,0-4.71-13.83,71.48,71.48,0,0,0-7.28-12.5,78,78,0,0,0-9.87-11.14,101,101,0,0,0-11.57-9.35,88.94,88.94,0,0,0-12.33-7.14,84.32,84.32,0,0,0-13.12-4.94,86.1,86.1,0,0,0-13.9-2.73,84.31,84.31,0,0,0-10.35-.57,68.11,68.11,0,0,0-9.54.72,57.67,57.67,0,0,0-8.76,2,51,51,0,0,0-8,3.27,82.58,82.58,0,0,0-7.3,4.21,81.07,81.07,0,0,0-6.72,4.82c-2.14,1.72-4.2,3.53-6.16,5.45s-3.84,3.93-5.63,6-3.53,4.18-5.18,6.32-3.24,4.3-4.74,6.49-2.94,4.41-4.3,6.65-2.63,4.51-3.83,6.8-2.38,4.48-3.55,6.57-2.33,4.09-3.48,6-2.3,3.71-3.43,5.42-2.26,3.33-3.38,4.85L2306,571.38a263.8,263.8,0,0,1,16.55-38,218.34,218.34,0,0,1,21.29-32.57,197.89,197.89,0,0,1,56.58-48.84,212.77,212.77,0,0,1,34.13-16,217.9,217.9,0,0,1,36.58-9.78,243.24,243.24,0,0,1,39-3.61,293,293,0,0,1,41.47,2.49q11.25,1.47,22.59,3.86t22.75,5.72q11.4,3.31,22.92,7.55t23.11,9.37q11.61,5.21,22.7,11.39t21.66,13.38q10.57,7.17,20.65,15.36T2727.67,509A268,268,0,0,1,2746,528.68q8.78,10.37,16.77,21.88T2778,574.71Q2785.18,587.36,2791.6,601.16Z" transform="translate(-51.13 -113.13)"/><polygon class="cls-7" points="2373.13 1311.14 2361.92 1071.89 2552.17 1085.49 2564.7 1321.42 2373.13 1311.14"/><polygon class="cls-7" points="2208.66 292.3 2212.05 371.38 2108.04 358.66 2109.01 383.33 2190.11 393.1 2193.43 472.13 2112.13 462.81 2113.16 488.96 2217.59 500.74 2221.03 581.15 2024.97 560.18 2014.37 267.4 2208.66 292.3"/><polygon class="cls-7" points="1990.78 264.38 2001.17 557.63 1908.42 547.71 1905.07 443.95 1852.23 437.9 1855.41 542.04 1760.67 531.91 1752.54 233.84 1846.37 245.87 1849.68 354.32 1902.38 360.67 1898.89 252.6 1990.78 264.38"/><polygon class="cls-7" points="2217.53 688.05 2224.66 855.45 2026.34 838.25 2029.85 935.98 2181.68 948.08 2188.68 1118.86 2036.05 1108.62 2042.16 1278.68 1850.86 1268.2 1832.55 649.92 2217.53 688.05"/><polygon class="cls-7" points="1736.28 231.76 1738.51 315.34 1684.96 308.79 1690.33 524.39 1593.34 514.01 1588.64 297.02 1530.68 289.94 1529.01 205.2 1736.28 231.76"/><polygon class="cls-7" points="1429.92 192.5 1431.31 277.79 1375.57 270.98 1378.74 491.06 1277.19 480.2 1274.77 258.66 1214.21 251.26 1213.45 164.76 1429.92 192.5"/><polygon class="cls-7" points="1618.74 628.74 1628.79 1076.64 1813.22 1089.08 1818.28 1266.42 1429.86 1245.14 1419.86 609.04 1618.74 628.74"/><path class="cls-7" d="M1221.9,272.42l69.35,316.94L1187,578.21l-8.68-37-69-7.55-7.06,35.5L998,558l67.14-305.66ZM1122.54,452.3l44.51,5.12L1150.36,347l-11.13-1.36L1122.54,452.3" transform="translate(-51.13 -113.13)"/><polygon class="cls-7" points="935.39 129.12 935.18 443.62 827.46 432.09 827.95 320.71 766.56 313.68 765.84 425.5 655.64 413.72 658.89 93.69 767.88 107.66 767.13 223.99 828.33 231.36 828.83 115.47 935.39 129.12"/><path class="cls-7" d="M1365,776.75a247.32,247.32,0,0,1,29.92,47.51,338.26,338.26,0,0,1,21.71,58.54,495.4,495.4,0,0,1,13.54,69.76,737.4,737.4,0,0,1,5.36,81.26,725.06,725.06,0,0,1-3,81,458.1,458.1,0,0,1-11.7,68.87,291.5,291.5,0,0,1-20.41,56.6,198.49,198.49,0,0,1-29.22,44.25,176.69,176.69,0,0,1-38.94,32.87,212.56,212.56,0,0,1-49.63,22.47,304,304,0,0,1-60.52,11.93,468.37,468.37,0,0,1-71.63,1.24,488.12,488.12,0,0,1-72.53-9.07,343.84,343.84,0,0,1-62.54-18.93,259.32,259.32,0,0,1-52.23-28.86,224.25,224.25,0,0,1-41.68-38.81,247.25,247.25,0,0,1-31.89-49.76A338.36,338.36,0,0,1,866.85,1146a496.8,496.8,0,0,1-13.38-73.32A735.6,735.6,0,0,1,849.34,988a713.71,713.71,0,0,1,4.95-83.42,448.35,448.35,0,0,1,13.85-69.91,282.6,282.6,0,0,1,22.69-56.51,194,194,0,0,1,31.43-43.24A175,175,0,0,1,963.2,704a215.65,215.65,0,0,1,51.16-19.76,311.79,311.79,0,0,1,61.19-8.74,479.9,479.9,0,0,1,71,2.17A493.61,493.61,0,0,1,1217,689.58a346.14,346.14,0,0,1,59.67,20.5,260.24,260.24,0,0,1,49.25,29.06A224.13,224.13,0,0,1,1365,776.75Zm-152.84,359a128.34,128.34,0,0,0,6.26-20.53,254.65,254.65,0,0,0,4.37-26.66q1.73-14.83,2.5-32.74t.62-38.77q-.15-20.79-1.15-38.65t-2.86-32.76q-1.85-14.89-4.55-26.88a145.47,145.47,0,0,0-6.25-21,61.43,61.43,0,0,0-9.34-16.11,57.46,57.46,0,0,0-13.53-12.11,70.86,70.86,0,0,0-17.76-8.11,106.13,106.13,0,0,0-22-4.12,98.46,98.46,0,0,0-22.13.33,60.54,60.54,0,0,0-18,5.22,46.39,46.39,0,0,0-13.85,10.13,51.6,51.6,0,0,0-9.63,15,124,124,0,0,0-6.65,20.44,242.3,242.3,0,0,0-4.69,26.41q-1.86,14.7-2.75,32.39t-.85,38.4q0,20.73,1,38.65t2.91,33.07a267.53,267.53,0,0,0,4.84,27.45,145.39,145.39,0,0,0,6.8,21.79,64.72,64.72,0,0,0,9.77,16.76,58.19,58.19,0,0,0,14,12.42,69.94,69.94,0,0,0,18.13,8.08,103.67,103.67,0,0,0,22.23,3.77,99.38,99.38,0,0,0,22.09-.78,59.39,59.39,0,0,0,17.75-5.55,45.55,45.55,0,0,0,13.49-10.36,52.32,52.32,0,0,0,9.29-15.18" transform="translate(-51.13 -113.13)"/><polygon class="cls-7" points="640.41 91.32 601.28 407.9 436.02 390.23 423.39 188 418.57 186.8 398.12 386.17 232.29 368.44 200.84 34.99 316.08 49.76 327.44 263.44 336.4 264.47 362.95 60.52 486.43 76.31 507.55 284.05 516.3 285.05 528.94 77.04 640.41 91.32"/><path class="cls-7" d="M559.08,619q12.51,1.25,25.78,3.12t27.26,4.33q14,2.46,28.75,5.49t30.25,6.62q15.48,3.66,29.35,7.1t26.09,6.67q12.23,3.23,22.86,6.22t19.65,5.76l36.23,12.5-1.16,170.85q-34.49-6.14-64.15-11.08t-54.56-8.69q-24.88-3.75-44.77-6.28t-34.8-3.83q-14.8-1.29-27.13-2t-22.11-1c-6.52-.12-12.19-.06-17,.19a80.11,80.11,0,0,0-11.76,1.35q-4.64,1-8.8,2.12t-7.87,2.49q-3.69,1.32-6.92,2.81a66.34,66.34,0,0,0-6,3.1,24.31,24.31,0,0,0-5.28,4.29,34.45,34.45,0,0,0-4.51,6.14,52.53,52.53,0,0,0-3.75,8,82,82,0,0,0-3,9.83,185.21,185.21,0,0,0-3.42,18.33q-1.51,10.67-2.64,24.33t-1.87,30.36q-.75,16.71-1.1,36.43t.47,37q.83,17.21,2.83,31.84a222,222,0,0,0,5.19,26.61,126.76,126.76,0,0,0,7.55,21.3,63.38,63.38,0,0,0,11.1,16.65,64.82,64.82,0,0,0,15.84,12.39,86,86,0,0,0,20.54,8.16,133.86,133.86,0,0,0,25.21,3.94l33.87,1.4.69-50.71L566.31,1071l1.34-163.46L808.53,927l-2.48,374.12q-44.14,4.85-82.85,8.21t-72.1,5.26q-33.36,1.88-61,2.23t-49.56-.82q-22-1.2-42.37-3.55t-39.25-5.9q-18.85-3.54-36.12-8.29t-33-10.71a251.29,251.29,0,0,1-29.72-13.48,216.53,216.53,0,0,1-26.31-16.64A194.87,194.87,0,0,1,311,1237.65a189.87,189.87,0,0,1-19.35-23,267.57,267.57,0,0,1-16.17-25.45,272.21,272.21,0,0,1-13.36-27.4,288.73,288.73,0,0,1-10.52-29.35,318.17,318.17,0,0,1-7.64-31.28q-3.1-16.05-5.27-34.17t-3.39-38.28q-1.25-20.15-1.54-42.33t.33-46.31a826.89,826.89,0,0,1,7-91.08q5.72-41.44,15.83-74.93t24.59-58.91q14.46-25.44,33.26-43a176.55,176.55,0,0,1,43.56-29.66,242.86,242.86,0,0,1,55.41-18.68,376.94,376.94,0,0,1,67-7.77A597.37,597.37,0,0,1,559.08,619Z" transform="translate(-51.13 -113.13)"/></svg>