<?xml version="1.0" encoding="UTF-8" standalone="no"?>
<!-- Generator: Adobe Illustrator 16.0.0, SVG Export Plug-In . SVG Version: 6.00 Build 0)  -->

<svg
   xmlns:dc="http://purl.org/dc/elements/1.1/"
   xmlns:cc="http://creativecommons.org/ns#"
   xmlns:rdf="http://www.w3.org/1999/02/22-rdf-syntax-ns#"
   xmlns:svg="http://www.w3.org/2000/svg"
   xmlns="http://www.w3.org/2000/svg"
   xmlns:sodipodi="http://sodipodi.sourceforge.net/DTD/sodipodi-0.dtd"
   xmlns:inkscape="http://www.inkscape.org/namespaces/inkscape"
   version="1.1"
   id="Layer_1"
   x="0px"
   y="0px"
   width="640"
   height="124.732"
   viewBox="0 0 640 124.732"
   enable-background="new 0 0 842 595"
   xml:space="preserve"
   sodipodi:docname="Mutazione_Name_white.svg"
   inkscape:version="0.92.4 (5da689c313, 2019-01-14)"><metadata
   id="metadata41"><rdf:RDF><cc:Work
       rdf:about=""><dc:format>image/svg+xml</dc:format><dc:type
         rdf:resource="http://purl.org/dc/dcmitype/StillImage" /><dc:title></dc:title></cc:Work></rdf:RDF></metadata><defs
   id="defs39" /><sodipodi:namedview
   pagecolor="#ffffff"
   bordercolor="#666666"
   borderopacity="1"
   objecttolerance="10"
   gridtolerance="10"
   guidetolerance="10"
   inkscape:pageopacity="0"
   inkscape:pageshadow="2"
   inkscape:window-width="1920"
   inkscape:window-height="1137"
   id="namedview37"
   showgrid="false"
   inkscape:zoom="0.9540063"
   inkscape:cx="260.68573"
   inkscape:cy="293.59842"
   inkscape:window-x="-8"
   inkscape:window-y="-8"
   inkscape:window-maximized="1"
   inkscape:current-layer="Layer_1" />
<g
   id="Background"
   transform="translate(0,-470.268)">
</g>
<g
   id="Guides"
   transform="translate(0,-470.268)">
</g>
<g
   id="sketch"
   display="none"
   style="display:none"
   transform="translate(0,-470.268)">
</g>
<g
   id="black"
   transform="translate(0,-470.268)">
</g>
<g
   id="bg"
   transform="translate(0,-470.268)">
</g>
<g
   id="g27"
   transform="matrix(1.0604577,0,0,1.0604577,-126.19755,-249.85103)">
	<path
   d="m 499.766,277.301 c 0.272,-2.454 -4.364,-3.272 -4.638,-1.637 -0.273,1.637 -1.092,6.001 -1.092,6.001 0,0 -0.817,-6.547 -0.817,-8.183 0,-1.636 -3.819,-1.636 -6.274,-1.091 -2.454,0.546 -4.364,2.455 -4.364,4.637 0,2.182 0.273,11.184 0,15.275 -0.272,4.092 -0.272,9.001 -0.272,10.638 0,1.637 0.272,34.37 0,36.825 -0.272,2.455 1.092,6.82 2.183,7.092 1.091,0.273 1.364,-4.637 1.364,-4.637 0,0 2.182,0.546 2.182,2.455 0,1.91 1.909,4.092 1.909,4.092 0,0 3.001,0.454 4.092,0.182 1.092,-0.272 5.184,0 5.729,-1.363 0.546,-1.364 0.818,-5.093 0.818,-6.456 0,-1.364 -0.584,-43.634 -0.584,-46.906 -0.002,-3.274 -0.509,-14.469 -0.236,-16.924 z"
   id="path7"
   inkscape:connector-curvature="0"
   style="fill:#f7f7f4" />
	<path
   d="m 502.532,236.741 c -2.21,-0.982 -7.61,-1.719 -9.819,-0.491 -1.178,0.654 -2.493,1.657 -3.683,2.701 0,0.115 -0.021,0.23 -0.059,0.349 -0.56,0.656 -1.028,1.358 -1.337,2.074 -0.468,0.687 -1.009,1.561 -1.55,2.732 -1.474,3.19 -0.982,4.419 -0.982,6.628 0,2.209 0.982,4.664 1.228,2.7 0.204,-1.624 0.982,-4.173 1.479,-4.909 0.035,0.484 1.022,1.956 0.977,2.455 -0.245,2.7 -1.473,5.4 0,6.137 1.474,0.737 4.91,2.319 6.874,2.811 1.965,0.489 4.662,-1.093 6.626,-3.057 1.965,-1.964 3.192,-6.874 3.684,-10.064 0.491,-3.192 -1.228,-9.084 -3.438,-10.066 z"
   id="path9"
   inkscape:connector-curvature="0"
   style="fill:#f7f7f4" />
	<path
   d="m 216.144,265.606 -2.065,-2.438 c 0,0 -1.778,1.155 -2.438,2.066 -0.659,0.91 -2.646,2.968 -2.22,1.612 0.426,-1.357 1.948,-4.307 1.948,-4.307 l -3.438,-3.761 c 0,0 -1.783,0.931 -2.433,2.291 -0.651,1.36 -3.281,5.227 -4.603,6.824 -1.32,1.596 -4.503,6.381 -6.201,8.928 -1.005,1.508 -5.197,7.585 -6.515,9.406 -1.317,1.82 -12.837,17.209 -15.033,20.17 -0.881,1.188 -2.632,3.755 -4.499,6.476 -0.045,-0.082 -0.081,-0.149 -0.1,-0.192 -0.576,-1.269 -11.285,-16.753 -13.094,-19.222 -1.812,-2.468 -10.007,-15.116 -10.007,-15.116 0,0 -6.513,-9.282 -7.526,-10.505 -0.254,-0.307 -0.644,-0.837 -1.085,-1.458 -0.042,-3.28 -0.069,-5.823 -1.082,-6.142 -1.276,-0.401 -4.939,-0.616 -6.635,-0.797 -1.696,-0.182 -0.946,2.951 -2.011,2.546 -1.064,-0.404 -1.813,-2.683 -1.813,-2.683 0,0 -4.412,0.118 -4.609,0.968 -0.196,0.849 0.066,5.458 0.092,6.938 0.026,1.48 -0.172,14.391 -0.172,14.391 0,0 -1.312,-2.517 -1.503,-1.243 -0.188,1.272 0.207,11.845 0.01,12.693 -0.196,0.851 -0.114,41.895 0.135,44.006 0.249,2.112 -0.636,12.071 0.014,12.906 0.65,0.835 5.737,1.381 7.429,1.351 1.692,-0.029 0.769,-4.457 1.589,-5.952 0.82,-1.496 0.875,1.677 0.905,3.369 0.03,1.692 0.271,3.381 1.324,3.15 1.054,-0.23 3.826,0.99 4.223,-0.497 0.397,-1.488 0.146,-3.812 0.798,-2.765 0.653,1.046 -0.167,2.542 0.898,2.946 1.065,0.404 1.881,-1.302 1.881,-1.302 0,0 -0.204,0.429 -0.245,-1.897 -0.041,-2.325 -0.608,-34.898 -0.624,-35.745 -0.011,-0.647 -0.334,-12.06 -0.5,-18.24 2.329,3.686 4.24,6.789 4.553,7.413 0.841,1.684 15.491,25.17 16.506,26.393 1.015,1.222 4.553,7.495 5.083,8.325 0.529,0.83 3.043,3.667 3.596,4.716 0.553,1.049 2.985,5.223 4.23,4.428 1.245,-0.795 5.628,-5.464 6.85,-6.479 1.222,-1.016 -1.982,-6.214 -1.982,-6.214 l 1.107,-2.11 c 0,0 3.35,2.703 3.88,3.533 0.53,0.83 0.253,-1.811 0.253,-1.811 0,0 -1.229,-1.927 -2.915,-4.578 0.072,-0.097 0.142,-0.183 0.214,-0.282 1.976,-2.732 5.641,-7.568 6.298,-8.479 0.658,-0.911 5.702,-8.191 6.581,-9.332 0.424,-0.55 4.417,-6.588 8.582,-12.813 -0.141,2.832 -0.403,5.925 -0.377,7.434 0.038,2.159 -0.057,9.069 -0.008,11.875 0.049,2.806 0.239,6.316 0.288,9.122 0.049,2.806 0,9.157 0.077,11.813 0.053,1.844 0.692,2.578 0.507,4.309 -0.186,1.731 0.135,5.353 0.158,6.648 0.021,1.295 3.039,3.008 5.197,2.97 2.157,-0.038 1.979,-7.92 2.475,-2.97 0.215,2.146 0.559,3.999 2.717,3.962 2.158,-0.037 2.359,-0.905 4.317,-0.075 1.957,0.829 2.866,-3.641 2.371,-6.115 0,0 0.293,-9.043 0.25,-11.631 -0.045,-2.59 -0.461,-24.293 -0.495,-26.235 -0.035,-1.942 -0.431,-20.825 -0.248,-22.771 0.181,-1.946 0.206,-8.118 -0.248,-9.405 -0.319,-0.904 -1.24,-1.719 -2.06,-2.052 1.647,-3.189 3.084,-6.068 3.28,-6.374 0.439,-0.681 -1.832,-1.99 -1.832,-1.99 z"
   id="path11"
   inkscape:connector-curvature="0"
   style="fill:#f7f7f4" />
	<path
   d="m 283.056,291.071 c 0,-1.25 -1.75,-2 -3.5,-2 -1.75,0 -4.75,0 -4.75,0 0,0 -0.5,5.75 -0.5,7 0,1.25 -2,-3 -2,-4.75 0,-1.75 -0.25,-2.75 -1.5,-2.5 -1.25,0.25 -4.306,-1.096 -4.056,0.904 0.25,2 0.75,16 0.5,19.5 -0.25,3.5 -0.194,13.846 -2.694,16.846 -2.5,3 -8.352,3.546 -10.806,0.904 -3.25,-3.5 -3.187,-11.503 -3.5,-17.25 -0.307,-5.596 -0.25,-18.5 -0.25,-22.5 0,-1.521 0.25,-9.5 -1.5,-10.25 -1.75,-0.75 -5.194,-0.654 -5.194,-0.654 l -3,0.75 -1,4.75 c 0,0 -1.5,-0.5 -1.5,-2.25 0,-1.75 -1,-2.25 -2.75,-2.25 -1.75,0 -2.056,3.654 -2.056,7.404 0,3.75 0.438,34.75 0.5,38 0.25,13 6.556,17.846 12.056,20.846 5.5,3 20.75,1.75 23.5,0.5 2.75,-1.25 8.25,-5.25 11,-10.75 2.75,-5.5 4.25,-20.5 3.75,-24.75 -0.5,-4.25 -0.75,-16.25 -0.75,-17.5 z"
   id="path13"
   inkscape:connector-curvature="0"
   style="fill:#f7f7f4" />
	<path
   d="m 324.582,276.872 c 1.245,0 15.438,0.747 16.931,0.498 1.493,-0.249 2.988,-2.983 2.988,-4.478 0,-1.495 -4.481,-1.494 -5.479,-1.494 -0.998,0 -1.992,-1.743 0,-1.743 1.992,0 3.735,0 4.979,0 1.245,0 1.245,-4.98 0.249,-5.229 -0.996,-0.248 -4.73,-0.746 -4.73,-0.746 0,0 3.983,0.249 3.983,-1.245 0,-1.494 -15.011,-0.461 -16.505,-0.71 -0.514,-0.086 -4.082,-0.201 -8.652,-0.326 0.012,-0.678 0.02,-1.14 0.023,-1.3 0.021,-1.244 -3.442,-2.551 -3.459,-1.554 -0.007,0.386 -0.064,1.517 -0.131,2.758 -0.871,-0.022 -1.755,-0.045 -2.645,-0.068 -0.127,-1.186 -0.221,-2.244 -0.212,-2.743 0.026,-1.493 -3.721,-0.812 -5.464,-0.842 -1.743,-0.03 -5.455,-1.341 -5.739,0.646 -0.071,0.497 -0.15,1.444 -0.225,2.628 -2.521,-0.076 -4.38,-0.145 -4.996,-0.201 -2.739,-0.249 -16.421,-0.303 -18.475,-0.282 -3.275,0.032 -6.474,0 -6.474,1.494 0,1.494 -1.245,5.727 -0.498,6.723 0.747,0.996 5.229,1.743 5.229,1.743 0,0 -4.232,-0.498 -5.229,1.245 -0.997,1.743 0.498,2.987 0.498,2.987 0,0 2.49,0.249 3.984,0.249 1.494,0 0.499,1.245 2.988,1.245 1.806,0 14.863,-0.002 22.763,-0.003 0.056,11.731 -0.169,45.251 -0.203,47.155 -0.039,2.241 -0.515,15.174 -0.334,19.161 0.179,3.988 0.734,6.017 2.967,6.553 2.232,0.537 2.407,-3.466 2.494,-3.207 0.515,1.528 1.172,4.233 2.681,3.985 0.689,-0.113 1.354,-2.352 1.354,-2.352 0,0 0.576,2.863 1.509,3.089 1.12,0.269 6.414,1.48 6.938,-0.004 0.524,-1.485 0.378,-4.241 0.363,-6.495 -0.023,-3.878 -0.184,-15.873 -0.067,-17.629 0.215,-3.201 0.021,-45.621 0.021,-45.621 0,0 0.03,-1.718 0.073,-4.158 3.246,0.148 5.998,0.271 6.502,0.271 z"
   id="path15"
   inkscape:connector-curvature="0"
   style="fill:#f7f7f4" />
	<path
   d="m 396.458,327.739 c 0.078,-1.469 0.138,-2.853 0.248,-3.291 0.24,-0.963 0.481,-5.058 -0.964,-5.54 -0.424,-0.142 -1.354,-0.198 -2.488,-0.223 -0.866,-2.46 -1.54,-4.389 -1.85,-5.318 -1.444,-4.335 -9.876,-31.794 -10.598,-34.203 -0.722,-2.409 -2.649,-0.723 -2.649,-0.723 l 1.687,9.152 c 0,0 -2.65,-6.021 -3.131,-7.226 -0.33,-0.822 -1.669,-0.854 -3.022,-0.717 0.641,-1.696 1.069,-2.838 1.178,-3.127 0.567,-1.513 0.24,-4.627 -1.272,-5.195 -1.513,-0.566 -3.82,-1.778 -5.018,-1.652 -1.198,0.127 -2.599,2.938 -2.599,2.938 0,0 0.341,-3.668 -0.668,-4.047 -1.008,-0.378 -1.666,-1.019 -2.763,0.065 -1.097,1.084 -1.479,2.29 -2.474,4.332 -0.997,2.042 -12.369,31.742 -13.365,33.784 -0.996,2.042 -9.68,24.424 -10.891,26.73 -1.21,2.307 -3.701,10.993 -3.575,12.191 0.126,1.196 2.143,1.954 3.416,2.547 1.272,0.593 3.379,-0.113 3.379,-0.113 0,0 -0.594,1.273 1.424,2.03 2.017,0.757 4.501,-0.958 5.384,-1.777 0.452,-0.42 3.807,-8.899 7.4,-17.962 6.614,0.428 16.553,1.038 19.373,1.038 2.14,0 6.391,0.234 10.323,0.473 2.282,7.062 4.595,14.177 4.851,14.942 0.868,2.595 2.167,0.48 2.167,0.48 0,0 2.409,1.928 4.095,1.445 1.686,-0.483 2.03,-2.797 2.03,-2.797 0,0 1.608,3.465 4.455,2.599 2.276,-0.692 2.097,-2.997 1.855,-3.96 -0.136,-0.536 -3.097,-8.867 -5.938,-16.875 z m -27.934,-10.517 c -1.444,-0.16 -6.407,0 -10.063,0.125 1.437,-3.533 2.652,-6.429 3.391,-7.97 1.561,-3.258 4.592,-10.876 7.339,-17.965 0.778,2.232 1.404,4.187 1.5,4.854 0.241,1.686 7.133,19.536 7.708,21.437 0.009,0.03 0.022,0.073 0.033,0.106 -4.112,-0.243 -8.699,-0.452 -9.908,-0.587 z"
   id="path17"
   inkscape:connector-curvature="0"
   style="fill:#f7f7f4" />
	<path
   d="m 471.271,337.173 c 0,0 0.698,-2.095 -0.233,-2.792 -0.931,-0.697 -13.553,-0.466 -16.576,-0.232 -1.588,0.123 -10.131,-0.14 -18.154,-0.384 5.686,-8.642 12.88,-19.563 13.992,-21.265 1.746,-2.674 9.146,-15.331 13.142,-22.387 2.486,0 4.557,0 4.557,0 0,0 1,-4.5 -0.25,-4.5 -0.446,0 -1.085,-0.128 -1.721,-0.292 0.101,-0.303 0.112,-0.623 0.06,-0.946 1.095,-0.225 2.161,-0.66 2.161,-1.512 0,-1.75 0.25,-4.5 -0.25,-5.75 -0.5,-1.25 -12.497,-1.889 -15.747,-1.889 -3.25,0 -39.612,-0.86 -42.612,-0.86 -3,0 -5.249,-0.25 -5.5,0.75 -0.25,1 2.75,2 2.75,2 l -3,0.5 c 0,0 -0.5,2.25 -0.25,3.75 0.25,1.5 4.986,1.487 4.986,1.487 0,0 -4.75,0.125 -4.75,1.625 0,1.499 0.514,3.387 2.264,3.887 1.75,0.5 14.616,0.25 21.865,0.25 3.426,0 10.367,0.335 17.08,0.688 -5.793,8.152 -12.926,18.776 -13.996,20.216 -1.746,2.348 -12.807,18.953 -13.405,20.469 -0.599,1.517 1.895,-0.654 3.041,-1.486 1.146,-0.831 9.582,-10.35 9.582,-10.35 0,0 -0.272,2.463 -2.459,5.337 -1.469,1.93 -4.557,6.63 -6.759,9.988 -1.91,0.207 -5.242,0.227 -8.585,0.674 -3.49,0.465 -4.42,0.465 -4.653,2.326 -0.233,1.861 0.465,3.257 0.465,3.257 l 6.979,0.698 c 0,0 -4.652,0.231 -5.118,1.86 -0.466,1.63 0.465,5.468 0.465,5.468 0,0 3.481,0.276 6.281,0.349 4.535,0.116 24.076,0.232 27.799,0.232 3.722,0 22.455,-0.233 23.851,-0.698 1.396,-0.465 0,-4.42 0,-4.42 0,0 1.163,-0.931 2.326,-0.931 1.163,0 1.306,-0.931 1.771,-2.326 0.462,-1.396 -1.399,-2.791 -1.399,-2.791 z"
   id="path19"
   inkscape:connector-curvature="0"
   style="fill:#f7f7f4" />
	<path
   d="m 643.774,261.918 c -1.469,-0.024 -1.494,1.443 -1.494,1.443 0,0 -0.81,-1.693 -1.854,-1.921 -1.045,-0.229 -1.202,-0.898 -2.688,0.125 -1.486,1.022 -1.718,2.277 -1.718,2.277 0,0 -0.169,-2.311 -1.214,-2.538 -1.045,-0.229 -3.374,0.989 -3.407,2.878 -0.033,1.887 0.042,6.702 -0.024,10.483 -0.12,6.921 -0.28,30.068 -0.357,34.473 -0.002,0.107 -0.004,0.234 -0.006,0.363 -6.203,-8.905 -13.641,-19.624 -15.499,-22.331 -1.688,-2.458 -13.755,-19.626 -14.7,-20.808 -0.714,-0.891 -1.786,-1.434 -2.604,-1.346 -0.003,-1.335 -0.046,-2.271 -0.558,-2.655 -0.839,-0.629 -1.468,2.517 -1.468,2.517 l -0.419,-2.517 c 0,0 -1.259,-0.838 -2.309,-0.629 -1.049,0.21 -1.468,4.497 -1.468,4.497 l -0.839,-4.287 c 0,0 -3.986,-0.21 -5.874,0.419 -1.888,0.63 -1.258,2.727 -1.049,4.615 0.21,1.888 -0.209,28.318 0,33.773 0.21,5.453 0.373,42.977 0.373,44.654 0,1.679 3.4,3.589 3.463,1.899 0.09,-2.479 0.555,-3.317 0.555,-3.317 l 0.931,4.149 c 0,0 2.894,1.351 5.201,1.351 2.307,0 4.852,-0.99 4.824,-2.517 -0.05,-2.807 -0.486,-20.808 -0.663,-24.614 -0.084,-1.808 -0.42,-21.376 -0.464,-31.968 7.342,9.988 17.39,23.572 19.485,26.306 2.198,2.866 8.212,12.093 12.64,18.585 -0.044,2.539 -0.077,4.506 -0.093,5.391 -0.066,3.774 0.729,6.307 0.972,4.423 0.202,-1.567 0.6,-6.02 0.728,-7.479 0.048,0.068 0.096,0.137 0.143,0.204 l 0.79,5.383 0.335,4.831 c 0,0 2.079,1.086 2.518,0.044 0.438,-1.041 0.725,-5.441 0.725,-5.441 0,0 0.527,5.883 1.366,5.897 0.838,0.016 6.343,2.017 7.483,-0.48 0.509,-1.113 0.836,-3.779 1.071,-5.244 0.235,-1.464 -0.285,-19.727 -0.002,-23.917 0.283,-4.191 -0.155,-50.211 0.091,-52.306 0.245,-2.092 -1.454,-4.64 -2.923,-4.665 z"
   id="path21"
   inkscape:connector-curvature="0"
   style="fill:#f7f7f4" />
	<path
   d="m 721.563,343.118 c -1.041,-0.566 -9.262,-0.589 -9.262,-0.589 0,0 9.309,-0.735 9.609,-1.786 0.302,-1.05 1.24,-5.145 -0.074,-5.456 -1.315,-0.311 -8.678,-0.708 -12.158,-0.526 -6.111,0.315 -10.387,0.192 -16.479,-0.021 -2.304,-0.08 -9.796,-0.041 -15.719,-0.016 -0.093,-6.438 -0.188,-12.757 -0.069,-15.146 0.018,-0.357 0.037,-0.831 0.057,-1.392 6.072,0.232 11.546,0.354 12.943,0.214 3.469,-0.349 18.497,-0.405 20.628,-0.559 2.132,-0.153 6.487,-0.041 6.558,-1.364 0.068,-1.324 -0.102,-5.348 -0.102,-5.348 l -2.257,-2.508 c 0,0 2.131,-0.153 2.479,-1.728 0.348,-1.574 -1.186,-2.716 -3.023,-3.078 -1.839,-0.362 -17.96,0.283 -22.46,0.047 -2.783,-0.146 -8.819,-0.259 -14.4,-0.333 0.181,-8.712 0.341,-18.113 0.368,-21.088 4.036,0.069 8.691,0.072 11.762,0.179 3.973,0.14 11.699,0.118 14.879,0.229 3.178,0.11 10.86,-0.313 12.44,0.007 1.58,0.32 1.929,-2.054 2.249,-3.634 0.321,-1.58 2.732,-2.291 2.532,-4.155 -0.2,-1.863 -2.575,-2.211 -2.575,-2.211 0,0 2.458,-2.036 0.896,-2.886 -1.562,-0.851 -12.573,-0.875 -17.615,-0.786 -5.042,0.089 -20.319,0.71 -22.959,0.353 -2.639,-0.356 -7.179,0.545 -8.778,0.754 -1.599,0.209 -3.023,3.077 -2.797,4.146 0.183,0.854 -0.326,2.189 0.407,2.726 -0.173,1.291 -0.243,2.466 -0.243,2.466 0,0 -0.795,-5.83 -2.915,-6.096 -2.121,-0.265 -2.811,-1.59 -2.811,2.65 0,3.514 -0.183,19.033 -0.245,27.568 -2.131,0.228 -3.392,0.493 -3.392,0.493 0,0 -1.002,3.929 -0.542,5.28 0.46,1.351 1.756,1.95 1.756,1.95 0,0 -2.131,0.154 -1.936,1.491 0.106,0.729 2.204,1.008 4.093,1.113 0,0.308 0,0.62 0,0.938 -2.238,0.689 -4.856,1.581 -4.564,1.906 0.121,0.135 1.901,0.312 4.564,0.497 0,7.49 0,16.416 0,18.854 0,3.71 -0.265,12.192 0,14.047 0.266,1.855 7.848,2.65 7.848,1.325 0,-0.331 0.083,-1.027 0.207,-1.885 0.398,-0.008 0.85,-0.027 1.337,-0.055 0.075,0.882 0.175,1.602 0.311,1.939 0.53,1.325 4.771,2.65 5.3,0.265 0.08,-0.36 0.13,-1.237 0.157,-2.472 0.84,-0.002 1.651,0.025 2.387,0.104 3.698,0.395 9.678,0.243 12.855,0.354 3.177,0.111 17.633,0.257 23.214,-0.079 5.581,-0.336 5.626,-1.661 3.782,-1.99 -1.844,-0.328 -4.758,-0.431 -4.758,-0.431 0,0 2.94,-0.693 5.068,-0.884 2.13,-0.187 2.488,-2.827 1.447,-3.393 z m -49.99,0.096 c 0.003,-0.015 0.007,-0.035 0.007,-0.038 10e-4,0 10e-4,0 0.002,0 0,0.003 0,0.023 0,0.037 -0.004,10e-4 -0.006,10e-4 -0.009,10e-4 z"
   id="path23"
   inkscape:connector-curvature="0"
   style="fill:#f7f7f4" />
	<path
   d="m 561.857,281.867 c -1.307,-0.087 3.587,3.952 5.704,8.893 2.116,4.94 1.364,12.86 1.364,12.86 0,0 0.185,-4.153 -2.222,-11.559 -2.405,-7.405 -9.209,-13.382 -12.199,-14.713 -1.827,-0.812 -4.286,-1.8 -6.872,-2.139 -0.129,-0.065 -0.274,-0.122 -0.454,-0.159 -1.922,-0.399 -6.469,0.566 -9.628,1.081 -3.159,0.516 -12.629,1.289 -17.936,10.944 -5.306,9.655 -7.943,12.56 -6.793,23.188 1.15,10.627 2.405,17.639 8.208,23.686 5.802,6.046 16.236,8.853 22.47,7.775 8.321,-1.438 12.85,-4.918 17.5,-9.5 0.175,-0.172 0.346,-0.353 0.518,-0.531 0.664,-0.429 1.327,-0.914 1.983,-1.468 5.422,-4.576 7.234,-11.587 8.508,-17.117 1.272,-5.531 -0.421,-15.47 -2.227,-21.024 -1.804,-5.554 -6.618,-10.13 -7.924,-10.217 z m -36.468,4.868 c -2.256,3.292 -4.125,6.202 -5.45,8.423 -1.325,2.222 -0.979,-3.008 1.897,-6.757 2.875,-3.749 6.296,-8.187 13.007,-10.366 1.726,-0.561 3.125,-0.861 4.297,-1.003 -1.192,0.683 -1.757,1.325 -2.732,2.104 -0.527,0.42 -0.813,0.792 -0.986,1.16 -3.654,1.034 -8.027,3.512 -10.033,6.439 z m 7.126,34.527 c -2.661,-4.252 -4.992,-11.426 -4.031,-16.344 0.96,-4.917 3.929,-10.744 8.106,-13.636 1.047,-0.725 1.942,-1.224 2.756,-1.568 1.699,0.446 3.89,1.108 5.738,1.951 3.604,1.644 8.787,8.146 9.018,18.306 0.217,9.547 -5.296,13.272 -8.017,15.204 -6.324,2.969 -11.031,0.146 -13.57,-3.913 z"
   id="path25"
   inkscape:connector-curvature="0"
   style="fill:#f7f7f4" />
</g>
<g
   id="FG"
   transform="translate(0,-470.268)">
</g>
<g
   id="Hilfslinien"
   display="none"
   style="display:none"
   transform="translate(0,-470.268)">
</g>
<g
   id="Plants"
   transform="translate(0,-470.268)">
</g>
<g
   id="Foreground"
   transform="translate(0,-470.268)">
</g>
<g
   id="Creatures"
   transform="translate(0,-470.268)">
</g>
<g
   id="default"
   transform="translate(0,-470.268)">
</g>
<g
   id="creatures"
   transform="translate(0,-470.268)">
</g>
</svg>