<?xml version="1.0" encoding="utf-8"?>
<!-- Generator: Adobe Illustrator 23.1.0, SVG Export Plug-In . SVG Version: 6.00 Build 0)  -->
<svg version="1.1" id="Layer_1" xmlns="http://www.w3.org/2000/svg" xmlns:xlink="http://www.w3.org/1999/xlink" x="0px" y="0px"
	 viewBox="0 0 314 238" style="enable-background:new 0 0 314 238;" xml:space="preserve">
<style type="text/css">
	.st0{opacity:0.21;}
	.st1{fill:#3C3738;}
	.st2{opacity:0.21;fill:#3C3738;enable-background:new    ;}
	.st3{fill:#C57631;}
	.st4{fill:#AD7A2B;}
	.st5{fill:#FAAF40;}
	.st6{fill:#95423F;}
	.st7{fill:#B85350;}
	.st8{fill:#FFFFFF;}
	.st9{fill:none;}
	.st10{fill:#C8C593;}
	.st11{fill:#FFF9B4;}
</style>
<title>keyboard_sports_logo</title>
<g class="st0">
	<path class="st1" d="M19.6,29.8h25.7c1.8,0,3.3,1.5,3.3,3.3v25.7c0,1.8-1.5,3.3-3.3,3.3H19.6c-1.8,0-3.3-1.5-3.3-3.3V33
		C16.4,31.2,17.8,29.8,19.6,29.8z"/>
	<path class="st1" d="M55.7,29.8h25.7c1.8,0,3.3,1.5,3.3,3.3v25.7c0,1.8-1.5,3.3-3.3,3.3H55.7c-1.8,0-3.3-1.5-3.3-3.3V33
		C52.5,31.2,53.9,29.8,55.7,29.8z"/>
	<path class="st1" d="M91.8,29.8h25.7c1.8,0,3.3,1.5,3.3,3.3v25.7c0,1.8-1.5,3.3-3.3,3.3H91.8c-1.8,0-3.3-1.5-3.3-3.3V33
		C88.6,31.2,90,29.8,91.8,29.8z"/>
	<path class="st1" d="M127.9,29.8h25.7c1.8,0,3.3,1.5,3.3,3.3v25.7c0,1.8-1.5,3.3-3.3,3.3h-25.7c-1.8,0-3.3-1.5-3.3-3.3V33
		C124.6,31.2,126.1,29.8,127.9,29.8z"/>
	<path class="st1" d="M164,29.8h25.7c1.8,0,3.3,1.5,3.3,3.3v25.7c0,1.8-1.5,3.3-3.3,3.3H164c-1.8,0-3.3-1.5-3.3-3.3V33
		C160.7,31.2,162.2,29.8,164,29.8z"/>
	<path class="st1" d="M200.1,29.8h25.7c1.8,0,3.3,1.5,3.3,3.3v25.7c0,1.8-1.5,3.3-3.3,3.3h-25.7c-1.8,0-3.3-1.5-3.3-3.3V33
		C196.8,31.2,198.3,29.8,200.1,29.8z"/>
	<path class="st1" d="M236.2,29.8h25.7c1.8,0,3.3,1.5,3.3,3.3v25.7c0,1.8-1.5,3.3-3.3,3.3h-25.7c-1.8,0-3.3-1.5-3.3-3.3V33
		C232.9,31.2,234.4,29.8,236.2,29.8z"/>
	<path class="st1" d="M272.2,29.8h25.7c1.8,0,3.3,1.5,3.3,3.3v25.7c0,1.8-1.5,3.3-3.3,3.3h-25.7c-1.8,0-3.3-1.5-3.3-3.3V33
		C269,31.2,270.4,29.8,272.2,29.8z"/>
	<path class="st1" d="M19.6,25.3h25.7c1.8,0,3.3,1.5,3.3,3.3v25.7c0,1.8-1.5,3.3-3.3,3.3H19.6c-1.8,0-3.3-1.5-3.3-3.3V28.5
		C16.4,26.8,17.8,25.3,19.6,25.3z"/>
	<path class="st1" d="M55.7,25.3h25.7c1.8,0,3.3,1.5,3.3,3.3v25.7c0,1.8-1.5,3.3-3.3,3.3H55.7c-1.8,0-3.3-1.5-3.3-3.3V28.5
		C52.5,26.8,53.9,25.3,55.7,25.3z"/>
	<path class="st1" d="M91.8,25.3h25.7c1.8,0,3.3,1.5,3.3,3.3v25.7c0,1.8-1.5,3.3-3.3,3.3H91.8c-1.8,0-3.3-1.5-3.3-3.3V28.5
		C88.6,26.8,90,25.3,91.8,25.3z"/>
	<path class="st1" d="M127.9,25.3h25.7c1.8,0,3.3,1.5,3.3,3.3v25.7c0,1.8-1.5,3.3-3.3,3.3h-25.7c-1.8,0-3.3-1.5-3.3-3.3V28.5
		C124.6,26.8,126.1,25.3,127.9,25.3z"/>
	<path class="st1" d="M164,25.3h25.7c1.8,0,3.3,1.5,3.3,3.3v25.7c0,1.8-1.5,3.3-3.3,3.3H164c-1.8,0-3.3-1.5-3.3-3.3V28.5
		C160.7,26.8,162.2,25.3,164,25.3z"/>
	<path class="st1" d="M200.1,25.3h25.7c1.8,0,3.3,1.5,3.3,3.3v25.7c0,1.8-1.5,3.3-3.3,3.3h-25.7c-1.8,0-3.3-1.5-3.3-3.3V28.5
		C196.8,26.8,198.3,25.3,200.1,25.3z"/>
	<path class="st1" d="M236.2,25.3h25.7c1.8,0,3.3,1.5,3.3,3.3v25.7c0,1.8-1.5,3.3-3.3,3.3h-25.7c-1.8,0-3.3-1.5-3.3-3.3V28.5
		C232.9,26.8,234.4,25.3,236.2,25.3z"/>
	<path class="st1" d="M272.2,25.3h25.7c1.8,0,3.3,1.5,3.3,3.3v25.7c0,1.8-1.5,3.3-3.3,3.3h-25.7c-1.8,0-3.3-1.5-3.3-3.3V28.5
		C269,26.8,270.4,25.3,272.2,25.3z"/>
	<path class="st1" d="M25.7,31.5c-0.1-0.5,0.3-1.1,0.8-1.2c0.1,0,0.2,0,0.3,0h1.3c0.5-0.1,1.1,0.3,1.1,0.8c0,0.1,0,0.2,0,0.3v6.8
		h2.6l4.2-7.2c0.2-0.5,0.8-0.8,1.4-0.8h1.4c0.9,0,1.2,0.6,0.8,1.4l-4.8,8v0.1l5.1,8.9C40.3,49.4,40,50,39,50h-1.5
		c-0.6,0-1.1-0.3-1.4-0.8l-4.3-7.8h-2.6v7.4c0.1,0.5-0.3,1.1-0.8,1.2c-0.1,0-0.2,0-0.3,0h-1.3c-0.5,0.1-1.1-0.3-1.1-0.8
		c0-0.1,0-0.2,0-0.3L25.7,31.5z"/>
	<path class="st1" d="M63.3,31.5c-0.1-0.5,0.3-1.1,0.8-1.2c0.1,0,0.2,0,0.3,0h9.5c0.6-0.1,1.1,0.4,1.2,0.9c0,0.1,0,0.2,0,0.2v0.8
		c0.1,0.5-0.3,1.1-0.8,1.1c-0.1,0-0.2,0-0.3,0h-7.1v5.1h5.5c0.5-0.1,1.1,0.3,1.2,0.8c0,0.1,0,0.2,0,0.3v0.8c0.1,0.5-0.3,1.1-0.8,1.2
		c-0.1,0-0.2,0-0.4,0h-5.5v5.3h7.5c0.5-0.1,1.1,0.3,1.2,0.8c0,0.1,0,0.2,0,0.3v0.8c0.1,0.5-0.3,1.1-0.8,1.2c-0.1,0-0.2,0-0.4,0h-9.9
		c-0.5,0.1-1.1-0.3-1.1-0.8c0-0.1,0-0.2,0-0.3L63.3,31.5z"/>
	<path class="st1" d="M102.9,41.8l-5.8-10c-0.5-0.8-0.1-1.4,0.8-1.4h1.6c0.6,0,1.1,0.3,1.3,0.9l2.7,4.9c0.6,1.2,1.2,2.6,1.2,2.6h0.1
		c0,0,0.6-1.4,1.2-2.6l2.7-4.9c0.2-0.5,0.7-0.9,1.3-0.9h1.6c0.9,0,1.2,0.6,0.8,1.4l-5.8,10v7.1c0.1,0.5-0.3,1.1-0.8,1.2
		c-0.1,0-0.2,0-0.3,0h-1.2c-0.5,0.1-1.1-0.3-1.2-0.8c0-0.1,0-0.2,0-0.4L102.9,41.8z"/>
	<path class="st1" d="M133.8,31.5c-0.1-0.5,0.3-1.1,0.8-1.2c0.1,0,0.2,0,0.3,0h5.9c3.5,0,6.1,1.8,6.1,5.1c0.1,1.7-0.9,3.4-2.4,4.2v0
		c2,0.7,3.3,2.5,3.1,4.6c0,3.9-3.1,5.7-6.8,5.7h-6c-0.5,0.1-1.1-0.3-1.1-0.8c0-0.1,0-0.2,0-0.3L133.8,31.5z M140.8,38.3
		c1.3,0.1,2.4-0.9,2.4-2.2c0-0.1,0-0.2,0-0.3c0.1-1.3-0.8-2.3-2.1-2.4c-0.1,0-0.3,0-0.4,0h-3.4v5L140.8,38.3z M141.1,46.9
		c1.6,0.1,2.9-1.1,3-2.7c0.1-1.6-1.1-2.9-2.7-3c-0.1,0-0.2,0-0.3,0h-3.8v5.7H141.1z"/>
	<path class="st1" d="M176.8,30c5.4-0.2,10,4.1,10.1,9.5c0,0.2,0,0.3,0,0.5c0,5.6-4.5,10.2-10.2,10.2s-10.2-4.5-10.2-10.2l0,0
		c-0.1-5.4,4.2-9.9,9.6-10C176.5,30,176.7,30,176.8,30z M176.8,47c3.8,0,6.5-3,6.5-7c0.1-3.6-2.6-6.6-6.2-6.7
		c-3.6-0.1-6.6,2.6-6.7,6.2c0,0.2,0,0.3,0,0.5C170.4,44,173.1,47,176.8,47L176.8,47z"/>
	<path class="st1" d="M211.3,31.3c0.1-0.6,0.7-1,1.3-0.9h1.8c0.6-0.1,1.2,0.3,1.3,0.9l6.1,17.4c0.3,0.8-0.1,1.3-0.9,1.3h-1.3
		c-0.6,0.1-1.2-0.3-1.3-0.9l-1.4-4.1H210l-1.4,4.1c-0.1,0.6-0.7,1-1.3,1h-1.3c-0.9,0-1.2-0.5-0.9-1.3L211.3,31.3z M216,42l-1.7-5.3
		c-0.3-1.1-0.8-3-0.8-3h-0.1c0,0-0.4,1.9-0.8,3l-1.8,5.3L216,42z"/>
	<path class="st1" d="M244,31.5c-0.1-0.5,0.3-1.1,0.8-1.2c0.1,0,0.2,0,0.3,0h5.3c1.3-0.1,2.5,0.1,3.7,0.5c2.1,0.9,3.4,3.1,3.3,5.4
		c0.1,2.3-1.2,4.4-3.3,5.4v0.1c0.2,0.3,0.5,0.6,0.6,1l3.2,5.9c0.5,0.8,0.1,1.4-0.8,1.4h-1.5c-0.6,0-1.1-0.3-1.4-0.8l-3.5-6.5h-3.4
		v6.2c0.1,0.5-0.3,1.1-0.8,1.2c-0.1,0-0.2,0-0.3,0h-1.3c-0.5,0.1-1.1-0.3-1.1-0.8c0-0.1,0-0.2,0-0.3L244,31.5z M250.7,39.5
		c1.6,0.1,3-1.1,3.1-2.7c0-0.2,0-0.3,0-0.5c0.1-1.1-0.5-2.2-1.6-2.7c-0.7-0.3-1.4-0.4-2.1-0.3h-2.6v6.1L250.7,39.5z"/>
	<path class="st1" d="M277.9,31.5c-0.1-0.5,0.3-1.1,0.8-1.2c0.1,0,0.2,0,0.3,0h5.6c6.1,0,10,3.6,10,9.8s-4,9.9-10,9.9H279
		c-0.5,0.1-1.1-0.3-1.1-0.8c0-0.1,0-0.2,0-0.3V31.5z M284.4,46.9c4,0,6.5-2.4,6.5-6.8s-2.6-6.7-6.5-6.7h-3v13.5H284.4z"/>
</g>
<path class="st2" d="M282.1,113.4c-2.8-1.2-7.1-3-7.1-4.2c0-1,2.1-1.3,3.4-1.3c2.5,0.1,4.8,0.9,6.8,2.3l0.2,0.1
	c1.9,1.1,4.2,1.4,6.3,0.8c1.9-0.6,3.5-2,4.3-3.8l1.4-2.5c2.2-3.5,1.1-8.1-2.3-10.3c-4.9-3.3-10.7-5-16.6-5c-7.4,0-13.6,2.7-17.7,7.1
	c-0.6-3.7-3.9-6.3-7.6-6.2h-38.4c-3.9,0-6.7,2.1-7.6,5.5c-1.7-1.6-3.6-2.8-5.7-3.7c-3.1-1.3-6.3-1.8-12-1.8h-14.4
	c-4.1-0.2-7.6,3-7.8,7.2c0,0.2,0,0.5,0,0.7v19.3c-1.9-16.2-15-28-32.1-28c-12.6,0-23.2,6.5-28.5,16.4c-2.5-9.4-10.4-15.5-20.9-15.5
	H68.4c-4.1-0.2-7.6,3-7.8,7.2c0,0.2,0,0.5,0,0.7v31.8c-1.8-10.1-11.1-14-17.5-16.7c-2.8-1.2-7.1-3-7.1-4.2c0-1,2.1-1.3,3.4-1.3
	c2.5,0.1,4.8,0.9,6.9,2.3l0.2,0.1c1.9,1.1,4.2,1.4,6.3,0.8c1.9-0.6,3.5-2,4.3-3.8l1.4-2.5c2.2-3.5,1.1-8.1-2.3-10.3
	c-4.9-3.3-10.7-5-16.6-5c-13.1,0-22.7,8.5-22.7,20.2c0,12.4,10.6,17,17.6,20.1c3.1,1.4,7.4,3.2,7.4,4.6s-2.9,1.4-3.3,1.4
	c-3.7,0-6.6-2-8.1-3.1l-0.4-0.2c-5.8-3.2-9.3,0.3-10.5,2l-0.1,0.1l-1.6,2.4c-2.6,3.2-2.2,7.9,1,10.5c0.1,0,0.1,0.1,0.2,0.1l0.2,0.2
	c5.6,4.1,12.3,6.3,19.3,6.4c11.7,0,20.4-7,22.1-17v8.3c0,4.7,3.1,7.9,7.8,7.9h3.5c4.7,0,7.8-3.2,7.8-7.9v-10.6h6.2
	c6.8,0.2,13.3-3,17.4-8.5c2.2,16.2,15.2,27.8,32,27.8c17.1,0,30.3-12.1,32.1-28.7v19.9c0,4.7,3.1,7.9,7.8,7.9h3.5
	c4.7,0,7.8-3.2,7.8-7.9v-12.1h1.8l8.1,15.3c1.5,2.9,4.5,4.7,7.8,4.6h4.1c3.8,0.3,7.1-2.5,7.5-6.3c0.1-1.6-0.3-3.2-1.2-4.5l-8.3-15.1
	c4.7-4.1,7.3-10,7.2-16.2c0-1-0.1-2.1-0.2-3.1c0.5,0.1,1.1,0.1,1.7,0.1h9.7v37.2c0,4.7,3.1,7.9,7.8,7.9h3.4c4.1,0.2,7.6-2.9,7.9-7
	c0-0.3,0-0.6,0-0.9v-37.2h9.7c0.9,0,1.8-0.1,2.7-0.4c-0.1,0.6-0.1,1.3-0.1,1.9c0,12.4,10.6,17,17.6,20.1c3.1,1.4,7.4,3.2,7.4,4.6
	s-2.9,1.4-3.3,1.4c-3.7,0-6.6-2-8.2-3.1l-0.4-0.2c-5.8-3.2-9.3,0.3-10.5,2l-0.1,0.1l-1.6,2.4c-2.6,3.2-2.2,7.9,1,10.5
	c0.1,0,0.1,0.1,0.2,0.1l0.2,0.2c5.6,4.1,12.3,6.3,19.3,6.4c13,0,22.4-8.6,22.4-20.5C299.9,120.8,289.2,116.3,282.1,113.4z"/>
<rect x="16.1" y="107.8" class="st3" width="8.7" height="17.6"/>
<rect x="207" y="113" class="st3" width="8.7" height="17.6"/>
<rect x="16.8" y="75.6" class="st3" width="8.7" height="17.6"/>
<rect x="50.9" y="66.8" class="st3" width="8.7" height="17.6"/>
<rect x="255.1" y="107.8" class="st3" width="8.7" height="17.6"/>
<rect x="255.8" y="75.6" class="st4" width="8.7" height="17.6"/>
<rect x="289.9" y="66.8" class="st3" width="8.7" height="17.6"/>
<rect x="55.2" y="102.3" class="st4" width="8.7" height="17.6"/>
<path class="st4" d="M88.3,95.9c0-3.8-2.2-4.3-4.1-4.3h-4.6v8.8H84C86.1,100.4,88.3,99.9,88.3,95.9z"/>
<path class="st4" d="M135.3,119.3c7.5,0,12.9-6.1,12.9-14.4c0-7.9-5.4-13.7-12.9-13.7c-7.5,0-13,5.8-13,13.7
	C122.3,113.3,127.7,119.3,135.3,119.3z"/>
<path class="st4" d="M194.1,95.1c0-2.4-0.9-2.8-1.3-3l-0.2-0.1c-1.2-0.4-2.5-0.5-3.8-0.5h-2.5v7.3h4C193,98.9,194.1,97.8,194.1,95.1
	z"/>
<path class="st3" d="M282.1,96.9c-2.8-1.2-7.1-3-7.1-4.2c0-1,2.1-1.3,3.4-1.3c2.5,0.1,4.8,0.9,6.9,2.3l0.2,0.1
	c1.9,1.1,4.2,1.4,6.3,0.8c1.9-0.6,3.5-2,4.3-3.8l1.4-2.5c2.2-3.5,1.1-8.1-2.3-10.3c-4.9-3.3-10.7-5-16.6-5c-7.4,0-13.6,2.7-17.7,7.1
	c-0.6-3.7-3.9-6.3-7.6-6.2h-38.4c-3.9,0-6.7,2.1-7.6,5.5c-1.7-1.6-3.6-2.8-5.7-3.7c-3.1-1.3-6.3-1.8-12-1.8h-14.5
	c-4.1-0.2-7.6,3-7.8,7.2c0,0.2,0,0.5,0,0.7v19.3c-1.9-16.2-15-28-32.1-28c-12.6,0-23.2,6.5-28.5,16.4c-2.5-9.4-10.4-15.5-20.9-15.5
	H68.4c-4.1-0.2-7.6,3-7.8,7.2c0,0.2,0,0.5,0,0.7v31.8c-1.8-10.1-11.1-14-17.5-16.7c-2.8-1.2-7.1-3-7.1-4.2c0-1,2.1-1.3,3.4-1.3
	c2.5,0.1,4.8,0.9,6.9,2.3l0.2,0.1c1.9,1.1,4.2,1.4,6.3,0.8c1.9-0.6,3.5-2,4.3-3.8l1.4-2.5c2.2-3.5,1.1-8.1-2.3-10.3
	c-4.9-3.3-10.7-5-16.6-5c-13.1,0-22.7,8.5-22.7,20.2c0,12.4,10.6,17,17.6,20.1c3.1,1.4,7.4,3.2,7.4,4.6s-2.9,1.4-3.3,1.4
	c-3.7,0-6.6-2-8.1-3.1l-0.4-0.2c-5.8-3.2-9.3,0.3-10.5,2l-0.1,0.1l-1.6,2.4c-2.6,3.2-2.2,7.9,1,10.5c0.1,0,0.1,0.1,0.2,0.1l0.2,0.2
	c5.6,4.1,12.3,6.3,19.3,6.4c11.7,0,20.4-7,22.1-17v8.3c0,4.7,3.1,7.9,7.8,7.9h3.5c4.7,0,7.8-3.2,7.8-7.9v-10.6h6.2
	c6.8,0.2,13.3-3,17.4-8.5c2.2,16.2,15.2,27.8,32,27.8c17.1,0,30.3-12.1,32.1-28.7v19.9c0,4.7,3.1,7.9,7.8,7.9h3.5
	c4.7,0,7.8-3.2,7.8-7.9v-12.1h1.8l8.1,15.4c1.5,2.9,4.5,4.7,7.8,4.6h4.1c3.8,0.3,7.1-2.5,7.5-6.3c0.1-1.6-0.3-3.2-1.2-4.5l-8.3-15.1
	c4.7-4.1,7.3-10,7.2-16.2c0-1-0.1-2.1-0.2-3.1c0.5,0.1,1.1,0.1,1.7,0.1h9.7v37.2c0,4.7,3.1,7.9,7.8,7.9h3.4c4.1,0.2,7.6-2.9,7.9-7
	c0-0.3,0-0.6,0-0.9V91.6h9.7c0.9,0,1.8-0.1,2.7-0.4c-0.1,0.6-0.1,1.3-0.1,1.9c0,12.4,10.6,17,17.6,20.1c3.1,1.4,7.4,3.2,7.4,4.6
	s-2.9,1.4-3.3,1.4c-3.7,0-6.6-2-8.2-3.1l-0.4-0.2c-5.8-3.2-9.3,0.3-10.5,2l-0.1,0.1l-1.6,2.4c-2.6,3.2-2.2,7.9,1,10.5
	c0.1,0,0.1,0.1,0.2,0.1l0.2,0.2c5.6,4.1,12.3,6.3,19.3,6.4c13,0,22.4-8.6,22.4-20.5C299.9,104.3,289.2,99.8,282.1,96.9z M135.3,91.2
	c7.5,0,12.9,5.8,12.9,13.7c0,8.4-5.4,14.4-12.9,14.4c-7.5,0-13-6.1-13-14.4C122.3,97,127.7,91.2,135.3,91.2z M79.7,91.6h4.6
	c1.9,0,4.1,0.5,4.1,4.3s-2.1,4.5-4.3,4.5h-4.4V91.6z M186.4,91.6h2.5c1.3-0.1,2.6,0.1,3.8,0.5l0.2,0.1c0.4,0.2,1.3,0.5,1.3,3
	c0,2.7-1.1,3.8-3.7,3.8h-4L186.4,91.6z"/>
<rect x="154.1" y="87" class="st3" width="19.4" height="16.2"/>
<path class="st3" d="M88.3,78.9c0-3.8-2.2-4.3-4.1-4.3h-4.6v8.8H84C86.1,83.4,88.3,82.9,88.3,78.9z"/>
<path class="st3" d="M135.3,102.3c7.5,0,12.9-6.1,12.9-14.4c0-7.9-5.4-13.7-12.9-13.7c-7.5,0-13,5.8-13,13.7
	C122.3,96.3,127.7,102.3,135.3,102.3z"/>
<path class="st3" d="M194.1,78.1c0-2.4-0.9-2.8-1.3-3l-0.2-0.1c-1.2-0.4-2.5-0.5-3.8-0.5h-2.5v7.3h4C193,81.9,194.1,80.8,194.1,78.1
	z"/>
<path class="st5" d="M282.1,79.9c-2.8-1.2-7.1-3-7.1-4.2c0-1,2.1-1.3,3.4-1.3c2.5,0.1,4.8,0.9,6.9,2.3l0.2,0.1
	c1.9,1.1,4.2,1.4,6.3,0.8c1.9-0.6,3.5-2,4.3-3.8l1.4-2.5c2.2-3.5,1.1-8.1-2.3-10.3c-4.9-3.3-10.7-5-16.6-5c-7.4,0-13.6,2.7-17.7,7.1
	c-0.6-3.7-3.9-6.3-7.6-6.2h-38.4c-3.9,0-6.7,2.1-7.6,5.5c-1.7-1.6-3.6-2.8-5.7-3.7c-3.1-1.3-6.3-1.8-12-1.8h-14.5
	c-4.1-0.2-7.6,3-7.8,7.2c0,0.2,0,0.5,0,0.7v19.3c-1.9-16.2-15-28-32.1-28c-12.6,0-23.2,6.5-28.5,16.4c-2.5-9.4-10.4-15.5-20.9-15.5
	H68.4c-4.1-0.2-7.6,3-7.8,7.2c0,0.2,0,0.5,0,0.7v31.8c-1.8-10.1-11.1-14-17.5-16.7c-2.8-1.2-7.1-3-7.1-4.2c0-1,2.1-1.3,3.4-1.3
	c2.5,0.1,4.8,0.9,6.9,2.3l0.2,0.1c1.9,1.1,4.2,1.4,6.3,0.8c1.9-0.6,3.5-2,4.3-3.8l1.4-2.5c2.2-3.5,1.1-8.1-2.3-10.3
	c-4.9-3.3-10.7-5-16.6-5c-13.1,0-22.7,8.5-22.7,20.2c0,12.4,10.6,17,17.6,20.1c3.1,1.4,7.4,3.2,7.4,4.6s-2.9,1.4-3.3,1.4
	c-3.7,0-6.6-2-8.1-3.1l-0.4-0.2c-5.8-3.2-9.3,0.3-10.5,2l-0.1,0.1l-1.6,2.4c-2.6,3.2-2.2,7.9,1,10.5c0.1,0,0.1,0.1,0.2,0.1l0.2,0.2
	c5.6,4.1,12.3,6.3,19.3,6.4c11.7,0,20.4-7,22.1-17v8.3c0,4.7,3.1,7.9,7.8,7.9h3.5c4.7,0,7.8-3.2,7.8-7.9v-10.6h6.2
	c6.8,0.2,13.3-3,17.4-8.5c2.2,16.2,15.2,27.8,32,27.8c17.1,0,30.3-12.1,32.1-28.7v19.9c0,4.7,3.1,7.9,7.8,7.9h3.5
	c4.7,0,7.8-3.2,7.8-7.9V99.8h1.8l8.1,15.4c1.5,2.9,4.5,4.7,7.8,4.6h4.1c3.8,0.3,7.1-2.5,7.5-6.3c0.1-1.6-0.3-3.2-1.2-4.5l-8.3-15.1
	c4.7-4.1,7.3-10,7.2-16.2c0-1-0.1-2.1-0.2-3.1c0.5,0.1,1.1,0.1,1.7,0.1h9.7v37.2c0,4.7,3.1,7.9,7.8,7.9h3.4c4.1,0.2,7.6-2.9,7.9-7
	c0-0.3,0-0.6,0-0.9V74.6h9.7c0.9,0,1.8-0.1,2.7-0.4c-0.1,0.6-0.1,1.3-0.1,1.9c0,12.4,10.6,17,17.6,20.1c3.1,1.4,7.4,3.2,7.4,4.6
	s-2.9,1.4-3.3,1.4c-3.7,0-6.6-2-8.2-3.1l-0.4-0.2c-5.8-3.2-9.3,0.3-10.5,2l-0.1,0.1l-1.6,2.4c-2.6,3.2-2.2,7.9,1,10.5
	c0.1,0,0.1,0.1,0.2,0.1l0.2,0.2c5.6,4.1,12.3,6.3,19.3,6.4c13,0,22.4-8.6,22.4-20.5C299.9,87.4,289.2,82.8,282.1,79.9z M135.3,74.2
	c7.5,0,12.9,5.8,12.9,13.7c0,8.4-5.4,14.4-12.9,14.4c-7.5,0-13-6.1-13-14.4C122.3,80,127.7,74.2,135.3,74.2z M79.7,74.6h4.6
	c1.9,0,4.1,0.5,4.1,4.3s-2.1,4.5-4.3,4.5h-4.4V74.6z M186.4,74.6h2.5c1.3-0.1,2.6,0.1,3.8,0.5l0.2,0.1c0.4,0.2,1.3,0.5,1.3,3
	c0,2.7-1.1,3.8-3.7,3.8h-4L186.4,74.6z"/>
<path class="st6" d="M19.6,15.9h25.7c1.8,0,3.3,1.5,3.3,3.3v25.7c0,1.8-1.5,3.3-3.3,3.3H19.6c-1.8,0-3.3-1.5-3.3-3.3V19.2
	C16.4,17.4,17.8,15.9,19.6,15.9z"/>
<path class="st6" d="M55.7,15.9h25.7c1.8,0,3.3,1.5,3.3,3.3v25.7c0,1.8-1.5,3.3-3.3,3.3H55.7c-1.8,0-3.3-1.5-3.3-3.3V19.2
	C52.5,17.4,53.9,15.9,55.7,15.9z"/>
<path class="st6" d="M91.8,15.9h25.7c1.8,0,3.3,1.5,3.3,3.3v25.7c0,1.8-1.5,3.3-3.3,3.3H91.8c-1.8,0-3.3-1.5-3.3-3.3V19.2
	C88.6,17.4,90,15.9,91.8,15.9z"/>
<path class="st6" d="M127.9,15.9h25.7c1.8,0,3.3,1.5,3.3,3.3v25.7c0,1.8-1.5,3.3-3.3,3.3h-25.7c-1.8,0-3.3-1.5-3.3-3.3V19.2
	C124.6,17.4,126.1,15.9,127.9,15.9z"/>
<path class="st6" d="M164,15.9h25.7c1.8,0,3.3,1.5,3.3,3.3v25.7c0,1.8-1.5,3.3-3.3,3.3H164c-1.8,0-3.3-1.5-3.3-3.3V19.2
	C160.7,17.4,162.2,15.9,164,15.9z"/>
<path class="st6" d="M200.1,15.9h25.7c1.8,0,3.3,1.5,3.3,3.3v25.7c0,1.8-1.5,3.3-3.3,3.3h-25.7c-1.8,0-3.3-1.5-3.3-3.3V19.2
	C196.8,17.4,198.3,15.9,200.1,15.9z"/>
<path class="st6" d="M236.2,15.9h25.7c1.8,0,3.3,1.5,3.3,3.3v25.7c0,1.8-1.5,3.3-3.3,3.3h-25.7c-1.8,0-3.3-1.5-3.3-3.3V19.2
	C232.9,17.4,234.4,15.9,236.2,15.9z"/>
<path class="st6" d="M272.2,15.9h25.7c1.8,0,3.3,1.5,3.3,3.3v25.7c0,1.8-1.5,3.3-3.3,3.3h-25.7c-1.8,0-3.3-1.5-3.3-3.3V19.2
	C269,17.4,270.4,15.9,272.2,15.9z"/>
<path class="st7" d="M19.6,11.4h25.7c1.8,0,3.3,1.5,3.3,3.3v25.7c0,1.8-1.5,3.3-3.3,3.3H19.6c-1.8,0-3.3-1.5-3.3-3.3V14.7
	C16.4,12.9,17.8,11.4,19.6,11.4z"/>
<path class="st7" d="M55.7,11.4h25.7c1.8,0,3.3,1.5,3.3,3.3v25.7c0,1.8-1.5,3.3-3.3,3.3H55.7c-1.8,0-3.3-1.5-3.3-3.3V14.7
	C52.5,12.9,53.9,11.4,55.7,11.4z"/>
<path class="st7" d="M91.8,11.4h25.7c1.8,0,3.3,1.5,3.3,3.3v25.7c0,1.8-1.5,3.3-3.3,3.3H91.8c-1.8,0-3.3-1.5-3.3-3.3V14.7
	C88.6,12.9,90,11.4,91.8,11.4z"/>
<path class="st7" d="M127.9,11.4h25.7c1.8,0,3.3,1.5,3.3,3.3v25.7c0,1.8-1.5,3.3-3.3,3.3h-25.7c-1.8,0-3.3-1.5-3.3-3.3V14.7
	C124.6,12.9,126.1,11.4,127.9,11.4z"/>
<path class="st7" d="M164,11.4h25.7c1.8,0,3.3,1.5,3.3,3.3v25.7c0,1.8-1.5,3.3-3.3,3.3H164c-1.8,0-3.3-1.5-3.3-3.3V14.7
	C160.7,12.9,162.2,11.4,164,11.4z"/>
<path class="st7" d="M200.1,11.4h25.7c1.8,0,3.3,1.5,3.3,3.3v25.7c0,1.8-1.5,3.3-3.3,3.3h-25.7c-1.8,0-3.3-1.5-3.3-3.3V14.7
	C196.8,12.9,198.3,11.4,200.1,11.4z"/>
<path class="st7" d="M236.2,11.4h25.7c1.8,0,3.3,1.5,3.3,3.3v25.7c0,1.8-1.5,3.3-3.3,3.3h-25.7c-1.8,0-3.3-1.5-3.3-3.3V14.7
	C232.9,12.9,234.4,11.4,236.2,11.4z"/>
<path class="st7" d="M272.2,11.4h25.7c1.8,0,3.3,1.5,3.3,3.3v25.7c0,1.8-1.5,3.3-3.3,3.3h-25.7c-1.8,0-3.3-1.5-3.3-3.3V14.7
	C269,12.9,270.4,11.4,272.2,11.4z"/>
<path class="st8" d="M25.7,17.6c-0.1-0.5,0.3-1.1,0.8-1.2c0.1,0,0.2,0,0.3,0h1.3c0.5-0.1,1.1,0.3,1.1,0.8c0,0.1,0,0.2,0,0.3v6.8h2.6
	l4.1-7.2c0.2-0.5,0.8-0.8,1.4-0.8h1.4c0.9,0,1.2,0.6,0.8,1.4l-4.8,8v0.1l5.1,8.9c0.5,0.8,0.1,1.4-0.8,1.4h-1.5
	c-0.6,0-1.1-0.3-1.4-0.8l-4.3-7.8h-2.6V35c0.1,0.5-0.3,1.1-0.8,1.2c-0.1,0-0.2,0-0.3,0h-1.3c-0.5,0.1-1.1-0.3-1.1-0.8
	c0-0.1,0-0.2,0-0.3L25.7,17.6z"/>
<path class="st8" d="M63.3,17.6c-0.1-0.5,0.3-1.1,0.8-1.2c0.1,0,0.2,0,0.3,0h9.5c0.6-0.1,1.1,0.4,1.2,0.9c0,0.1,0,0.2,0,0.2v0.8
	c0.1,0.5-0.3,1.1-0.8,1.1c-0.1,0-0.2,0-0.3,0h-7.1v5.1h5.5c0.5-0.1,1.1,0.3,1.2,0.8c0,0.1,0,0.2,0,0.3v0.8c0.1,0.5-0.3,1.1-0.8,1.2
	c-0.1,0-0.2,0-0.4,0h-5.5V33h7.5c0.5-0.1,1.1,0.3,1.2,0.8c0,0.1,0,0.2,0,0.3v0.8c0.1,0.5-0.3,1.1-0.8,1.2c-0.1,0-0.2,0-0.4,0h-9.9
	c-0.5,0.1-1.1-0.3-1.1-0.8c0-0.1,0-0.2,0-0.3L63.3,17.6z"/>
<path class="st8" d="M102.9,27.9l-5.8-10c-0.5-0.8-0.1-1.4,0.8-1.4h1.6c0.6,0,1.1,0.3,1.3,0.9l2.7,4.9c0.6,1.2,1.2,2.6,1.2,2.6h0.1
	c0,0,0.6-1.4,1.2-2.6l2.7-4.9c0.2-0.5,0.7-0.9,1.3-0.9h1.6c0.9,0,1.2,0.6,0.8,1.4l-5.8,10v7.1c0.1,0.5-0.2,1.1-0.8,1.2
	c-0.1,0-0.3,0-0.4,0H104c-0.5,0.1-1.1-0.3-1.2-0.8c0-0.1,0-0.2,0-0.4L102.9,27.9z"/>
<path class="st8" d="M133.8,17.6c-0.1-0.5,0.3-1.1,0.8-1.2c0.1,0,0.2,0,0.3,0h5.9c3.5,0,6.1,1.8,6.1,5.1c0.1,1.7-0.9,3.4-2.4,4.2v0
	c2,0.7,3.3,2.5,3.1,4.6c0,3.9-3.1,5.7-6.8,5.7h-6c-0.5,0.1-1.1-0.3-1.1-0.8c0-0.1,0-0.2,0-0.3L133.8,17.6z M140.8,24.5
	c1.3,0.1,2.4-0.9,2.4-2.2c0-0.1,0-0.2,0-0.3c0.1-1.3-0.8-2.3-2.1-2.4c-0.1,0-0.3,0-0.4,0h-3.4v5L140.8,24.5z M141.1,33
	c1.6,0.1,2.9-1.1,3-2.7c0.1-1.6-1.1-2.9-2.7-3c-0.1,0-0.2,0-0.3,0h-3.8V33H141.1z"/>
<path class="st8" d="M176.8,16.1c5.4-0.2,10,4.1,10.1,9.5c0,0.2,0,0.3,0,0.5c0,5.6-4.5,10.2-10.2,10.2s-10.2-4.5-10.2-10.2
	c-0.1-5.4,4.2-9.9,9.6-10C176.5,16.1,176.7,16.1,176.8,16.1z M176.8,33.1c3.8,0,6.5-3,6.5-7c0.1-3.6-2.6-6.6-6.2-6.7
	c-3.6-0.1-6.6,2.6-6.7,6.2c0,0.2,0,0.3,0,0.5C170.4,30.1,173.1,33.1,176.8,33.1z"/>
<path class="st8" d="M211.3,17.4c0.1-0.6,0.7-1,1.3-0.9h1.8c0.6-0.1,1.2,0.3,1.3,0.9l6.1,17.4c0.3,0.8-0.1,1.3-0.9,1.3h-1.3
	c-0.6,0-1.2-0.4-1.3-1l-1.4-4.1H210l-1.3,4.1c-0.1,0.6-0.7,1-1.3,1h-1.3c-0.9,0-1.2-0.5-0.9-1.3L211.3,17.4z M216,28.1l-1.8-5.2
	c-0.3-1.1-0.8-3-0.8-3h-0.1c0,0-0.4,1.9-0.8,3l-1.7,5.2H216z"/>
<path class="st8" d="M244,17.6c-0.1-0.5,0.3-1.1,0.8-1.2c0.1,0,0.2,0,0.3,0h5.3c1.3-0.1,2.5,0.1,3.7,0.5c2.1,0.9,3.4,3.1,3.3,5.4
	c0.1,2.3-1.2,4.4-3.3,5.4v0.1c0.2,0.3,0.5,0.6,0.6,1l3.2,5.9c0.5,0.8,0.1,1.4-0.8,1.4h-1.5c-0.6,0-1.1-0.3-1.4-0.8l-3.5-6.5h-3.4
	v6.2c0.1,0.5-0.3,1.1-0.8,1.2c-0.1,0-0.2,0-0.3,0h-1.3c-0.5,0.1-1.1-0.3-1.1-0.8c0-0.1,0-0.2,0-0.3L244,17.6z M250.7,25.7
	c1.6,0.1,3-1.1,3.1-2.7c0-0.2,0-0.3,0-0.5c0.1-1.1-0.5-2.2-1.5-2.7c-0.7-0.3-1.4-0.4-2.1-0.3h-2.6v6.1L250.7,25.7z"/>
<path class="st8" d="M277.9,17.6c-0.1-0.5,0.3-1.1,0.8-1.2c0.1,0,0.2,0,0.3,0h5.6c6.1,0,10,3.6,10,9.8s-4,9.9-10,9.9H279
	c-0.5,0.1-1.1-0.3-1.1-0.8c0-0.1,0-0.2,0-0.3V17.6z M284.4,33c4,0,6.5-2.4,6.5-6.8s-2.6-6.7-6.5-6.7h-3V33H284.4z"/>
<g class="st0">
	<path class="st1" d="M15.9,175.7l1.6-0.6c1.1-0.4,1.8,0,2.3,1.1c0.7,2.2,2,4.1,3.8,5.5c2.3,1.7,4.6,1.5,5.8-0.2
		c3.4-4.8-9-12.1-3.4-20c3.2-4.4,8.9-4.7,13.7-1.2c2.3,1.6,4.1,3.9,5.1,6.5c0.4,0.9,0,1.9-0.8,2.3c0,0-0.1,0-0.2,0.1l-1.5,0.7
		c-1.3,0.6-1.9,0-2.4-1c-0.7-1.8-1.8-3.3-3.4-4.5c-2.3-1.7-4.6-1.6-5.8,0.1c-3.4,4.7,9.2,11.9,3.5,19.9c-2.9,4.1-8.4,5.3-13.6,1.5
		c-2.8-2-4.8-4.8-5.9-8.1c-0.3-0.8,0.1-1.8,1-2.1C15.7,175.7,15.8,175.7,15.9,175.7z"/>
	<path class="st1" d="M52,170.8c0.7-0.7,1.7-0.8,2.5-0.3l2.4,1.4c0.9,0.4,1.3,1.4,1,2.3l-5.3,28.5c0,0.8-0.6,1.4-1.4,1.4
		c-0.3,0-0.7-0.1-0.9-0.3l-1.7-1c-0.9-0.4-1.3-1.4-1-2.3l1.3-6.7l-9.4-5.4l-5,4.5c-0.7,0.7-1.7,0.8-2.5,0.3l-1.7-1
		c-0.7-0.3-1.1-1.1-0.9-1.8c0.1-0.3,0.3-0.6,0.6-0.8L52,170.8z M50,189.2l1.8-8.5c0.4-1.8,1.3-4.8,1.3-4.8H53c0,0-2.1,2.3-3.4,3.5
		l-6.6,5.7L50,189.2z"/>
	<path class="st1" d="M61.1,177.1c0.1-1.3,1-1.9,2.2-1.3l2.1,1c0.9,0.3,1.4,1.3,1.2,2.2l-1.9,19.5c-0.2,1.9-0.8,4.6-0.8,4.6H64
		c0,0,1.6-2.3,2.9-3.6l13.5-14.3c0.5-0.8,1.6-1,2.4-0.6l2,0.9c0.8,0.2,1.2,1,1,1.7c-0.1,0.3-0.3,0.6-0.5,0.8L65.1,209
		c-0.6,0.7-1.6,0.9-2.4,0.5l-2.5-1.1c-0.9-0.3-1.4-1.2-1.3-2.1L61.1,177.1z"/>
	<path class="st1" d="M84.7,187.2c0.2-0.9,1.1-1.4,1.9-1.2c0.1,0,0.2,0.1,0.4,0.1l1.9,0.7c0.9,0.2,1.4,1.1,1.1,2
		c0,0.1-0.1,0.2-0.1,0.3l-9.4,25.5c-0.2,0.9-1,1.4-1.9,1.2c-0.1,0-0.3-0.1-0.4-0.1l-1.9-0.7c-0.9-0.2-1.4-1.1-1.2-1.9
		c0-0.1,0.1-0.3,0.2-0.4L84.7,187.2z"/>
	<path class="st1" d="M91.7,190.1c0.1-0.9,0.9-1.5,1.8-1.4c0.1,0,0.3,0.1,0.4,0.1l2.3,0.6c0.9,0.2,1.6,0.9,1.8,1.8l6.1,18.9
		c0.5,1.7,0.9,3.5,1.2,5.3h0.1c0,0,0.5-2.9,1-4.7l4.3-15.4c0.1-0.9,1-1.5,1.9-1.4c0.1,0,0.2,0.1,0.4,0.1l1.9,0.5
		c0.9,0.1,1.5,1,1.4,1.9c0,0.1-0.1,0.2-0.1,0.4l-7.3,26.3c-0.1,0.9-1,1.5-1.8,1.4c-0.1,0-0.3-0.1-0.4-0.1l-2.3-0.6
		c-0.9-0.2-1.6-0.9-1.7-1.8l-6.1-18.9c-0.6-2.1-1.2-5.3-1.2-5.3H95c0,0-0.5,2.9-1,4.7l-4.3,15.4c-0.1,0.9-0.9,1.5-1.8,1.4
		c-0.1,0-0.3-0.1-0.4-0.1l-1.9-0.5c-0.9-0.1-1.5-0.9-1.3-1.8c0-0.1,0.1-0.3,0.1-0.4L91.7,190.1z"/>
	<path class="st1" d="M131.7,197c3.5,0.5,6.9,1.9,9.6,4.3c0.7,0.6,0.8,1.6,0.2,2.3c-0.1,0.1-0.2,0.2-0.2,0.2l-1,1.1
		c-0.8,0.9-1.6,0.9-2.6,0.1c-1.9-1.6-4.1-2.6-6.5-2.9c-6.7-1-11.1,3.3-11.9,9c-0.9,6.4,2.9,11.5,8.6,12.3c2.9,0.5,5.9-0.3,8.2-2.2
		l0.5-3.4l-2.9-0.4c-0.9,0-1.6-0.8-1.6-1.7c0-0.1,0-0.2,0.1-0.4l0.2-1.2c0-0.9,0.8-1.6,1.7-1.6c0.1,0,0.3,0,0.4,0.1l6.1,0.9
		c0.9,0,1.6,0.7,1.6,1.6c0,0.1,0,0.3-0.1,0.4l-1.8,12.6c0,0.9-0.7,1.6-1.6,1.6c-0.1,0-0.3,0-0.4-0.1l-1.1-0.2
		c-1.2-0.2-1.7-0.9-1.5-1.7l0.1-0.7c0-0.2,0.1-0.5,0.1-0.7h-0.1c-2.7,1.9-6.1,2.7-9.4,2.1c-8.1-1.2-14.1-8.5-12.7-17.9
		C114.9,201.4,122.5,195.6,131.7,197z"/>
	<path class="st1" d="M164.4,199.1c9.3-0.1,16,6.7,16.2,15.5c0,3.5-1.1,7-3.3,9.8l2.1,1.9c0.8,0.5,1,1.5,0.5,2.3
		c-0.1,0.1-0.2,0.2-0.2,0.3l-0.8,0.8c-0.5,0.7-1.4,0.9-2.1,0.5c-0.1-0.1-0.2-0.1-0.3-0.2l-2.3-2.2c-2.7,2.1-6,3.2-9.4,3.2
		c-9.3,0.1-16-6.9-16.2-15.9c-0.3-8.5,6.4-15.7,14.9-16C163.9,199,164.2,199,164.4,199.1z M164.8,225.8c1.9,0,3.8-0.6,5.4-1.7
		l-2.2-2c-0.7-0.5-0.9-1.5-0.4-2.3c0.1-0.1,0.1-0.2,0.2-0.3l0.8-0.8c0.4-0.7,1.3-0.9,2.1-0.5c0.1,0.1,0.2,0.2,0.3,0.3l2.2,2.2
		c1.1-1.8,1.7-3.9,1.6-6c-0.1-6.1-4.5-10.5-10.3-10.5s-10.1,4.7-10,10.8S159,225.9,164.8,225.8z"/>
	<path class="st1" d="M177.5,201.9c-0.4-0.7-0.3-1.6,0.4-2c0.2-0.2,0.5-0.2,0.8-0.2l2.1-0.4c1-0.2,1.9,0.3,2.2,1.3l7.6,18.7
		c0.4,1,0.7,2.1,1,3.1h0.1c0-1.1,0-2.2,0.1-3.3l1.8-20.4c0-1,0.8-1.8,1.8-1.9l1.5-0.2c0.9-0.3,1.9,0.3,2.2,1.2l8.3,18.7
		c0.5,1,0.9,2,1.2,3.1h0.1c-0.1-1.1-0.1-2.2,0-3.3l1.4-20.2c-0.1-1,0.7-1.9,1.7-1.9c0,0,0,0,0,0l2-0.3c1.3-0.2,2,0.5,1.9,1.7
		l-2.5,28.1c0,1-0.8,1.8-1.8,1.8l-3,0.5c-0.9,0.2-1.9-0.3-2.2-1.2l-7.1-15.8c-0.9-1.9-1.5-3.9-1.5-3.9h-0.1c0,0,0,2.1-0.1,4.1
		l-1.6,17.2c0,1-0.7,1.8-1.7,1.9l-3.1,0.5c-0.9,0.2-1.9-0.3-2.2-1.2L177.5,201.9z"/>
	<path class="st1" d="M214.7,194.9c-0.4-0.8,0-1.8,0.8-2.1c0.1-0.1,0.2-0.1,0.4-0.1l14.2-4.3c0.8-0.4,1.8,0,2.2,0.9
		c0,0.1,0.1,0.2,0.1,0.3l0.4,1.2c0.3,0.8,0,1.8-0.9,2.1c-0.1,0.1-0.2,0.1-0.4,0.1l-10.6,3.2l2.3,7.7l8.2-2.5c0.8-0.4,1.8,0,2.1,0.8
		c0.1,0.1,0.1,0.2,0.1,0.4l0.4,1.2c0.4,0.8,0,1.8-0.8,2.2c-0.1,0.1-0.3,0.1-0.4,0.1l-8.2,2.5l2.4,8l11.2-3.4c0.8-0.4,1.8,0,2.1,0.8
		c0.1,0.1,0.1,0.2,0.1,0.4l0.4,1.2c0.4,0.8,0,1.8-0.8,2.2c-0.1,0.1-0.3,0.1-0.4,0.1l-14.9,4.4c-0.8,0.4-1.8,0-2.1-0.8
		c-0.1-0.1-0.1-0.3-0.1-0.4L214.7,194.9z"/>
	<path class="st1" d="M232.8,189.4c-0.4-0.8-0.2-1.8,0.6-2.2c0.1-0.1,0.2-0.1,0.4-0.2l7.7-3.1c2.8-1.1,4.3-1.5,5.8-1.5
		c3.4,0,6.4,2,8,5.9c1.4,3.4,0.9,7.3-1.6,9.7v0.1c0.5,0.3,1.1,0.7,1.5,1.1l8.2,6.7c1.2,0.9,1,2-0.4,2.5l-2.2,0.9
		c-0.8,0.4-1.8,0.3-2.5-0.4l-8.9-7.5l-5,2l3.7,9c0.4,0.8,0.2,1.7-0.6,2.2c-0.1,0.1-0.3,0.1-0.4,0.2l-1.9,0.8
		c-0.8,0.4-1.7,0.2-2.2-0.6c-0.1-0.1-0.1-0.3-0.2-0.4L232.8,189.4z M247.4,197.1c2.4-0.8,3.7-3.3,2.9-5.7c-0.1-0.2-0.2-0.5-0.3-0.7
		c-0.7-1.8-2-3-3.9-3c-1.1,0-2.3,0.3-3.3,0.8l-3.8,1.6l3.6,8.9L247.4,197.1z"/>
	<path class="st1" d="M259.6,181l-7.4,3.9c-0.7,0.5-1.7,0.4-2.2-0.4c-0.1-0.1-0.2-0.2-0.2-0.4l-0.6-1.1c-0.5-0.7-0.3-1.8,0.4-2.3
		c0.1-0.1,0.2-0.1,0.4-0.2l19.6-10.3c0.7-0.5,1.7-0.3,2.2,0.4c0.1,0.1,0.1,0.2,0.2,0.4l0.6,1.1c0.5,0.7,0.3,1.7-0.4,2.2
		c-0.1,0.1-0.2,0.1-0.4,0.2l-7.4,3.9l11.3,21.4c0.5,0.7,0.4,1.7-0.4,2.2c-0.1,0.1-0.3,0.2-0.4,0.2l-1.7,0.9
		c-0.7,0.5-1.7,0.3-2.2-0.4c-0.1-0.1-0.2-0.3-0.2-0.4L259.6,181z"/>
	<path class="st1" d="M284.7,181.7l-16.2-8.3c-1.3-0.6-1.3-1.7-0.2-2.5l2-1.3c0.7-0.5,1.7-0.5,2.5,0l7.7,4.2
		c1.9,1.1,3.8,2.4,3.8,2.4h0.1c0,0-0.5-2.4-0.7-4.5L283,163c-0.2-0.9,0.2-1.8,1-2.3l2-1.3c1.2-0.8,2.2-0.3,2.3,1.1l1,18.2l6.1,9.3
		c0.6,0.7,0.5,1.7-0.1,2.3c-0.1,0.1-0.2,0.2-0.4,0.2l-1.5,1c-0.7,0.6-1.7,0.5-2.3-0.1c-0.1-0.1-0.2-0.3-0.3-0.4L284.7,181.7z"/>
</g>
<path class="st9" d="M250.1,183.1c-0.7-1.8-2-3-3.9-3c-1.1,0-2.3,0.3-3.3,0.8l-2.4,1l2.2,5.5l4.7-1.9
	C248.5,185,249.5,184.2,250.1,183.1L250.1,183.1z"/>
<path class="st9" d="M49.5,171.7l-3.8,3.3l4.2,2.4l1.6-7.7C50.9,170.4,50.1,171.1,49.5,171.7z"/>
<path class="st9" d="M164.8,214c0.9,0,1.8-0.1,2.6-0.4c0-1.4,0-2.8,0-4.1c-0.2-0.6,0-1.3,0.4-1.7l0.8-0.8c0.4-0.7,1.3-0.9,2.1-0.5
	c0.1,0.1,0.2,0.2,0.3,0.3l2.2,2.2c0.7-1.2,1.2-2.5,1.4-3.8c-0.8-5.5-5.9-9.3-11.5-8.5c-4.4,0.6-7.9,4.1-8.5,8.5
	C155.5,210.3,159.6,214.1,164.8,214z"/>
<path class="st10" d="M90,180.1c0.1-0.3,0.1-0.7,0-1c0.1-0.3,0.1-0.7,0-1c0.1-0.3,0.1-0.7,0-1c0.3-0.8-0.2-1.7-1-2c0,0-0.1,0-0.1,0
	l-1.9-0.7c-0.5-0.2-1-0.2-1.4,0c-0.2-0.2-0.4-0.4-0.7-0.5l-2-0.9c-0.8-0.5-1.9-0.2-2.4,0.6l-13.5,14.3c-0.7,0.8-1.6,1.8-2.2,2.6
	l1.9-19.1c0-0.3,0-0.6,0-0.8v-0.2c0-0.3,0-0.6,0-0.8v-0.2c0-0.3,0-0.6,0-0.8v-0.2c0-0.3,0-0.6,0-0.8v-0.2c0.2-0.9-0.3-1.9-1.2-2.2
	l-2.1-1c-1.2-0.6-2.1,0-2.2,1.3l-2.3,29c0,0.2,0,0.5,0,0.7v0.3c0,0.2,0,0.5,0,0.7v0.3c0,0.2,0,0.5,0,0.7v0.3c0,0.2,0,0.5,0,0.7v0.3
	c-0.2,0.9,0.4,1.8,1.3,2.1l2.5,1.1c0.8,0.5,1.9,0.3,2.4-0.5l16.3-16.7l-6.1,16.3c-0.2,0.4-0.2,0.9-0.1,1.3c-0.1,0.3-0.1,0.7,0,1
	c-0.1,0.3-0.1,0.7,0,1c-0.1,0.3-0.1,0.7,0,1c-0.3,0.8,0.2,1.7,1,2c0,0,0.1,0,0.1,0l1.9,0.7c0.8,0.4,1.8,0.1,2.2-0.7
	c0.1-0.1,0.1-0.3,0.1-0.4l9.4-25.5C90.1,181,90.1,180.5,90,180.1z"/>
<path class="st10" d="M116,188.1c0.1-0.3,0.1-0.7,0-1c0.1-0.3,0.1-0.7,0-1c0.1-0.3,0.1-0.7,0-1c0.3-0.9-0.2-1.8-1-2.1
	c-0.1,0-0.2,0-0.3-0.1l-1.9-0.5c-0.8-0.3-1.8,0.1-2.1,0.9c0,0.1-0.1,0.2-0.1,0.4l-4.3,15.4c-0.5,1.8-1,4.7-1,4.7h-0.1
	c-0.3-1.8-0.7-3.6-1.2-5.3l-6.1-18.9c-0.2-0.9-0.9-1.6-1.8-1.8l-2.3-0.6c-0.8-0.3-1.8,0.1-2.1,0.9c0,0.1-0.1,0.3-0.1,0.4l-7.3,26.2
	c-0.1,0.4-0.1,0.8,0,1.2c-0.1,0.3-0.1,0.7,0,1c-0.1,0.3-0.1,0.7,0,1c-0.1,0.3-0.1,0.7,0,1c-0.3,0.8,0.1,1.7,1,2
	c0.1,0,0.2,0.1,0.3,0.1l1.9,0.5c0.8,0.3,1.8,0,2.1-0.9c0.1-0.1,0.1-0.3,0.1-0.4l4.3-15.4c0.5-1.8,1-4.7,1-4.7h0.1
	c0,0,0.6,3.2,1.2,5.3l6.1,18.9c0.2,0.9,0.8,1.6,1.7,1.8l2.3,0.6c0.8,0.4,1.8,0,2.1-0.9c0.1-0.1,0.1-0.3,0.1-0.4l7.3-26.2
	C116.1,188.8,116.1,188.4,116,188.1z"/>
<path class="st10" d="M295.7,177.8c0.2-0.6,0.1-1.2-0.3-1.6l-6.1-9.3l-1-18.2c-0.1-1.4-1-1.9-2.3-1.1l-2,1.3c-0.8,0.5-1.2,1.4-1,2.3
	v0.1c0,0.3,0,0.6,0,0.9v0.1c0,0.3,0,0.6,0,0.9v0.1c0,0.3,0,0.6,0,0.9v0.1c0,0.3,0,0.6,0,0.9l0.8,8.8l0,0c-0.7-0.5-2-1.3-3.2-2
	l-7.7-4.2c-0.7-0.5-1.7-0.5-2.5,0l-1.7,1.1l-18.7,9.8c-0.8,0.3-1.3,1.2-1,2c0,0,0,0,0,0v0.1c-0.6-0.1-1.1-0.2-1.7-0.2
	c-1.4,0-2.9,0.3-5.8,1.5l-7.7,3.1c-0.8,0.2-1.3,1.1-1.1,1.9c0,0,0,0,0,0.1c-0.1,0.3-0.1,0.7,0,1c0,0.1,0,0.1,0,0.2l-0.2-0.7
	c-0.2-0.9-1-1.5-1.9-1.3c-0.1,0-0.2,0.1-0.3,0.1l-14.2,4.3c-0.6,0.1-1.1,0.6-1.3,1.2c-0.3,0-0.6,0-0.8,0l-2,0.3
	c-1,0.1-1.8,0.9-1.7,1.9c0,0,0,0,0,0l-1.4,20.2c0,0.8,0,1.5,0,2c0,0.4,0,0.7,0,1c0,0.1,0,0.2,0,0.3l0,0c-0.3-1.1-0.7-2.1-1.2-3.1
	l-8.3-18.7c-0.3-0.9-1.2-1.5-2.2-1.2l-1.5,0.2c-1,0.1-1.7,0.9-1.8,1.9l-1.8,20.4c-0.1,1-0.1,2.1-0.1,3.1c0,0.1,0,0.2,0,0.3h-0.1
	c-0.3-1.1-0.6-2.1-1-3.1l-7.6-18.7c-0.3-0.9-1.2-1.5-2.2-1.3l-2.1,0.4c-1.2,0.2-1.6,0.9-1.3,1.9c-0.1,0.3-0.1,0.7,0,1
	c-0.1,0.3-0.1,0.7,0,1c-0.1,0.3-0.1,0.7,0,1c-0.1,0.1-0.1,0.3-0.1,0.4c-3.1-4-7.9-6.2-12.9-6c-8.5-0.1-15.6,6.7-15.7,15.2
	c0,0.3,0,0.5,0,0.8c0,0.1,0,0.2,0,0.4s0,0.4,0,0.7s0,0.2,0,0.4s0,0.4,0,0.7s0,0.2,0,0.4s0,0.4,0,0.7s0,0.2,0,0.4s0,0.4,0,0.7
	c0.1,9,6.8,16,16.2,15.9c3.4,0,6.7-1.1,9.4-3.2l2.3,2.2c0.6,0.6,1.5,0.6,2.1,0.1c0.1-0.1,0.2-0.2,0.2-0.3l0.8-0.8
	c0.5-0.5,0.6-1.1,0.4-1.7c0.1-0.3,0.1-0.7,0-1c0.1-0.3,0.1-0.7,0-1c0.1-0.3,0.1-0.7,0-1c0.2-0.7,0-1.4-0.6-1.9l-0.5-0.5
	c1.1-2.2,1.7-4.7,1.6-7.2c0-0.1,0-0.2,0-0.3s0-0.5,0-0.7s0-0.2,0-0.3s0-0.5,0-0.7s0-0.2,0-0.3s0-0.5,0-0.7s0-0.2,0-0.3s0-0.5,0-0.7
	c0-0.7-0.1-1.3-0.1-2l8.3,19.1c0.3,0.9,1.3,1.5,2.2,1.2l3.1-0.5c1-0.1,1.7-0.9,1.7-1.9l1.6-17.2c0.1-1.8,0.1-3.6,0.1-4v-0.1h0.1
	c0,0,0.6,2,1.5,3.9l7.1,15.8c0.3,0.9,1.3,1.5,2.2,1.2l3-0.5c1-0.1,1.7-0.9,1.8-1.8l2.3-26l7,23.3c0.1,0.9,0.9,1.5,1.8,1.4
	c0.1,0,0.3-0.1,0.4-0.1l14.9-4.5c0.9-0.1,1.5-1,1.3-1.8c0-0.1,0-0.2-0.1-0.3c0.1-0.3,0.1-0.7,0-1c0.1-0.3,0.1-0.7,0-1
	c0.1-0.3,0.1-0.7,0-1c0.1-0.4,0.1-0.8,0-1.2l-0.4-1.2c-0.2-0.9-1-1.5-1.9-1.3c-0.1,0-0.3,0.1-0.4,0.1l-11.3,3.4l-1.3-4.2l7.1-2.1
	c0.9-0.1,1.5-1,1.3-1.8c0-0.1,0-0.2-0.1-0.3c0-1,0-2,0-3c0.1-0.4,0.1-0.8,0-1.2l-0.4-1.2c-0.2-0.9-1-1.5-1.9-1.3
	c-0.1,0-0.3,0.1-0.4,0.1l-8.5,2.5l-1.2-4l9.5-2.9c0.9-0.1,1.5-1,1.3-1.8c0-0.1,0-0.2-0.1-0.3c0.1-0.3,0.1-0.7,0-1
	c0-0.1,0-0.2,0.1-0.3l10.2,25c0.2,0.9,1.1,1.4,1.9,1.2c0.1,0,0.3-0.1,0.4-0.2l1.8-0.8c0.8-0.2,1.3-1.1,1.1-1.9c0,0,0-0.1,0-0.1
	c0.1-0.3,0.1-0.7,0-1c0.1-0.3,0.1-0.7,0-1c0.1-0.3,0.1-0.7,0-1c0.1-0.5,0.1-0.9-0.1-1.4l-2.2-5.5l3.6-1.5l8.9,7.5
	c0.7,0.6,1.6,0.8,2.5,0.4l2.2-0.9c1-0.4,1.3-1.1,1-1.8c0.2-0.3,0.2-0.7,0-1c0.2-0.3,0.2-0.7,0-1c0.2-0.3,0.2-0.7,0-1
	c0.3-0.5,0.1-1.2-0.6-1.7l-8-6.5c0.4-1.2,0.6-2.5,0.5-3.7c0-0.3,0-0.7,0-1c0-0.3,0-0.7,0-1c0-0.3,0-0.7,0-1c0.1-1.5-0.2-3-0.8-4.3
	c-0.1-0.3-0.2-0.5-0.4-0.8l4.7-2.5l11.3,21.4c0.3,0.8,1.2,1.3,2,1c0.1,0,0.3-0.1,0.4-0.2l1.7-0.9c0.8-0.3,1.3-1.1,1-2c0,0,0,0,0,0
	c0.1-0.3,0.1-0.7,0-1c0.1-0.3,0.1-0.7,0-1c0.1-0.3,0.1-0.7,0-1c0.2-0.5,0.1-1.1-0.2-1.5l-9.6-18.3l5-2.6l13.5,6.9l6.1,9.3
	c0.4,0.8,1.3,1.2,2.1,0.8c0.1-0.1,0.3-0.2,0.4-0.3l1.6-1.1c0.7-0.3,1.1-1.2,0.8-1.9c0.1-0.3,0.1-0.7,0-1c0.1-0.3,0.1-0.7,0-1
	C295.9,178.6,295.9,178.2,295.7,177.8z M247.4,185.4l-4.7,1.9l-2.2-5.5l2.4-1c1-0.5,2.2-0.8,3.3-0.8c1.8,0,3.1,1.2,3.9,3l0,0
	C249.5,184.1,248.5,184.9,247.4,185.4L247.4,185.4z M164.5,196.5c5.1-0.1,9.4,3.6,10.1,8.6c-0.2,1.3-0.7,2.6-1.4,3.8l-2.2-2.2
	c-0.6-0.6-1.5-0.6-2.1-0.1c-0.1,0.1-0.2,0.2-0.3,0.3l-0.8,0.8c-0.5,0.4-0.6,1.1-0.4,1.7c-0.1,0.3-0.1,0.7,0,1c-0.1,0.3-0.1,0.7,0,1
	c0,0.7,0,1.4,0,2.1c-0.9,0.3-1.8,0.4-2.6,0.4c-5.2,0.1-9.3-3.7-10.1-9C155.3,200.1,159.5,196.5,164.5,196.5L164.5,196.5z"/>
<path class="st10" d="M56.9,160.2l-2.4-1.4c-0.8-0.5-1.8-0.4-2.5,0.3l-16.4,14c0-0.5,0-0.9,0-1.4c0-0.3,0-0.7,0-1c0-0.3,0-0.7,0-1
	c0-0.3,0-0.7,0-1c0.3-4.4-3.5-8.4-5-11.8l0,0c1.2-1.7,3.5-1.8,5.8-0.1c1.5,1.1,2.7,2.7,3.4,4.5c0.5,0.9,1.1,1.6,2.4,1l1.5-0.7
	c0.8-0.3,1.3-1.2,1-2.1c0.1-0.3,0.1-0.7,0-1c0.1-0.3,0.1-0.7,0-1c0.1-0.3,0.1-0.7,0-1c0.1-0.4,0.1-0.9-0.1-1.3
	c-1-2.6-2.8-4.9-5.1-6.5c-4.8-3.4-10.5-3.2-13.7,1.2c-1.1,1.4-1.6,3.1-1.4,4.9c0,0.3,0,0.7,0,1c0,0.3,0,0.7,0,1c0,0.3,0,0.7,0,1
	c-0.3,4.4,3.5,8.5,4.9,11.9l-0.1,0.1c-1.2,1.7-3.5,1.9-5.8,0.2c-1.8-1.4-3.1-3.3-3.8-5.5c-0.5-1.1-1.2-1.5-2.3-1.1l-1.6,0.6
	c-0.9,0.1-1.5,0.9-1.3,1.8c0,0.1,0,0.2,0.1,0.3c-0.1,0.3-0.1,0.7,0,1c-0.1,0.3-0.1,0.7,0,1c-0.1,0.3-0.1,0.7,0,1
	c-0.1,0.4-0.1,0.8,0,1.1c1.1,3.2,3.1,6.1,5.9,8.1c2.5,2,5.7,2.7,8.8,2c0,0.2,0,0.3,0.1,0.5c-0.2,0.3-0.2,0.7,0,1
	c-0.2,0.3-0.2,0.7,0,1c-0.3,0.7,0,1.3,0.8,1.8l1.7,1c0.8,0.6,1.9,0.4,2.5-0.3l5-4.5l8.6,5l-0.6,3c0,1.4,0,2.7,0,4.1
	c-0.3,0.9,0.2,1.8,1,2.3l1.7,1c0.6,0.5,1.5,0.4,2-0.2c0.2-0.3,0.3-0.6,0.3-0.9l5.3-28.5c0.1-0.3,0.1-0.7,0-1.1c0.1-0.3,0.1-0.7,0-1
	c0.1-0.3,0.1-0.7,0-1c0.1-0.3,0.1-0.7,0-1C58,161.7,57.7,160.7,56.9,160.2z M49.9,177.4l-4.2-2.4l3.8-3.3c0.6-0.6,1.4-1.3,2-2
	L49.9,177.4z"/>
<path class="st10" d="M140.5,201.8l-6.1-0.9c-0.9-0.2-1.8,0.3-2,1.1c0,0.1-0.1,0.3-0.1,0.4l-0.2,1.2c-0.1,0.3-0.1,0.6,0,0.9v0.2
	c-0.1,0.3-0.1,0.6,0,0.9v0.2c-0.1,0.3-0.1,0.6,0,0.9v0.2c-0.1,0.3-0.1,0.6,0,0.9v0.2c-0.2,0.9,0.3,1.8,1.2,2c0.1,0,0.2,0,0.4,0.1
	l1.8,0.3c-2.2,1.5-4.9,2.1-7.6,1.7c-4.4-0.6-7.9-4-8.6-8.5c0.9-5.7,5.3-9.9,11.9-8.9c2.4,0.3,4.6,1.3,6.5,2.9c1,0.8,1.8,0.8,2.6-0.1
	l1-1.1c0.5-0.4,0.7-1.1,0.5-1.8c0.1-0.3,0.1-0.7,0-1c0.1-0.3,0.1-0.7,0-1c0.1-0.3,0.1-0.7,0-1c0.2-0.6,0-1.4-0.5-1.8
	c-2.7-2.3-6-3.9-9.6-4.4c-9.1-1.4-16.8,4.5-18.1,13.6c-0.2,1.1-0.2,2.3-0.2,3.5c0,0.3,0,0.7,0,1s0,0.7,0,1s0,0.7,0,1
	c-0.4,7.7,5.2,14.5,12.9,15.5c3.3,0.6,6.6-0.1,9.3-2l0,0l0,0.3c0,0.2,0,0.5,0,0.7l0,0.3c-0.1,0.9,0.4,1.5,1.5,1.7l1.1,0.2
	c0.9,0.2,1.7-0.3,1.9-1.1c0-0.1,0.1-0.3,0.1-0.4l1.9-12.5c0.1-0.3,0.1-0.6,0-0.9v-0.1c0.1-0.3,0.1-0.6,0-0.9v-0.1
	c0.1-0.3,0.1-0.6,0-0.9v-0.1c0.1-0.3,0.1-0.6,0-0.9v-0.1c0.3-0.8-0.2-1.7-1.1-2C140.8,201.8,140.6,201.8,140.5,201.8z"/>
<path class="st11" d="M15.9,163.4l1.6-0.6c1.1-0.4,1.8,0,2.3,1.1c0.7,2.2,2,4.1,3.8,5.5c2.3,1.7,4.6,1.5,5.8-0.2
	c3.4-4.8-9-12.1-3.4-20c3.2-4.4,8.9-4.7,13.7-1.2c2.3,1.6,4.1,3.9,5.1,6.5c0.4,0.9,0,1.9-0.8,2.3c0,0-0.1,0-0.2,0.1l-1.5,0.7
	c-1.3,0.6-1.9,0-2.4-1c-0.7-1.8-1.8-3.3-3.4-4.5c-2.3-1.7-4.6-1.6-5.8,0.1c-3.4,4.7,9.2,11.9,3.5,19.9c-2.9,4.1-8.4,5.3-13.6,1.5
	c-2.8-2-4.8-4.8-5.9-8.1c-0.3-0.8,0.1-1.8,1-2.1C15.7,163.4,15.8,163.4,15.9,163.4z"/>
<path class="st11" d="M52,158.6c0.7-0.7,1.7-0.8,2.5-0.3l2.4,1.4c0.9,0.4,1.3,1.4,1,2.3l-5.3,28.5c0,0.8-0.6,1.4-1.4,1.4
	c-0.3,0-0.7-0.1-0.9-0.3l-1.7-1c-0.9-0.4-1.3-1.4-1-2.3l1.3-6.7l-9.4-5.4l-5,4.5c-0.7,0.7-1.7,0.8-2.5,0.3l-1.7-1
	c-0.7-0.3-1.1-1.1-0.9-1.8c0.1-0.3,0.3-0.6,0.6-0.8L52,158.6z M50,176.9l1.8-8.5c0.4-1.8,1.3-4.8,1.3-4.8H53c0,0-2.1,2.3-3.4,3.5
	l-6.5,5.8L50,176.9z"/>
<path class="st11" d="M61.1,164.9c0.1-1.3,1-1.9,2.2-1.3l2.1,1c0.9,0.3,1.4,1.3,1.2,2.2l-1.9,19.5c-0.2,1.9-0.8,4.6-0.8,4.6H64
	c0,0,1.6-2.3,2.9-3.6L80.4,173c0.5-0.8,1.6-1,2.4-0.6l2,0.9c0.8,0.2,1.2,1,1,1.7c-0.1,0.3-0.3,0.6-0.5,0.8l-20.3,20.8
	c-0.6,0.7-1.6,0.9-2.4,0.5l-2.5-1.1c-0.9-0.3-1.4-1.2-1.3-2.1L61.1,164.9z"/>
<path class="st11" d="M84.7,174.9c0.2-0.9,1.1-1.4,1.9-1.2c0.1,0,0.2,0.1,0.4,0.1l1.9,0.7c0.9,0.2,1.4,1.1,1.1,2
	c0,0.1-0.1,0.2-0.1,0.3l-9.4,25.5c-0.2,0.9-1,1.4-1.9,1.2c-0.1,0-0.3-0.1-0.4-0.1l-1.9-0.7c-0.9-0.2-1.4-1.1-1.2-1.9
	c0-0.1,0.1-0.3,0.2-0.4L84.7,174.9z"/>
<path class="st11" d="M91.7,177.8c0.1-0.9,0.9-1.5,1.8-1.4c0.1,0,0.3,0.1,0.4,0.1l2.3,0.6c0.9,0.2,1.6,0.9,1.8,1.8l6.1,18.9
	c0.5,1.7,0.9,3.5,1.2,5.3h0.1c0,0,0.5-2.9,1-4.7l4.3-15.4c0.1-0.9,1-1.5,1.9-1.4c0.1,0,0.2,0.1,0.4,0.1l1.9,0.5
	c0.9,0.1,1.5,1,1.4,1.9c0,0.1-0.1,0.2-0.1,0.4l-7.3,26.2c-0.1,0.9-1,1.5-1.8,1.4c-0.1,0-0.3-0.1-0.4-0.1l-2.3-0.6
	c-0.9-0.2-1.6-0.9-1.7-1.8l-6.1-18.9c-0.6-2.1-1.2-5.3-1.2-5.3H95c0,0-0.5,2.9-1,4.7l-4.3,15.4c-0.1,0.9-0.9,1.5-1.8,1.4
	c-0.1,0-0.3-0.1-0.4-0.1l-1.9-0.5c-0.9-0.1-1.5-0.9-1.3-1.8c0-0.1,0.1-0.3,0.1-0.4L91.7,177.8z"/>
<path class="st11" d="M131.7,184.7c3.5,0.5,6.9,2,9.6,4.3c0.7,0.6,0.8,1.6,0.2,2.3c-0.1,0.1-0.2,0.2-0.2,0.2l-1,1.1
	c-0.8,0.9-1.6,0.9-2.6,0.1c-1.9-1.6-4.1-2.6-6.5-2.9c-6.7-1-11.1,3.3-11.9,9c-0.9,6.4,2.9,11.5,8.6,12.3c2.9,0.5,5.9-0.3,8.2-2.2
	l0.5-3.4l-2.9-0.4c-0.9,0-1.6-0.8-1.6-1.7c0-0.1,0-0.2,0.1-0.4l0.2-1.2c0-0.9,0.8-1.6,1.7-1.6c0.1,0,0.3,0,0.4,0.1l6.1,0.9
	c0.9,0,1.6,0.7,1.6,1.6c0,0.1,0,0.3-0.1,0.4l-1.9,12.5c0,0.9-0.7,1.6-1.6,1.6c-0.1,0-0.3,0-0.4-0.1l-1.1-0.2
	c-1.2-0.2-1.7-0.9-1.5-1.7l0.1-0.7c0-0.2,0.1-0.5,0.1-0.7h-0.1c-2.7,1.9-6.1,2.7-9.4,2.2c-8.1-1.2-14.1-8.5-12.7-17.9
	C114.9,189.1,122.5,183.3,131.7,184.7z"/>
<path class="st11" d="M164.4,186.8c9.3-0.1,16,6.7,16.2,15.5c0,3.5-1.1,7-3.3,9.8l2.1,1.9c0.8,0.5,1,1.5,0.5,2.3
	c-0.1,0.1-0.2,0.2-0.2,0.3l-0.8,0.8c-0.5,0.7-1.4,0.9-2.1,0.5c-0.1-0.1-0.2-0.1-0.3-0.2l-2.3-2.2c-2.7,2.1-6,3.2-9.4,3.2
	c-9.3,0.1-16-6.9-16.2-15.9c-0.3-8.5,6.4-15.7,14.9-16C163.9,186.8,164.2,186.8,164.4,186.8z M164.8,213.5c1.9,0,3.8-0.6,5.4-1.7
	l-2.2-2c-0.7-0.5-0.9-1.5-0.4-2.3c0.1-0.1,0.1-0.2,0.2-0.3l0.8-0.8c0.4-0.7,1.3-0.9,2.1-0.5c0.1,0.1,0.2,0.2,0.3,0.3l2.2,2.2
	c1.1-1.8,1.7-3.9,1.6-6c-0.1-6.1-4.5-10.6-10.3-10.5s-10.1,4.7-10,10.8S159,213.6,164.8,213.5L164.8,213.5z"/>
<path class="st11" d="M177.5,189.6c-0.4-0.7-0.3-1.6,0.4-2c0.2-0.2,0.5-0.2,0.8-0.2l2.1-0.4c1-0.2,1.9,0.3,2.2,1.3l7.6,18.7
	c0.4,1,0.7,2.1,1,3.1h0.1c0-1.1,0-2.2,0.1-3.3l1.8-20.4c0-1,0.8-1.8,1.8-1.9l1.5-0.2c0.9-0.3,1.9,0.3,2.2,1.2l8.3,18.7
	c0.5,1,0.9,2,1.2,3.1h0.1c-0.1-1.1-0.1-2.2,0-3.3l1.4-20.2c-0.1-1,0.7-1.9,1.7-1.9c0,0,0,0,0,0l2-0.3c1.3-0.2,2,0.5,1.9,1.7
	l-2.5,28.1c0,1-0.8,1.8-1.8,1.8l-3,0.5c-0.9,0.2-1.9-0.3-2.2-1.2l-7.1-15.8c-0.8-1.9-1.5-3.9-1.5-3.9h-0.1c0,0,0,2.1-0.1,4.1
	l-1.6,17.2c0,1-0.7,1.8-1.7,1.9l-3.1,0.5c-0.9,0.2-1.9-0.3-2.2-1.2L177.5,189.6z"/>
<path class="st11" d="M214.7,182.6c-0.4-0.8,0-1.8,0.8-2.1c0.1-0.1,0.2-0.1,0.4-0.1l14.2-4.3c0.8-0.4,1.8,0,2.2,0.9
	c0,0.1,0.1,0.2,0.1,0.3l0.4,1.2c0.3,0.8,0,1.8-0.9,2.1c-0.1,0.1-0.2,0.1-0.4,0.1l-10.6,3.2l2.3,7.7l8.2-2.5c0.8-0.4,1.8,0,2.1,0.8
	c0.1,0.1,0.1,0.2,0.1,0.4l0.4,1.2c0.4,0.8,0,1.8-0.8,2.2c-0.1,0.1-0.3,0.1-0.4,0.1l-8.2,2.5l2.4,8l11.2-3.4c0.8-0.4,1.8,0,2.1,0.8
	c0.1,0.1,0.1,0.2,0.1,0.4l0.4,1.2c0.4,0.8,0,1.8-0.8,2.2c-0.1,0.1-0.3,0.1-0.4,0.1l-14.9,4.5c-0.8,0.4-1.8,0-2.1-0.8
	c-0.1-0.1-0.1-0.3-0.1-0.4L214.7,182.6z"/>
<path class="st11" d="M232.8,177.1c-0.4-0.8-0.2-1.8,0.6-2.2c0.1-0.1,0.2-0.1,0.4-0.2l7.7-3.1c2.8-1.1,4.3-1.5,5.8-1.5
	c3.4,0,6.4,2,8,5.9c1.4,3.4,0.9,7.3-1.6,9.7v0.1c0.5,0.3,1.1,0.7,1.5,1.1l8.2,6.7c1.2,0.9,1,2-0.4,2.5l-2.2,0.9
	c-0.8,0.4-1.8,0.3-2.5-0.4l-8.9-7.5l-5,2l3.7,9c0.4,0.8,0.2,1.7-0.6,2.2c-0.1,0.1-0.3,0.1-0.4,0.2l-1.9,0.8
	c-0.8,0.4-1.7,0.2-2.2-0.6c-0.1-0.1-0.1-0.3-0.2-0.4L232.8,177.1z M247.4,184.8c2.4-0.8,3.7-3.3,2.9-5.7c-0.1-0.2-0.2-0.5-0.3-0.7
	c-0.7-1.8-2-3-3.9-3c-1.1,0-2.3,0.3-3.3,0.8l-3.8,1.6l3.6,8.9L247.4,184.8z"/>
<path class="st11" d="M259.6,168.7l-7.4,3.9c-0.7,0.5-1.7,0.4-2.2-0.4c-0.1-0.1-0.2-0.2-0.2-0.4l-0.6-1.1c-0.5-0.7-0.3-1.8,0.4-2.3
	c0.1-0.1,0.2-0.1,0.4-0.2l19.6-10.3c0.7-0.5,1.7-0.3,2.2,0.4c0.1,0.1,0.1,0.2,0.2,0.4l0.6,1.1c0.5,0.7,0.3,1.7-0.4,2.2
	c-0.1,0.1-0.2,0.1-0.4,0.2l-7.4,3.9l11.3,21.4c0.5,0.7,0.4,1.7-0.4,2.2c-0.1,0.1-0.3,0.2-0.4,0.2l-1.7,0.9c-0.7,0.5-1.7,0.3-2.2-0.4
	c-0.1-0.1-0.2-0.3-0.2-0.4L259.6,168.7z"/>
<path class="st11" d="M284.7,169.4l-16.2-8.3c-1.3-0.6-1.3-1.7-0.2-2.5l2-1.3c0.7-0.5,1.7-0.5,2.5,0l7.7,4.2
	c1.9,1.1,3.8,2.4,3.8,2.4h0.1c0,0-0.5-2.4-0.7-4.5l-0.8-8.8c-0.2-0.9,0.2-1.8,1-2.3l2-1.3c1.2-0.8,2.2-0.3,2.3,1.1l1,18.2l6.1,9.3
	c0.6,0.7,0.5,1.7-0.1,2.3c-0.1,0.1-0.2,0.2-0.4,0.2l-1.5,1c-0.7,0.6-1.7,0.5-2.3-0.1c-0.1-0.1-0.2-0.3-0.3-0.4L284.7,169.4z"/>
</svg>
