<svg id="Layer_1" data-name="Layer 1" xmlns="http://www.w3.org/2000/svg" xmlns:xlink="http://www.w3.org/1999/xlink" viewBox="0 0 503.73 503.73"><defs><style>.cls-1,.cls-5{fill:none;}.cls-2{fill:#00a69c;}.cls-3{fill:#008078;}.cls-4{opacity:0.39;fill:url(#New_Pattern_Swatch_1);}.cls-5{stroke:#00a69c;stroke-linecap:round;stroke-miterlimit:10;stroke-width:23.11px;}.cls-6{fill:#356867;}.cls-7{fill:#1a4342;}.cls-8{fill:#f9ae41;}.cls-9{fill:#f05a29;}.cls-10{fill:#fff9b4;}.cls-11{fill:#cac795;}.cls-12{opacity:0.63;}.cls-13,.cls-15{opacity:0.21;}.cls-14,.cls-15{fill:#3c3738;}.cls-16{fill:#c57631;}.cls-17{fill:#ad7a2b;}.cls-18{fill:#faaf40;}.cls-19{fill:#95423f;}.cls-20{fill:#b85350;}.cls-21{fill:#fff;}.cls-22{fill:#c8c593;}</style><pattern id="New_Pattern_Swatch_1" data-name="New Pattern Swatch 1" width="258.8" height="148.03" patternTransform="translate(100.26 -134.86)" patternUnits="userSpaceOnUse" viewBox="0 0 258.8 148.03"><rect class="cls-1" width="258.8" height="148.03"/><path class="cls-2" d="M254,130.55l1,2.84-6.58,2.39-1-2.85L244,134.16l1,2.85-6.58,2.39-1-2.85-3.37,1.23,1,2.85L228.55,143l-1-2.85-3.37,1.23,1,2.85-6.58,2.39-1-2.85L214.2,145l1,2.85-6.58,2.4-1-2.85-.48.17a4.74,4.74,0,0,0-2.82,6.06l4.08,11.2a4.74,4.74,0,0,0,6.06,2.82l.48-.17-1.67-4.58,6.58-2.39,1.67,4.58-1.69.61,6.61-2.41-1.56.57-1.67-4.58,6.58-2.39,1.67,4.58,3.37-1.23-1.67-4.58,6.58-2.39,1.67,4.58-2.14.78,7.63-2.78-2.12.77L243.09,152l6.58-2.39,1.67,4.58,3.37-1.23L253,148.43l6.58-2.39,1.66,4.57a4.74,4.74,0,0,0,2.59-6l-4.08-11.2A4.74,4.74,0,0,0,254,130.55Z"/><path class="cls-2" d="M201.63,149.67c-3.67.31-7-3.88-7.48-9.36s2.14-10.17,5.81-10.48,7,3.88,7.48,9.36S205.3,149.36,201.63,149.67ZM202,143a3.74,3.74,0,1,0-4.79-2.23A3.74,3.74,0,0,0,202,143Z"/><circle class="cls-2" cx="200.83" cy="139.46" r="1.12" transform="translate(1.08 280.47) rotate(-70)"/><path class="cls-2" d="M259.48,128.61c-3,2.12-8,.2-11.19-4.29s-3.3-9.86-.29-12,8-.2,11.19,4.29S262.49,126.49,259.48,128.61ZM257.13,119a3.74,3.74,0,1,0-2.23,4.79A3.74,3.74,0,0,0,257.13,119Z"/><circle class="cls-2" cx="253.53" cy="120.28" r="1.12" transform="translate(53.82 317.4) rotate(-70.01)"/><path class="cls-2" d="M219.51,131.55a4.61,4.61,0,0,0,.3-.5l.26-.51,1.86,1-.28.5a7.58,7.58,0,0,1-.44.67,9.12,9.12,0,0,1-.68.84,8.77,8.77,0,0,1-1.58,1.3l8.19-3a5,5,0,0,0-9.74,1.67,6.64,6.64,0,0,0,1.64-1.34A7.24,7.24,0,0,0,219.51,131.55Z"/><path class="cls-2" d="M235.05,128.25A9.18,9.18,0,0,1,234,128a7.62,7.62,0,0,1-.77-.23l-.54-.21.79-1.95.53.23a4.61,4.61,0,0,0,.55.19,7.25,7.25,0,0,0,.77.18l.6.06a5,5,0,0,0-8.21,5.33l9.38-3.42A8.76,8.76,0,0,1,235.05,128.25Z"/><path class="cls-2" d="M214.68,136.13a8.17,8.17,0,0,0,3.55-.89c.25-.13.49-.26.71-.4a8.77,8.77,0,0,0,1.58-1.3,9.12,9.12,0,0,0,.68-.84,7.58,7.58,0,0,0,.44-.67l.28-.5-1.86-1-.26.51a4.61,4.61,0,0,1-.3.5,7.24,7.24,0,0,1-.47.63,6.64,6.64,0,0,1-1.64,1.34l-.05,0a6.33,6.33,0,0,1-2.73.81,6.4,6.4,0,0,1-3.32-.69,5.08,5.08,0,0,1-2.41-2.77,5.18,5.18,0,0,1,.19-4,4.11,4.11,0,0,1,3.3-2.3,4.31,4.31,0,0,1,2.07.32,3.53,3.53,0,0,1,.9.58,3.18,3.18,0,0,1,.65.81,3.24,3.24,0,0,1-.41,3.84,2.67,2.67,0,0,1-3.55.17,2.2,2.2,0,0,1-.72-1.61,2,2,0,0,1,.66-1.52,1.78,1.78,0,0,1,1.49-.38,1.47,1.47,0,0,1,1.1.86,1.45,1.45,0,0,1,0,1.25,1.17,1.17,0,0,1-.88.6,1.14,1.14,0,0,1-.85-.23,1,1,0,0,1-.26-1.14,1,1,0,0,0-.09.56,1,1,0,0,0,.32.61,1.21,1.21,0,0,0,.9.28,1.28,1.28,0,0,0,1-.62,1.61,1.61,0,0,0,.11-1.39,1.7,1.7,0,0,0-1.22-1,2.07,2.07,0,0,0-1.76.37,2.54,2.54,0,0,0-.07,3.75,3.25,3.25,0,0,0,4.34,0,3.5,3.5,0,0,0,.43-.47l.19-.27.14-.25a4.46,4.46,0,0,0,.38-1.22,4.17,4.17,0,0,0-.43-2.52,4.07,4.07,0,0,0-.78-1.06,4.56,4.56,0,0,0-1.07-.76,5.23,5.23,0,0,0-6.92,2.24,6.52,6.52,0,0,0-.45,5,6.6,6.6,0,0,0,3,3.73A8.11,8.11,0,0,0,214.68,136.13Z"/><path class="cls-2" d="M234.56,126.07a4.61,4.61,0,0,1-.55-.19l-.53-.23-.79,1.95.54.21a7.62,7.62,0,0,0,.77.23,9.18,9.18,0,0,0,1.06.2,8.76,8.76,0,0,0,2,0c.26,0,.53-.08.8-.15a8.16,8.16,0,0,0,5.81-5.06,6.6,6.6,0,0,0-.09-4.8,6.52,6.52,0,0,0-3.57-3.56,5.22,5.22,0,0,0-6.74,2.74,4.55,4.55,0,0,0-.33,1.27,4.07,4.07,0,0,0,.08,1.32,4.17,4.17,0,0,0,1.29,2.2,4.47,4.47,0,0,0,1.08.69l.27.1.32.09a3.5,3.5,0,0,0,.63.08A3.25,3.25,0,0,0,240,120.4a2.54,2.54,0,0,0-2.47-2.83,2.07,2.07,0,0,0-1.58.84,1.7,1.7,0,0,0-.27,1.58,1.61,1.61,0,0,0,1,1,1.28,1.28,0,0,0,1.16-.16,1.21,1.21,0,0,0,.5-.79,1,1,0,0,0-.15-.68,1,1,0,0,0-.43-.37,1,1,0,0,1,.53,1,1.14,1.14,0,0,1-.5.73,1.17,1.17,0,0,1-1.06.11,1.45,1.45,0,0,1-.84-.93,1.47,1.47,0,0,1,.29-1.36,1.78,1.78,0,0,1,1.39-.67,2,2,0,0,1,1.49.74,2.2,2.2,0,0,1,.49,1.7,2.68,2.68,0,0,1-2.83,2.15,3.24,3.24,0,0,1-2.78-2.68,3.19,3.19,0,0,1,0-1,3.52,3.52,0,0,1,.31-1,4.31,4.31,0,0,1,1.38-1.58,4.11,4.11,0,0,1,4-.36,5.18,5.18,0,0,1,2.7,2.93,5.08,5.08,0,0,1-.07,3.67,6.41,6.41,0,0,1-2.1,2.67,6.38,6.38,0,0,1-4.18,1.23l-.6-.06A7.25,7.25,0,0,1,234.56,126.07Z"/><path class="cls-2" d="M215.58,102.74c-1.67,5.64-6.63,5.59-12.27,3.92s-9.84-4.31-8.17-10a10.66,10.66,0,1,1,20.44,6Z"/><path class="cls-2" d="M199.69,92.55l-4.33-4.15a1.87,1.87,0,0,1-.05-2.64h0a1.87,1.87,0,0,1,2.64-.05l4.33,4.15a1.87,1.87,0,0,1,.05,2.64h0A1.87,1.87,0,0,1,199.69,92.55Z"/><path class="cls-2" d="M220,99.14a5.37,5.37,0,1,0-6.67,3.63A5.37,5.37,0,0,0,220,99.14Zm-1.4-.41A3.91,3.91,0,1,1,216,93.87,3.91,3.91,0,0,1,218.6,98.73Z"/><ellipse class="cls-2" cx="208.56" cy="90.14" rx="4.89" ry="2.83" transform="translate(-16.99 62.78) rotate(-16.46)"/><circle class="cls-2" cx="209.19" cy="87.38" r="1.45" transform="translate(-16.18 62.84) rotate(-16.46)"/><path class="cls-2" d="M-4.81,130.55l1,2.84-6.58,2.39-1-2.85-3.37,1.23,1,2.85-6.58,2.39-1-2.85-3.37,1.23,1,2.85L-30.25,143l-1-2.85-3.37,1.23,1,2.85-6.58,2.39-1-2.85L-44.6,145l1,2.85-6.58,2.4-1-2.85-.48.17a4.74,4.74,0,0,0-2.82,6.06l4.08,11.2a4.74,4.74,0,0,0,6.06,2.82l.48-.17-1.67-4.58,6.58-2.39,1.67,4.58-1.69.61,6.61-2.41-1.56.57-1.67-4.58,6.58-2.39,1.67,4.58,3.37-1.23-1.67-4.58,6.58-2.39,1.67,4.58-2.14.78,7.63-2.78-2.12.77L-15.7,152l6.58-2.39,1.67,4.58L-4.09,153l-1.67-4.58L.82,146l1.66,4.57a4.74,4.74,0,0,0,2.59-6L1,133.45A4.74,4.74,0,0,0-4.81,130.55Z"/><path class="cls-2" d="M.69,128.61c-3,2.12-8,.2-11.19-4.29s-3.3-9.86-.29-12,8-.2,11.19,4.29S3.7,126.49.69,128.61ZM-1.66,119a3.74,3.74,0,0,0-4.79-2.23,3.74,3.74,0,0,0-2.23,4.79A3.74,3.74,0,0,0-3.9,123.8,3.74,3.74,0,0,0-1.66,119Z"/><path class="cls-2" d="M6.73,134.85a3.45,3.45,0,0,0,2.06-4.42l-6.48,2.36A3.45,3.45,0,0,0,6.73,134.85Z"/><path class="cls-2" d="M8.49,139.68a3.45,3.45,0,0,0,2.06-4.42l-6.48,2.36A3.45,3.45,0,0,0,8.49,139.68Z"/><path class="cls-2" d="M10.25,144.51a3.45,3.45,0,0,0,2.06-4.42l-6.48,2.36A3.45,3.45,0,0,0,10.25,144.51Z"/><path class="cls-2" d="M64.67,143.85c-13.8-3.79-16.55-17.55-29.26-20.29,10.3,6.11,10.28,21.69,19.7,27Z"/><path class="cls-2" d="M36.48,169.89h0a1.52,1.52,0,0,1,0-2.15l25.63-25.63a1.52,1.52,0,0,1,2.15,0h0a1.52,1.52,0,0,1,0,2.15L38.63,169.89A1.52,1.52,0,0,1,36.48,169.89Z"/><path class="cls-2" d="M37.4,77.54l8.23,11.89a8.22,8.22,0,0,1-2.07,11.41l-10,6.91a8.22,8.22,0,0,1-11.41-2.07L13.94,93.79A8.22,8.22,0,0,1,16,82.38l10-6.91A8.22,8.22,0,0,1,37.4,77.54Zm-5.85-.87c-.94-1.36-5.37.07-9.89,3.2S14.25,86.64,15.19,88a1.15,1.15,0,0,0,.65.42c1.62.47,5.39-1,9.23-3.62s6.5-5.68,6.64-7.37A1.15,1.15,0,0,0,31.55,76.67Z"/><path class="cls-2" d="M22.79,96.52a8.9,8.9,0,1,0-2.25,12.39A8.91,8.91,0,0,0,22.79,96.52ZM20,98.47a5.48,5.48,0,1,1-7.63-1.39A5.49,5.49,0,0,1,20,98.47Z"/><polygon class="cls-2" points="261.05 2.67 261.05 2.67 258.7 3.52 261.05 2.67"/><path class="cls-2" d="M254-17.48l1,2.84-6.58,2.39-1-2.85L244-13.88l1,2.85-6.58,2.39-1-2.85-3.37,1.23,1,2.85L228.55-5l-1-2.85-3.37,1.23,1,2.85L218.6-1.39l-1-2.85L214.2-3l1,2.85-6.58,2.4-1-2.85-.48.17a4.74,4.74,0,0,0-2.82,6.06l4.08,11.2a4.74,4.74,0,0,0,6.06,2.82l.48-.17-1.67-4.58,6.58-2.39,1.67,4.58-1.69.61,6.61-2.41-1.56.57-1.67-4.58,6.58-2.39,1.67,4.58,3.37-1.23-1.67-4.58,6.58-2.39,1.67,4.58-2.14.78,7.63-2.78-2.12.77L243.09,4l6.58-2.39,1.67,4.58L254.71,5,253,.39,259.62-2l1.66,4.57a4.74,4.74,0,0,0,2.59-6l-4.08-11.2A4.74,4.74,0,0,0,254-17.48Z"/><path class="cls-2" d="M201.63,1.64c-3.67.31-7-3.88-7.48-9.36S196.29-17.89,200-18.2s7,3.88,7.48,9.36S205.3,1.33,201.63,1.64ZM202-5a3.74,3.74,0,0,0,2.23-4.79A3.74,3.74,0,0,0,199.49-12a3.74,3.74,0,0,0-2.23,4.79A3.74,3.74,0,0,0,202-5Z"/><path class="cls-2" d="M201,10.32A3.45,3.45,0,0,0,203,5.9l-6.48,2.36A3.45,3.45,0,0,0,201,10.32Z"/><path class="cls-2" d="M202.72,15.15a3.45,3.45,0,0,0,2.06-4.42l-6.48,2.36A3.45,3.45,0,0,0,202.72,15.15Z"/><path class="cls-2" d="M204.48,20a3.45,3.45,0,0,0,2.06-4.42l-6.48,2.36A3.45,3.45,0,0,0,204.48,20Z"/><path class="cls-2" d="M261.45,29.84a17.17,17.17,0,1,1-24.28,24.28"/><path class="cls-2" d="M275.09,67.88h0a2.39,2.39,0,0,1-3.37,0l-16.4-16.4a2.39,2.39,0,0,1,0-3.37h0a2.39,2.39,0,0,1,3.37,0l16.4,16.4A2.39,2.39,0,0,1,275.09,67.88Z"/><path class="cls-2" d="M249.42,53.82a7.82,7.82,0,1,0,0,11.06A7.83,7.83,0,0,0,249.42,53.82Zm-2.29,2.29a4.58,4.58,0,1,1-6.48,0A4.59,4.59,0,0,1,247.13,56.11Z"/><polygon class="cls-2" points="131.65 76.69 131.65 76.69 129.31 77.54 131.65 76.69"/><path class="cls-2" d="M124.59,56.53l1,2.84L119,61.77l-1-2.85-3.37,1.23,1,2.85-6.58,2.39-1-2.85-3.37,1.23,1,2.85L99.15,69l-1-2.85-3.37,1.23,1,2.85L89.2,72.63l-1-2.85L84.8,71l1,2.85-6.58,2.4-1-2.85-.48.17a4.74,4.74,0,0,0-2.82,6.06L79,90.83A4.74,4.74,0,0,0,85,93.65l.48-.17-1.67-4.58,6.58-2.39,1.67,4.58-1.69.61L97,89.29l-1.56.57L93.8,85.27l6.58-2.39,1.67,4.58,3.37-1.23-1.67-4.58,6.58-2.39L112,83.84l-2.14.78,7.63-2.78-2.12.77L113.7,78l6.58-2.39,1.67,4.58L125.31,79l-1.67-4.58L130.22,72l1.66,4.57a4.74,4.74,0,0,0,2.59-6l-4.08-11.2A4.74,4.74,0,0,0,124.59,56.53Z"/><path class="cls-2" d="M72.23,75.65c-3.67.31-7-3.88-7.48-9.36s2.14-10.17,5.81-10.48,7,3.88,7.48,9.36S75.9,75.34,72.23,75.65ZM72.65,69a3.74,3.74,0,1,0-4.79-2.23A3.74,3.74,0,0,0,72.65,69Z"/><circle class="cls-2" cx="71.43" cy="65.44" r="1.12" transform="translate(-14.5 110.18) rotate(-70)"/><path class="cls-2" d="M130.08,54.6c-3,2.12-8,.2-11.19-4.29s-3.3-9.86-.29-12,8-.2,11.19,4.29S133.09,52.47,130.08,54.6ZM127.74,45a3.74,3.74,0,1,0-2.23,4.79A3.74,3.74,0,0,0,127.74,45Z"/><circle class="cls-2" cx="124.14" cy="46.26" r="1.12" transform="translate(38.22 147.1) rotate(-70.01)"/><path class="cls-2" d="M90.11,57.53a4.61,4.61,0,0,0,.3-.5l.26-.51,1.86,1-.28.5a7.58,7.58,0,0,1-.44.67,9.12,9.12,0,0,1-.68.84,8.77,8.77,0,0,1-1.58,1.3l8.19-3A5,5,0,0,0,88,59.5a6.64,6.64,0,0,0,1.64-1.34A7.24,7.24,0,0,0,90.11,57.53Z"/><path class="cls-2" d="M105.66,54.23a9.18,9.18,0,0,1-1.06-.2,7.62,7.62,0,0,1-.77-.23l-.54-.21.79-1.95.53.23a4.61,4.61,0,0,0,.55.19,7.25,7.25,0,0,0,.77.18l.6.06a5,5,0,0,0-8.21,5.33l9.38-3.42A8.76,8.76,0,0,1,105.66,54.23Z"/><path class="cls-2" d="M85.29,62.11a8.17,8.17,0,0,0,3.55-.89c.25-.13.49-.26.71-.4a8.77,8.77,0,0,0,1.58-1.3,9.12,9.12,0,0,0,.68-.84,7.58,7.58,0,0,0,.44-.67l.28-.5-1.86-1-.26.51a4.61,4.61,0,0,1-.3.5,7.24,7.24,0,0,1-.47.63A6.64,6.64,0,0,1,88,59.5l-.05,0a6.33,6.33,0,0,1-2.73.81,6.4,6.4,0,0,1-3.32-.69,5.08,5.08,0,0,1-2.41-2.77,5.18,5.18,0,0,1,.19-4A4.11,4.11,0,0,1,83,50.6a4.31,4.31,0,0,1,2.07.32,3.53,3.53,0,0,1,.9.58,3.18,3.18,0,0,1,.65.81,3.24,3.24,0,0,1-.41,3.84,2.67,2.67,0,0,1-3.55.17,2.2,2.2,0,0,1-.72-1.61,2,2,0,0,1,.66-1.52,1.78,1.78,0,0,1,1.49-.38,1.47,1.47,0,0,1,1.1.86,1.45,1.45,0,0,1,0,1.25,1.17,1.17,0,0,1-.88.6,1.14,1.14,0,0,1-.85-.23,1,1,0,0,1-.26-1.14,1,1,0,0,0-.09.56,1,1,0,0,0,.32.61,1.21,1.21,0,0,0,.9.28,1.28,1.28,0,0,0,1-.62,1.61,1.61,0,0,0,.11-1.39,1.7,1.7,0,0,0-1.22-1,2.07,2.07,0,0,0-1.76.37,2.54,2.54,0,0,0-.07,3.75,3.25,3.25,0,0,0,4.34,0,3.5,3.5,0,0,0,.43-.47l.19-.27.14-.25a4.46,4.46,0,0,0,.38-1.22,4.17,4.17,0,0,0-.43-2.52,4.07,4.07,0,0,0-.78-1.06,4.56,4.56,0,0,0-1.07-.76,5.23,5.23,0,0,0-6.92,2.24,6.52,6.52,0,0,0-.45,5,6.6,6.6,0,0,0,3,3.73A8.11,8.11,0,0,0,85.29,62.11Z"/><path class="cls-2" d="M105.16,52.05a4.61,4.61,0,0,1-.55-.19l-.53-.23-.79,1.95.54.21a7.62,7.62,0,0,0,.77.23,9.18,9.18,0,0,0,1.06.2,8.76,8.76,0,0,0,2,0c.26,0,.53-.08.8-.15A8.16,8.16,0,0,0,114.31,49a6.6,6.6,0,0,0-.09-4.8,6.52,6.52,0,0,0-3.57-3.56,5.22,5.22,0,0,0-6.74,2.74,4.55,4.55,0,0,0-.33,1.27,4.07,4.07,0,0,0,.08,1.32,4.17,4.17,0,0,0,1.29,2.2,4.47,4.47,0,0,0,1.08.69l.27.1.32.09a3.5,3.5,0,0,0,.63.08,3.25,3.25,0,0,0,3.36-2.76,2.54,2.54,0,0,0-2.47-2.83,2.07,2.07,0,0,0-1.58.84,1.7,1.7,0,0,0-.27,1.58,1.61,1.61,0,0,0,1,1,1.28,1.28,0,0,0,1.16-.16,1.21,1.21,0,0,0,.5-.79,1,1,0,0,0-.15-.68,1,1,0,0,0-.43-.37,1,1,0,0,1,.53,1,1.14,1.14,0,0,1-.5.73,1.17,1.17,0,0,1-1.06.11,1.45,1.45,0,0,1-.84-.93,1.47,1.47,0,0,1,.29-1.36,1.78,1.78,0,0,1,1.39-.67,2,2,0,0,1,1.49.74,2.2,2.2,0,0,1,.49,1.7,2.68,2.68,0,0,1-2.83,2.15,3.24,3.24,0,0,1-2.78-2.68,3.19,3.19,0,0,1,0-1,3.52,3.52,0,0,1,.31-1,4.31,4.31,0,0,1,1.38-1.58,4.11,4.11,0,0,1,4-.36,5.18,5.18,0,0,1,2.7,2.93,5.08,5.08,0,0,1-.07,3.67,6.41,6.41,0,0,1-2.1,2.67,6.38,6.38,0,0,1-4.18,1.23l-.6-.06A7.25,7.25,0,0,1,105.16,52.05Z"/><path class="cls-2" d="M136.13,60.83a3.45,3.45,0,0,0,2.06-4.42l-6.48,2.36A3.45,3.45,0,0,0,136.13,60.83Z"/><path class="cls-2" d="M137.89,65.66A3.45,3.45,0,0,0,140,61.25l-6.48,2.36A3.45,3.45,0,0,0,137.89,65.66Z"/><path class="cls-2" d="M139.65,70.5a3.45,3.45,0,0,0,2.06-4.42l-6.48,2.36A3.45,3.45,0,0,0,139.65,70.5Z"/><path class="cls-2" d="M71.57,84.33a3.45,3.45,0,0,0,2.06-4.42l-6.48,2.36A3.45,3.45,0,0,0,71.57,84.33Z"/><path class="cls-2" d="M73.33,89.17a3.45,3.45,0,0,0,2.06-4.42l-6.48,2.36A3.45,3.45,0,0,0,73.33,89.17Z"/><path class="cls-2" d="M75.09,94a3.45,3.45,0,0,0,2.06-4.42l-6.48,2.36A3.45,3.45,0,0,0,75.09,94Z"/><path class="cls-2" d="M194.07,69.84c-13.8-3.79-16.55-17.55-29.26-20.29,10.3,6.11,10.28,21.69,19.7,27Z"/><path class="cls-2" d="M165.88,95.88h0a1.52,1.52,0,0,1,0-2.15L191.51,68.1a1.52,1.52,0,0,1,2.15,0h0a1.52,1.52,0,0,1,0,2.15L168,95.88A1.52,1.52,0,0,1,165.88,95.88Z"/><path class="cls-2" d="M166.8,3.52,175,15.41A8.22,8.22,0,0,1,173,26.82l-10,6.91a8.22,8.22,0,0,1-11.41-2.07l-8.23-11.89a8.22,8.22,0,0,1,2.07-11.41l10-6.91A8.22,8.22,0,0,1,166.8,3.52ZM161,2.66c-.94-1.36-5.37.07-9.89,3.2s-7.42,6.77-6.47,8.13a1.15,1.15,0,0,0,.65.42c1.62.47,5.39-1,9.23-3.62s6.5-5.68,6.64-7.37A1.15,1.15,0,0,0,161,2.66Z"/><path class="cls-2" d="M152.19,22.51a8.9,8.9,0,1,0-2.25,12.39A8.91,8.91,0,0,0,152.19,22.51Zm-2.81,1.95a5.48,5.48,0,1,1-7.63-1.39A5.49,5.49,0,0,1,149.38,24.45Z"/><path class="cls-2" d="M86.18,28.73c-1.67,5.64-6.63,5.59-12.27,3.92s-9.84-4.31-8.17-10a10.66,10.66,0,1,1,20.44,6Z"/><path class="cls-2" d="M70.29,18.54,66,14.39a1.87,1.87,0,0,1-.05-2.64h0a1.87,1.87,0,0,1,2.64-.05l4.33,4.15a1.87,1.87,0,0,1,.05,2.64h0A1.87,1.87,0,0,1,70.29,18.54Z"/><path class="cls-2" d="M90.6,25.12a5.37,5.37,0,1,0-6.67,3.63A5.37,5.37,0,0,0,90.6,25.12Zm-1.4-.41a3.91,3.91,0,1,1-2.64-4.85A3.91,3.91,0,0,1,89.2,24.71Z"/><ellipse class="cls-2" cx="79.17" cy="16.13" rx="4.89" ry="2.83" transform="translate(-1.33 23.09) rotate(-16.46)"/><circle class="cls-2" cx="79.79" cy="13.36" r="1.45" transform="translate(-0.52 23.15) rotate(-16.46)"/><path class="cls-2" d="M132,103.86a17.17,17.17,0,1,1-24.28,24.28"/><path class="cls-2" d="M139.81,148c-1.06-1.06.8-4.64,4.15-8s6.93-5.21,8-4.15"/><path class="cls-2" d="M145.69,141.9h0a2.39,2.39,0,0,1-3.37,0l-16.4-16.4a2.39,2.39,0,0,1,0-3.37h0a2.39,2.39,0,0,1,3.37,0l16.4,16.4A2.39,2.39,0,0,1,145.69,141.9Z"/><path class="cls-2" d="M120,127.84a7.82,7.82,0,1,0,0,11.06A7.83,7.83,0,0,0,120,127.84Zm-2.29,2.29a4.58,4.58,0,1,1-6.48,0A4.59,4.59,0,0,1,117.73,130.13Z"/><path class="cls-2" d="M143.94,103.92a7.82,7.82,0,1,0,0,11.06A7.83,7.83,0,0,0,143.94,103.92Zm-2.29,2.29a4.58,4.58,0,1,1-6.48,0A4.59,4.59,0,0,1,141.65,106.21Z"/><polygon class="cls-2" points="2.25 2.67 2.25 2.67 -0.09 3.52 2.25 2.67"/><path class="cls-2" d="M-4.81-17.48l1,2.84-6.58,2.39-1-2.85-3.37,1.23,1,2.85L-20.3-8.63l-1-2.85-3.37,1.23,1,2.85L-30.25-5l-1-2.85-3.37,1.23,1,2.85-6.58,2.39-1-2.85L-44.6-3l1,2.85-6.58,2.4-1-2.85-.48.17a4.74,4.74,0,0,0-2.82,6.06l4.08,11.2a4.74,4.74,0,0,0,6.06,2.82l.48-.17-1.67-4.58L-39,12.48l1.67,4.58-1.69.61,6.61-2.41-1.56.57-1.67-4.58L-29,8.86l1.67,4.58L-24,12.22l-1.67-4.58,6.58-2.39,1.67,4.58-2.14.78,7.63-2.78L-14,8.6-15.7,4l6.58-2.39L-7.45,6.2-4.09,5-5.75.39.82-2,2.49,2.57a4.74,4.74,0,0,0,2.59-6L1-14.59A4.74,4.74,0,0,0-4.81-17.48Z"/><path class="cls-2" d="M64.67-4.18C50.87-8,48.12-21.73,35.41-24.47c10.3,6.11,10.28,21.69,19.7,27Z"/><path class="cls-2" d="M36.48,21.86h0a1.52,1.52,0,0,1,0-2.15L62.11-5.92a1.52,1.52,0,0,1,2.15,0h0a1.52,1.52,0,0,1,0,2.15L38.63,21.86A1.52,1.52,0,0,1,36.48,21.86Z"/><path class="cls-2" d="M2.65,29.84a17.17,17.17,0,0,1,0,24.28,17.17,17.17,0,0,1-24.28,0"/><path class="cls-2" d="M10.41,74c-1.06-1.06.8-4.64,4.15-8s6.93-5.21,8-4.15"/><path class="cls-2" d="M16.29,67.88h0a2.39,2.39,0,0,1-3.37,0l-16.4-16.4a2.39,2.39,0,0,1,0-3.37h0a2.39,2.39,0,0,1,3.37,0l16.4,16.4A2.39,2.39,0,0,1,16.29,67.88Z"/><path class="cls-2" d="M14.54,29.9a7.82,7.82,0,1,0,0,11.06A7.83,7.83,0,0,0,14.54,29.9Zm-2.29,2.29a4.58,4.58,0,1,1-6.48,0A4.59,4.59,0,0,1,12.25,32.19Z"/></pattern></defs><title>keyboard_sports_logo</title><circle class="cls-3" cx="251.87" cy="251.87" r="240.31"/><circle class="cls-4" cx="251.87" cy="251.87" r="240.31"/><circle class="cls-5" cx="251.87" cy="251.87" r="240.31"/><path class="cls-5" d="M458.18,419.57c-94.63,94.63-248.05,94.63-342.68,0-85.17-85.17-85.17-223.25,0-308.41,76.65-76.65,200.92-76.65,277.57,0a176.65,176.65,0,0,1,0,249.81,159,159,0,0,1-224.83,0,143.08,143.08,0,0,1,0-202.35,128.77,128.77,0,0,1,182.11,0,115.9,115.9,0,0,1,0,163.9,104.31,104.31,0,0,1-147.51,0,93.88,93.88,0,0,1,0-132.76,84.49,84.49,0,0,1,119.49,0,76,76,0,0,1,0,107.54,68.44,68.44,0,0,1-96.78,0,61.59,61.59,0,0,1,0-87.1,55.43,55.43,0,0,1,78.39,0,49.89,49.89,0,0,1,0,70.55,44.9,44.9,0,0,1-63.5,0,40.41,40.41,0,0,1,0-57.15,36.37,36.37,0,0,1,51.43,0,32.73,32.73,0,0,1,0,46.29,29.46,29.46,0,0,1-41.66,0,26.51,26.51,0,0,1,0-37.5,23.86,23.86,0,0,1,33.75,0,21.48,21.48,0,0,1,0,30.37" transform="translate(-22.74 -11.86)"/><path class="cls-6" d="M356.6,191.05c-9.67,9.67-18.42,2.73-28.09-6.94S311.9,165.7,321.57,156a24.77,24.77,0,0,1,35,35Z" transform="translate(-22.74 -11.86)"/><ellipse class="cls-7" cx="331.84" cy="180.79" rx="16.81" ry="29" transform="translate(-53.39 275.73) rotate(-45)"/><rect class="cls-8" x="249.56" y="160.44" width="89.26" height="115.99" transform="translate(217.88 -155.91) rotate(45)"/><rect class="cls-9" x="285.36" y="180.53" width="17.18" height="4.73" transform="translate(192.68 -166.15) rotate(45)"/><rect class="cls-9" x="321.66" y="216.83" width="17.18" height="4.73" transform="translate(228.98 -181.19) rotate(45)"/><circle cx="299.51" cy="177.52" r="2.41" transform="translate(-60.55 251.91) rotate(-45)"/><circle cx="335.72" cy="213.73" r="2.41" transform="translate(-75.55 288.13) rotate(-45)"/><polygon class="cls-9" points="297.93 176.64 261.44 202.69 270.65 206.57 275.33 216.58 301.38 180.09 297.93 176.64"/><path class="cls-9" d="M294,215.13" transform="translate(-22.74 -11.86)"/><path class="cls-8" d="M254.66,199.51s-20.57-29.93,17.66-54.45c0,0-21.64,17.31-8.3,45.08" transform="translate(-22.74 -11.86)"/><path class="cls-8" d="M313.15,252.07s28,23.18,55.82-12.69c0,0-19.19,20-45.65,4.2" transform="translate(-22.74 -11.86)"/><path class="cls-8" d="M231.43,236.74s-38,5.35-47.93.84c0,0,16.81.29,49.41-19.93" transform="translate(-22.74 -11.86)"/><path class="cls-8" d="M284.74,291s-28.21,26-38.93,28c0,0,14-9.33,29.29-44.51" transform="translate(-22.74 -11.86)"/><rect class="cls-10" x="210.48" y="117.94" width="103.21" height="39.07" transform="translate(-52.19 74.64) rotate(-17.76)"/><rect class="cls-10" x="210.48" y="117.94" width="103.21" height="39.07" transform="translate(-52.19 74.64) rotate(-17.76)"/><rect class="cls-11" x="212.08" y="136.55" width="5.47" height="5.47" transform="translate(-55 60.32) rotate(-17.76)"/><path class="cls-11" d="M212.57,143.66,210.45,137l6.62-2.12,2.12,6.62ZM212.3,138l1.22,3.81,3.81-1.22-1.22-3.81Z" transform="translate(-22.74 -11.86)"/><rect class="cls-11" x="219.75" y="134.1" width="5.47" height="5.47" transform="translate(-53.88 62.52) rotate(-17.76)"/><path class="cls-11" d="M220.24,141.2l-2.12-6.62,6.62-2.12,2.12,6.62Zm-.27-5.66,1.22,3.81,3.81-1.22-1.22-3.81Z" transform="translate(-22.74 -11.86)"/><rect class="cls-11" x="227.41" y="131.64" width="5.47" height="5.47" transform="translate(-52.77 64.76) rotate(-17.76)"/><path class="cls-11" d="M227.9,138.75l-2.12-6.62L232.4,130l2.12,6.62Zm-.27-5.66,1.22,3.81,3.81-1.22-1.22-3.81Z" transform="translate(-22.74 -11.86)"/><rect class="cls-11" x="235.08" y="129.18" width="5.47" height="5.47" transform="translate(-51.65 66.96) rotate(-17.76)"/><path class="cls-11" d="M235.57,136.29l-2.12-6.62,6.62-2.12,2.12,6.62Zm-.27-5.66,1.22,3.81,3.81-1.22-1.22-3.81Z" transform="translate(-22.74 -11.86)"/><rect class="cls-11" x="242.75" y="126.73" width="5.47" height="5.47" transform="translate(-50.53 69.18) rotate(-17.76)"/><path class="cls-11" d="M243.24,133.83l-2.12-6.62,6.62-2.12,2.12,6.62Zm-.27-5.66,1.22,3.81,3.81-1.22-1.22-3.81Z" transform="translate(-22.74 -11.86)"/><rect class="cls-11" x="250.41" y="124.27" width="5.47" height="5.47" transform="matrix(0.95, -0.31, 0.31, 0.95, -49.42, 71.41)"/><path class="cls-11" d="M250.9,131.38l-2.12-6.62,6.62-2.12,2.12,6.62Zm-.27-5.66,1.22,3.81,3.81-1.22-1.22-3.81Z" transform="translate(-22.74 -11.86)"/><rect class="cls-11" x="258.08" y="121.82" width="5.47" height="5.47" transform="translate(-48.31 73.63) rotate(-17.76)"/><path class="cls-11" d="M258.57,128.92l-2.12-6.62,6.62-2.12,2.12,6.62Zm-.27-5.66,1.22,3.81,3.81-1.22L262.11,122Z" transform="translate(-22.74 -11.86)"/><rect class="cls-11" x="265.75" y="119.36" width="5.47" height="5.47" transform="translate(-47.19 75.85) rotate(-17.76)"/><path class="cls-11" d="M266.24,126.47l-2.12-6.62,6.62-2.12,2.12,6.62ZM266,120.8l1.22,3.81,3.81-1.22-1.22-3.81Z" transform="translate(-22.74 -11.86)"/><rect class="cls-11" x="273.42" y="116.9" width="5.47" height="5.47" transform="translate(-46.08 78.07) rotate(-17.76)"/><path class="cls-11" d="M273.9,124l-2.12-6.62,6.61-2.12,2.12,6.62Zm-.27-5.66,1.22,3.81,3.81-1.22-1.22-3.81Z" transform="translate(-22.74 -11.86)"/><rect class="cls-11" x="281.08" y="114.45" width="5.47" height="5.47" transform="translate(-44.96 80.32) rotate(-17.76)"/><path class="cls-11" d="M281.57,121.55l-2.12-6.62,6.61-2.12,2.12,6.62Zm-.27-5.66,1.22,3.81,3.81-1.22-1.22-3.81Z" transform="translate(-22.74 -11.86)"/><rect class="cls-11" x="288.75" y="111.99" width="5.47" height="5.47" transform="translate(-43.85 82.54) rotate(-17.76)"/><path class="cls-11" d="M289.24,119.1l-2.12-6.62,6.61-2.12,2.12,6.62Zm-.27-5.66,1.22,3.81L294,116l-1.22-3.81Z" transform="translate(-22.74 -11.86)"/><rect class="cls-11" x="296.42" y="109.54" width="5.47" height="5.47" transform="translate(-42.73 84.74) rotate(-17.76)"/><path class="cls-11" d="M296.91,116.64,294.79,110l6.61-2.12,2.12,6.62Zm-.27-5.66,1.22,3.81,3.81-1.22-1.22-3.81Z" transform="translate(-22.74 -11.86)"/><rect class="cls-11" x="217.18" y="142.08" width="5.47" height="5.47" transform="translate(-56.44 62.13) rotate(-17.76)"/><path class="cls-11" d="M217.66,149.18l-2.12-6.62,6.62-2.12,2.12,6.62Zm-.27-5.66,1.22,3.81,3.81-1.22-1.22-3.81Z" transform="translate(-22.74 -11.86)"/><rect class="cls-11" x="224.84" y="139.62" width="5.47" height="5.47" transform="translate(-55.33 64.36) rotate(-17.76)"/><path class="cls-11" d="M225.33,146.73l-2.12-6.62,6.61-2.12,2.12,6.62Zm-.27-5.66,1.22,3.81,3.81-1.22-1.22-3.81Z" transform="translate(-22.74 -11.86)"/><rect class="cls-11" x="232.51" y="137.16" width="5.47" height="5.47" transform="matrix(0.95, -0.31, 0.31, 0.95, -54.21, 66.58)"/><path class="cls-11" d="M233,144.27l-2.12-6.62,6.61-2.12,2.12,6.62Zm-.27-5.66,1.22,3.81,3.81-1.22-1.22-3.81Z" transform="translate(-22.74 -11.86)"/><rect class="cls-11" x="240.18" y="134.71" width="5.47" height="5.47" transform="translate(-53.1 68.8) rotate(-17.76)"/><path class="cls-11" d="M240.66,141.81l-2.12-6.62,6.61-2.12,2.12,6.62Zm-.27-5.66,1.22,3.81,3.81-1.22-1.22-3.81Z" transform="translate(-22.74 -11.86)"/><rect class="cls-11" x="247.84" y="132.25" width="5.47" height="5.47" transform="translate(-51.98 71.01) rotate(-17.76)"/><path class="cls-11" d="M248.33,139.36l-2.12-6.62,6.61-2.12,2.12,6.62Zm-.27-5.66,1.22,3.81,3.81-1.22-1.22-3.81Z" transform="translate(-22.74 -11.86)"/><rect class="cls-11" x="255.51" y="129.8" width="5.47" height="5.47" transform="translate(-50.86 73.23) rotate(-17.76)"/><path class="cls-11" d="M256,136.9l-2.12-6.62,6.61-2.12,2.12,6.62Zm-.27-5.66L257,135l3.81-1.22L259.54,130Z" transform="translate(-22.74 -11.86)"/><rect class="cls-11" x="263.18" y="127.34" width="5.47" height="5.47" transform="translate(-49.75 75.45) rotate(-17.76)"/><path class="cls-11" d="M263.67,134.45l-2.12-6.62,6.61-2.12,2.12,6.62Zm-.27-5.66,1.22,3.81,3.81-1.22-1.22-3.81Z" transform="translate(-22.74 -11.86)"/><rect class="cls-11" x="270.84" y="124.89" width="5.47" height="5.47" transform="translate(-48.63 77.67) rotate(-17.76)"/><path class="cls-11" d="M271.33,132l-2.12-6.62,6.62-2.12,2.12,6.62Zm-.27-5.66,1.22,3.81,3.81-1.22-1.22-3.81Z" transform="translate(-22.74 -11.86)"/><rect class="cls-11" x="278.51" y="122.43" width="5.47" height="5.47" transform="matrix(0.95, -0.31, 0.31, 0.95, -47.52, 79.89)"/><path class="cls-11" d="M279,129.54l-2.12-6.62,6.62-2.12,2.12,6.62Zm-.27-5.66,1.22,3.81,3.81-1.22-1.22-3.81Z" transform="translate(-22.74 -11.86)"/><rect class="cls-11" x="286.18" y="119.97" width="5.47" height="5.47" transform="translate(-46.41 82.13) rotate(-17.76)"/><path class="cls-11" d="M286.67,127.08l-2.12-6.62,6.62-2.12,2.12,6.62Zm-.27-5.66,1.22,3.81,3.81-1.22-1.22-3.81Z" transform="translate(-22.74 -11.86)"/><rect class="cls-11" x="293.84" y="117.52" width="5.47" height="5.47" transform="translate(-45.29 84.33) rotate(-17.76)"/><path class="cls-11" d="M294.33,124.62,292.21,118l6.62-2.12,2.12,6.62Zm-.27-5.66,1.22,3.81,3.81-1.22-1.22-3.81Z" transform="translate(-22.74 -11.86)"/><rect class="cls-11" x="301.51" y="115.06" width="5.47" height="5.47" transform="translate(-44.18 86.56) rotate(-17.76)"/><path class="cls-11" d="M302,122.17l-2.12-6.62,6.61-2.12,2.12,6.62Zm-.27-5.66,1.22,3.81,3.81-1.22-1.22-3.81Z" transform="translate(-22.74 -11.86)"/><rect class="cls-11" x="216.44" y="150.15" width="5.47" height="5.47" transform="translate(-58.94 62.29) rotate(-17.76)"/><path class="cls-11" d="M216.92,157.25l-2.12-6.62,6.61-2.12,2.12,6.62Zm-.27-5.66,1.22,3.81,3.81-1.22-1.22-3.81Z" transform="translate(-22.74 -11.86)"/><rect class="cls-11" x="224.1" y="147.69" width="5.47" height="5.47" transform="translate(-57.82 64.5) rotate(-17.76)"/><path class="cls-11" d="M224.59,154.8l-2.12-6.62,6.61-2.12,2.12,6.62Zm-.27-5.66,1.22,3.81,3.81-1.22-1.22-3.81Z" transform="translate(-22.74 -11.86)"/><rect class="cls-11" x="231.77" y="145.24" width="5.47" height="5.47" transform="translate(-56.7 66.72) rotate(-17.76)"/><path class="cls-11" d="M232.26,152.34l-2.12-6.62,6.61-2.12,2.12,6.62Zm-.27-5.66,1.22,3.81,3.81-1.22-1.22-3.81Z" transform="translate(-22.74 -11.86)"/><rect class="cls-11" x="239.44" y="142.78" width="5.47" height="5.47" transform="translate(-55.59 68.94) rotate(-17.76)"/><path class="cls-11" d="M239.93,149.89l-2.12-6.62,6.61-2.12,2.12,6.62Zm-.27-5.66,1.22,3.81,3.81-1.22L243.47,143Z" transform="translate(-22.74 -11.86)"/><rect class="cls-11" x="247.1" y="140.32" width="5.47" height="5.47" transform="translate(-54.47 71.16) rotate(-17.76)"/><path class="cls-11" d="M247.59,147.43l-2.12-6.62,6.62-2.12,2.12,6.62Zm-.27-5.66,1.22,3.81,3.81-1.22-1.22-3.81Z" transform="translate(-22.74 -11.86)"/><rect class="cls-11" x="254.77" y="137.87" width="5.47" height="5.47" transform="matrix(0.95, -0.31, 0.31, 0.95, -53.36, 73.39)"/><path class="cls-11" d="M255.26,145l-2.12-6.62,6.62-2.12,2.12,6.62Zm-.27-5.66,1.22,3.81L260,141.9l-1.22-3.81Z" transform="translate(-22.74 -11.86)"/><rect class="cls-11" x="262.44" y="135.41" width="5.47" height="5.47" transform="translate(-52.25 75.63) rotate(-17.76)"/><path class="cls-11" d="M262.93,142.52l-2.12-6.62,6.62-2.12,2.12,6.62Zm-.27-5.66,1.22,3.81,3.81-1.22-1.22-3.81Z" transform="translate(-22.74 -11.86)"/><rect class="cls-11" x="270.1" y="132.96" width="5.47" height="5.47" transform="translate(-51.13 77.85) rotate(-17.76)"/><path class="cls-11" d="M270.59,140.06l-2.12-6.62,6.62-2.12,2.12,6.62Zm-.27-5.66,1.22,3.81,3.81-1.22-1.22-3.81Z" transform="translate(-22.74 -11.86)"/><rect class="cls-11" x="277.77" y="130.5" width="5.47" height="5.47" transform="translate(-50.02 80.05) rotate(-17.76)"/><path class="cls-11" d="M278.26,137.61,276.14,131l6.62-2.12,2.12,6.62Zm-.27-5.66,1.22,3.81,3.81-1.22-1.22-3.81Z" transform="translate(-22.74 -11.86)"/><rect class="cls-11" x="285.44" y="128.05" width="5.47" height="5.47" transform="translate(-48.9 82.28) rotate(-17.76)"/><path class="cls-11" d="M285.93,135.15l-2.12-6.62,6.62-2.12,2.12,6.62Zm-.27-5.66,1.22,3.81,3.81-1.22-1.22-3.81Z" transform="translate(-22.74 -11.86)"/><rect class="cls-11" x="293.1" y="125.59" width="5.47" height="5.47" transform="translate(-47.79 84.49) rotate(-17.76)"/><path class="cls-11" d="M293.59,132.69l-2.12-6.62,6.62-2.12,2.12,6.62Zm-.27-5.66,1.22,3.81,3.81-1.22-1.22-3.81Z" transform="translate(-22.74 -11.86)"/><rect class="cls-11" x="300.77" y="123.13" width="5.47" height="5.47" transform="translate(-46.67 86.72) rotate(-17.76)"/><path class="cls-11" d="M301.26,130.24l-2.12-6.62,6.62-2.12,2.12,6.62Zm-.27-5.66,1.22,3.81,3.81-1.22-1.22-3.81Z" transform="translate(-22.74 -11.86)"/><rect class="cls-11" x="221.53" y="155.67" width="5.47" height="5.47" transform="translate(-60.38 64.1) rotate(-17.76)"/><path class="cls-11" d="M222,162.78l-2.12-6.62,6.62-2.12,2.12,6.62Zm-.27-5.66,1.22,3.81,3.81-1.22-1.22-3.81Z" transform="translate(-22.74 -11.86)"/><rect class="cls-11" x="229.2" y="153.22" width="5.47" height="5.47" transform="translate(-59.26 66.32) rotate(-17.76)"/><path class="cls-11" d="M229.69,160.32l-2.12-6.62,6.62-2.12,2.12,6.62Zm-.27-5.66,1.22,3.81,3.81-1.22-1.22-3.81Z" transform="translate(-22.74 -11.86)"/><rect class="cls-11" x="236.86" y="150.76" width="5.47" height="5.47" transform="translate(-58.15 68.54) rotate(-17.76)"/><path class="cls-11" d="M237.35,157.87l-2.12-6.62,6.62-2.12,2.12,6.62Zm-.27-5.66,1.22,3.81,3.81-1.22L240.9,151Z" transform="translate(-22.74 -11.86)"/><polygon class="cls-11" points="264.63 123.46 259.42 125.13 259.42 125.13 256.96 125.91 256.96 125.91 251.75 127.58 251.75 127.58 241.63 130.82 241.63 130.82 236.42 132.5 236.42 132.5 221.08 137.41 222.75 142.62 238.09 137.71 238.09 137.71 243.3 136.04 243.3 136.04 253.42 132.8 253.42 132.8 258.63 131.13 258.63 131.13 266.3 128.67 264.63 123.46"/><path class="cls-11" d="M245,155.41l-2.12-6.62,44.95-14.4L290,141Zm-.27-5.66,1.22,3.81,42.15-13.5-1.22-3.81Z" transform="translate(-22.74 -11.86)"/><rect class="cls-11" x="290.53" y="133.57" width="5.47" height="5.47" transform="translate(-50.34 84.09) rotate(-17.76)"/><path class="cls-11" d="M291,140.67l-2.12-6.62,6.61-2.12,2.12,6.62Zm-.27-5.66,1.22,3.81,3.81-1.22-1.22-3.81Z" transform="translate(-22.74 -11.86)"/><rect class="cls-11" x="298.2" y="131.11" width="5.47" height="5.47" transform="translate(-49.23 86.31) rotate(-17.76)"/><path class="cls-11" d="M298.69,138.22l-2.12-6.62,6.61-2.12,2.12,6.62Zm-.27-5.66,1.22,3.81,3.81-1.22-1.22-3.81Z" transform="translate(-22.74 -11.86)"/><rect class="cls-11" x="305.87" y="128.66" width="5.47" height="5.47" transform="translate(-48.12 88.53) rotate(-17.76)"/><path class="cls-11" d="M306.35,135.76l-2.12-6.62,6.61-2.12,2.12,6.62Zm-.27-5.66,1.22,3.81,3.81-1.22-1.22-3.81Z" transform="translate(-22.74 -11.86)"/><rect class="cls-10" x="213.17" y="135.42" width="5.47" height="5.47" transform="matrix(0.95, -0.31, 0.31, 0.95, -54.6, 60.59)"/><rect class="cls-10" x="220.83" y="132.96" width="5.47" height="5.47" transform="translate(-53.48 62.8) rotate(-17.76)"/><rect class="cls-10" x="228.5" y="130.51" width="5.47" height="5.47" transform="translate(-52.37 65.03) rotate(-17.76)"/><rect class="cls-10" x="236.17" y="128.05" width="5.47" height="5.47" transform="translate(-51.25 67.24) rotate(-17.76)"/><rect class="cls-10" x="243.83" y="125.6" width="5.47" height="5.47" transform="translate(-50.14 69.46) rotate(-17.76)"/><rect class="cls-10" x="251.5" y="123.14" width="5.47" height="5.47" transform="translate(-49.02 71.69) rotate(-17.76)"/><rect class="cls-10" x="259.17" y="120.69" width="5.47" height="5.47" transform="translate(-47.91 73.91) rotate(-17.76)"/><rect class="cls-10" x="266.83" y="118.23" width="5.47" height="5.47" transform="translate(-46.79 76.13) rotate(-17.76)"/><rect class="cls-10" x="274.5" y="115.77" width="5.47" height="5.47" transform="translate(-45.68 78.35) rotate(-17.76)"/><rect class="cls-10" x="282.17" y="113.32" width="5.47" height="5.47" transform="translate(-44.57 80.59) rotate(-17.76)"/><rect class="cls-10" x="289.83" y="110.86" width="5.47" height="5.47" transform="translate(-43.45 82.81) rotate(-17.76)"/><rect class="cls-10" x="297.5" y="108.41" width="5.47" height="5.47" transform="translate(-42.34 85.02) rotate(-17.76)"/><rect class="cls-10" x="218.26" y="140.95" width="5.47" height="5.47" transform="translate(-56.04 62.41) rotate(-17.76)"/><rect class="cls-10" x="225.93" y="138.49" width="5.47" height="5.47" transform="matrix(0.95, -0.31, 0.31, 0.95, -54.93, 64.63)"/><rect class="cls-10" x="233.6" y="136.03" width="5.47" height="5.47" transform="translate(-53.81 66.86) rotate(-17.76)"/><rect class="cls-10" x="241.26" y="133.58" width="5.47" height="5.47" transform="translate(-52.7 69.08) rotate(-17.76)"/><rect class="cls-10" x="248.93" y="131.12" width="5.47" height="5.47" transform="translate(-51.58 71.29) rotate(-17.76)"/><rect class="cls-10" x="256.6" y="128.67" width="5.47" height="5.47" transform="translate(-50.47 73.5) rotate(-17.76)"/><rect class="cls-10" x="264.26" y="126.21" width="5.47" height="5.47" transform="translate(-49.35 75.73) rotate(-17.76)"/><rect class="cls-10" x="271.93" y="123.75" width="5.47" height="5.47" transform="translate(-48.24 77.94) rotate(-17.76)"/><rect class="cls-10" x="279.6" y="121.3" width="5.47" height="5.47" transform="translate(-47.12 80.16) rotate(-17.76)"/><rect class="cls-10" x="287.26" y="118.84" width="5.47" height="5.47" transform="translate(-46.01 82.41) rotate(-17.76)"/><rect class="cls-10" x="294.93" y="116.39" width="5.47" height="5.47" transform="translate(-44.89 84.61) rotate(-17.76)"/><rect class="cls-10" x="302.6" y="113.93" width="5.47" height="5.47" transform="translate(-43.78 86.83) rotate(-17.76)"/><rect class="cls-10" x="217.52" y="149.02" width="5.47" height="5.47" transform="translate(-58.54 62.57) rotate(-17.76)"/><rect class="cls-10" x="225.19" y="146.56" width="5.47" height="5.47" transform="translate(-57.42 64.77) rotate(-17.76)"/><rect class="cls-10" x="232.86" y="144.1" width="5.47" height="5.47" transform="translate(-56.31 66.99) rotate(-17.76)"/><rect class="cls-10" x="240.52" y="141.65" width="5.47" height="5.47" transform="translate(-55.19 69.22) rotate(-17.76)"/><rect class="cls-10" x="248.19" y="139.19" width="5.47" height="5.47" transform="translate(-54.08 71.44) rotate(-17.76)"/><rect class="cls-10" x="255.86" y="136.74" width="5.47" height="5.47" transform="translate(-52.96 73.66) rotate(-17.76)"/><rect class="cls-10" x="263.52" y="134.28" width="5.47" height="5.47" transform="translate(-51.85 75.9) rotate(-17.76)"/><rect class="cls-10" x="271.19" y="131.83" width="5.47" height="5.47" transform="translate(-50.74 78.13) rotate(-17.76)"/><rect class="cls-10" x="278.86" y="129.37" width="5.47" height="5.47" transform="matrix(0.95, -0.31, 0.31, 0.95, -49.62, 80.33)"/><rect class="cls-10" x="286.52" y="126.91" width="5.47" height="5.47" transform="translate(-48.51 82.55) rotate(-17.76)"/><rect class="cls-10" x="294.19" y="124.46" width="5.47" height="5.47" transform="translate(-47.39 84.77) rotate(-17.76)"/><rect class="cls-10" x="301.86" y="122" width="5.47" height="5.47" transform="matrix(0.95, -0.31, 0.31, 0.95, -46.28, 86.99)"/><rect class="cls-10" x="222.62" y="154.54" width="5.47" height="5.47" transform="matrix(0.95, -0.31, 0.31, 0.95, -59.98, 64.37)"/><rect class="cls-10" x="230.28" y="152.09" width="5.47" height="5.47" transform="translate(-58.86 66.59) rotate(-17.76)"/><rect class="cls-10" x="237.95" y="149.63" width="5.47" height="5.47" transform="translate(-57.75 68.82) rotate(-17.76)"/><polygon class="cls-10" points="265.72 122.33 260.5 124 260.5 124 258.05 124.78 258.05 124.78 252.84 126.45 252.84 126.45 242.72 129.69 242.72 129.69 237.5 131.36 237.5 131.36 222.17 136.28 223.84 141.49 239.17 136.58 239.17 136.58 244.39 134.91 244.39 134.91 254.51 131.66 254.51 131.66 259.72 130 259.72 130 267.39 127.54 265.72 122.33"/><rect class="cls-10" x="291.62" y="132.44" width="5.47" height="5.47" transform="translate(-49.95 84.37) rotate(-17.76)"/><rect class="cls-10" x="299.28" y="129.98" width="5.47" height="5.47" transform="translate(-48.83 86.59) rotate(-17.76)"/><rect class="cls-10" x="306.95" y="127.53" width="5.47" height="5.47" transform="translate(-47.72 88.81) rotate(-17.76)"/><g class="cls-12"><path class="cls-8" d="M321.22,143.66l-14.44-45.1-1.3.42A9.09,9.09,0,0,0,290,100.54a4.2,4.2,0,0,0-.82-.08,4.15,4.15,0,0,0-2.7,1c-1.84-9.93-3.8-20-3.8-20s-2.45,14.76-4.18,26.17l-1.51.48c-3-4.7-6.77-10.18-6.77-10.18s-7.11,11-9.32,15.34l-.9.29a9.11,9.11,0,0,0-14.58,1c-2-11.33-4.87-25.87-4.87-25.87s-2.78,16.7-4.5,28.3c-1.8-22.24-8.63-90.24-8.63-90.24s-2.66,59.74-3.47,85.72c-4.73-10.6-11.27-24.66-11.27-24.66s2.8,35.77,3.7,39.17c0,.16.1.32.15.48l-15.07,4.83L203,137a8.41,8.41,0,0,0,3.73,16.37,4.16,4.16,0,0,0,3.08,4.89l2.86,8.94a4.19,4.19,0,0,0,2.3,7.18l1,3,9.44-3a4.94,4.94,0,0,0,9-2.39,3.86,3.86,0,0,0,6.28-2.5l29.34-9.4a4.17,4.17,0,0,0,7.59-2.4s0,0,0,0Z" transform="translate(-22.74 -11.86)"/><circle class="cls-8" cx="246.26" cy="83.52" r="1.48"/><circle class="cls-8" cx="251.95" cy="67.14" r="3.46"/><circle class="cls-8" cx="269.34" cy="76.1" r="0.61"/><circle class="cls-8" cx="193.33" cy="59.8" r="1.26"/></g><g class="cls-13"><rect class="cls-14" x="118.39" y="288.77" width="32.19" height="32.19" rx="3.25" ry="3.25"/><rect class="cls-14" x="154.48" y="288.77" width="32.19" height="32.19" rx="3.25" ry="3.25"/><rect class="cls-14" x="190.56" y="288.77" width="32.19" height="32.19" rx="3.25" ry="3.25"/><rect class="cls-14" x="226.65" y="288.77" width="32.19" height="32.19" rx="3.25" ry="3.25"/><rect class="cls-14" x="262.73" y="288.77" width="32.19" height="32.19" rx="3.25" ry="3.25"/><rect class="cls-14" x="298.82" y="288.77" width="32.19" height="32.19" rx="3.25" ry="3.25"/><rect class="cls-14" x="334.91" y="288.77" width="32.19" height="32.19" rx="3.25" ry="3.25"/><rect class="cls-14" x="370.99" y="288.77" width="32.19" height="32.19" rx="3.25" ry="3.25"/><rect class="cls-14" x="118.39" y="284.3" width="32.19" height="32.19" rx="3.25" ry="3.25"/><rect class="cls-14" x="154.48" y="284.3" width="32.19" height="32.19" rx="3.25" ry="3.25"/><rect class="cls-14" x="190.56" y="284.3" width="32.19" height="32.19" rx="3.25" ry="3.25"/><rect class="cls-14" x="226.65" y="284.3" width="32.19" height="32.19" rx="3.25" ry="3.25"/><rect class="cls-14" x="262.73" y="284.3" width="32.19" height="32.19" rx="3.25" ry="3.25"/><rect class="cls-14" x="298.82" y="284.3" width="32.19" height="32.19" rx="3.25" ry="3.25"/><rect class="cls-14" x="334.91" y="284.3" width="32.19" height="32.19" rx="3.25" ry="3.25"/><rect class="cls-14" x="370.99" y="284.3" width="32.19" height="32.19" rx="3.25" ry="3.25"/><path class="cls-14" d="M150.44,302.35a1,1,0,0,1,1.13-1.16h1.27a1,1,0,0,1,1.13,1.16v6.83h2.57L160.7,302a1.4,1.4,0,0,1,1.36-.8h1.36c.91,0,1.24.61.8,1.38l-4.76,8v.06l5.12,8.85c.47.8.11,1.38-.8,1.38h-1.52a1.4,1.4,0,0,1-1.36-.8l-4.34-7.77H154v7.41a1,1,0,0,1-1.13,1.16h-1.27a1,1,0,0,1-1.13-1.16Z" transform="translate(-22.74 -11.86)"/><path class="cls-14" d="M188.09,302.35a1,1,0,0,1,1.13-1.16h9.46a1.05,1.05,0,0,1,1.16,1.16v.77a1,1,0,0,1-1.16,1.13h-7.05v5.15h5.48a1,1,0,0,1,1.16,1.13v.77a1,1,0,0,1-1.16,1.16h-5.48v5.28h7.5a1,1,0,0,1,1.16,1.13v.77a1,1,0,0,1-1.16,1.16h-9.9a1,1,0,0,1-1.13-1.16Z" transform="translate(-22.74 -11.86)"/><path class="cls-14" d="M227.62,312.62l-5.75-10c-.47-.78-.11-1.38.77-1.38h1.55a1.35,1.35,0,0,1,1.33.86l2.66,4.92c.61,1.22,1.19,2.63,1.19,2.63h.06s.58-1.41,1.19-2.63l2.66-4.92a1.35,1.35,0,0,1,1.33-.86h1.55c.91,0,1.24.61.8,1.38l-5.78,10v7.06a1,1,0,0,1-1.13,1.16h-1.24a1,1,0,0,1-1.16-1.16Z" transform="translate(-22.74 -11.86)"/><path class="cls-14" d="M258.56,302.35a1,1,0,0,1,1.13-1.16h5.87c3.54,0,6.09,1.83,6.09,5.06a4.65,4.65,0,0,1-2.38,4.21v.05a4.61,4.61,0,0,1,3.15,4.62c0,3.93-3.13,5.7-6.78,5.7h-5.95a1,1,0,0,1-1.13-1.16Zm7,6.86A2.32,2.32,0,0,0,268,306.7a2.27,2.27,0,0,0-2.49-2.43h-3.4v5Zm.33,8.55a2.84,2.84,0,1,0,0-5.67H262.1v5.67Z" transform="translate(-22.74 -11.86)"/><path class="cls-14" d="M301.58,300.86a9.82,9.82,0,0,1,10.15,10,10.15,10.15,0,1,1-20.31,0A9.82,9.82,0,0,1,301.58,300.86Zm0,17c3.76,0,6.47-3,6.47-7a6.48,6.48,0,1,0-12.95,0C295.11,314.86,297.82,317.9,301.58,317.9Z" transform="translate(-22.74 -11.86)"/><path class="cls-14" d="M336,302.13a1.25,1.25,0,0,1,1.3-.94h1.77a1.23,1.23,0,0,1,1.3.94l6.14,17.37c.28.8-.08,1.33-.94,1.33h-1.27a1.23,1.23,0,0,1-1.3-.94l-1.38-4.09h-6.89l-1.36,4.07a1.23,1.23,0,0,1-1.3,1h-1.27c-.86,0-1.22-.53-.94-1.33Zm4.73,10.76L339,307.64c-.33-1.11-.77-3-.77-3h-.06s-.44,1.94-.77,3l-1.77,5.26Z" transform="translate(-22.74 -11.86)"/><path class="cls-14" d="M368.71,302.35a1,1,0,0,1,1.13-1.16h5.31a9,9,0,0,1,3.73.53,5.46,5.46,0,0,1,3.29,5.37,5.68,5.68,0,0,1-3.26,5.37v.06a7.08,7.08,0,0,1,.64,1l3.24,5.92c.47.8.11,1.38-.8,1.38H380.5a1.4,1.4,0,0,1-1.36-.8l-3.46-6.53h-3.43v6.17a1,1,0,0,1-1.13,1.16h-1.27a1,1,0,0,1-1.13-1.16Zm6.75,8.05a2.89,2.89,0,0,0,3.1-3.13A2.64,2.64,0,0,0,377,304.6a4.91,4.91,0,0,0-2.13-.33h-2.63v6.14Z" transform="translate(-22.74 -11.86)"/><path class="cls-14" d="M402.6,302.35a1,1,0,0,1,1.13-1.16h5.56c6.06,0,10,3.6,10,9.79s-4,9.85-10,9.85h-5.56a1,1,0,0,1-1.13-1.16Zm6.5,15.41c4,0,6.53-2.35,6.53-6.78s-2.6-6.72-6.53-6.72h-3v13.5Z" transform="translate(-22.74 -11.86)"/></g><path class="cls-15" d="M406.86,384.22c-2.84-1.2-7.13-3-7.13-4.23,0-1,2.1-1.32,3.43-1.32A13.07,13.07,0,0,1,410,381l.2.11a8.18,8.18,0,0,0,6.27.84,7.37,7.37,0,0,0,4.33-3.81l1.36-2.48a7.6,7.6,0,0,0-2.33-10.34,29.61,29.61,0,0,0-16.56-5c-7.36,0-13.6,2.67-17.66,7.07a7.4,7.4,0,0,0-7.64-6.17h-38.4c-3.87,0-6.69,2.14-7.57,5.51a18.64,18.64,0,0,0-5.69-3.7c-3.06-1.33-6.32-1.82-12-1.82H299.86a7.49,7.49,0,0,0-7.79,7.87v19.25c-1.85-16.22-15-28-32.11-28-12.65,0-23.16,6.47-28.51,16.41-2.5-9.38-10.38-15.5-20.88-15.5H193.1a7.49,7.49,0,0,0-7.79,7.87v31.84c-1.78-10.08-11.1-14-17.49-16.7-2.84-1.2-7.13-3-7.13-4.23,0-1,2.1-1.32,3.43-1.32A13.07,13.07,0,0,1,171,381l.2.11a8.17,8.17,0,0,0,6.27.84,7.37,7.37,0,0,0,4.33-3.81l1.36-2.48a7.6,7.6,0,0,0-2.33-10.34,29.62,29.62,0,0,0-16.56-5c-13.15,0-22.7,8.5-22.7,20.22,0,12.42,10.57,17,17.56,20.1,3.11,1.36,7.36,3.22,7.36,4.6s-2.94,1.39-3.28,1.39c-3.74,0-6.58-2-8.15-3.07l-.39-.24c-5.78-3.24-9.25.33-10.47,2l-.07.1-1.62,2.35a7.45,7.45,0,0,0,1.19,10.63l.22.18a33,33,0,0,0,19.29,6.4c11.68,0,20.45-7,22.1-17v8.28c0,4.71,3.13,7.87,7.79,7.87h3.46c4.66,0,7.79-3.16,7.79-7.87V405.63h6.21a21.1,21.1,0,0,0,17.38-8.47c2.2,16.16,15.22,27.83,32,27.83,17.08,0,30.26-12.08,32.11-28.68v19.91c0,4.71,3.13,7.87,7.79,7.87h3.46c4.66,0,7.79-3.16,7.79-7.87V404.12h1.8L321,419.46a8.48,8.48,0,0,0,7.81,4.62h4.07a6.89,6.89,0,0,0,6.28-10.78l-8.29-15.15a21.16,21.16,0,0,0,7.23-16.19,24.75,24.75,0,0,0-.2-3.11,9.72,9.72,0,0,0,1.66.14h9.68v37.23c0,4.71,3.13,7.87,7.79,7.87h3.39a7.45,7.45,0,0,0,7.87-7.87V379H378a9,9,0,0,0,2.69-.4c-.06.64-.1,1.28-.1,1.94,0,12.42,10.57,17,17.56,20.1,3.11,1.36,7.36,3.22,7.36,4.6s-2.94,1.39-3.28,1.39c-3.74,0-6.58-2-8.16-3.07l-.39-.24c-5.78-3.24-9.25.33-10.47,2l-.07.1-1.62,2.35a7.45,7.45,0,0,0,1.19,10.63l.22.18a33,33,0,0,0,19.29,6.4c13,0,22.4-8.63,22.4-20.52C424.65,391.71,413.95,387.2,406.86,384.22Z" transform="translate(-22.74 -11.86)"/><rect class="cls-16" x="118.06" y="366.8" width="8.68" height="17.65"/><rect class="cls-16" x="308.95" y="371.95" width="8.68" height="17.65"/><rect class="cls-16" x="118.8" y="334.6" width="8.68" height="17.65"/><rect class="cls-16" x="152.89" y="325.77" width="8.68" height="17.65"/><rect class="cls-16" x="357.06" y="366.78" width="8.68" height="17.65"/><rect class="cls-17" x="357.8" y="334.58" width="8.68" height="17.65"/><rect class="cls-16" x="391.88" y="325.75" width="8.68" height="17.65"/><rect class="cls-17" x="157.23" y="361.33" width="8.68" height="17.65"/><path class="cls-17" d="M213,366.8c0-3.84-2.19-4.33-4.1-4.33h-4.56v8.81h4.41C210.86,371.29,213,370.75,213,366.8Z" transform="translate(-22.74 -11.86)"/><path class="cls-17" d="M260,390.18c7.48,0,12.91-6.06,12.91-14.42,0-7.92-5.43-13.67-12.91-13.67S247,367.85,247,375.77C247,384.12,252.47,390.18,260,390.18Z" transform="translate(-22.74 -11.86)"/><path class="cls-17" d="M318.87,366c0-2.42-.91-2.79-1.3-3l-.22-.1a10.23,10.23,0,0,0-3.79-.46h-2.45v7.3h4C317.75,369.78,318.87,368.64,318.87,366Z" transform="translate(-22.74 -11.86)"/><path class="cls-16" d="M406.86,367.72c-2.84-1.2-7.13-3-7.13-4.23,0-1,2.1-1.32,3.43-1.32a13.07,13.07,0,0,1,6.88,2.29l.2.11a8.18,8.18,0,0,0,6.27.84,7.37,7.37,0,0,0,4.33-3.81l1.36-2.48a7.6,7.6,0,0,0-2.33-10.34,29.61,29.61,0,0,0-16.56-5c-7.36,0-13.6,2.67-17.66,7.07a7.4,7.4,0,0,0-7.64-6.17h-38.4c-3.87,0-6.69,2.14-7.57,5.51a18.64,18.64,0,0,0-5.69-3.7c-3.06-1.33-6.32-1.82-12-1.82H299.86a7.49,7.49,0,0,0-7.79,7.87v19.25c-1.85-16.22-15-28-32.11-28-12.65,0-23.16,6.47-28.51,16.41-2.5-9.38-10.38-15.5-20.88-15.5H193.1a7.49,7.49,0,0,0-7.79,7.87v31.84c-1.78-10.08-11.1-14-17.49-16.7-2.84-1.2-7.13-3-7.13-4.23,0-1,2.1-1.32,3.43-1.32a13.07,13.07,0,0,1,6.88,2.29l.2.11a8.17,8.17,0,0,0,6.27.84,7.37,7.37,0,0,0,4.33-3.81l1.36-2.48a7.6,7.6,0,0,0-2.33-10.34,29.62,29.62,0,0,0-16.56-5c-13.15,0-22.7,8.5-22.7,20.22,0,12.42,10.57,17,17.56,20.1,3.11,1.36,7.36,3.22,7.36,4.6s-2.94,1.39-3.28,1.39c-3.74,0-6.58-2-8.15-3.07l-.39-.24c-5.78-3.24-9.25.33-10.47,2l-.07.1-1.62,2.35a7.45,7.45,0,0,0,1.19,10.63l.22.18a33,33,0,0,0,19.29,6.4c11.68,0,20.45-7,22.1-17v8.28c0,4.71,3.13,7.87,7.79,7.87h3.46c4.66,0,7.79-3.16,7.79-7.87V389.13h6.21a21.1,21.1,0,0,0,17.38-8.47c2.2,16.16,15.22,27.83,32,27.83,17.08,0,30.26-12.08,32.11-28.68v19.91c0,4.71,3.13,7.87,7.79,7.87h3.46c4.66,0,7.79-3.16,7.79-7.87V387.62h1.8L321,403a8.48,8.48,0,0,0,7.81,4.62h4.07a6.89,6.89,0,0,0,6.28-10.78l-8.29-15.15a21.16,21.16,0,0,0,7.23-16.19,24.75,24.75,0,0,0-.2-3.11,9.72,9.72,0,0,0,1.66.14h9.68v37.23c0,4.71,3.13,7.87,7.79,7.87h3.39a7.45,7.45,0,0,0,7.87-7.87V362.47H378a9,9,0,0,0,2.69-.4c-.06.64-.1,1.28-.1,1.94,0,12.42,10.57,17,17.56,20.1,3.11,1.36,7.36,3.22,7.36,4.6s-2.94,1.39-3.28,1.39c-3.74,0-6.58-2-8.16-3.07l-.39-.24c-5.78-3.24-9.25.33-10.47,2l-.07.1-1.62,2.35a7.45,7.45,0,0,0,1.19,10.63l.22.18a33,33,0,0,0,19.29,6.4c13,0,22.4-8.63,22.4-20.52C424.65,375.21,413.95,370.7,406.86,367.72ZM260,362.1c7.48,0,12.91,5.75,12.91,13.67,0,8.36-5.43,14.42-12.91,14.42S247,384.12,247,375.77C247,367.85,252.47,362.1,260,362.1Zm-55.6.38h4.56c1.91,0,4.1.49,4.1,4.33s-2.15,4.48-4.25,4.48h-4.41Zm106.76,0h2.45a10.23,10.23,0,0,1,3.79.46l.22.1c.39.16,1.3.53,1.3,3,0,2.67-1.12,3.8-3.73,3.8h-4Z" transform="translate(-22.74 -11.86)"/><rect class="cls-16" x="256.09" y="345.96" width="19.39" height="16.16"/><path class="cls-16" d="M213,349.81c0-3.84-2.19-4.33-4.1-4.33h-4.56v8.81h4.41C210.86,354.29,213,353.76,213,349.81Z" transform="translate(-22.74 -11.86)"/><path class="cls-16" d="M260,373.19c7.48,0,12.91-6.06,12.91-14.42,0-7.92-5.43-13.67-12.91-13.67S247,350.85,247,358.77C247,367.13,252.47,373.19,260,373.19Z" transform="translate(-22.74 -11.86)"/><path class="cls-16" d="M318.87,349c0-2.42-.91-2.79-1.3-3l-.22-.1a10.23,10.23,0,0,0-3.79-.46h-2.45v7.3h4C317.75,352.79,318.87,351.65,318.87,349Z" transform="translate(-22.74 -11.86)"/><path class="cls-18" d="M406.86,350.73c-2.84-1.2-7.13-3-7.13-4.23,0-1,2.1-1.32,3.43-1.32a13.07,13.07,0,0,1,6.88,2.29l.2.11a8.18,8.18,0,0,0,6.27.84,7.37,7.37,0,0,0,4.33-3.81l1.36-2.48a7.6,7.6,0,0,0-2.33-10.34,29.61,29.61,0,0,0-16.56-5c-7.36,0-13.6,2.67-17.66,7.07a7.4,7.4,0,0,0-7.64-6.17h-38.4c-3.87,0-6.69,2.14-7.57,5.51a18.64,18.64,0,0,0-5.69-3.7c-3.06-1.33-6.32-1.82-12-1.82H299.86a7.49,7.49,0,0,0-7.79,7.87v19.25c-1.85-16.22-15-28-32.11-28-12.65,0-23.16,6.47-28.51,16.41-2.5-9.38-10.38-15.5-20.88-15.5H193.1a7.49,7.49,0,0,0-7.79,7.87v31.84c-1.78-10.08-11.1-14-17.49-16.7-2.84-1.2-7.13-3-7.13-4.23,0-1,2.1-1.32,3.43-1.32a13.07,13.07,0,0,1,6.88,2.29l.2.11a8.17,8.17,0,0,0,6.27.84,7.37,7.37,0,0,0,4.33-3.81l1.36-2.48a7.6,7.6,0,0,0-2.33-10.34,29.62,29.62,0,0,0-16.56-5c-13.15,0-22.7,8.5-22.7,20.22,0,12.42,10.57,17,17.56,20.1,3.11,1.36,7.36,3.22,7.36,4.6s-2.94,1.39-3.28,1.39c-3.74,0-6.58-2-8.15-3.07l-.39-.24c-5.78-3.24-9.25.33-10.47,2l-.07.1-1.62,2.35a7.45,7.45,0,0,0,1.19,10.63l.22.18a33,33,0,0,0,19.29,6.4c11.68,0,20.45-7,22.1-17v8.28c0,4.71,3.13,7.87,7.79,7.87h3.46c4.66,0,7.79-3.16,7.79-7.87V372.14h6.21a21.1,21.1,0,0,0,17.38-8.47c2.2,16.16,15.22,27.83,32,27.83,17.08,0,30.26-12.08,32.11-28.68v19.91c0,4.71,3.13,7.87,7.79,7.87h3.46c4.66,0,7.79-3.16,7.79-7.87V370.63h1.8L321,386a8.48,8.48,0,0,0,7.81,4.62h4.07a6.89,6.89,0,0,0,6.28-10.78l-8.29-15.15a21.16,21.16,0,0,0,7.23-16.19,24.75,24.75,0,0,0-.2-3.11,9.72,9.72,0,0,0,1.66.14h9.68v37.23c0,4.71,3.13,7.87,7.79,7.87h3.39a7.45,7.45,0,0,0,7.87-7.87V345.48H378a9,9,0,0,0,2.69-.4c-.06.64-.1,1.28-.1,1.94,0,12.42,10.57,17,17.56,20.1,3.11,1.36,7.36,3.22,7.36,4.6s-2.94,1.39-3.28,1.39c-3.74,0-6.58-2-8.16-3.07l-.39-.24c-5.78-3.24-9.25.33-10.47,2l-.07.1-1.62,2.35a7.45,7.45,0,0,0,1.19,10.63l.22.18a33,33,0,0,0,19.29,6.4c13,0,22.4-8.63,22.4-20.52C424.65,358.22,413.95,353.71,406.86,350.73ZM260,345.11c7.48,0,12.91,5.75,12.91,13.67,0,8.36-5.43,14.42-12.91,14.42S247,367.13,247,358.77C247,350.85,252.47,345.11,260,345.11Zm-55.6.38h4.56c1.91,0,4.1.49,4.1,4.33s-2.15,4.48-4.25,4.48h-4.41Zm106.76,0h2.45a10.23,10.23,0,0,1,3.79.46l.22.1c.39.16,1.3.53,1.3,3,0,2.67-1.12,3.8-3.73,3.8h-4Z" transform="translate(-22.74 -11.86)"/><rect class="cls-19" x="118.39" y="274.91" width="32.19" height="32.19" rx="3.25" ry="3.25"/><rect class="cls-19" x="154.48" y="274.91" width="32.19" height="32.19" rx="3.25" ry="3.25"/><rect class="cls-19" x="190.56" y="274.91" width="32.19" height="32.19" rx="3.25" ry="3.25"/><rect class="cls-19" x="226.65" y="274.91" width="32.19" height="32.19" rx="3.25" ry="3.25"/><rect class="cls-19" x="262.73" y="274.91" width="32.19" height="32.19" rx="3.25" ry="3.25"/><rect class="cls-19" x="298.82" y="274.91" width="32.19" height="32.19" rx="3.25" ry="3.25"/><rect class="cls-19" x="334.91" y="274.91" width="32.19" height="32.19" rx="3.25" ry="3.25"/><rect class="cls-19" x="370.99" y="274.91" width="32.19" height="32.19" rx="3.25" ry="3.25"/><rect class="cls-20" x="118.39" y="270.44" width="32.19" height="32.19" rx="3.25" ry="3.25"/><rect class="cls-20" x="154.48" y="270.44" width="32.19" height="32.19" rx="3.25" ry="3.25"/><rect class="cls-20" x="190.56" y="270.44" width="32.19" height="32.19" rx="3.25" ry="3.25"/><rect class="cls-20" x="226.65" y="270.44" width="32.19" height="32.19" rx="3.25" ry="3.25"/><rect class="cls-20" x="262.73" y="270.44" width="32.19" height="32.19" rx="3.25" ry="3.25"/><rect class="cls-20" x="298.82" y="270.44" width="32.19" height="32.19" rx="3.25" ry="3.25"/><rect class="cls-20" x="334.91" y="270.44" width="32.19" height="32.19" rx="3.25" ry="3.25"/><rect class="cls-20" x="370.99" y="270.44" width="32.19" height="32.19" rx="3.25" ry="3.25"/><path class="cls-21" d="M150.44,288.49a1,1,0,0,1,1.13-1.16h1.27a1,1,0,0,1,1.13,1.16v6.83h2.57l4.15-7.19a1.4,1.4,0,0,1,1.36-.8h1.36c.91,0,1.24.61.8,1.38l-4.76,8v.06l5.12,8.85c.47.8.11,1.38-.8,1.38h-1.52a1.4,1.4,0,0,1-1.36-.8l-4.34-7.77H154v7.41a1,1,0,0,1-1.13,1.16h-1.27a1,1,0,0,1-1.13-1.16Z" transform="translate(-22.74 -11.86)"/><path class="cls-21" d="M188.09,288.49a1,1,0,0,1,1.13-1.16h9.46a1.05,1.05,0,0,1,1.16,1.16v.77a1,1,0,0,1-1.16,1.13h-7.05v5.15h5.48a1,1,0,0,1,1.16,1.13v.77a1,1,0,0,1-1.16,1.16h-5.48v5.28h7.5a1,1,0,0,1,1.16,1.13v.77a1,1,0,0,1-1.16,1.16h-9.9a1,1,0,0,1-1.13-1.16Z" transform="translate(-22.74 -11.86)"/><path class="cls-21" d="M227.62,298.75l-5.75-10c-.47-.78-.11-1.38.77-1.38h1.55a1.35,1.35,0,0,1,1.33.86l2.66,4.92c.61,1.22,1.19,2.63,1.19,2.63h.06s.58-1.41,1.19-2.63l2.66-4.92a1.35,1.35,0,0,1,1.33-.86h1.55c.91,0,1.24.61.8,1.38l-5.78,10v7.06A1,1,0,0,1,230,307h-1.24a1,1,0,0,1-1.16-1.16Z" transform="translate(-22.74 -11.86)"/><path class="cls-21" d="M258.56,288.49a1,1,0,0,1,1.13-1.16h5.87c3.54,0,6.09,1.83,6.09,5.06a4.65,4.65,0,0,1-2.38,4.21v.05a4.61,4.61,0,0,1,3.15,4.62c0,3.93-3.13,5.7-6.78,5.7h-5.95a1,1,0,0,1-1.13-1.16Zm7,6.86a2.32,2.32,0,0,0,2.41-2.52,2.27,2.27,0,0,0-2.49-2.43h-3.4v5Zm.33,8.55a2.84,2.84,0,1,0,0-5.67H262.1v5.67Z" transform="translate(-22.74 -11.86)"/><path class="cls-21" d="M301.58,287a9.82,9.82,0,0,1,10.15,10,10.15,10.15,0,1,1-20.31,0A9.82,9.82,0,0,1,301.58,287Zm0,17c3.76,0,6.47-3,6.47-7a6.48,6.48,0,1,0-12.95,0C295.11,301,297.82,304,301.58,304Z" transform="translate(-22.74 -11.86)"/><path class="cls-21" d="M336,288.27a1.25,1.25,0,0,1,1.3-.94h1.77a1.23,1.23,0,0,1,1.3.94l6.14,17.37c.28.8-.08,1.33-.94,1.33h-1.27A1.23,1.23,0,0,1,343,306l-1.38-4.09h-6.89L333.42,306a1.23,1.23,0,0,1-1.3,1h-1.27c-.86,0-1.22-.53-.94-1.33ZM340.78,299,339,293.78c-.33-1.11-.77-3-.77-3h-.06s-.44,1.94-.77,3L335.66,299Z" transform="translate(-22.74 -11.86)"/><path class="cls-21" d="M368.71,288.49a1,1,0,0,1,1.13-1.16h5.31a9,9,0,0,1,3.73.53,5.46,5.46,0,0,1,3.29,5.37,5.68,5.68,0,0,1-3.26,5.37v.06a7.08,7.08,0,0,1,.64,1l3.24,5.92c.47.8.11,1.38-.8,1.38H380.5a1.4,1.4,0,0,1-1.36-.8l-3.46-6.53h-3.43v6.17a1,1,0,0,1-1.13,1.16h-1.27a1,1,0,0,1-1.13-1.16Zm6.75,8.05a2.89,2.89,0,0,0,3.1-3.13,2.64,2.64,0,0,0-1.55-2.68,4.91,4.91,0,0,0-2.13-.33h-2.63v6.14Z" transform="translate(-22.74 -11.86)"/><path class="cls-21" d="M402.6,288.49a1,1,0,0,1,1.13-1.16h5.56c6.06,0,10,3.6,10,9.79s-4,9.85-10,9.85h-5.56a1,1,0,0,1-1.13-1.16Zm6.5,15.41c4,0,6.53-2.35,6.53-6.78s-2.6-6.72-6.53-6.72h-3v13.5Z" transform="translate(-22.74 -11.86)"/><g class="cls-13"><path class="cls-14" d="M140.6,446.52l1.59-.58c1.12-.37,1.75,0,2.28,1.15a10.83,10.83,0,0,0,3.78,5.48c2.33,1.67,4.58,1.51,5.8-.19,3.41-4.77-9-12.15-3.42-20,3.16-4.42,8.88-4.66,13.66-1.24a14.35,14.35,0,0,1,5.11,6.54,1.72,1.72,0,0,1-1,2.34l-1.47.71c-1.26.65-1.91,0-2.37-.95a10.1,10.1,0,0,0-3.36-4.49c-2.33-1.67-4.63-1.6-5.84.1-3.36,4.7,9.2,11.87,3.49,19.86-2.91,4.07-8.35,5.25-13.62,1.49a16.37,16.37,0,0,1-5.89-8.06A1.62,1.62,0,0,1,140.6,446.52Z" transform="translate(-22.74 -11.86)"/><path class="cls-14" d="M176.71,441.71a2,2,0,0,1,2.51-.26l2.41,1.39a1.94,1.94,0,0,1,1,2.3l-5.31,28.46a1.41,1.41,0,0,1-2.32,1.07l-1.73-1a1.94,1.94,0,0,1-1-2.3l1.34-6.66-9.37-5.42-5,4.47a1.93,1.93,0,0,1-2.53.29l-1.73-1a1.41,1.41,0,0,1-.24-2.55Zm-2,18.36,1.76-8.52c.42-1.77,1.34-4.75,1.34-4.75l-.08,0s-2.13,2.29-3.45,3.53L167.72,456Z" transform="translate(-22.74 -11.86)"/><path class="cls-14" d="M185.81,448c.12-1.33,1-1.85,2.21-1.29l2.1,1a1.93,1.93,0,0,1,1.23,2.23l-1.94,19.55c-.22,1.86-.8,4.6-.8,4.6l.08,0s1.65-2.26,2.94-3.63l13.5-14.31a1.86,1.86,0,0,1,2.45-.56l2,.91a1.41,1.41,0,0,1,.48,2.51L189.8,479.84a1.93,1.93,0,0,1-2.45.46l-2.53-1.15a1.93,1.93,0,0,1-1.27-2.15Z" transform="translate(-22.74 -11.86)"/><path class="cls-14" d="M209.44,458.06a1.62,1.62,0,0,1,2.3-1.09l1.88.69a1.62,1.62,0,0,1,1,2.33l-9.44,25.52a1.6,1.6,0,0,1-2.3,1.09l-1.88-.69a1.6,1.6,0,0,1-1-2.33Z" transform="translate(-22.74 -11.86)"/><path class="cls-14" d="M216.39,461a1.62,1.62,0,0,1,2.21-1.28l2.26.63a2.19,2.19,0,0,1,1.77,1.76L228.7,481a52.3,52.3,0,0,1,1.18,5.3l.08,0s.5-2.93,1-4.69l4.31-15.4a1.65,1.65,0,0,1,2.25-1.27l1.88.53a1.65,1.65,0,0,1,1.27,2.25L233.33,494a1.63,1.63,0,0,1-2.25,1.27l-2.26-.63a2.21,2.21,0,0,1-1.72-1.75L221,474c-.6-2.06-1.18-5.3-1.18-5.3l-.08,0s-.5,2.93-1,4.69l-4.3,15.36a1.6,1.6,0,0,1-2.21,1.28l-1.93-.54a1.6,1.6,0,0,1-1.22-2.24Z" transform="translate(-22.74 -11.86)"/><path class="cls-14" d="M256.4,467.83A18.51,18.51,0,0,1,266,472.1a1.64,1.64,0,0,1,0,2.55l-1,1.09c-.79.89-1.58.87-2.56.1a13.09,13.09,0,0,0-6.51-2.9c-6.66-1-11.08,3.28-11.93,9-.95,6.41,2.91,11.5,8.59,12.34a10.27,10.27,0,0,0,8.24-2.21l.5-3.4-2.92-.43a1.65,1.65,0,0,1-1.54-2.07l.17-1.16a1.63,1.63,0,0,1,2.07-1.54l6.11.9a1.6,1.6,0,0,1,1.5,2.07L264.88,499a1.6,1.6,0,0,1-2,1.54l-1.08-.16c-1.16-.17-1.67-.86-1.55-1.72l.11-.73a6.71,6.71,0,0,1,.15-.72h-.09a12.5,12.5,0,0,1-9.45,2.12c-8.08-1.2-14.07-8.54-12.69-17.87C239.61,472.29,247.28,466.48,256.4,467.83Z" transform="translate(-22.74 -11.86)"/><path class="cls-14" d="M289.17,469.91c9.34-.13,16,6.69,16.17,15.55a15.87,15.87,0,0,1-3.25,9.83l2.11,1.93a1.64,1.64,0,0,1,.21,2.56l-.77.84a1.52,1.52,0,0,1-2.39.21L299,498.64a15.5,15.5,0,0,1-9.39,3.17c-9.34.13-16-6.91-16.18-15.9A15.47,15.47,0,0,1,289.17,469.91Zm.37,26.77a9.3,9.3,0,0,0,5.37-1.73l-2.16-2a1.62,1.62,0,0,1-.17-2.52l.77-.84a1.5,1.5,0,0,1,2.39-.25l2.2,2.19a11.09,11.09,0,0,0,1.61-6C299.47,479.46,295,475,289.24,475s-10.11,4.71-10,10.79S283.72,496.76,289.54,496.68Z" transform="translate(-22.74 -11.86)"/><path class="cls-14" d="M302.28,472.72a1.44,1.44,0,0,1,1.22-2.23l2.14-.36a1.85,1.85,0,0,1,2.19,1.27l7.65,18.73a22.49,22.49,0,0,1,1,3.14h.09a25.51,25.51,0,0,1,.11-3.32l1.82-20.35a1.94,1.94,0,0,1,1.76-1.88l1.46-.24a1.79,1.79,0,0,1,2.19,1.22l8.26,18.68a25.53,25.53,0,0,1,1.18,3.11h.09a27.24,27.24,0,0,1,0-3.3l1.44-20.24a1.81,1.81,0,0,1,1.71-1.91l2-.34c1.29-.21,2,.46,1.91,1.71L338,494.51a1.9,1.9,0,0,1-1.77,1.84l-3,.51a1.86,1.86,0,0,1-2.23-1.22l-7.07-15.75C323,478,322.39,476,322.39,476l-.13,0s0,2.07-.11,4.12l-1.64,17.19a1.87,1.87,0,0,1-1.72,1.87l-3.09.51a1.86,1.86,0,0,1-2.23-1.22Z" transform="translate(-22.74 -11.86)"/><path class="cls-14" d="M339.48,465.73a1.62,1.62,0,0,1,1.18-2.26l14.24-4.27a1.65,1.65,0,0,1,2.27,1.22l.35,1.17a1.62,1.62,0,0,1-1.24,2.23L345.67,467l2.32,7.74,8.24-2.47a1.62,1.62,0,0,1,2.26,1.18l.35,1.17a1.63,1.63,0,0,1-1.22,2.27l-8.24,2.47,2.38,8L363,483.94a1.62,1.62,0,0,1,2.26,1.18l.35,1.17a1.63,1.63,0,0,1-1.22,2.27L349.53,493a1.6,1.6,0,0,1-2.23-1.24Z" transform="translate(-22.74 -11.86)"/><path class="cls-14" d="M357.55,460.3a1.62,1.62,0,0,1,1-2.36l7.73-3.15c2.82-1.15,4.32-1.48,5.75-1.45,3.39,0,6.4,2,8,5.86,1.38,3.38.92,7.32-1.57,9.74l0,.08a11.16,11.16,0,0,1,1.53,1.11l8.22,6.69c1.16.89,1,1.95-.35,2.49l-2.17.89a2.2,2.2,0,0,1-2.45-.36l-8.9-7.45-5,2,3.66,9a1.6,1.6,0,0,1-1,2.36l-1.85.75a1.6,1.6,0,0,1-2.34-1Zm14.6,7.71a4.53,4.53,0,0,0,2.65-6.39c-.74-1.81-2-3-3.85-3a7.71,7.71,0,0,0-3.3.78L363.83,461l3.64,8.94Z" transform="translate(-22.74 -11.86)"/><path class="cls-14" d="M384.29,451.84l-7.35,3.86a1.6,1.6,0,0,1-2.44-.73l-.57-1.08a1.63,1.63,0,0,1,.77-2.47l19.63-10.31a1.62,1.62,0,0,1,2.43.79l.57,1.08a1.59,1.59,0,0,1-.75,2.41l-7.35,3.86,11.26,21.43a1.61,1.61,0,0,1-.77,2.47l-1.73.91a1.6,1.6,0,0,1-2.43-.79Z" transform="translate(-22.74 -11.86)"/><path class="cls-14" d="M409.42,452.58l-16.21-8.25c-1.28-.61-1.34-1.72-.17-2.49l2-1.33a2.12,2.12,0,0,1,2.48,0l7.73,4.19c1.85,1.08,3.83,2.43,3.83,2.43l.07,0s-.45-2.35-.7-4.48l-.75-8.76a2.12,2.12,0,0,1,1-2.27l2-1.33c1.2-.79,2.16-.27,2.25,1.13l1,18.18,6.07,9.27a1.6,1.6,0,0,1-.49,2.5L418,462.38a1.61,1.61,0,0,1-2.53-.53Z" transform="translate(-22.74 -11.86)"/></g><path class="cls-1" d="M374.8,453.91c-.74-1.81-2-3-3.85-3a7.71,7.71,0,0,0-3.3.78l-2.4,1,2.22,5.45,4.67-1.9a5,5,0,0,0,2.67-2.29Z" transform="translate(-22.74 -11.86)"/><path class="cls-1" d="M174.26,442.58l-3.75,3.3,4.17,2.41,1.6-7.74C175.63,441.23,174.86,442,174.26,442.58Z" transform="translate(-22.74 -11.86)"/><path class="cls-1" d="M289.54,484.9a10,10,0,0,0,2.65-.4,186.34,186.34,0,0,1,0-4.15,1.64,1.64,0,0,1,.42-1.71l.77-.84a1.5,1.5,0,0,1,2.39-.25l2.2,2.19a10.78,10.78,0,0,0,1.43-3.8,10.11,10.11,0,0,0-20-.05C280.23,481.17,284.31,485,289.54,484.9Z" transform="translate(-22.74 -11.86)"/><path class="cls-22" d="M214.74,451a1.79,1.79,0,0,0,0-1,1.79,1.79,0,0,0,0-1,1.79,1.79,0,0,0,0-1,1.57,1.57,0,0,0-1.12-2l-1.88-.69a1.74,1.74,0,0,0-1.45,0,2.28,2.28,0,0,0-.7-.47l-2-.91a1.86,1.86,0,0,0-2.45.56l-13.5,14.31c-.73.78-1.58,1.84-2.17,2.62l1.89-19.1a2.43,2.43,0,0,0,0-.84l0-.18a2.43,2.43,0,0,0,0-.84l0-.18a2.43,2.43,0,0,0,0-.84l0-.18a2.43,2.43,0,0,0,0-.84l0-.18a1.93,1.93,0,0,0-1.23-2.23l-2.1-1c-1.23-.56-2.08,0-2.21,1.29l-2.26,29a2.64,2.64,0,0,0,0,.72l0,.3a2.64,2.64,0,0,0,0,.72l0,.3a2.64,2.64,0,0,0,0,.72l0,.3a2.64,2.64,0,0,0,0,.72l0,.3a1.93,1.93,0,0,0,1.27,2.15l2.53,1.15a1.93,1.93,0,0,0,2.45-.46l16.25-16.69L200,471.8a2,2,0,0,0-.09,1.32,1.77,1.77,0,0,0,0,1,1.77,1.77,0,0,0,0,1,1.77,1.77,0,0,0,0,1,1.55,1.55,0,0,0,1.13,2l1.88.69a1.6,1.6,0,0,0,2.3-1.09l9.44-25.52A2,2,0,0,0,214.74,451Z" transform="translate(-22.74 -11.86)"/><path class="cls-22" d="M240.7,458.91a2,2,0,0,0,0-1,2,2,0,0,0,0-1,2,2,0,0,0,0-1,1.63,1.63,0,0,0-1.29-2.12l-1.88-.53a1.65,1.65,0,0,0-2.25,1.27L231,469.89c-.49,1.76-1,4.69-1,4.69l-.08,0a52.3,52.3,0,0,0-1.18-5.3l-6.07-18.94a2.19,2.19,0,0,0-1.77-1.76l-2.26-.63a1.62,1.62,0,0,0-2.21,1.28l-7.33,26.2a2.09,2.09,0,0,0,0,1.19,2,2,0,0,0,0,1,2,2,0,0,0,0,1,2,2,0,0,0,0,1,1.57,1.57,0,0,0,1.26,2.07l1.93.54a1.6,1.6,0,0,0,2.21-1.28l4.3-15.36c.49-1.76,1-4.69,1-4.69l.08,0s.58,3.23,1.18,5.3l6.13,18.91a2.21,2.21,0,0,0,1.72,1.75l2.26.63a1.63,1.63,0,0,0,2.25-1.27l7.34-26.2A2,2,0,0,0,240.7,458.91Z" transform="translate(-22.74 -11.86)"/><path class="cls-22" d="M420.44,448.64a1.72,1.72,0,0,0-.3-1.62l-6.07-9.27-1-18.18c-.09-1.4-1-1.91-2.25-1.13l-2,1.33a2.12,2.12,0,0,0-1,2.27v.15a2.72,2.72,0,0,0,0,.87v.15a2.72,2.72,0,0,0,0,.87v.15a2.72,2.72,0,0,0,0,.87v.15a2.72,2.72,0,0,0,0,.87l.75,8.76v0c-.73-.48-2-1.31-3.2-2l-7.73-4.19a2.12,2.12,0,0,0-2.48,0l-1.66,1.09-18.71,9.83a1.58,1.58,0,0,0-1,2l0,.1a8.45,8.45,0,0,0-1.72-.19c-1.42,0-2.93.3-5.75,1.45l-7.73,3.15a1.57,1.57,0,0,0-1.07,2,1.72,1.72,0,0,0,0,1,1.39,1.39,0,0,0,0,.17l-.22-.73a1.65,1.65,0,0,0-2.27-1.22l-14.24,4.27a1.62,1.62,0,0,0-1.26,1.2,2.33,2.33,0,0,0-.83,0l-2,.34a1.81,1.81,0,0,0-1.71,1.91l-1.44,20.24c0,.75,0,1.45,0,2,0,.37,0,.71,0,1,0,.09,0,.19,0,.28h0a25.53,25.53,0,0,0-1.18-3.11l-8.26-18.68a1.79,1.79,0,0,0-2.19-1.22l-1.46.24a1.94,1.94,0,0,0-1.76,1.88l-1.82,20.35a26.35,26.35,0,0,0-.12,3.08c0,.08,0,.17,0,.25h-.07a22.49,22.49,0,0,0-1-3.14l-7.65-18.73a1.85,1.85,0,0,0-2.19-1.27l-2.14.36c-1.16.19-1.62.92-1.33,1.91a1.56,1.56,0,0,0,0,1,1.57,1.57,0,0,0,0,1,1.56,1.56,0,0,0,0,1,1.29,1.29,0,0,0-.08.43,15.68,15.68,0,0,0-12.92-6,15.47,15.47,0,0,0-15.73,16c0,.12,0,.24,0,.36s0,.43,0,.66,0,.24,0,.36,0,.43,0,.66,0,.24,0,.36,0,.43,0,.66,0,.24,0,.36,0,.43,0,.66c.13,9,6.83,16,16.18,15.9a15.5,15.5,0,0,0,9.39-3.17l2.25,2.19a1.52,1.52,0,0,0,2.39-.21l.77-.84a1.69,1.69,0,0,0,.42-1.73,1.43,1.43,0,0,0,0-1,1.43,1.43,0,0,0,0-1,1.43,1.43,0,0,0,0-1,1.6,1.6,0,0,0-.63-1.85l-.51-.47a15.64,15.64,0,0,0,1.65-7.22c0-.11,0-.22,0-.33s0-.45,0-.68,0-.22,0-.33,0-.45,0-.68,0-.22,0-.33,0-.45,0-.68,0-.22,0-.33,0-.45,0-.68a17.27,17.27,0,0,0-.15-2l8.3,19.12a1.86,1.86,0,0,0,2.23,1.22l3.09-.51a1.87,1.87,0,0,0,1.72-1.87l1.64-17.19c.13-1.82.12-3.64.11-4v-.08l.13,0s.64,2,1.48,3.85l7.07,15.75a1.86,1.86,0,0,0,2.23,1.22l3-.51a1.9,1.9,0,0,0,1.77-1.84l2.32-26,7,23.33a1.6,1.6,0,0,0,2.23,1.24l14.91-4.47a1.6,1.6,0,0,0,1.26-2.09,1.92,1.92,0,0,0,0-1,1.92,1.92,0,0,0,0-1,1.92,1.92,0,0,0,0-1,2,2,0,0,0,0-1.2l-.35-1.17a1.62,1.62,0,0,0-2.26-1.18l-11.28,3.38-1.27-4.22,7.13-2.14a1.6,1.6,0,0,0,1.26-2.09,5552.57,5552.57,0,0,0,0-3.05,2,2,0,0,0,0-1.2l-.35-1.17a1.62,1.62,0,0,0-2.26-1.18L348,463l-1.2-4,9.5-2.85a1.6,1.6,0,0,0,1.27-2.09,1.86,1.86,0,0,0,0-1,1.48,1.48,0,0,0,.06-.27l10.21,25a1.6,1.6,0,0,0,2.34,1L372,478a1.55,1.55,0,0,0,1.08-2,1.7,1.7,0,0,0,0-1,1.7,1.7,0,0,0,0-1,1.7,1.7,0,0,0,0-1,1.92,1.92,0,0,0-.12-1.37l-2.24-5.49,3.57-1.46,8.9,7.45a2.2,2.2,0,0,0,2.45.36l2.17-.89c1-.4,1.33-1.09,1-1.78a1,1,0,0,0,0-1,1,1,0,0,0,0-1,1,1,0,0,0,0-1c.3-.53.11-1.16-.63-1.73l-8-6.53a9,9,0,0,0,.55-3.72,9.7,9.7,0,0,0,0-1,9.7,9.7,0,0,0,0-1,9.7,9.7,0,0,0,0-1,10.2,10.2,0,0,0-.75-4.33c-.11-.28-.24-.55-.37-.81l4.7-2.47,11.26,21.43a1.6,1.6,0,0,0,2.43.79l1.73-.91a1.56,1.56,0,0,0,1-2,1.52,1.52,0,0,0,0-1,1.52,1.52,0,0,0,0-1,1.52,1.52,0,0,0,0-1,1.79,1.79,0,0,0-.2-1.5l-9.58-18.25,5-2.65,13.48,6.86,6.07,9.27a1.61,1.61,0,0,0,2.53.53l1.64-1.07a1.54,1.54,0,0,0,.79-1.9,1.43,1.43,0,0,0,0-1,1.43,1.43,0,0,0,0-1A1.43,1.43,0,0,0,420.44,448.64Zm-48.3,7.58-4.67,1.9-2.22-5.45,2.4-1a7.71,7.71,0,0,1,3.3-.78c1.83,0,3.11,1.17,3.85,3v0A5,5,0,0,1,372.15,456.23Zm-82.91,11.1a10,10,0,0,1,10.14,8.62,10.78,10.78,0,0,1-1.43,3.8l-2.2-2.19a1.5,1.5,0,0,0-2.39.25l-.77.84a1.64,1.64,0,0,0-.42,1.71,1.42,1.42,0,0,0,0,1,1.42,1.42,0,0,0,0,1,33.26,33.26,0,0,0,0,2.11,10,10,0,0,1-2.65.4c-5.23.07-9.31-3.73-10.15-9A10,10,0,0,1,289.24,467.32Z" transform="translate(-22.74 -11.86)"/><path class="cls-22" d="M181.63,431.07l-2.41-1.39a2,2,0,0,0-2.51.26l-16.39,14a7.31,7.31,0,0,0,0-1.36,7.44,7.44,0,0,0,0-1,7.44,7.44,0,0,0,0-1,7.44,7.44,0,0,0,0-1c.29-4.39-3.52-8.43-5-11.79v0c1.21-1.7,3.51-1.77,5.84-.1a10.1,10.1,0,0,1,3.36,4.49c.46.92,1.11,1.59,2.37.95l1.47-.71a1.68,1.68,0,0,0,1-2.1,1.88,1.88,0,0,0,0-1,1.88,1.88,0,0,0,0-1,1.88,1.88,0,0,0,0-1,2,2,0,0,0-.06-1.26,14.35,14.35,0,0,0-5.11-6.54c-4.77-3.41-10.5-3.18-13.66,1.24a7.27,7.27,0,0,0-1.44,4.89,7.44,7.44,0,0,0,0,1,7.44,7.44,0,0,0,0,1,7.44,7.44,0,0,0,0,1c-.29,4.38,3.48,8.49,4.92,11.92l-.06.1c-1.21,1.7-3.46,1.85-5.8.19a10.83,10.83,0,0,1-3.78-5.48c-.53-1.13-1.16-1.52-2.28-1.15l-1.59.58a1.59,1.59,0,0,0-1.27,2.1,2.08,2.08,0,0,0,0,1,2.07,2.07,0,0,0,0,1,2.07,2.07,0,0,0,0,1,2.19,2.19,0,0,0,0,1.12,16.37,16.37,0,0,0,5.89,8.06,10.28,10.28,0,0,0,8.76,2,1.12,1.12,0,0,0,.12.47,1.14,1.14,0,0,0,0,1,1.14,1.14,0,0,0,0,1c-.3.66,0,1.32.81,1.81l1.73,1a1.93,1.93,0,0,0,2.53-.29l5-4.47,8.64,5-.61,3a814.88,814.88,0,0,0,0,4.11,1.93,1.93,0,0,0,1,2.26l1.73,1a1.41,1.41,0,0,0,2.32-1.07l5.31-28.46a2.19,2.19,0,0,0,0-1.06,2.16,2.16,0,0,0,0-1,2.16,2.16,0,0,0,0-1,2.16,2.16,0,0,0,0-1A1.93,1.93,0,0,0,181.63,431.07Zm-6.95,17.22-4.17-2.41,3.75-3.3c.6-.56,1.36-1.34,2-2Z" transform="translate(-22.74 -11.86)"/><path class="cls-22" d="M265.23,472.65l-6.11-.9a1.63,1.63,0,0,0-2.07,1.54l-.17,1.16a2.27,2.27,0,0,0,0,.85l0,.16a2.27,2.27,0,0,0,0,.85l0,.16a2.27,2.27,0,0,0,0,.85l0,.16a2.27,2.27,0,0,0,0,.85l0,.16a1.65,1.65,0,0,0,1.54,2.07l1.78.26a10.5,10.5,0,0,1-7.6,1.71,10,10,0,0,1-8.55-8.45c.92-5.67,5.3-9.85,11.89-8.87a13.09,13.09,0,0,1,6.51,2.9c1,.76,1.77.79,2.56-.1l1-1.09a1.66,1.66,0,0,0,.49-1.79,1.34,1.34,0,0,0,0-1,1.34,1.34,0,0,0,0-1,1.34,1.34,0,0,0,0-1,1.59,1.59,0,0,0-.51-1.78A18.51,18.51,0,0,0,256.4,456c-9.12-1.35-16.79,4.46-18.14,13.57a17.88,17.88,0,0,0-.18,3.45c0,.34,0,.68,0,1s0,.68,0,1,0,.68,0,1A15,15,0,0,0,251,491.56a12.67,12.67,0,0,0,9.33-2h0l-.05.34a1.49,1.49,0,0,0,.05.68l-.05.34c-.13.86.39,1.55,1.55,1.72l1.08.16a1.6,1.6,0,0,0,2-1.54l1.85-12.47a2.41,2.41,0,0,0,0-.89l0-.13a2.41,2.41,0,0,0,0-.89l0-.13a2.41,2.41,0,0,0,0-.89l0-.13a2.41,2.41,0,0,0,0-.89l0-.13A1.6,1.6,0,0,0,265.23,472.65Z" transform="translate(-22.74 -11.86)"/><path class="cls-10" d="M140.6,434.23l1.59-.58c1.12-.37,1.75,0,2.28,1.15a10.83,10.83,0,0,0,3.78,5.48c2.33,1.67,4.58,1.51,5.8-.19,3.41-4.77-9-12.15-3.42-20,3.16-4.42,8.88-4.66,13.66-1.24a14.35,14.35,0,0,1,5.11,6.54,1.72,1.72,0,0,1-1,2.34l-1.47.71c-1.26.65-1.91,0-2.37-.95A10.1,10.1,0,0,0,161.2,423c-2.33-1.67-4.63-1.6-5.84.1-3.36,4.7,9.2,11.87,3.49,19.86-2.91,4.07-8.35,5.25-13.62,1.49a16.37,16.37,0,0,1-5.89-8.06A1.62,1.62,0,0,1,140.6,434.23Z" transform="translate(-22.74 -11.86)"/><path class="cls-10" d="M176.71,429.42a2,2,0,0,1,2.51-.26l2.41,1.39a1.94,1.94,0,0,1,1,2.3l-5.31,28.46a1.41,1.41,0,0,1-2.32,1.07l-1.73-1a1.94,1.94,0,0,1-1-2.3l1.34-6.66L164.23,447l-5,4.47a1.93,1.93,0,0,1-2.53.29l-1.73-1a1.41,1.41,0,0,1-.24-2.55Zm-2,18.36,1.76-8.52c.42-1.77,1.34-4.75,1.34-4.75l-.08,0s-2.13,2.29-3.45,3.53l-6.54,5.76Z" transform="translate(-22.74 -11.86)"/><path class="cls-10" d="M185.81,435.73c.12-1.33,1-1.85,2.21-1.29l2.1,1a1.93,1.93,0,0,1,1.23,2.23l-1.94,19.55c-.22,1.86-.8,4.6-.8,4.6l.08,0s1.65-2.26,2.94-3.63l13.5-14.31a1.86,1.86,0,0,1,2.45-.56l2,.91a1.41,1.41,0,0,1,.48,2.51L189.8,467.55a1.93,1.93,0,0,1-2.45.46l-2.53-1.15a1.93,1.93,0,0,1-1.27-2.15Z" transform="translate(-22.74 -11.86)"/><path class="cls-10" d="M209.44,445.77a1.62,1.62,0,0,1,2.3-1.09l1.88.69a1.62,1.62,0,0,1,1,2.33l-9.44,25.52a1.6,1.6,0,0,1-2.3,1.09l-1.88-.69a1.6,1.6,0,0,1-1-2.33Z" transform="translate(-22.74 -11.86)"/><path class="cls-10" d="M216.39,448.69a1.62,1.62,0,0,1,2.21-1.28l2.26.63a2.19,2.19,0,0,1,1.77,1.76l6.07,18.94a52.3,52.3,0,0,1,1.18,5.3l.08,0s.5-2.93,1-4.69l4.31-15.4a1.65,1.65,0,0,1,2.25-1.27l1.88.53a1.65,1.65,0,0,1,1.27,2.25l-7.34,26.2a1.63,1.63,0,0,1-2.25,1.27l-2.26-.63a2.21,2.21,0,0,1-1.72-1.75L221,461.66c-.6-2.06-1.18-5.3-1.18-5.3l-.08,0s-.5,2.93-1,4.69l-4.3,15.36a1.6,1.6,0,0,1-2.21,1.28l-1.93-.54a1.6,1.6,0,0,1-1.22-2.24Z" transform="translate(-22.74 -11.86)"/><path class="cls-10" d="M256.4,455.54a18.51,18.51,0,0,1,9.56,4.27,1.64,1.64,0,0,1,0,2.55l-1,1.09c-.79.89-1.58.87-2.56.1a13.09,13.09,0,0,0-6.51-2.9c-6.66-1-11.08,3.28-11.93,9-.95,6.41,2.91,11.5,8.59,12.34a10.27,10.27,0,0,0,8.24-2.21l.5-3.4-2.92-.43a1.65,1.65,0,0,1-1.54-2.07l.17-1.16a1.63,1.63,0,0,1,2.07-1.54l6.11.9a1.6,1.6,0,0,1,1.5,2.07l-1.85,12.47a1.6,1.6,0,0,1-2,1.54l-1.08-.16c-1.16-.17-1.67-.86-1.55-1.72l.11-.73a6.71,6.71,0,0,1,.15-.72h-.09A12.5,12.5,0,0,1,251,487c-8.08-1.2-14.07-8.54-12.69-17.87C239.61,460,247.28,454.19,256.4,455.54Z" transform="translate(-22.74 -11.86)"/><path class="cls-10" d="M289.17,457.62c9.34-.13,16,6.69,16.17,15.55a15.87,15.87,0,0,1-3.25,9.83l2.11,1.93a1.64,1.64,0,0,1,.21,2.56l-.77.84a1.52,1.52,0,0,1-2.39.21L299,486.35a15.5,15.5,0,0,1-9.39,3.17c-9.34.13-16-6.91-16.18-15.9A15.47,15.47,0,0,1,289.17,457.62Zm.37,26.77a9.3,9.3,0,0,0,5.37-1.73l-2.16-2a1.62,1.62,0,0,1-.17-2.52l.77-.84a1.5,1.5,0,0,1,2.39-.25l2.2,2.19a11.09,11.09,0,0,0,1.61-6c-.08-6.08-4.54-10.59-10.32-10.51s-10.11,4.71-10,10.79S283.72,484.47,289.54,484.39Z" transform="translate(-22.74 -11.86)"/><path class="cls-10" d="M302.28,460.43a1.44,1.44,0,0,1,1.22-2.23l2.14-.36a1.85,1.85,0,0,1,2.19,1.27l7.65,18.73a22.49,22.49,0,0,1,1,3.14h.09a25.51,25.51,0,0,1,.11-3.32l1.82-20.35a1.94,1.94,0,0,1,1.76-1.88l1.46-.24a1.79,1.79,0,0,1,2.19,1.22l8.26,18.68a25.53,25.53,0,0,1,1.18,3.11h.09a27.24,27.24,0,0,1,0-3.3l1.44-20.24a1.81,1.81,0,0,1,1.71-1.91l2-.34c1.29-.21,2,.46,1.91,1.71L338,482.22a1.9,1.9,0,0,1-1.77,1.84l-3,.51a1.86,1.86,0,0,1-2.23-1.22l-7.07-15.75c-.84-1.89-1.48-3.85-1.48-3.85l-.13,0s0,2.07-.11,4.12l-1.64,17.19a1.87,1.87,0,0,1-1.72,1.87l-3.09.51a1.86,1.86,0,0,1-2.23-1.22Z" transform="translate(-22.74 -11.86)"/><path class="cls-10" d="M339.48,453.44a1.62,1.62,0,0,1,1.18-2.26l14.24-4.27a1.65,1.65,0,0,1,2.27,1.22l.35,1.17a1.62,1.62,0,0,1-1.24,2.23l-10.62,3.18,2.32,7.74,8.24-2.47a1.62,1.62,0,0,1,2.26,1.18l.35,1.17a1.63,1.63,0,0,1-1.22,2.27l-8.24,2.47,2.38,8L363,471.65a1.62,1.62,0,0,1,2.26,1.18l.35,1.17a1.63,1.63,0,0,1-1.22,2.27l-14.91,4.47a1.6,1.6,0,0,1-2.23-1.24Z" transform="translate(-22.74 -11.86)"/><path class="cls-10" d="M357.55,448a1.62,1.62,0,0,1,1-2.36l7.73-3.15c2.82-1.15,4.32-1.48,5.75-1.45,3.39,0,6.4,2,8,5.86,1.38,3.38.92,7.32-1.57,9.74l0,.08a11.16,11.16,0,0,1,1.53,1.11l8.22,6.69c1.16.89,1,1.95-.35,2.49l-2.17.89a2.2,2.2,0,0,1-2.45-.36l-8.9-7.45-5,2,3.66,9a1.6,1.6,0,0,1-1,2.36l-1.85.75a1.6,1.6,0,0,1-2.34-1Zm14.6,7.71a4.53,4.53,0,0,0,2.65-6.39c-.74-1.81-2-3-3.85-3a7.71,7.71,0,0,0-3.3.78l-3.82,1.56,3.64,8.94Z" transform="translate(-22.74 -11.86)"/><path class="cls-10" d="M384.29,439.55l-7.35,3.86a1.6,1.6,0,0,1-2.44-.73l-.57-1.08a1.63,1.63,0,0,1,.77-2.47l19.63-10.31a1.62,1.62,0,0,1,2.43.79l.57,1.08a1.59,1.59,0,0,1-.75,2.41L389.22,437l11.26,21.43a1.61,1.61,0,0,1-.77,2.47l-1.73.91a1.6,1.6,0,0,1-2.43-.79Z" transform="translate(-22.74 -11.86)"/><path class="cls-10" d="M409.42,440.29,393.21,432c-1.28-.61-1.34-1.72-.17-2.49l2-1.33a2.12,2.12,0,0,1,2.48,0l7.73,4.19c1.85,1.08,3.83,2.43,3.83,2.43l.07,0s-.45-2.35-.7-4.48l-.75-8.76a2.12,2.12,0,0,1,1-2.27l2-1.33c1.2-.79,2.16-.27,2.25,1.13l1,18.18,6.07,9.27a1.6,1.6,0,0,1-.49,2.5L418,450.09a1.61,1.61,0,0,1-2.53-.53Z" transform="translate(-22.74 -11.86)"/></svg>