<svg id="Your_Artwork" data-name="Your Artwork" xmlns="http://www.w3.org/2000/svg" xmlns:xlink="http://www.w3.org/1999/xlink" viewBox="0 0 270 162"><defs><style>.cls-1{fill:none;}.cls-2{fill:#366968;}.cls-3{fill:#6da1a1;}.cls-4{fill:#437f7e;}.cls-5{fill:#275151;}.cls-6{fill:#b85452;}.cls-7{fill:#af504e;}.cls-8{fill:#9f4c4b;}.cls-9{fill:#e0e1e1;}.cls-10{fill:#fff;}.cls-11{clip-path:url(#clip-path);}.cls-12{fill:#9c4b4b;}.cls-13{fill:#8e4748;}.cls-14{fill:#1b4443;}.cls-15{fill:#f7ad41;}.cls-16{fill:#010101;}.cls-17{fill:#fbe787;}.cls-18{fill:#221f1f;}.cls-19{fill:#f27e59;}.cls-20{fill:#c46747;}.cls-21{fill:#a44f4f;}.cls-22{fill:#75312f;}.cls-23{fill:#b85451;}.cls-24{fill:#954340;}.cls-25{fill:#7fa879;}.cls-26{fill:#97c68e;}.cls-27{fill:#6b9066;}.cls-28{fill:#537451;}.cls-29{fill:#f37f59;}.cls-30{fill:#231f20;}.cls-31{fill:#f05b2a;}.cls-32{fill:#fab622;}.cls-33{fill:#cb4e28;}.cls-34{fill:#cf992a;}.cls-35{fill:#fdf7b3;}.cls-36{fill:#f8ae42;}.cls-37{fill:#a44f4e;}.cls-38{fill:#83b081;}.cls-39{fill:#2e5b5a;}.cls-40{fill:#998379;}.cls-41{fill:#6a5b53;}.cls-42{fill:#b3a890;}.cls-43{fill:#f15938;}.cls-44{fill:#c1b49a;}.cls-45{fill:#008d9a;}.cls-46{fill:#60544d;}.cls-47{fill:#d2533b;}.cls-48{fill:#a79e8a;}.cls-49{fill:#763230;}.cls-50{fill:#204747;}.cls-51{fill:#00a69c;}.cls-52{fill:#366867;}.cls-53{fill:#924343;}.cls-54{fill:#8c4140;}.cls-55{fill:#bdb9b9;}.cls-56{fill:#806976;}.cls-57{fill:#705b67;}.cls-58{fill:#715b68;}.cls-59{clip-path:url(#clip-path-2);}.cls-60{fill:#6d353c;}.cls-61{fill:#612f36;}.cls-62{fill:#602e35;}</style><clipPath id="clip-path"><path class="cls-1" d="M56.8,135l-.1.55a.45.45,0,0,0,.19-.33.37.37,0,0,0-.08-.22m-5-1c-2.83,0-5.12.55-5.12,1.23s2.29,1.23,5.12,1.23a13.09,13.09,0,0,0,4.43-.61l.22-1.13a11.89,11.89,0,0,0-4.64-.71"/></clipPath><clipPath id="clip-path-2"><path class="cls-1" d="M242.63,136.3l1.42-.93.5,1.63-1.93-.69m-3.9,3.27,2.11-5.87.73.26-2.11,5.87-.73-.26M236.3,134l1.42-.93.5,1.63L236.3,134m.62-3.42a1.59,1.59,0,0,0-1.49,1l-1.61,4.47a1.56,1.56,0,0,0-.06.21l.12,0a.72.72,0,0,1,.2.11,2.69,2.69,0,0,1,4.32,1.63.72.72,0,0,1,0,.87,2.7,2.7,0,0,1-.1.43l1.28.46a2.69,2.69,0,0,1,5.14.49h.13a.72.72,0,0,1,.24,0l.11,0a1.59,1.59,0,0,0,.09-.2l1.61-4.47a1.57,1.57,0,0,0,.09-.53,1.59,1.59,0,0,0-1-1.49l-2-.73h0l-1.46-.53h0L241,132h0l-1.46-.52h0l-2.06-.74a1.57,1.57,0,0,0-.53-.09"/></clipPath></defs><title>enter_vector</title><polyline class="cls-2" points="279.67 140.53 -8.62 140.53 -8.62 -4.47 279.67 -4.47 279.67 140.53"/><path class="cls-3" d="M185.49,95.13a19.35,19.35,0,1,1-19.35-19.35,19.35,19.35,0,0,1,19.35,19.35"/><rect class="cls-4" x="-8.62" y="89.29" width="281.75" height="3.15"/><rect class="cls-4" x="-8.62" y="85.75" width="282.75" height="1.17"/><polyline class="cls-5" points="98 92.52 104.69 80.94 108.16 83.64 113.44 80.94 123.76 80.94 131.48 69.94 133.29 60.87 136.76 70.9 143.42 79.59 155.19 83.83 160.06 79.01 171.55 94.19"/><polyline class="cls-6" points="279.67 163.12 -8.62 163.12 -8.62 90.91 279.67 90.91 279.67 163.12"/><polyline class="cls-7" points="153.44 103.46 29.42 103.46 14.41 141.92 168.26 141.92 153.44 103.46"/><path class="cls-8" d="M31.12,110.1l1.63-4.4H39.4l-1.45,4.4H31.12m8.74-4.68H32.47l-1.85,5h7.62l1.62-5"/><path class="cls-8" d="M39.38,110.1l1.41-4.4h6.65l-1.23,4.4H39.38m8.51-4.68H40.5l-1.6,5h7.62l1.38-5"/><path class="cls-8" d="M47.64,110.1l1.19-4.4h6.65l-1,4.4H47.64m8.28-4.68H48.53l-1.36,5h7.62l1.13-5"/><path class="cls-8" d="M55.9,110.1l1-4.4h6.65l-.8,4.4H55.9M64,105.42H56.56l-1.11,5h7.62l.89-5"/><path class="cls-8" d="M64.16,110.1l.76-4.4h6.65L71,110.1H64.16M72,105.42H64.59l-.87,5h7.62l.64-5"/><path class="cls-8" d="M72.43,110.1l.54-4.4h6.65l-.36,4.4H72.43M80,105.42H72.63l-.62,5h7.62l.4-5"/><path class="cls-8" d="M80.69,110.1l.33-4.4h6.65l-.15,4.4H80.69M88,105.42H80.66l-.38,5h7.62l.15-5"/><polyline class="cls-8" points="91.14 105.42 88.69 105.42 88.55 110.39 91.08 110.39 91.09 110.1 88.95 110.1 89.06 105.69 91.14 105.69 91.14 105.42"/><polyline class="cls-8" points="96.08 105.42 91.9 105.42 91.9 105.69 95.7 105.69 95.78 110.1 91.86 110.1 91.86 110.39 96.17 110.39 96.08 105.42"/><polyline class="cls-8" points="91.9 105.42 91.14 105.42 91.14 105.69 91.9 105.69 91.9 105.42"/><polyline class="cls-8" points="91.86 110.1 91.09 110.1 91.08 110.39 91.86 110.39 91.86 110.1"/><path class="cls-8" d="M97.21,110.1l-.11-4.4h6.65l.29,4.4H97.21m6.9-4.68H96.72l.11,5h7.62l-.34-5"/><path class="cls-8" d="M105.47,110.1l-.32-4.4h6.65l.5,4.4h-6.83m6.67-4.68h-7.39l.35,5h7.62l-.58-5"/><path class="cls-8" d="M113.73,110.1l-.54-4.4h6.65l.72,4.4h-6.83m6.44-4.68h-7.39l.6,5H121l-.83-5"/><path class="cls-8" d="M122,110.1l-.76-4.4h6.65l.94,4.4H122m6.21-4.68h-7.39l.84,5h7.62l-1.07-5"/><path class="cls-8" d="M130.25,110.1l-1-4.4h6.65l1.16,4.4h-6.83m6-4.68h-7.39l1.09,5h7.62l-1.32-5"/><path class="cls-8" d="M138.66,110.19l-1.2-4.41h13.3l1.56,4.41H138.66m12.39-4.68H137l1.34,5h14.46l-1.77-5"/><path class="cls-8" d="M29,116.26l1.74-4.73h8.67L38,116.26H29m10.9-5H30.51l-2,5.33h9.73l1.68-5.33"/><path class="cls-8" d="M39.52,116.26,41,111.53h6.89l-1.27,4.73H39.52m8.81-5H40.68L39,116.57h7.9l1.42-5.33"/><path class="cls-8" d="M48.09,116.26l1.23-4.73H56.2l-1,4.73H48.09m8.57-5H49l-1.39,5.33h7.9l1.15-5.33"/><path class="cls-8" d="M56.65,116.26l1-4.73h6.89l-.8,4.73H56.65m8.32-5H57.31l-1.13,5.33h7.9l.89-5.33"/><path class="cls-8" d="M65.22,116.26l.76-4.73h6.89l-.57,4.73H65.22m8.07-5H65.63l-.87,5.33h7.9l.63-5.33"/><path class="cls-8" d="M73.78,116.26l.53-4.73h6.89l-.33,4.73H73.78m7.82-5H73.95l-.61,5.33h7.9l.36-5.33"/><path class="cls-8" d="M82.35,116.26l.29-4.73h6.89l-.1,4.73H82.35m7.58-5H82.27l-.34,5.33h7.9l.1-5.33"/><polyline class="cls-8" points="91.07 111.24 90.58 111.24 90.5 116.57 91.01 116.57 91.01 116.26 90.91 116.26 90.97 111.53 91.07 111.53 91.07 111.24"/><polyline class="cls-8" points="98.24 111.24 91.86 111.24 91.85 111.53 97.86 111.53 97.99 116.26 91.82 116.26 91.82 116.57 98.4 116.57 98.24 111.24"/><polyline class="cls-8" points="91.86 111.24 91.07 111.24 91.07 111.53 91.85 111.53 91.86 111.24"/><polyline class="cls-8" points="91.82 116.26 91.01 116.26 91.01 116.57 91.82 116.57 91.82 116.26"/><path class="cls-8" d="M99.48,116.26l-.17-4.73h6.89l.37,4.73H99.48m7.08-5H98.9l.18,5.33H107l-.43-5.33"/><path class="cls-8" d="M108,116.26l-.41-4.73h6.89l.6,4.73H108m6.83-5h-7.66l.45,5.33h7.9l-.69-5.33"/><path class="cls-8" d="M116.61,116.26l-.64-4.73h6.89l.83,4.73h-7.08m6.59-5h-7.66l.71,5.33h7.9l-1-5.33"/><path class="cls-8" d="M125.17,116.26l-.87-4.73h6.89l1.07,4.73h-7.08m6.34-5h-7.66l1,5.33h7.9l-1.21-5.33"/><path class="cls-8" d="M133.74,116.26l-1.11-4.73h6.89l1.3,4.73h-7.08m6.09-5h-7.66l1.24,5.33h2.37l0-.09h5.53l-1.45-5.24"/><path class="cls-8" d="M26.19,123.12l1.89-5.1h11l-1.57,5.1H26.19m13.43-5.42H27.8l-2.15,5.76H37.86l1.76-5.76"/><path class="cls-8" d="M39.27,123.12l1.52-5.1h7.15l-1.31,5.1H39.27m9.16-5.42H40.48l-1.73,5.76H47l1.47-5.76"/><path class="cls-8" d="M48.17,123.12l1.27-5.1h7.15l-1.06,5.1H48.17m8.89-5.42H49.11l-1.45,5.76h8.21l1.18-5.76"/><path class="cls-8" d="M57.07,123.12l1-5.1h7.15l-.81,5.1H57.07m8.62-5.42H57.75l-1.16,5.76H64.8l.9-5.76"/><path class="cls-8" d="M66,123.12l.77-5.1h7.15l-.56,5.1H66m8.36-5.42H66.38l-.88,5.76h8.21l.62-5.76"/><polyline class="cls-8" points="91 117.69 83.66 117.69 83.34 123.45 90.93 123.45 90.93 123.12 83.78 123.12 84.05 118.01 90.99 118.01 91 117.69"/><polyline class="cls-8" points="91.61 117.69 91 117.69 90.99 118.01 91.19 118.01 91.14 123.12 90.93 123.12 90.93 123.45 91.56 123.45 91.61 117.69"/><path class="cls-8" d="M92.69,123.12V118h7.15l.2,5.1H92.69m7.56-5.42H92.29l0,5.76h8.21l-.23-5.76"/><path class="cls-8" d="M101.59,123.12l-.24-5.1h7.15l.45,5.1h-7.36m7.29-5.42h-7.95l.26,5.76h8.21l-.52-5.76"/><path class="cls-8" d="M110.49,123.12,110,118h7.15l.7,5.1h-7.36m7-5.42h-7.95l.54,5.76h8.21l-.8-5.76"/><path class="cls-8" d="M74.8,123.12l.7-5.1h7.15l-.49,5.1H74.8m8.29-5.42H75.14l-.8,5.76h8.21l.54-5.76"/><path class="cls-8" d="M119.39,123.12l-.74-5.1h7.15l1,5.1h-7.36m6.75-5.42H118.2l.82,5.76h8.21l-1.09-5.76"/><path class="cls-8" d="M128.3,123.12l-1-5.1h7.15l1.2,5.1H128.3m6.49-5.42h-7.95l1.11,5.76h8.21l-1.37-5.76"/><path class="cls-8" d="M142.39,116.11l-.21-.76-.2-.71-.19-.65-.18-.62-.13-.46-.13-.45-.13-.46-.13-.48,11.93.06,1.52,4.49-12.15,0m-1.78-4.88,0,.15.14.52.14.5.14.49.14.49.19.65.2.69.21.75.23.85,0,.16h1.41l11.58,0-1.77-5.11-12.69-.06"/><path class="cls-8" d="M23.29,130.18l2-5.51H40.63L39,130.18H23.29m17.86-5.85H25l-2.32,6.21H39.38l1.77-6.21"/><path class="cls-8" d="M142.76,130.18l-1.46-5.51h16.13l1.94,5.51H142.76m15-5.85H140.79l1.63,6.21h17.52l-2.21-6.21"/><path class="cls-8" d="M40.66,130.18l1.54-5.51h7.42l-1.31,5.51H40.66m9.46-5.85H41.87l-1.75,6.21h8.53l1.47-6.21"/><path class="cls-8" d="M49.91,130.18l1.27-5.51H58.6l-1,5.51H49.91m9.18-5.85H50.83l-1.44,6.21h8.53l1.16-6.21"/><path class="cls-8" d="M59.16,130.18l1-5.51h7.42l-.77,5.51H59.16M68,124.33H59.8l-1.14,6.21h8.53l.86-6.21"/><path class="cls-8" d="M68.41,130.18l.72-5.51h7.42l-.5,5.51H68.41m8.6-5.85H68.76l-.83,6.21h8.53l.55-6.21"/><path class="cls-8" d="M77.66,130.18l.45-5.51h7.42l-.23,5.51H77.66M86,124.33H77.72l-.53,6.21h8.53l.24-6.21"/><polyline class="cls-8" points="90.92 124.33 86.69 124.33 86.47 130.54 90.84 130.54 90.84 130.18 86.91 130.18 87.09 124.67 90.91 124.67 90.92 124.33"/><polyline class="cls-8" points="94.94 124.33 91.76 124.33 91.76 124.67 94.52 124.67 94.56 130.18 91.72 130.18 91.71 130.54 95 130.54 94.94 124.33"/><polyline class="cls-8" points="91.72 130.18 90.84 130.18 90.84 130.54 91.71 130.54 91.72 130.18"/><polyline class="cls-8" points="91.76 124.33 90.92 124.33 90.91 124.67 91.76 124.67 91.76 124.33"/><path class="cls-8" d="M96.16,130.18l-.09-5.51h7.42l.31,5.51H96.16m7.73-5.85H95.65l.09,6.21h8.53l-.37-6.21"/><path class="cls-8" d="M105.42,130.18l-.36-5.51h7.42l.59,5.51h-7.65m7.45-5.85h-8.25l.39,6.21h8.53l-.67-6.21"/><path class="cls-8" d="M114.67,130.18l-.63-5.51h7.42l.86,5.51h-7.64m7.16-5.85h-8.25l.7,6.21h8.53l-1-6.21"/><path class="cls-8" d="M123.92,130.18l-.9-5.51h7.42l1.13,5.51h-7.65m6.87-5.85h-8.25l1,6.21h8.53l-1.29-6.21"/><path class="cls-8" d="M133.17,130.18,132,124.67h7.42l1.4,5.51h-7.65m6.58-5.85H131.5l1.31,6.21h8.53l-1.59-6.21"/><polyline class="cls-8" points="126.3 131.64 91.7 131.64 91.7 132.01 125.93 132.01 126.96 137.97 91.66 137.97 91.66 138.37 127.48 138.37 126.3 131.64"/><polyline class="cls-8" points="90.83 131.64 58.48 131.64 57.25 138.37 90.75 138.37 90.75 137.97 57.77 137.97 58.85 132.01 90.82 132.01 90.83 131.64"/><polyline class="cls-8" points="91.7 131.64 90.83 131.64 90.82 132.01 91.7 132.01 91.7 131.64"/><polyline class="cls-8" points="91.66 137.97 90.75 137.97 90.75 138.37 91.66 138.37 91.66 137.97"/><path class="cls-8" d="M20.31,138l2.22-6H34.69l-1.84,6H20.31m14.94-6.33h-13l-2.52,6.73H33.19l2.06-6.73"/><path class="cls-8" d="M34.77,138l1.78-6h9.06l-1.5,6H34.77m11.37-6.33H36.22l-2,6.73H44.48l1.67-6.73"/><path class="cls-8" d="M57.43,131.64H46.89l-1.64,6.73H56.17l.53-2.82a1.88,1.88,0,0,1-.5.29L55.79,138h-10l1.44-6h9.68l-.51,2.69a1.15,1.15,0,0,1,.39.29l.63-3.36"/><path class="cls-8" d="M128.59,138l-1.08-6h12.16l1.47,6H128.59M140,131.64H127l1.21,6.73h13.48L140,131.64"/><path class="cls-8" d="M143,138l-1.52-6H150l1.79,6H143m7.29-6.33H141l1.7,6.73h9.67l-2-6.73"/><path class="cls-8" d="M153.77,138l-1.85-6H160l2.11,6h-8.36m6.57-6.33h-9l2.07,6.73h9.29l-2.39-6.73"/><polyline class="cls-9" points="137.38 123.45 157.42 123.45 155.21 117.24 135.75 117.24 137.38 123.45"/><polygon class="cls-10" points="145.29 116.85 146.65 116.85 145.97 115.35 145.29 116.85"/><polygon class="cls-10" points="137.05 114.92 139.1 114.92 138.07 112.65 137.05 114.92"/><polygon class="cls-10" points="138.27 115.76 140.33 115.76 139.3 113.49 138.27 115.76"/><polygon class="cls-10" points="150.19 115.76 152.25 115.76 151.22 113.49 150.19 115.76"/><polygon class="cls-10" points="146.34 114.45 148.39 114.45 147.36 112.18 146.34 114.45"/><polygon class="cls-10" points="140.08 115.45 142.14 115.45 141.11 113.18 140.08 115.45"/><polygon class="cls-10" points="149.44 115.45 151.49 115.45 150.46 113.18 149.44 115.45"/><polygon class="cls-10" points="144.71 113.84 145.9 113.84 145.3 112.52 144.71 113.84"/><polygon class="cls-10" points="152.09 112.84 153.28 112.84 152.68 111.52 152.09 112.84"/><polygon class="cls-10" points="141.92 112.99 143.31 112.99 142.62 109.71 141.92 112.99"/><path class="cls-6" d="M220.57,94H200.46a2.36,2.36,0,1,1,0-4.72h20.11a2.36,2.36,0,0,1,0,4.72Z"/><circle class="cls-6" cx="202.16" cy="88.46" r="4.26"/><circle class="cls-6" cx="209.45" cy="86.74" r="5.98"/><circle class="cls-6" cx="215.96" cy="88.01" r="4.71"/><path class="cls-6" d="M236.1,94H222.17a1.64,1.64,0,0,1,0-3.27H236.1a1.64,1.64,0,0,1,0,3.27Z"/><circle class="cls-6" cx="223.35" cy="90.16" r="2.95"/><circle class="cls-6" cx="228.4" cy="88.98" r="4.14"/><circle class="cls-6" cx="232.91" cy="89.85" r="3.26"/><g class="cls-11"><rect class="cls-12" x="46.65" y="133.99" width="10.24" height="2.46"/></g><path class="cls-13" d="M56.41,134.7l-.22,1.13a1.88,1.88,0,0,0,.5-.29l.1-.55a1.15,1.15,0,0,0-.39-.29"/><path class="cls-14" d="M43.73,121.31l-.09.05-.24.15c-.2.13-.49.31-.82.55l-.53.4c-.18.15-.38.32-.57.51a5,5,0,0,0-.57.65,2.57,2.57,0,0,0-.45.94,2.89,2.89,0,0,0,0,.31,2.39,2.39,0,0,0,0,.32v0l1.18-.18h0l0-.05a1.75,1.75,0,0,1,.34-.29,3.62,3.62,0,0,1,.5-.28c.18-.09.37-.16.54-.23l.52-.17c.33-.1.6-.17.79-.21l.22,0h.07Z"/><polyline class="cls-14" points="45.84 132 46.96 134.68 47.93 132"/><polyline class="cls-14" points="55.23 132 56.35 134.68 57.32 132"/><path class="cls-14" d="M58.94,121.7s5.42,1,3.95,7.74a5.58,5.58,0,0,0-3.95-5.73"/><path class="cls-14" d="M59.67,121.07a8.06,8.06,0,1,1-16.12,0c0-4.45,3.61-20.4,8.06-20.4S59.67,116.62,59.67,121.07Z"/><circle class="cls-14" cx="55.99" cy="116.38" r="1.35"/><circle class="cls-14" cx="47.85" cy="116.38" r="1.35"/><path class="cls-15" d="M46.5,117.73a1.35,1.35,0,0,1,2.7,0"/><circle class="cls-16" cx="47.85" cy="116.94" r="0.35"/><circle class="cls-14" cx="55.24" cy="116.38" r="1.35"/><path class="cls-15" d="M53.89,117.73a1.35,1.35,0,0,1,2.7,0"/><circle class="cls-16" cx="55.24" cy="116.94" r="0.35"/><polygon class="cls-17" points="43.55 121.42 43.55 129.13 57.44 129.13 49.76 121.42 43.55 121.42"/><polygon class="cls-17" points="54.35 121.42 50.39 125.09 50.38 129.13 59.67 129.13 59.67 121.42 54.35 121.42"/><rect class="cls-18" x="43.55" y="126.14" width="16.12" height="1.09"/><rect class="cls-17" x="45.1" y="129.13" width="3.58" height="3.4"/><rect class="cls-17" x="54.49" y="129.13" width="3.58" height="3.4"/><path class="cls-18" d="M50.94,127.68h0a.53.53,0,0,1-.53-.53V126.1a.53.53,0,0,1,1.06,0v1.05A.53.53,0,0,1,50.94,127.68Z"/><path class="cls-18" d="M51.71,127.68h0a.53.53,0,0,1-.53-.53V126.1a.53.53,0,0,1,1.06,0v1.05A.53.53,0,0,1,51.71,127.68Z"/><path class="cls-18" d="M49.32,129.63c-.76-1.8,1.15-3.41,1.23-3.48l.78.94-.39-.47.39.47s-1.28,1.11-.88,2.06Z"/><path class="cls-18" d="M51.43,130.48l-.61-1.06c.9-.52.55-2.16.55-2.17l1.19-.27C52.58,127.07,53.12,129.51,51.43,130.48Z"/><path class="cls-19" d="M51.63,100.46c-2.54,0-4.81,5.11-6.31,10.39H57.94C56.44,105.58,54.17,100.46,51.63,100.46Z"/><path class="cls-20" d="M51.63,100.46c-1.68,0-3.18,5.11-4.17,10.39H55.8C54.81,105.58,53.31,100.46,51.63,100.46Z"/><path class="cls-19" d="M51.61,100.46c-.95,0-1.8,5.11-2.36,10.39H54C53.41,105.58,52.56,100.46,51.61,100.46Z"/><path class="cls-20" d="M51.61,100.46c-.19,0-.36,5.11-.48,10.39h1C52,105.58,51.81,100.46,51.61,100.46Z"/><path class="cls-19" d="M58.33,112.31H44.89a.92.92,0,1,1,0-1.83H58.33a.92.92,0,1,1,0,1.83Z"/><rect class="cls-20" x="45.2" y="110.48" width="0.78" height="1.83"/><rect class="cls-20" x="46.73" y="110.48" width="0.78" height="1.83"/><rect class="cls-20" x="48.26" y="110.48" width="0.78" height="1.83"/><rect class="cls-20" x="49.79" y="110.48" width="0.78" height="1.83"/><rect class="cls-20" x="51.32" y="110.48" width="0.78" height="1.83"/><rect class="cls-20" x="52.85" y="110.48" width="0.78" height="1.83"/><rect class="cls-20" x="54.38" y="110.48" width="0.78" height="1.83"/><rect class="cls-20" x="55.91" y="110.48" width="0.78" height="1.83"/><rect class="cls-20" x="57.44" y="110.48" width="0.78" height="1.83"/><path class="cls-14" d="M40.54,125.48l.15.25a1.78,1.78,0,0,0,.35.35,1.74,1.74,0,0,0,.18.13l.18.1a2.81,2.81,0,0,0,.35.15,3,3,0,0,0,.34.11c.22.07.42.11.61.15l.51.08.39,0,.34,0-.31-.14-.35-.17-.44-.24c-.16-.1-.33-.19-.49-.31a2.43,2.43,0,0,1-.25-.18,2,2,0,0,1-.23-.21l-.1-.11a.89.89,0,0,1-.08-.11.71.71,0,0,1-.1-.21.45.45,0,0,0,0-.08.36.36,0,0,0,0-.06l0,0-1.18.18A2.47,2.47,0,0,0,40.54,125.48Z"/><path class="cls-21" d="M230.52,102h-3.26a4.71,4.71,0,0,0-4.7,4.7v10.68c-16.15-1-28.45-5.77-28.61-11.58a4.27,4.27,0,0,0-.55,2c0,6.39,15.69,11.57,35,11.57s35-5.18,35-11.57a4.13,4.13,0,0,0-.35-1.65c-.69,5.54-12.47,10.11-27.93,11.14V106.72a4.71,4.71,0,0,0-4.7-4.7"/><ellipse class="cls-22" cx="229.18" cy="108.7" rx="22.94" ry="7.57"/><polygon class="cls-23" points="200.31 67.47 205.05 67.47 202.68 62.99 200.31 67.47"/><polygon class="cls-23" points="249.91 67.47 254.64 67.47 252.27 62.99 249.91 67.47"/><path class="cls-23" d="M194,74.3v31.4c0,5.85,12.36,10.72,28.61,11.69V106.72a4.71,4.71,0,0,1,4.7-4.7h3.26a4.71,4.71,0,0,1,4.7,4.7v10.63c15.93-1.06,28-5.87,28-11.65V74.3H194"/><path class="cls-23" d="M198.33,76.82a4.34,4.34,0,0,1-.87-2.52c0-5.89,13.92-10.66,31.1-10.66s31.1,4.77,31.1,10.66a4.34,4.34,0,0,1-.87,2.52,4.34,4.34,0,0,1,.87,2.52c0,.06,0,.12,0,.18,2.25-1.57,3.51-3.34,3.51-5.22,0-6.55-15.5-11.87-34.61-11.87S194,67.75,194,74.3c0,1.87,1.26,3.64,3.51,5.22,0-.06,0-.12,0-.18a4.34,4.34,0,0,1,.87-2.52"/><path class="cls-24" d="M228.56,68.67c14.65,0,26.93,3.47,30.23,8.15a4.34,4.34,0,0,0,.87-2.52c0-5.89-13.92-10.66-31.1-10.66s-31.1,4.77-31.1,10.66a4.34,4.34,0,0,0,.87,2.52c3.3-4.67,15.58-8.15,30.23-8.15"/><path class="cls-23" d="M228.56,70.23c13.82,0,25.54,3.09,29.59,7.37a7.07,7.07,0,0,0,.64-.78c-3.3-4.67-15.58-8.15-30.23-8.15s-26.93,3.47-30.23,8.15a7.06,7.06,0,0,0,.64.78c4-4.28,15.76-7.37,29.59-7.37"/><path class="cls-23" d="M254.64,80.11c.48-.25.93-.51,1.35-.78-5.24-3.35-15.56-5.63-27.42-5.63S206.38,76,201.14,79.34c.42.27.87.53,1.35.78,5.55-2.92,15.15-4.85,26.08-4.85s20.53,1.93,26.08,4.85"/><path class="cls-24" d="M228.56,78.74c8.57,0,16.33,1.19,22,3.11a29.09,29.09,0,0,0,4.12-1.74c-5.55-2.92-15.15-4.85-26.08-4.85S208,77.19,202.49,80.11a29.1,29.1,0,0,0,4.12,1.74c5.63-1.92,13.38-3.11,22-3.11"/><path class="cls-23" d="M248.31,82.54q1.15-.32,2.2-.68c-5.63-1.92-13.38-3.11-22-3.11s-16.33,1.19-22,3.11q1.05.36,2.2.68a81.61,81.61,0,0,1,39.5,0"/><path class="cls-24" d="M248.31,82.54a81.61,81.61,0,0,0-39.5,0,81.61,81.61,0,0,0,39.5,0Z"/><polyline class="cls-25" points="215.83 67.4 216.83 69.54 217.3 69.54 218.3 67.4"/><rect class="cls-26" x="215.83" y="62.05" width="2.47" height="5.92"/><path class="cls-26" d="M215.87,66.14s-.57.11-.42.82a.59.59,0,0,1,.42-.6"/><path class="cls-26" d="M218.25,66.14s.57.11.42.82a.59.59,0,0,0-.42-.6"/><path class="cls-26" d="M215.83,67.91a7.75,7.75,0,0,0,.37,2.28,5.09,5.09,0,0,1,.52-2.52l-.89.24"/><path class="cls-26" d="M218.3,67.91a7.75,7.75,0,0,1-.37,2.28,5.09,5.09,0,0,0-.52-2.52l.89.24"/><circle class="cls-27" cx="216.64" cy="63.9" r="0.31"/><circle class="cls-27" cx="217.54" cy="63.9" r="0.31"/><path class="cls-27" d="M218.3,64.14a.24.24,0,0,0-.24-.24h-2a.24.24,0,0,0-.24.24v.19h2.47Z"/><path class="cls-27" d="M215.83,64.33v.19a.24.24,0,0,0,.24.24h2a.24.24,0,0,0,.24-.24v-.19Z"/><circle class="cls-16" cx="216.23" cy="62.94" r="0.12"/><circle class="cls-28" cx="216.64" cy="63.86" r="0.12"/><circle class="cls-28" cx="217.54" cy="63.86" r="0.12"/><polygon class="cls-29" points="216.75 62.05 217.41 62.05 217.08 61.17 216.75 62.05"/><path class="cls-30" d="M216.28,63.52a.57.57,0,1,1,.57-.57A.58.58,0,0,1,216.28,63.52Zm0-1a.4.4,0,1,0,.4.4A.41.41,0,0,0,216.28,62.54Z"/><circle class="cls-16" cx="217.88" cy="62.94" r="0.12"/><path class="cls-30" d="M217.83,63.52a.57.57,0,1,1,.57-.57A.58.58,0,0,1,217.83,63.52Zm0-1a.4.4,0,1,0,.4.4A.41.41,0,0,0,217.83,62.54Z"/><rect class="cls-30" x="216.79" y="62.78" width="0.54" height="0.17"/><rect class="cls-31" x="215.79" y="64.29" width="2.56" height="0.14" rx="0.04" ry="0.04"/><path class="cls-31" d="M217.78,66.31a.05.05,0,1,0-.1,0v.5h.1Z"/><path class="cls-32" d="M218,66.31a.05.05,0,1,0-.1,0v.5h.1Z"/><path class="cls-25" d="M217.51,66.46v.44a.21.21,0,0,0,.21.21h.22a.21.21,0,0,0,.21-.21v-.44Z"/><rect class="cls-33" x="217.7" y="66.38" width="0.09" height="0.32" rx="0.03" ry="0.03"/><rect class="cls-34" x="217.9" y="66.38" width="0.09" height="0.32" rx="0.03" ry="0.03"/><polygon class="cls-29" points="216.16 66.3 216.33 66.75 216.33 66.3 216.16 66.3"/><polygon class="cls-27" points="216.33 66.3 216.33 66.75 216.49 66.3 216.33 66.3"/><circle class="cls-32" cx="216.33" cy="66.75" r="0.16"/><polygon class="cls-29" points="216.56 66.3 216.72 66.75 216.72 66.3 216.56 66.3"/><polygon class="cls-27" points="216.72 66.3 216.72 66.75 216.89 66.3 216.72 66.3"/><rect class="cls-31" x="216.58" y="66.63" width="0.29" height="0.29" transform="translate(16.27 172.84) rotate(-45.01)"/><path class="cls-35" d="M216.42,62s0-.72-.2-.8h1.06V62"/><path class="cls-35" d="M217.73,62s0-.72.2-.8h-1.06V62"/><path class="cls-36" d="M217.8,61.92h-.16c0-.06-.21-.17-.55-.17s-.55.11-.55.17h-.16C216.38,61.49,217.8,61.49,217.8,61.92Z"/><path class="cls-30" d="M216.23,62.05c0-.14.38-.24.85-.24s.85.11.85.24"/><rect class="cls-36" x="216.95" y="61.39" width="0.28" height="0.42" rx="0.09" ry="0.09"/><path class="cls-37" d="M217.15,69.71a5.46,5.46,0,0,0-1,.08,1.82,1.82,0,0,0,0,.41,1.25,1.25,0,0,1-.15-.38c-.29.07-.47.16-.47.26s.7.37,1.56.37,1.56-.16,1.56-.37-.25-.23-.63-.3a1.33,1.33,0,0,1-.16.41,1.88,1.88,0,0,0,0-.43,5.84,5.84,0,0,0-.79-.05"/><path class="cls-38" d="M216.19,69.79l-.14,0a1.25,1.25,0,0,0,.15.38,1.82,1.82,0,0,1,0-.41"/><path class="cls-38" d="M217.94,69.76a1.88,1.88,0,0,1,0,.43,1.33,1.33,0,0,0,.16-.41l-.15,0"/><path class="cls-37" d="M223.25,69c-.86,0-1.56.16-1.56.37s.7.37,1.56.37,1.56-.16,1.56-.37-.7-.37-1.56-.37"/><polyline class="cls-25" points="221.9 67.8 222.9 69.08 223.51 69.08 224.51 67.8"/><rect class="cls-26" x="221.9" y="65.36" width="2.61" height="3"/><path class="cls-26" d="M221.94,67.32s-.57.11-.42.82a.59.59,0,0,1,.42-.6"/><path class="cls-26" d="M224.48,67.32s.57.11.42.82a.59.59,0,0,0-.42-.6"/><path class="cls-26" d="M221.9,68.36a2.71,2.71,0,0,0,.37,1.06s-.16.43.52-1.29"/><path class="cls-26" d="M224.51,68.36a2.71,2.71,0,0,1-.37,1.06s.16.43-.52-1.29"/><circle class="cls-27" cx="222.71" cy="66.55" r="0.31"/><circle class="cls-27" cx="223.73" cy="66.55" r="0.31"/><path class="cls-27" d="M224.51,66.78a.24.24,0,0,0-.24-.24h-2.13a.24.24,0,0,0-.24.24V67h2.61Z"/><path class="cls-27" d="M221.9,67v.19a.24.24,0,0,0,.24.24h2.13a.24.24,0,0,0,.24-.24V67Z"/><circle class="cls-16" cx="222.31" cy="65.8" r="0.12"/><circle class="cls-28" cx="222.71" cy="66.51" r="0.12"/><circle class="cls-28" cx="223.73" cy="66.51" r="0.12"/><polygon class="cls-29" points="222.92 65.36 223.57 65.36 223.25 64.49 222.92 65.36"/><circle class="cls-16" cx="224.09" cy="65.8" r="0.12"/><rect class="cls-31" x="221.86" y="66.94" width="2.7" height="0.14" rx="0.04" ry="0.04"/><path class="cls-24" d="M201.14,79.34c5.24-3.35,15.56-5.63,27.42-5.63S250.74,76,256,79.34a11.5,11.5,0,0,0,2.17-1.74c-4-4.28-15.76-7.37-29.59-7.37S203,73.32,199,77.6a11.5,11.5,0,0,0,2.17,1.74"/><path class="cls-39" d="M200,77.2a.2.2,0,0,1-.28,0l-1.49-1.55a.21.21,0,0,1,0-.3.21.21,0,0,1,.3,0l1.44,1.6A.2.2,0,0,1,200,77.2Z"/><path class="cls-39" d="M201.41,76.1a.2.2,0,0,1-.27-.06l-1.25-1.75a.21.21,0,0,1,.06-.3.21.21,0,0,1,.3,0l1.21,1.78A.2.2,0,0,1,201.41,76.1Z"/><path class="cls-39" d="M202.95,75.15a.2.2,0,0,1-.27-.08l-1.06-1.87a.21.21,0,0,1,.09-.29A.21.21,0,0,1,202,73l1,1.89A.2.2,0,0,1,202.95,75.15Z"/><path class="cls-39" d="M204.59,74.32a.2.2,0,0,1-.26-.1l-.91-1.95a.21.21,0,0,1,.39-.18l.88,2A.2.2,0,0,1,204.59,74.32Z"/><path class="cls-39" d="M206.31,73.61a.21.21,0,0,1-.26-.12l-.78-2a.21.21,0,0,1,.12-.27.21.21,0,0,1,.27.12l.76,2A.2.2,0,0,1,206.31,73.61Z"/><path class="cls-39" d="M208.08,73a.2.2,0,0,1-.25-.13l-.68-2a.21.21,0,0,1,.4-.13l.66,2A.2.2,0,0,1,208.08,73Z"/><path class="cls-39" d="M209.88,72.44a.2.2,0,0,1-.25-.14l-.58-2.07a.21.21,0,0,1,.4-.11l.57,2.07A.2.2,0,0,1,209.88,72.44Z"/><path class="cls-39" d="M211.72,72a.2.2,0,0,1-.24-.15l-.5-2.09a.21.21,0,0,1,.41-.1l.49,2.09A.2.2,0,0,1,211.72,72Z"/><path class="cls-39" d="M213.57,71.56h0a.21.21,0,0,1-.24-.16l-.43-2.11a.21.21,0,0,1,.41-.08l.42,2.11A.2.2,0,0,1,213.57,71.56Z"/><path class="cls-39" d="M215.45,71.21a.21.21,0,0,1-.23-.17l-.37-2.12a.21.21,0,0,1,.17-.24.21.21,0,0,1,.24.17l.36,2.12A.2.2,0,0,1,215.45,71.21Z"/><path class="cls-39" d="M217.33,70.91a.2.2,0,0,1-.23-.17l-.31-2.13a.21.21,0,0,1,.41-.06l.3,2.13A.2.2,0,0,1,217.33,70.91Z"/><path class="cls-39" d="M219.23,70.67a.2.2,0,0,1-.22-.18l-.25-2.13a.21.21,0,0,1,.18-.23.21.21,0,0,1,.23.18l.24,2.14A.21.21,0,0,1,219.23,70.67Z"/><path class="cls-39" d="M221.13,70.47a.2.2,0,0,1-.22-.19l-.2-2.14a.21.21,0,0,1,.41,0l.19,2.14A.21.21,0,0,1,221.13,70.47Z"/><path class="cls-39" d="M223,70.32a.21.21,0,0,1-.22-.19L222.67,68a.21.21,0,0,1,.41,0l.14,2.15A.2.2,0,0,1,223,70.32Z"/><path class="cls-39" d="M225,70.21a.2.2,0,0,1-.21-.19l-.1-2.15a.21.21,0,0,1,.41,0l.09,2.15A.2.2,0,0,1,225,70.21Z"/><path class="cls-39" d="M226.87,70.15a.2.2,0,0,1-.21-.2l-.05-2.15a.21.21,0,0,1,.41,0l0,2.15A.21.21,0,0,1,226.87,70.15Z"/><path class="cls-39" d="M228.78,70.12a.21.21,0,0,1-.2-.21V67.77a.21.21,0,0,1,.41,0v2.15A.2.2,0,0,1,228.78,70.12Z"/><path class="cls-39" d="M230.7,70.14a.21.21,0,0,1-.2-.21l0-2.15a.21.21,0,0,1,.21-.2.21.21,0,0,1,.2.21l-.05,2.15A.2.2,0,0,1,230.7,70.14Z"/><path class="cls-39" d="M232.61,70.21a.2.2,0,0,1-.19-.21l.09-2.15a.21.21,0,0,1,.22-.2.21.21,0,0,1,.2.21l-.1,2.15A.21.21,0,0,1,232.61,70.21Z"/><path class="cls-39" d="M234.52,70.31a.2.2,0,0,1-.19-.22l.14-2.15a.21.21,0,0,1,.41,0l-.15,2.14A.21.21,0,0,1,234.52,70.31Z"/><path class="cls-39" d="M236.43,70.46a.21.21,0,0,1-.18-.22l.19-2.14a.21.21,0,0,1,.41,0l-.2,2.14A.2.2,0,0,1,236.43,70.46Z"/><path class="cls-39" d="M238.33,70.66a.2.2,0,0,1-.18-.23l.25-2.14a.21.21,0,0,1,.41,0l-.26,2.13A.2.2,0,0,1,238.33,70.66Z"/><path class="cls-39" d="M240.22,70.91a.2.2,0,0,1-.17-.23l.3-2.13a.21.21,0,0,1,.24-.17.21.21,0,0,1,.18.23l-.32,2.13A.21.21,0,0,1,240.22,70.91Z"/><path class="cls-39" d="M242.11,71.21a.2.2,0,0,1-.16-.24l.37-2.12a.21.21,0,0,1,.41.07L242.34,71A.21.21,0,0,1,242.11,71.21Z"/><path class="cls-39" d="M244,71.57a.2.2,0,0,1-.15-.24l.43-2.11a.21.21,0,0,1,.41.09l-.45,2.1A.2.2,0,0,1,244,71.57Z"/><path class="cls-39" d="M245.82,72a.2.2,0,0,1-.15-.25l.51-2.09a.21.21,0,0,1,.41.1l-.52,2.09A.2.2,0,0,1,245.82,72Z"/><path class="cls-39" d="M247.65,72.48a.2.2,0,0,1-.13-.25l.59-2.07a.21.21,0,0,1,.4.12l-.61,2.06A.2.2,0,0,1,247.65,72.48Z"/><path class="cls-39" d="M249.45,73a.2.2,0,0,1-.12-.26l.69-2a.21.21,0,0,1,.4.14l-.71,2A.2.2,0,0,1,249.45,73Z"/><path class="cls-39" d="M251.2,73.7a.2.2,0,0,1-.11-.26l.8-2a.21.21,0,0,1,.39.16l-.82,2A.2.2,0,0,1,251.2,73.7Z"/><path class="cls-39" d="M252.9,74.45a.2.2,0,0,1-.09-.27l.92-1.94a.21.21,0,0,1,.28-.09.21.21,0,0,1,.1.28l-1,1.93A.21.21,0,0,1,252.9,74.45Z"/><path class="cls-39" d="M254.51,75.32a.2.2,0,0,1-.06-.27l1.08-1.86a.21.21,0,0,1,.29-.07.21.21,0,0,1,.08.29l-1.12,1.84A.2.2,0,0,1,254.51,75.32Z"/><path class="cls-39" d="M256,76.32a.2.2,0,0,1,0-.28l1.27-1.74a.21.21,0,0,1,.3,0,.21.21,0,0,1,.05.29l-1.31,1.71A.2.2,0,0,1,256,76.32Z"/><path class="cls-39" d="M257.93,76c-4.92-4.7-16.27-7.58-29.64-7.49a75.6,75.6,0,0,0-17.24,2c-5.39,1.33-9.49,3.23-11.86,5.52l-.44-.45c2.45-2.36,6.65-4.32,12.15-5.68a76.23,76.23,0,0,1,17.39-2,75.12,75.12,0,0,1,17.52,1.82c5.61,1.34,9.95,3.36,12.55,5.85l-.43.45"/><path class="cls-40" d="M236.81,72.89s.53-1.38,1.51-1.05c0,0-.88.1-1.15,1.37S236.81,72.89,236.81,72.89Z"/><polyline class="cls-41" points="235.91 73.83 236 74.4 236.17 73.83 235.91 73.83"/><polyline class="cls-41" points="236.31 73.94 236.4 74.52 236.56 73.94 236.31 73.94"/><polyline class="cls-41" points="236.68 73.65 236.77 74.23 236.94 73.65 236.68 73.65"/><path class="cls-42" d="M237.18,73.33a.74.74,0,1,1-.74-.74.74.74,0,0,1,.74.74"/><path class="cls-43" d="M235,74.63h-.18a.17.17,0,0,1-.17-.17v-.51a.17.17,0,0,1,.17-.17H235a.17.17,0,0,1,.17.17v.51a.17.17,0,0,1-.17.17"/><ellipse class="cls-40" cx="233.51" cy="71.3" rx="0.68" ry="1.35"/><path class="cls-44" d="M235.06,74.19h-.9a.86.86,0,0,1-.86-.86V70a.86.86,0,0,1,.86-.86h.9a.86.86,0,0,1,.86.86v3.34a.86.86,0,0,1-.86.86"/><rect class="cls-45" x="233.3" y="69.64" width="2.61" height="0.09"/><rect class="cls-45" x="233.3" y="69.94" width="2.61" height="0.09"/><rect class="cls-10" x="233.3" y="69.73" width="2.61" height="0.21"/><ellipse class="cls-16" cx="233.68" cy="70.42" rx="0.16" ry="0.17"/><ellipse class="cls-40" cx="235.63" cy="71.3" rx="0.68" ry="1.35"/><path class="cls-41" d="M234.66,73a.73.73,0,1,1-1.36,0c0-.75.3-.82.68-.82S234.66,72.22,234.66,73Z"/><path class="cls-10" d="M235.06,70.52c0,.2-.16.85-.37.85s-.37-.65-.37-.85a.37.37,0,0,1,.74,0Z"/><ellipse class="cls-16" cx="234.69" cy="70.42" rx="0.16" ry="0.17"/><path class="cls-37" d="M235.55,74a.85.85,0,0,1-.36.14v.27a.17.17,0,0,1-.17.17h-.18a.17.17,0,0,1-.17-.17v-.26H234c-.25.07-.41.16-.41.26s.78.41,1.75.41,1.75-.18,1.75-.41-.13-.18-.34-.24v0l-.26-.07-.11.38-.07-.42-.23,0-.09.33-.06-.35-.4,0"/><path class="cls-46" d="M235.95,74.06l.06.35.09-.33h-.15"/><path class="cls-46" d="M236.33,74.1l.07.42.11-.38-.18,0"/><path class="cls-46" d="M236.77,74.2v0h0"/><path class="cls-47" d="M235.19,74.18h-.53v.26a.17.17,0,0,0,.17.17H235a.17.17,0,0,0,.17-.17v-.27"/><path class="cls-48" d="M235.37,74a5.27,5.27,0,0,0-1.34.15h1.15a.85.85,0,0,0,.36-.14h-.17"/><path class="cls-39" d="M200,82.11a.2.2,0,0,1-.28,0l-1.49-1.55a.21.21,0,0,1,0-.3.21.21,0,0,1,.3,0l1.44,1.6A.2.2,0,0,1,200,82.11Z"/><path class="cls-39" d="M201.41,81a.2.2,0,0,1-.27-.06l-1.25-1.75a.21.21,0,0,1,.06-.3.21.21,0,0,1,.3,0l1.21,1.78A.2.2,0,0,1,201.41,81Z"/><path class="cls-39" d="M202.95,80.05a.2.2,0,0,1-.27-.08l-1.06-1.87a.21.21,0,0,1,.09-.29.21.21,0,0,1,.29.07l1,1.89A.2.2,0,0,1,202.95,80.05Z"/><path class="cls-39" d="M204.59,79.23a.2.2,0,0,1-.26-.1l-.91-1.95a.21.21,0,0,1,.39-.18l.88,2A.2.2,0,0,1,204.59,79.23Z"/><path class="cls-39" d="M206.31,78.51a.21.21,0,0,1-.26-.12l-.78-2a.21.21,0,0,1,.12-.27.21.21,0,0,1,.27.12l.76,2A.2.2,0,0,1,206.31,78.51Z"/><path class="cls-39" d="M208.08,77.88a.2.2,0,0,1-.25-.13l-.68-2a.21.21,0,0,1,.4-.13l.66,2A.2.2,0,0,1,208.08,77.88Z"/><path class="cls-39" d="M209.88,77.34a.2.2,0,0,1-.25-.14l-.58-2.07a.21.21,0,0,1,.4-.11l.57,2.07A.2.2,0,0,1,209.88,77.34Z"/><path class="cls-39" d="M211.72,76.87a.2.2,0,0,1-.24-.15l-.5-2.09a.21.21,0,0,1,.41-.1l.49,2.09A.2.2,0,0,1,211.72,76.87Z"/><path class="cls-39" d="M213.57,76.46a.21.21,0,0,1-.24-.16l-.43-2.11a.21.21,0,0,1,.41-.08l.42,2.11A.2.2,0,0,1,213.57,76.46Z"/><path class="cls-39" d="M215.45,76.11a.21.21,0,0,1-.23-.17l-.37-2.12a.21.21,0,0,1,.17-.24.21.21,0,0,1,.24.17l.36,2.12A.2.2,0,0,1,215.45,76.11Z"/><path class="cls-39" d="M217.33,75.82a.2.2,0,0,1-.23-.17l-.31-2.13a.21.21,0,0,1,.41-.06l.3,2.13A.2.2,0,0,1,217.33,75.82Z"/><path class="cls-39" d="M219.23,75.57a.2.2,0,0,1-.22-.18l-.25-2.13a.21.21,0,0,1,.18-.23.21.21,0,0,1,.23.18l.24,2.14A.21.21,0,0,1,219.23,75.57Z"/><path class="cls-39" d="M221.13,75.38a.2.2,0,0,1-.22-.19l-.2-2.14a.21.21,0,0,1,.41,0l.19,2.14A.21.21,0,0,1,221.13,75.38Z"/><path class="cls-39" d="M223,75.22a.21.21,0,0,1-.22-.19l-.15-2.14a.21.21,0,0,1,.41,0l.14,2.15A.2.2,0,0,1,223,75.22Z"/><path class="cls-39" d="M225,75.11a.2.2,0,0,1-.21-.19l-.1-2.15a.21.21,0,0,1,.41,0l.09,2.15A.2.2,0,0,1,225,75.11Z"/><path class="cls-39" d="M226.87,75a.2.2,0,0,1-.21-.2l-.05-2.15a.21.21,0,0,1,.41,0l0,2.15A.21.21,0,0,1,226.87,75Z"/><path class="cls-39" d="M228.78,75a.21.21,0,0,1-.2-.21V72.67a.21.21,0,0,1,.41,0v2.15A.2.2,0,0,1,228.78,75Z"/><path class="cls-39" d="M230.7,75a.21.21,0,0,1-.2-.21l0-2.15a.21.21,0,0,1,.41,0l-.05,2.15A.2.2,0,0,1,230.7,75Z"/><path class="cls-39" d="M232.61,75.11a.2.2,0,0,1-.19-.21l.09-2.15a.21.21,0,0,1,.22-.2.21.21,0,0,1,.2.21l-.1,2.15A.21.21,0,0,1,232.61,75.11Z"/><path class="cls-39" d="M234.52,75.22a.2.2,0,0,1-.19-.22l.14-2.15a.21.21,0,0,1,.41,0L234.74,75A.21.21,0,0,1,234.52,75.22Z"/><path class="cls-39" d="M236.43,75.37a.21.21,0,0,1-.18-.22l.19-2.14a.21.21,0,0,1,.41,0l-.2,2.14A.2.2,0,0,1,236.43,75.37Z"/><path class="cls-39" d="M238.33,75.57a.2.2,0,0,1-.18-.23l.25-2.14a.21.21,0,0,1,.41,0l-.26,2.13A.2.2,0,0,1,238.33,75.57Z"/><path class="cls-39" d="M240.22,75.82a.2.2,0,0,1-.17-.23l.3-2.13a.21.21,0,0,1,.24-.17.21.21,0,0,1,.18.23l-.32,2.13A.21.21,0,0,1,240.22,75.82Z"/><path class="cls-39" d="M242.11,76.12a.2.2,0,0,1-.16-.24l.37-2.12a.21.21,0,0,1,.41.07l-.38,2.12A.21.21,0,0,1,242.11,76.12Z"/><path class="cls-39" d="M244,76.48a.2.2,0,0,1-.15-.24l.43-2.11a.21.21,0,0,1,.41.09l-.45,2.1A.2.2,0,0,1,244,76.48Z"/><path class="cls-39" d="M245.82,76.9a.2.2,0,0,1-.15-.25l.51-2.09a.21.21,0,0,1,.41.1l-.52,2.09A.2.2,0,0,1,245.82,76.9Z"/><path class="cls-39" d="M247.65,77.39a.2.2,0,0,1-.13-.25l.59-2.07a.21.21,0,0,1,.4.12l-.61,2.06A.2.2,0,0,1,247.65,77.39Z"/><path class="cls-39" d="M249.45,78a.2.2,0,0,1-.12-.26l.69-2a.21.21,0,0,1,.4.14l-.71,2A.2.2,0,0,1,249.45,78Z"/><path class="cls-39" d="M251.2,78.61a.2.2,0,0,1-.11-.26l.8-2a.21.21,0,0,1,.39.16l-.82,2A.2.2,0,0,1,251.2,78.61Z"/><path class="cls-39" d="M252.9,79.36a.2.2,0,0,1-.09-.27l.92-1.94a.21.21,0,0,1,.28-.09.21.21,0,0,1,.1.28l-1,1.93A.21.21,0,0,1,252.9,79.36Z"/><path class="cls-39" d="M254.51,80.22a.2.2,0,0,1-.06-.27l1.08-1.86a.21.21,0,0,1,.29-.07.21.21,0,0,1,.08.29l-1.12,1.84A.2.2,0,0,1,254.51,80.22Z"/><path class="cls-39" d="M256,81.22a.2.2,0,0,1,0-.28l1.27-1.74a.21.21,0,0,1,.3,0,.21.21,0,0,1,.05.29l-1.31,1.71A.2.2,0,0,1,256,81.22Z"/><path class="cls-39" d="M257.93,80.93c-4.92-4.7-16.27-7.57-29.64-7.49a75.6,75.6,0,0,0-17.24,2c-5.39,1.33-9.49,3.23-11.86,5.52l-.44-.45c2.45-2.36,6.65-4.32,12.15-5.68a76.24,76.24,0,0,1,17.39-2,75.09,75.09,0,0,1,17.52,1.82c5.61,1.34,9.95,3.36,12.55,5.85l-.43.45"/><path class="cls-37" d="M221.17,79.43c-.86,0-1.56.16-1.56.37s.7.37,1.56.37,1.56-.16,1.56-.37-.7-.37-1.56-.37"/><path class="cls-36" d="M220.63,79.88h0a.25.25,0,0,1-.25-.25l-.32-1.08c0-.14.43.47.57.47a.25.25,0,0,1,.25.25v.36A.25.25,0,0,1,220.63,79.88Z"/><path class="cls-36" d="M221.61,79.88h0a.25.25,0,0,0,.25-.25l.32-1.08c0-.14-.43.47-.57.47a.25.25,0,0,0-.25.25v.36A.25.25,0,0,0,221.61,79.88Z"/><ellipse class="cls-36" cx="221.17" cy="78.75" rx="1.23" ry="0.6"/><path class="cls-10" d="M222.65,75.87a1.16,1.16,0,0,0-1.16-1.16h-.63a1.16,1.16,0,0,0-1.16,1.16v2.52h2.95Z"/><rect class="cls-10" x="219.7" y="77.36" width="0.99" height="1.65" rx="0.32" ry="0.32"/><rect class="cls-10" x="220.68" y="77.36" width="0.99" height="1.65" rx="0.32" ry="0.32"/><rect class="cls-10" x="221.66" y="77.36" width="0.99" height="1.65" rx="0.32" ry="0.32"/><ellipse class="cls-16" cx="220.38" cy="76.29" rx="0.16" ry="0.17"/><ellipse class="cls-16" cx="221.93" cy="76.29" rx="0.16" ry="0.17"/><path class="cls-39" d="M200,87.05a.2.2,0,0,1-.28,0l-1.49-1.55a.21.21,0,0,1,0-.3.21.21,0,0,1,.3,0l1.44,1.6A.2.2,0,0,1,200,87.05Z"/><path class="cls-39" d="M201.41,86a.2.2,0,0,1-.27-.06l-1.25-1.75a.21.21,0,0,1,.06-.3.21.21,0,0,1,.3,0l1.21,1.78A.2.2,0,0,1,201.41,86Z"/><path class="cls-39" d="M202.95,85a.2.2,0,0,1-.27-.08L201.61,83a.21.21,0,0,1,.09-.29.21.21,0,0,1,.29.07l1,1.89A.2.2,0,0,1,202.95,85Z"/><path class="cls-39" d="M204.59,84.17a.2.2,0,0,1-.26-.1l-.91-1.95a.21.21,0,0,1,.39-.18l.88,2A.2.2,0,0,1,204.59,84.17Z"/><path class="cls-39" d="M206.31,83.46a.21.21,0,0,1-.26-.12l-.78-2a.21.21,0,0,1,.12-.27.21.21,0,0,1,.27.12l.76,2A.2.2,0,0,1,206.31,83.46Z"/><path class="cls-39" d="M208.08,82.83a.2.2,0,0,1-.25-.13l-.68-2a.21.21,0,0,1,.4-.13l.66,2A.2.2,0,0,1,208.08,82.83Z"/><path class="cls-39" d="M209.88,82.29a.2.2,0,0,1-.25-.14l-.58-2.07a.21.21,0,0,1,.4-.11L210,82A.2.2,0,0,1,209.88,82.29Z"/><path class="cls-39" d="M211.72,81.82a.2.2,0,0,1-.24-.15l-.5-2.09a.21.21,0,0,1,.41-.1l.49,2.09A.2.2,0,0,1,211.72,81.82Z"/><path class="cls-39" d="M213.57,81.41a.21.21,0,0,1-.24-.16l-.43-2.11a.21.21,0,0,1,.41-.08l.42,2.11A.2.2,0,0,1,213.57,81.41Z"/><path class="cls-39" d="M215.45,81.06a.21.21,0,0,1-.23-.17l-.37-2.12a.21.21,0,0,1,.17-.24.21.21,0,0,1,.24.17l.36,2.12A.2.2,0,0,1,215.45,81.06Z"/><path class="cls-39" d="M217.33,80.76a.2.2,0,0,1-.23-.17l-.31-2.13a.21.21,0,0,1,.41-.06l.3,2.13A.2.2,0,0,1,217.33,80.76Z"/><path class="cls-39" d="M219.23,80.52a.2.2,0,0,1-.22-.18l-.25-2.13a.21.21,0,0,1,.18-.23.21.21,0,0,1,.23.18l.24,2.14A.21.21,0,0,1,219.23,80.52Z"/><path class="cls-39" d="M221.13,80.32a.2.2,0,0,1-.22-.19l-.2-2.14a.21.21,0,0,1,.41,0l.19,2.14A.21.21,0,0,1,221.13,80.32Z"/><path class="cls-39" d="M223,80.17a.21.21,0,0,1-.22-.19l-.15-2.14a.21.21,0,0,1,.41,0l.14,2.15A.2.2,0,0,1,223,80.17Z"/><path class="cls-39" d="M225,80.06a.2.2,0,0,1-.21-.19l-.1-2.15a.21.21,0,0,1,.41,0l.09,2.15A.2.2,0,0,1,225,80.06Z"/><path class="cls-39" d="M226.87,80a.2.2,0,0,1-.21-.2l-.05-2.15a.21.21,0,0,1,.41,0l0,2.15A.21.21,0,0,1,226.87,80Z"/><path class="cls-39" d="M228.78,80a.21.21,0,0,1-.2-.21V77.62a.21.21,0,0,1,.41,0v2.15A.2.2,0,0,1,228.78,80Z"/><path class="cls-39" d="M230.7,80a.21.21,0,0,1-.2-.21l0-2.15a.21.21,0,0,1,.21-.2.21.21,0,0,1,.2.21l-.05,2.15A.2.2,0,0,1,230.7,80Z"/><path class="cls-39" d="M232.61,80.06a.2.2,0,0,1-.19-.21l.09-2.15a.21.21,0,0,1,.22-.2.21.21,0,0,1,.2.21l-.1,2.15A.21.21,0,0,1,232.61,80.06Z"/><path class="cls-39" d="M234.52,80.16a.2.2,0,0,1-.19-.22l.14-2.15a.21.21,0,0,1,.41,0L234.74,80A.21.21,0,0,1,234.52,80.16Z"/><path class="cls-39" d="M236.43,80.32a.21.21,0,0,1-.18-.22l.19-2.14a.21.21,0,0,1,.41,0l-.2,2.14A.2.2,0,0,1,236.43,80.32Z"/><path class="cls-39" d="M238.33,80.51a.2.2,0,0,1-.18-.23l.25-2.14a.21.21,0,0,1,.41,0l-.26,2.13A.2.2,0,0,1,238.33,80.51Z"/><path class="cls-39" d="M240.22,80.76a.2.2,0,0,1-.17-.23l.3-2.13a.21.21,0,0,1,.24-.17.21.21,0,0,1,.18.23l-.32,2.13A.21.21,0,0,1,240.22,80.76Z"/><path class="cls-39" d="M242.11,81.07a.2.2,0,0,1-.16-.24l.37-2.12a.21.21,0,0,1,.41.07l-.38,2.12A.21.21,0,0,1,242.11,81.07Z"/><path class="cls-39" d="M244,81.42a.2.2,0,0,1-.15-.24l.43-2.11a.21.21,0,0,1,.41.09l-.45,2.1A.2.2,0,0,1,244,81.42Z"/><path class="cls-39" d="M245.82,81.84a.2.2,0,0,1-.15-.25l.51-2.09a.21.21,0,0,1,.41.1l-.52,2.09A.2.2,0,0,1,245.82,81.84Z"/><path class="cls-39" d="M247.65,82.33a.2.2,0,0,1-.13-.25l.59-2.07a.21.21,0,0,1,.4.12l-.61,2.06A.2.2,0,0,1,247.65,82.33Z"/><path class="cls-39" d="M249.45,82.9a.2.2,0,0,1-.12-.26l.69-2a.21.21,0,0,1,.4.14l-.71,2A.2.2,0,0,1,249.45,82.9Z"/><path class="cls-39" d="M251.2,83.55a.2.2,0,0,1-.11-.26l.8-2a.21.21,0,0,1,.39.16l-.82,2A.2.2,0,0,1,251.2,83.55Z"/><path class="cls-39" d="M252.9,84.3a.2.2,0,0,1-.09-.27l.92-1.94A.21.21,0,0,1,254,82a.21.21,0,0,1,.1.28l-1,1.93A.21.21,0,0,1,252.9,84.3Z"/><path class="cls-39" d="M254.51,85.17a.2.2,0,0,1-.06-.27L255.53,83a.21.21,0,0,1,.29-.07.21.21,0,0,1,.08.29l-1.12,1.84A.2.2,0,0,1,254.51,85.17Z"/><path class="cls-39" d="M256,86.17a.2.2,0,0,1,0-.28l1.27-1.74a.21.21,0,0,1,.3,0,.21.21,0,0,1,.05.29l-1.31,1.71A.2.2,0,0,1,256,86.17Z"/><path class="cls-39" d="M257.93,85.88c-4.92-4.7-16.27-7.58-29.64-7.49a75.6,75.6,0,0,0-17.24,2c-5.39,1.33-9.49,3.23-11.86,5.52l-.44-.45c2.45-2.36,6.65-4.32,12.15-5.68a76.23,76.23,0,0,1,17.39-2,75.13,75.13,0,0,1,17.52,1.82c5.61,1.34,9.95,3.36,12.55,5.85Z"/><polygon class="cls-23" points="223.99 85.67 233.13 85.67 228.56 81.19 223.99 85.67"/><polygon class="cls-23" points="223.99 62.85 233.13 62.85 228.56 58.37 223.99 62.85"/><polygon class="cls-23" points="198.33 80.8 203.07 80.8 200.7 76.32 198.33 80.8"/><polygon class="cls-23" points="251.57 81.75 256.3 81.75 253.94 77.28 251.57 81.75"/><path class="cls-23" d="M197.46,74.3s-.42,9.64,30.86,10.9V99.47l-30.77-2.12"/><path class="cls-23" d="M259.67,74.3s.42,9.64-30.86,10.9V99.47l30.77-2.12"/><ellipse class="cls-22" cx="198.66" cy="102.06" rx="1.74" ry="4.63"/><ellipse class="cls-22" cx="209.57" cy="106.26" rx="2.94" ry="4.7"/><ellipse class="cls-22" cx="198.66" cy="88.45" rx="1.74" ry="4.63"/><ellipse class="cls-22" cx="209.57" cy="92.64" rx="2.94" ry="4.7"/><ellipse class="cls-22" cx="258.07" cy="102.06" rx="1.74" ry="4.63"/><ellipse class="cls-22" cx="247.15" cy="106.26" rx="2.94" ry="4.7"/><ellipse class="cls-22" cx="258.07" cy="88.06" rx="1.74" ry="4.63"/><ellipse class="cls-22" cx="247.15" cy="92.26" rx="2.94" ry="4.7"/><rect class="cls-24" x="216.64" y="103.04" width="2.07" height="4.05" rx="0.68" ry="0.68"/><rect class="cls-24" x="194.61" y="79.52" width="2.07" height="4.05" rx="0.68" ry="0.68"/><rect class="cls-49" x="219.35" y="101.68" width="1.18" height="2.31" rx="0.39" ry="0.39"/><rect class="cls-49" x="204.11" y="110.32" width="1.18" height="2.31" rx="0.39" ry="0.39"/><rect class="cls-49" x="219.18" y="105.34" width="0.76" height="1.49" rx="0.25" ry="0.25"/><rect class="cls-24" x="237.07" y="97.06" width="2.07" height="4.05" rx="0.68" ry="0.68"/><rect class="cls-23" x="242.22" y="110.33" width="3.39" height="6.62" rx="1.11" ry="1.11"/><rect class="cls-23" x="254.25" y="107.03" width="3.39" height="6.61" rx="1.11" ry="1.11"/><rect class="cls-24" x="203.01" y="83.17" width="2.07" height="4.05" rx="0.68" ry="0.68"/><rect class="cls-49" x="252.62" y="92.65" width="1.18" height="2.31" rx="0.39" ry="0.39"/><rect class="cls-49" x="239.46" y="85.73" width="1.18" height="2.31" rx="0.39" ry="0.39"/><rect class="cls-49" x="241.11" y="96.31" width="0.76" height="1.49" rx="0.25" ry="0.25"/><rect class="cls-49" x="202.4" y="88.9" width="0.76" height="1.49" rx="0.25" ry="0.25"/><rect class="cls-49" x="196.3" y="94.3" width="0.76" height="1.49" rx="0.25" ry="0.25"/><circle class="cls-15" cx="228.58" cy="80.47" r="1.5"/><circle class="cls-15" cx="200.67" cy="75.76" r="1.5"/><circle class="cls-15" cx="202.68" cy="62.86" r="1.5"/><circle class="cls-15" cx="228.58" cy="58" r="1.5"/><circle class="cls-15" cx="252.27" cy="62.94" r="1.5"/><circle class="cls-15" cx="253.8" cy="77.37" r="1.5"/><rect class="cls-50" x="219.91" y="112.17" width="1.29" height="8.71" rx="0.42" ry="0.42"/><path class="cls-15" d="M222.11,112.46a1.5,1.5,0,1,1-3,0c0-.83.67-2.8,1.5-2.8S222.11,111.63,222.11,112.46Z"/><rect class="cls-50" x="236.37" y="112.17" width="1.29" height="8.71" rx="0.42" ry="0.42"/><path class="cls-15" d="M238.57,112.46a1.5,1.5,0,0,1-3,0c0-.83.67-2.8,1.5-2.8S238.57,111.63,238.57,112.46Z"/><rect class="cls-22" x="223.66" y="88.2" width="10.25" height="11.22" rx="1.58" ry="1.58"/><rect class="cls-23" x="227.59" y="87.1" width="2.49" height="13.48"/><rect class="cls-23" x="222.09" y="92.26" width="13.48" height="2.49"/><path class="cls-23" d="M196.19,65c-2.67,1.52-5.18-.15-7.53,1.36,2.49-.64,4.86,1.73,7.09,1.1Z"/><rect class="cls-50" x="195.54" y="64.81" width="0.65" height="8.44" rx="0.21" ry="0.21"/><path class="cls-36" d="M213.06,76.75c-2.67,1.52-5.18-.15-7.53,1.36,2.49-.64,4.86,1.73,7.09,1.1Z"/><rect class="cls-50" x="212.4" y="76.54" width="0.65" height="8.44" rx="0.21" ry="0.21"/><path class="cls-51" d="M244.18,77.14c-2.67,1.52-5.18-.15-7.53,1.36,2.49-.64,4.86,1.73,7.09,1.1Z"/><rect class="cls-50" x="243.53" y="76.94" width="0.65" height="8.44" rx="0.21" ry="0.21"/><path class="cls-36" d="M261.4,65.12c-2.67,1.52-5.18-.15-7.53,1.36,2.49-.64,4.86,1.73,7.09,1.1Z"/><rect class="cls-50" x="260.75" y="64.92" width="0.65" height="8.44" rx="0.21" ry="0.21"/><path class="cls-36" d="M241.76,56.94c-2.44,1.39-4.73-.14-6.88,1.25,2.28-.58,4.44,1.58,6.48,1Z"/><rect class="cls-50" x="241.16" y="56.75" width="0.6" height="7.71" rx="0.2" ry="0.2"/><path class="cls-51" d="M214.59,56.94c-2.44,1.39-4.73-.14-6.88,1.25,2.28-.58,4.44,1.58,6.48,1Z"/><rect class="cls-50" x="213.99" y="56.75" width="0.6" height="7.71" rx="0.2" ry="0.2"/><rect class="cls-5" x="146.76" y="78.35" width="0.56" height="6.06" rx="0.23" ry="0.23"/><rect class="cls-5" x="151.35" y="78.35" width="0.56" height="6.06" rx="0.23" ry="0.23"/><rect class="cls-5" x="146.76" y="71.45" width="0.56" height="6.06" rx="0.23" ry="0.23"/><rect class="cls-5" x="151.35" y="71.45" width="0.56" height="6.06" rx="0.23" ry="0.23"/><path class="cls-5" d="M143.28,70.74a10.14,10.14,0,0,0,12-.19,7.6,7.6,0,0,1-5.91-1.83A9.2,9.2,0,0,1,143.28,70.74Z"/><rect class="cls-5" x="145.92" y="73.57" width="6.83" height="5.55" rx="1.2" ry="1.2"/><polygon class="cls-10" points="142 117.25 143.36 117.25 142.68 115.75 142 117.25"/><polygon class="cls-10" points="152.93 116.85 154.29 116.85 153.61 115.35 152.93 116.85"/><polygon class="cls-10" points="148.59 117.25 149.94 117.25 149.26 115.75 148.59 117.25"/><polygon class="cls-10" points="136.08 116.85 137.44 116.85 136.76 115.35 136.08 116.85"/><polygon class="cls-10" points="137.38 123.45 135.75 117.24 135.75 116.48 137.38 122.69 137.38 123.45"/><polyline class="cls-9" points="152.09 119.97 157.42 122.69 157.42 123.45 152.09 119.97"/><polyline class="cls-10" points="137.38 122.69 157.42 122.69 155.21 116.48 135.75 116.48 137.38 122.69"/><path class="cls-10" d="M172,101.42a71,71,0,0,0-7.1,2c3.38-2.26,9.13-3.52,13.38-4.18A54.59,54.59,0,0,1,198.52,97s-.3-.43-6.56-1.87a100,100,0,0,0-18.06.64,64.71,64.71,0,0,1,8.33-1.41,85.32,85.32,0,0,0-25,4.29l4.94,8A53.3,53.3,0,0,1,172,101.42Zm-7.27-1.23s3-3,5.5-2.53A25.59,25.59,0,0,1,164.76,100.19Z"/><polyline class="cls-36" points="149.93 97.31 146.31 103.26 150.98 106.56 151.69 107.06 156.12 110.19 164.05 110.94 166.76 105.19 159.59 98.22"/><path class="cls-36" d="M152,106.29a8,8,0,0,0-4.81,4.08,5,5,0,0,1,3.17-5"/><path class="cls-36" d="M157.88,105.75a8,8,0,0,1-2.82,5.65,5,5,0,0,0,4.14-4.28"/><path class="cls-36" d="M164.13,106.09a8,8,0,0,0,6.19,1.22,5,5,0,0,1-5.92.67"/><path class="cls-36" d="M160.54,105.09a8,8,0,0,0,5.19-3.58,5,5,0,0,1-3.66,4.71"/><polyline class="cls-31" points="152.49 104.89 155.92 107.68 153.37 108.9 151.44 104.79"/><ellipse class="cls-16" cx="150.77" cy="105.79" rx="0.28" ry="0.33" transform="translate(-32.09 127.84) rotate(-41.93)"/><ellipse class="cls-16" cx="154.76" cy="105" rx="0.36" ry="0.43" transform="translate(-30.54 130.27) rotate(-41.92)"/><polygon class="cls-31" points="156.21 105.35 154.32 105.82 154.94 106.22 156.6 105.74 156.21 105.35"/><polygon class="cls-31" points="151.97 106.4 152.27 106.83 151.52 106.94 150.98 106.56 151.97 106.4"/><path class="cls-14" d="M154.37,100.07s-1.24,2.5-1.74,3.17-2.55,1.13-2.83-.19a10.39,10.39,0,0,1,.18-2.73"/><path class="cls-52" d="M150,102.17c1.41.69,2.41.3,3.55-1s2-2.4.58-3.63a3.23,3.23,0,0,0-4.56.07C148.47,98.9,148.38,101.35,150,102.17Z"/><path class="cls-53" d="M159.39,118.91l.78,2c1-.24,1.57-.57,1.57-.93s-.92-.85-2.35-1.1"/><path class="cls-54" d="M156,118.64l1,2.71a16.66,16.66,0,0,0,3.23-.41l-.78-2a20.66,20.66,0,0,0-3.41-.27"/><path class="cls-55" d="M155.91,118.64c-3.22,0-5.83.61-5.83,1.37s2.61,1.37,5.83,1.37l1,0-1-2.71h-.07"/><path class="cls-56" d="M243.28,141.2l-8.5-3.05a1.58,1.58,0,0,1-1-2l1.61-4.47a1.58,1.58,0,0,1,2-1l8.5,3.05a1.58,1.58,0,0,1,1,2l-1.61,4.47a1.58,1.58,0,0,1-2,1"/><path class="cls-56" d="M246,133.75l-8.5-3.05a1.58,1.58,0,0,1-1-2l1.61-4.47a1.58,1.58,0,0,1,2-1l8.5,3.05a1.58,1.58,0,0,1,1,2L248,132.8a1.58,1.58,0,0,1-2,1"/><path class="cls-56" d="M248.63,126.31l-8.5-3.05a1.58,1.58,0,0,1-1-2l1.61-4.47a1.58,1.58,0,0,1,2-1l8.5,3.05a1.58,1.58,0,0,1,1,2l-1.61,4.47a1.58,1.58,0,0,1-2,1"/><path class="cls-57" d="M248.05,125.29l-7-2.5a.89.89,0,0,1-.53-1.13l.52-1.45a.89.89,0,0,1,1.13-.53l7,2.5a.89.89,0,0,1,.53,1.13l-.52,1.45a.89.89,0,0,1-1.13.53"/><polyline class="cls-56" points="243.01 120.45 241.99 120.08 242.24 119.37 243.26 119.74 243.01 120.45"/><polyline class="cls-56" points="244.56 121.01 243.53 120.64 243.79 119.93 244.81 120.3 244.56 121.01"/><polyline class="cls-56" points="246.1 121.56 245.08 121.2 245.34 120.48 246.36 120.85 246.1 121.56"/><polyline class="cls-56" points="247.65 122.12 246.63 121.75 246.88 121.04 247.91 121.41 247.65 122.12"/><polyline class="cls-56" points="249.2 122.67 248.17 122.31 248.43 121.59 249.45 121.96 249.2 122.67"/><polyline class="cls-56" points="242.05 123.13 241.02 122.76 241.28 122.05 242.3 122.42 242.05 123.13"/><polyline class="cls-56" points="243.59 123.69 242.57 123.32 242.83 122.61 243.85 122.97 243.59 123.69"/><polyline class="cls-56" points="245.14 124.24 244.12 123.88 244.37 123.16 245.4 123.53 245.14 124.24"/><polyline class="cls-56" points="246.69 124.8 245.66 124.43 245.92 123.72 246.94 124.08 246.69 124.8"/><polyline class="cls-56" points="248.23 125.35 247.21 124.99 247.47 124.27 248.49 124.64 248.23 125.35"/><path class="cls-57" d="M242.94,118.64c-.49.7-1.27,1-1.73.67s-.45-1.16,0-1.86,1.27-1,1.73-.67.45,1.16,0,1.86"/><path class="cls-56" d="M242.66,118.22a.58.58,0,1,1-.35-.74.58.58,0,0,1,.35.74"/><path class="cls-57" d="M242.29,118.08a.17.17,0,1,1-.1-.22.17.17,0,0,1,.1.22"/><path class="cls-57" d="M249.29,120.92c-.07.85.34,1.58.91,1.62s1.09-.61,1.16-1.46-.34-1.58-.91-1.62-1.09.61-1.16,1.46"/><path class="cls-56" d="M249.78,120.78a.58.58,0,1,0,.74-.35.58.58,0,0,0-.74.35"/><path class="cls-57" d="M250.16,120.9a.17.17,0,1,0,.22-.1.17.17,0,0,0-.22.1"/><path class="cls-57" d="M244.55,119.19a.78.78,0,1,1,1.47.53l-1.47-.53"/><path class="cls-57" d="M246.11,119.76a.78.78,0,1,1,1.47.53l-1.47-.53"/><path class="cls-56" d="M249,118.85l-4.53-1.63a1.14,1.14,0,0,1,.77-2.15l4.53,1.63a1.14,1.14,0,0,1-.77,2.15"/><path class="cls-56" d="M244.14,114.7a13.15,13.15,0,0,0,6.59,2.19,6.69,6.69,0,0,1-2.55-3.08,8.43,8.43,0,0,1-4,.89"/><path class="cls-57" d="M248.85,116.81l-3.5-1.26a.12.12,0,1,1,.08-.22l3.5,1.26a.12.12,0,0,1-.08.22"/><path class="cls-58" d="M245.45,119.19a1.33,1.33,0,0,1-1.12,0,1.28,1.28,0,0,1-.69-.87,1,1,0,0,1,.38-1,.91.91,0,0,1,.52-.2.84.84,0,0,1,.53.16.8.8,0,0,1,.3.46.67.67,0,0,1-.12.54.6.6,0,0,1-.48.24.52.52,0,0,1-.45-.28.42.42,0,0,1,.09-.51.36.36,0,0,1,.25-.09.32.32,0,0,1,.24.12.27.27,0,0,1,.06.25.25.25,0,0,1-.18.18.2.2,0,0,1-.22-.11.16.16,0,0,1,.07-.21.15.15,0,0,0-.06.21.18.18,0,0,0,.2.09.22.22,0,0,0,.15-.16.23.23,0,0,0-.06-.21.27.27,0,0,0-.2-.09.3.3,0,0,0-.2.09.33.33,0,0,0-.05.41.41.41,0,0,0,.36.21.47.47,0,0,0,.36-.21.51.51,0,0,0,.07-.41.62.62,0,0,0-.25-.34.63.63,0,0,0-.41-.1.67.67,0,0,0-.38.17.77.77,0,0,0-.24.77.9.9,0,0,0,.2.37,1,1,0,0,0,1.15.22l.17.36"/><path class="cls-58" d="M247.43,119.61a1,1,0,0,0,1,.56.9.9,0,0,0,.39-.16.77.77,0,0,0,.3-.75.67.67,0,0,0-.18-.38.63.63,0,0,0-.38-.18.62.62,0,0,0-.41.1.51.51,0,0,0-.2.36.47.47,0,0,0,.15.39.41.41,0,0,0,.41.07.33.33,0,0,0,.22-.35.3.3,0,0,0-.1-.19.27.27,0,0,0-.21-.06.23.23,0,0,0-.18.12.22.22,0,0,0,0,.22.18.18,0,0,0,.21.06.15.15,0,0,0,.08-.2.16.16,0,0,1-.08.21.2.2,0,0,1-.24-.06.25.25,0,0,1,0-.25.27.27,0,0,1,.21-.16.32.32,0,0,1,.26.06.36.36,0,0,1,.13.23.42.42,0,0,1-.25.45.52.52,0,0,1-.53-.07.6.6,0,0,1-.22-.5.67.67,0,0,1,.25-.49.8.8,0,0,1,.53-.16.84.84,0,0,1,.52.21.91.91,0,0,1,.27.49,1,1,0,0,1-.36,1,1.28,1.28,0,0,1-1.08.23,1.33,1.33,0,0,1-.88-.7l.36-.17"/><path class="cls-58" d="M251,123.57a.54.54,0,0,1-1-.36l1,.36"/><path class="cls-58" d="M250.72,124.32a.54.54,0,0,1-1-.36l1,.36"/><path class="cls-58" d="M250.45,125.07a.54.54,0,0,1-1-.36l1,.36"/><path class="cls-58" d="M240.95,120a.54.54,0,1,1-1-.36l1,.36"/><path class="cls-58" d="M240.68,120.72a.54.54,0,0,1-1-.36l1,.36"/><path class="cls-58" d="M240.41,121.47a.54.54,0,0,1-1-.36l1,.36"/><path class="cls-58" d="M245.11,132.62,239,130.41a1.58,1.58,0,0,1-1-2l1.07-3a1.58,1.58,0,0,1,2-1l6.15,2.21a1.58,1.58,0,0,1,1,2l-1.07,3a1.58,1.58,0,0,1-2,1"/><path class="cls-56" d="M239.52,131.44a.45.45,0,0,1-.27-.58l2.2-6.12a.45.45,0,1,1,.85.31l-2.2,6.12a.46.46,0,0,1-.58.27"/><path class="cls-56" d="M241,132a.46.46,0,0,1-.27-.58l2.2-6.12a.45.45,0,1,1,.85.31l-2.2,6.12a.45.45,0,0,1-.58.27"/><path class="cls-56" d="M242.45,132.49a.46.46,0,0,1-.27-.58l2.2-6.12a.45.45,0,0,1,.85.31l-2.2,6.12a.46.46,0,0,1-.58.27"/><path class="cls-56" d="M243.92,133a.45.45,0,0,1-.27-.58l2.2-6.12a.45.45,0,0,1,.85.31l-2.2,6.12a.46.46,0,0,1-.58.27"/><path class="cls-56" d="M236,129.08a.88.88,0,0,1-.53-1.13l.79-2.2a.88.88,0,1,1,1.66.59l-.79,2.2a.88.88,0,0,1-1.13.53"/><path class="cls-57" d="M236.95,125.73a.19.19,0,0,0-.13.35l1.19.43.13-.35-1.19-.43"/><path class="cls-57" d="M236.68,126.48a.19.19,0,0,0-.13.35l1.19.43.13-.35-1.19-.43"/><path class="cls-57" d="M236.4,127.24a.19.19,0,1,0-.13.35l1.19.43.13-.35-1.19-.43"/><path class="cls-57" d="M236.13,128a.19.19,0,0,0-.13.35l1.19.43.13-.35-1.19-.43"/><path class="cls-56" d="M248.13,133.43a.88.88,0,0,0,1.13-.53l.79-2.2a.88.88,0,1,0-1.66-.59l-.79,2.2a.88.88,0,0,0,.53,1.13"/><path class="cls-57" d="M249.55,130.25a.19.19,0,1,1-.13.35l-1.19-.43.13-.35,1.19.43"/><path class="cls-57" d="M249.27,131a.19.19,0,0,1-.13.35l-1.19-.43.13-.35,1.19.43"/><path class="cls-57" d="M249,131.76a.19.19,0,0,1-.13.35l-1.19-.43.13-.35,1.19.43"/><path class="cls-57" d="M248.73,132.51a.19.19,0,1,1-.13.35l-1.19-.43.13-.35,1.19.43"/><polyline class="cls-57" points="239.46 139.83 238.74 139.57 240.85 133.69 241.57 133.95 239.46 139.83"/><path class="cls-57" d="M233.23,137.66a2.68,2.68,0,0,1,5.05,1.82l-5.05-1.82"/><path class="cls-57" d="M239.56,139.94a2.68,2.68,0,0,1,5.05,1.82l-5.05-1.82"/><polyline class="cls-57" points="236.3 134.03 238.23 134.72 237.73 133.09 236.3 134.03"/><polyline class="cls-57" points="242.63 136.3 244.56 136.99 244.06 135.37 242.63 136.3"/><path class="cls-56" d="M234.32,137.29a.72.72,0,1,1-.44-.92.72.72,0,0,1,.44.92"/><path class="cls-56" d="M235.72,137.79a.72.72,0,1,1-.44-.92.72.72,0,0,1,.44.92"/><path class="cls-56" d="M237.12,138.29a.72.72,0,1,1-.44-.92.72.72,0,0,1,.44.92"/><path class="cls-56" d="M238.51,138.79a.72.72,0,1,1-.44-.92.72.72,0,0,1,.44.92"/><path class="cls-56" d="M241.35,139.81a.72.72,0,1,1-.44-.92.72.72,0,0,1,.44.92"/><path class="cls-56" d="M242.74,140.31a.72.72,0,1,1-.44-.92.72.72,0,0,1,.44.92"/><path class="cls-56" d="M244.14,140.82a.72.72,0,1,1-.44-.92.72.72,0,0,1,.44.92"/><path class="cls-56" d="M245.54,141.32a.72.72,0,1,1-.44-.92.72.72,0,0,1,.44.92"/><g class="cls-59"><rect class="cls-60" x="233.76" y="130.6" width="13.23" height="9.84"/></g><path class="cls-60" d="M239.6,123.16a1.59,1.59,0,0,0-1.49,1l-.43,1.18a.89.89,0,0,1,.3.67v0l.16.06-.13.35-.12,0-.15.4.12,0-.13.35-.12,0-.15.4.12,0-.13.35-.12,0-.15.4.12,0-.13.35-.14,0a.89.89,0,0,1-.65.41s0,0,0,.07a1.59,1.59,0,0,0,1,1.49l2.06.74a.46.46,0,0,1-.29-.43.45.45,0,0,1,0-.15l.11-.31-.39-.14a1.59,1.59,0,0,1-1-1.49,1.57,1.57,0,0,1,.09-.53l1.07-3a1.59,1.59,0,0,1,1.49-1,1.56,1.56,0,0,1,.53.09l.42.15a.46.46,0,0,1,.35-.17l.15,0a.46.46,0,0,1,.3.43h0l.66.24a.46.46,0,0,1,.35-.17l.15,0a.46.46,0,0,1,.3.43h0l.66.24a.46.46,0,0,1,.35-.17l.15,0a.46.46,0,0,1,.3.43h0l.66.24a.46.46,0,0,1,.35-.17l.15,0a.46.46,0,0,1,.3.43h0l.52.19a1.59,1.59,0,0,1,1,1.49,1.57,1.57,0,0,1-.09.53l-1.07,3a1.59,1.59,0,0,1-1.49,1,1.57,1.57,0,0,1-.53-.09l-.49-.18-.11.31a.46.46,0,0,1-.43.3l-.15,0,2,.73a1.56,1.56,0,0,0,.53.09,1.59,1.59,0,0,0,1.28-.65.89.89,0,0,1-.22-.58.87.87,0,0,1,0-.12l-.14,0,.13-.35.12,0,.15-.4-.12,0,.13-.35.12,0,.15-.4-.12,0,.13-.35.12,0,.15-.4-.12,0,.13-.35.16.06a.89.89,0,0,1,.64-.35l.43-1.2a1.57,1.57,0,0,0,.09-.53,1.59,1.59,0,0,0-1-1.49l-8.5-3.05a1.57,1.57,0,0,0-.53-.09"/><path class="cls-60" d="M240.21,130.86l-.11.31a.46.46,0,0,1-.43.3l-.15,0L241,132a.45.45,0,0,1-.27-.58l.11-.31-.61-.22"/><path class="cls-60" d="M241.68,131.39l-.11.31a.46.46,0,0,1-.43.3l-.15,0,1.46.52a.45.45,0,0,1-.27-.58l.11-.31-.61-.22"/><path class="cls-60" d="M243.14,131.91l-.11.31a.46.46,0,0,1-.43.3l-.15,0,1.46.53a.45.45,0,0,1-.27-.58l.11-.31-.61-.22"/><path class="cls-60" d="M249.41,124.89a.53.53,0,0,1,0-.18l1,.36a.54.54,0,0,1-1-.18m.27-.75a.53.53,0,0,1,0-.18l1,.36a.54.54,0,0,1-1-.18m.27-.75a.53.53,0,0,1,0-.18l1,.36a.54.54,0,0,1-1-.18m-10.58-2.1a.53.53,0,0,1,0-.18l1,.36a.54.54,0,0,1-1-.18m.27-.75a.53.53,0,0,1,0-.18l1,.36a.54.54,0,0,1-1-.18m.27-.75a.53.53,0,0,1,0-.18l1,.36a.54.54,0,0,1-1-.18m9.38,1.33q0-.09,0-.19c.07-.82.55-1.46,1.1-1.46h.06c.53,0,.92.67.92,1.44q0,.09,0,.19c-.07.82-.55,1.46-1.1,1.46h-.06c-.53,0-.92-.67-.92-1.44m-7.14-1.47.1-.27,1,.37-.1.27.52.19.1-.27,1,.37-.1.27.52.19.1-.27,1,.37-.1.27.52.19.1-.27,1,.37-.1.27.52.19.1-.27,1,.37-.1.29a.89.89,0,0,1,.41.75.88.88,0,0,1-.05.3l-.52,1.45a.89.89,0,0,1-.84.59h-.11v0l-.17-.06h0l-.55-.2-.3-.11-.52-.19h0l-1-.37-.52-.19-1-.36-.53-.19-.32-.11-1.26-.45-1-.36h0a.89.89,0,0,1-.52-.81.88.88,0,0,1,.05-.3l.52-1.45a.89.89,0,0,1,.84-.59.88.88,0,0,1,.23,0m-1.28-1.09a2,2,0,0,1,.38-1.1,1.72,1.72,0,0,1,1.29-.81.76.76,0,0,1,.44.13.89.89,0,0,1,.34.76,2,2,0,0,1-.38,1.1,1.71,1.71,0,0,1-1.29.81.76.76,0,0,1-.44-.13.89.89,0,0,1-.34-.76m1.41-2.84a1.59,1.59,0,0,0-1.49,1l-1.61,4.47a1.57,1.57,0,0,0-.09.53,1.59,1.59,0,0,0,1,1.49l8.5,3.05a1.57,1.57,0,0,0,.53.09,1.59,1.59,0,0,0,1.49-1l1.61-4.47a1.57,1.57,0,0,0,.09-.53,1.59,1.59,0,0,0-1-1.49l-1.05-.38a1.15,1.15,0,0,1-.9.44h-.08a1,1,0,0,1,.11.3,1,1,0,0,1-.36,1,1.25,1.25,0,0,1-.78.27,1.29,1.29,0,0,1-.79-.27l-1.34-.48a.78.78,0,0,1,1.39-.15l.38-.13a.66.66,0,0,1-.07-.31.67.67,0,0,1,.25-.49l.15-.09-2.89-1a.73.73,0,0,1,.06.16.67.67,0,0,1-.12.54.66.66,0,0,1-.25.2l.15.25h.12a.78.78,0,0,1,.73,1l-1.16-.42a1.32,1.32,0,0,1-.53-.13,1.28,1.28,0,0,1-.69-.87,1,1,0,0,1,.38-1,1,1,0,0,1,.24-.14,1.15,1.15,0,0,1-.59-1v0l-.87-.31a1.56,1.56,0,0,0-.53-.09"/><path class="cls-61" d="M245.19,117.5l.06.11a.58.58,0,0,1-.28.77l0,.06a.66.66,0,0,0,.25-.2.67.67,0,0,0,.12-.54.73.73,0,0,0-.06-.16l-.13,0m-.93-.35h0a1,1,0,0,0-.24.14,1,1,0,0,0-.38,1,1.28,1.28,0,0,0,.69.87,1.32,1.32,0,0,0,.53.13l-.31-.11,0-.11a1.13,1.13,0,0,1-.74-.62.91.91,0,0,1,.43-1.21l.12,0-.15-.07"/><path class="cls-61" d="M249.12,118.9l.08.13a.91.91,0,0,1-.43,1.21,1.14,1.14,0,0,1-1.14-.1.78.78,0,0,1,0,.15l-.12,0a1.29,1.29,0,0,0,.79.27,1.25,1.25,0,0,0,.78-.27,1,1,0,0,0,.36-1,1,1,0,0,0-.11-.3l-.15,0m-.91-.31h0l-.15.09a.67.67,0,0,0-.25.49.66.66,0,0,0,.07.31l.06,0a.58.58,0,0,1,.28-.77l.12,0-.13,0"/><path class="cls-62" d="M241.92,119.61a.89.89,0,0,0-.84.59l-.52,1.45a.88.88,0,0,0-.05.3.89.89,0,0,0,.52.81l.25-.71,1,.37-.26.71h0l1.26.45-.7-.25.26-.71,1,.37-.26.71.53.19h0l.26-.71,1,.37-.26.71.52.19.26-.71,1,.37-.26.71.52.19.26-.71,1,.37-.25.69h.11a.89.89,0,0,0,.84-.59l.52-1.45a.88.88,0,0,0,.05-.3.89.89,0,0,0-.41-.75l-.15.42-1-.37.16-.44-.52-.19-.16.44-1-.37.16-.44-.52-.19-.16.44-1-.37.16-.44-.52-.19-.16.44-1-.37.16-.44-.52-.19-.16.44-1-.37.16-.44a.88.88,0,0,0-.23,0"/><polyline class="cls-62" points="247.51 125.09 248.05 125.29 248.06 125.29 247.51 125.09"/><polyline class="cls-60" points="242.24 119.37 242.14 119.64 241.99 120.08 243.01 120.45 243.26 119.74 242.24 119.37"/><polyline class="cls-60" points="243.79 119.93 243.69 120.2 243.53 120.64 244.56 121.01 244.81 120.3 243.79 119.93"/><polyline class="cls-60" points="245.34 120.48 245.24 120.75 245.08 121.2 246.1 121.56 246.36 120.85 245.34 120.48"/><polyline class="cls-60" points="246.88 121.04 246.78 121.31 246.63 121.75 247.65 122.12 247.91 121.41 246.88 121.04"/><polyline class="cls-60" points="248.43 121.59 248.33 121.86 248.17 122.31 249.2 122.67 249.45 121.96 248.43 121.59"/><polyline class="cls-60" points="241.28 122.05 241.02 122.76 242.01 123.12 242.05 123.13 242.3 122.42 241.28 122.05"/><polyline class="cls-60" points="242.83 122.61 242.57 123.32 243.59 123.69 243.85 122.97 242.83 122.61"/><polyline class="cls-60" points="244.37 123.16 244.12 123.88 245.14 124.24 245.4 123.53 244.37 123.16"/><polyline class="cls-60" points="245.92 123.72 245.66 124.43 246.69 124.8 246.94 124.08 245.92 123.72"/><polyline class="cls-60" points="247.47 124.27 247.21 124.99 247.51 125.09 248.23 125.35 248.49 124.64 247.47 124.27"/><path class="cls-62" d="M241.53,118a.58.58,0,1,1,.38.55.58.58,0,0,1-.38-.55m1-1.37a1.72,1.72,0,0,0-1.29.81,2,2,0,0,0-.38,1.1.89.89,0,0,0,.34.76.76.76,0,0,0,.44.13,1.71,1.71,0,0,0,1.29-.81,2,2,0,0,0,.38-1.1.89.89,0,0,0-.34-.76.76.76,0,0,0-.44-.13"/><path class="cls-60" d="M242,118a.17.17,0,0,1,.17-.17h.06a.17.17,0,0,1-.06.34h-.06A.17.17,0,0,1,242,118m.16-.58a.58.58,0,1,0,.2,0,.58.58,0,0,0-.2,0"/><path class="cls-62" d="M242.12,117.84a.17.17,0,0,0-.06.34h.06a.17.17,0,0,0,.06-.34h-.06"/><path class="cls-62" d="M249.75,121a.58.58,0,1,1,.38.55.58.58,0,0,1-.38-.55m.64-1.51c-.55,0-1,.64-1.1,1.46q0,.09,0,.19c0,.77.39,1.39.92,1.44h.06c.55,0,1-.64,1.1-1.46q0-.09,0-.19c0-.77-.39-1.39-.92-1.44h-.06"/><path class="cls-60" d="M250.15,121a.17.17,0,0,1,.17-.17h.06a.17.17,0,0,1-.06.34h-.06a.17.17,0,0,1-.12-.16m.18-.57a.58.58,0,1,0,.2,0,.58.58,0,0,0-.2,0"/><path class="cls-62" d="M250.32,120.79a.17.17,0,0,0-.06.34h.06a.17.17,0,0,0,.06-.34h-.06"/><path class="cls-62" d="M245.29,118.68h-.12l.1.16h0l.17.36a1.31,1.31,0,0,1-.54.11h-.05l1.16.42a.78.78,0,0,0-.73-1"/><path class="cls-61" d="M245.28,118.84h0l.1.17a1.13,1.13,0,0,1-.77.07l0,.11.31.11h.05a1.31,1.31,0,0,0,.54-.11l-.17-.36"/><path class="cls-62" d="M246.85,119.24a.78.78,0,0,0-.73.52l1.34.48a1.32,1.32,0,0,1-.39-.46l.36-.17v0l.07,0a.78.78,0,0,0-.66-.36"/><path class="cls-61" d="M247.43,119.61l-.36.17a1.32,1.32,0,0,0,.39.46l.12,0a.78.78,0,0,0,0-.15,1.13,1.13,0,0,1-.37-.44l.19-.06v0"/><path class="cls-60" d="M244.64,115a1.15,1.15,0,0,0-.9.74,1.13,1.13,0,0,0-.07.36v0a1.15,1.15,0,0,0,.59,1,.83.83,0,0,1,.29-.06h0a.83.83,0,0,1,.75.46l2.89,1a.83.83,0,0,1,.35-.07h0a.84.84,0,0,1,.52.21.81.81,0,0,1,.16.19h.08a1.15,1.15,0,0,0,1.08-.76,1.13,1.13,0,0,0,.07-.39,1.15,1.15,0,0,0-.49-.94q-.5-.05-1-.15h0a.12.12,0,0,1,0,0,.12.12,0,0,1-.11.08h0l-1.82-.65-.08,0-1.61-.58a.12.12,0,0,1-.08-.11.12.12,0,0,1,0,0h0l-.64-.37"/><path class="cls-61" d="M244.58,117.08h0a.83.83,0,0,0-.29.06l.15.07.19,0a.73.73,0,0,1,.59.31l.13,0a.83.83,0,0,0-.75-.46"/><path class="cls-61" d="M248.56,118.51a.83.83,0,0,0-.35.07l.13,0,.19,0a.73.73,0,0,1,.58.29l.15,0a.81.81,0,0,0-.16-.19.84.84,0,0,0-.52-.21h0"/><path class="cls-60" d="M247,116.13l.08,0-.08,0m1.21-2.32a8.43,8.43,0,0,1-4,.89,13.18,13.18,0,0,0,1.15.68.12.12,0,0,1,.11-.06h0l3.5,1.26a.12.12,0,0,1,.08.1q.49.09,1,.15l.72.06a6.69,6.69,0,0,1-2.55-3.08"/><path class="cls-62" d="M245.39,115.32a.12.12,0,0,0-.11.06h0a.12.12,0,0,0,0,0,.12.12,0,0,0,.08.11l1.61.58,1.9.68h0a.12.12,0,0,0,.11-.08.12.12,0,0,0,0,0h0a.12.12,0,0,0-.08-.1l-3.5-1.26h0"/><path class="cls-60" d="M244.62,117.3h-.06a.67.67,0,0,0-.38.17.77.77,0,0,0-.24.77.9.9,0,0,0,.2.37,1,1,0,0,0,.34.25,1,1,0,0,0,.24.07.78.78,0,0,1,.45-.24l-.15-.25a.54.54,0,0,1-.22,0h0a.52.52,0,0,1-.45-.28.42.42,0,0,1,.09-.51.37.37,0,0,1,.24-.09h0a.32.32,0,0,1,.24.12.27.27,0,0,1,.06.25.25.25,0,0,1-.18.18h0a.2.2,0,0,1-.18-.11.16.16,0,0,1,.07-.21.15.15,0,0,0-.06.21.18.18,0,0,0,.16.09h0a.22.22,0,0,0,.15-.16.23.23,0,0,0-.06-.21.27.27,0,0,0-.2-.09h0a.3.3,0,0,0-.2.09.33.33,0,0,0-.05.41.41.41,0,0,0,.35.21h0a.47.47,0,0,0,.36-.21.51.51,0,0,0,.07-.41.61.61,0,0,0-.22-.32l-.34-.12h0"/><path class="cls-62" d="M245.17,118.69a.78.78,0,0,0-.45.24h.14a.94.94,0,0,0,.41-.09l-.1-.16"/><path class="cls-60" d="M244.65,117.3l.34.12,0,0a.62.62,0,0,0-.32-.1"/><path class="cls-61" d="M244.6,117.19l-.19,0-.12,0a.91.91,0,0,0-.43,1.21,1.14,1.14,0,0,0,1.51.54l-.1-.17a.94.94,0,0,1-.41.09h-.14a1,1,0,0,1-.24-.07,1,1,0,0,1-.34-.25.9.9,0,0,1-.2-.37.77.77,0,0,1,.24-.77.67.67,0,0,1,.38-.17h.09a.62.62,0,0,1,.32.1l0,0a.61.61,0,0,1,.22.32.51.51,0,0,1-.07.41.47.47,0,0,1-.36.21h0a.41.41,0,0,1-.35-.21.33.33,0,0,1,.05-.41.3.3,0,0,1,.2-.09h0a.27.27,0,0,1,.2.09.23.23,0,0,1,.06.21.22.22,0,0,1-.15.16h0a.18.18,0,0,1-.16-.09.15.15,0,0,1,.06-.21.16.16,0,0,0-.07.21.2.2,0,0,0,.18.11h0A.25.25,0,0,0,245,118a.27.27,0,0,0-.06-.25.32.32,0,0,0-.24-.12h0a.37.37,0,0,0-.24.09.42.42,0,0,0-.09.51.52.52,0,0,0,.45.28h0a.54.54,0,0,0,.22,0l0-.06a.58.58,0,0,0,.28-.77l-.06-.11a.73.73,0,0,0-.59-.31"/><path class="cls-60" d="M248.52,118.7a.61.61,0,0,0-.35.11.51.51,0,0,0-.2.36.47.47,0,0,0,.15.39.41.41,0,0,0,.27.1l.14,0a.33.33,0,0,0,.22-.35.3.3,0,0,0-.1-.19.27.27,0,0,0-.17-.06h0a.23.23,0,0,0-.18.12.22.22,0,0,0,0,.22.18.18,0,0,0,.15.07h.06a.15.15,0,0,0,.08-.2.16.16,0,0,1-.08.21l-.08,0a.2.2,0,0,1-.16-.07.25.25,0,0,1,0-.25.27.27,0,0,1,.21-.16h.06a.33.33,0,0,1,.2.07.36.36,0,0,1,.13.23.42.42,0,0,1-.25.45.5.5,0,0,1-.2,0,.52.52,0,0,1-.32-.11.54.54,0,0,1-.15-.19l-.38.13a.78.78,0,0,1,.11.28,1,1,0,0,0,.42.25,1,1,0,0,0,.27,0h.15a.9.9,0,0,0,.39-.16.77.77,0,0,0,.3-.75.67.67,0,0,0-.18-.38l-.07-.06-.34-.12h0"/><path class="cls-62" d="M247.5,119.6l-.07,0a.93.93,0,0,0,.18.26.78.78,0,0,0-.11-.28"/><path class="cls-60" d="M248.55,118.7l.34.12a.62.62,0,0,0-.31-.12h0"/><path class="cls-61" d="M248.54,118.61l-.19,0-.12,0a.58.58,0,0,0-.28.77l-.06,0a.54.54,0,0,0,.15.19.52.52,0,0,0,.32.11.5.5,0,0,0,.2,0,.42.42,0,0,0,.25-.45.36.36,0,0,0-.13-.23.33.33,0,0,0-.2-.07h-.06a.27.27,0,0,0-.21.16.25.25,0,0,0,0,.25.2.2,0,0,0,.16.07l.08,0a.16.16,0,0,0,.08-.21.15.15,0,0,1-.08.2h-.06a.18.18,0,0,1-.15-.07.22.22,0,0,1,0-.22.23.23,0,0,1,.18-.12h0a.27.27,0,0,1,.17.06.3.3,0,0,1,.1.19.33.33,0,0,1-.22.35l-.14,0a.41.41,0,0,1-.27-.1.47.47,0,0,1-.15-.39.51.51,0,0,1,.2-.36.61.61,0,0,1,.35-.11h.06a.62.62,0,0,1,.31.12l.07.06a.67.67,0,0,1,.18.38.77.77,0,0,1-.3.75.9.9,0,0,1-.39.16h-.15a1,1,0,0,1-.27,0,1,1,0,0,1-.42-.25.93.93,0,0,1-.18-.26l-.19.06a1.14,1.14,0,0,0,1.51.54.91.91,0,0,0,.43-1.21l-.08-.13a.73.73,0,0,0-.58-.29"/><path class="cls-61" d="M250,123.21a.54.54,0,1,0,1,.36l-1-.36"/><path class="cls-61" d="M249.71,124a.54.54,0,1,0,1,.36l-1-.36"/><path class="cls-61" d="M249.44,124.71a.54.54,0,1,0,1,.36l-1-.36"/><path class="cls-61" d="M239.94,119.6a.54.54,0,1,0,1,.36l-1-.36"/><path class="cls-61" d="M239.67,120.35a.54.54,0,1,0,1,.36l-1-.36"/><path class="cls-61" d="M239.4,121.1a.54.54,0,1,0,1,.36l-1-.36"/><path class="cls-61" d="M240.57,124.36a1.59,1.59,0,0,0-1.49,1l-1.07,3a1.57,1.57,0,0,0-.09.53,1.59,1.59,0,0,0,1,1.49l.39.14,2.09-5.82a.45.45,0,0,1,.08-.13l-.42-.15a1.56,1.56,0,0,0-.53-.09"/><path class="cls-61" d="M242.32,124.89a.45.45,0,0,1,0,.15l-2.09,5.82.61.22,2.09-5.82a.45.45,0,0,1,.08-.13l-.66-.24"/><path class="cls-61" d="M243.79,125.42a.45.45,0,0,1,0,.15l-2.09,5.82.61.22,2.09-5.82a.45.45,0,0,1,.08-.13l-.66-.24"/><path class="cls-61" d="M245.26,125.95a.45.45,0,0,1,0,.15l-2.09,5.82.61.22,2.09-5.82a.45.45,0,0,1,.08-.13l-.66-.24"/><path class="cls-61" d="M246.73,126.47a.45.45,0,0,1,0,.15l-2.09,5.82.49.18a1.57,1.57,0,0,0,.53.09,1.59,1.59,0,0,0,1.49-1l1.07-3a1.57,1.57,0,0,0,.09-.53,1.59,1.59,0,0,0-1-1.49l-.52-.19"/><path class="cls-60" d="M241.87,124.44a.46.46,0,0,0-.35.17.45.45,0,0,0-.08.13l-2.09,5.82-.11.31a.45.45,0,0,0,0,.15.46.46,0,0,0,.29.43h0l.15,0a.46.46,0,0,0,.43-.3l2.2-6.12a.45.45,0,0,0-.27-.58l-.15,0"/><path class="cls-60" d="M243.34,125a.46.46,0,0,0-.35.17.45.45,0,0,0-.08.13l-2.09,5.82-.11.31a.45.45,0,0,0,.27.58h0l.15,0a.46.46,0,0,0,.43-.3l2.2-6.12a.45.45,0,0,0-.27-.58l-.15,0"/><path class="cls-60" d="M244.81,125.49a.46.46,0,0,0-.35.17.45.45,0,0,0-.08.13l-2.09,5.82-.11.31a.45.45,0,0,0,.27.58h0l.15,0a.46.46,0,0,0,.43-.3l2.2-6.12a.45.45,0,0,0-.27-.58l-.15,0"/><path class="cls-60" d="M246.28,126a.46.46,0,0,0-.35.17.45.45,0,0,0-.08.13l-2.09,5.82-.11.31a.45.45,0,0,0,.27.58h0l.15,0a.46.46,0,0,0,.43-.3l2.2-6.12a.45.45,0,0,0-.27-.58l-.15,0"/><path class="cls-60" d="M237.11,125.17a.88.88,0,0,0-.83.58l-.79,2.2a.87.87,0,0,0-.05.3.88.88,0,0,0,.58.83.87.87,0,0,0,.3.05h.1a.89.89,0,0,0,.65-.41l-1.05-.38a.19.19,0,0,1-.12-.18.18.18,0,0,1,0-.06.19.19,0,0,1,.18-.12h.06l1.07.38.15-.4-1.07-.38a.19.19,0,0,1-.12-.18.18.18,0,0,1,0-.06.19.19,0,0,1,.18-.12h.06l1.07.38.15-.4-1.07-.38a.19.19,0,0,1-.12-.18.18.18,0,0,1,0-.06.19.19,0,0,1,.18-.12h.06l1.07.38.15-.4-1.07-.38a.19.19,0,0,1-.12-.18.18.18,0,0,1,0-.06.19.19,0,0,1,.18-.12h.06l1,.37v0a.89.89,0,0,0-.3-.67.88.88,0,0,0-.57-.22"/><path class="cls-62" d="M236.88,125.72a.19.19,0,0,0-.18.12.18.18,0,0,0,0,.06.19.19,0,0,0,.12.18l1.19.43.13-.35-1.19-.43h-.06"/><path class="cls-62" d="M236.61,126.47a.19.19,0,0,0-.18.12.18.18,0,0,0,0,.06.19.19,0,0,0,.12.18l1.19.43.13-.35-1.19-.43h-.06"/><path class="cls-62" d="M236.34,127.22a.19.19,0,0,0-.18.12.18.18,0,0,0,0,.06.19.19,0,0,0,.12.18l1.19.43.13-.35-1.19-.43h-.06"/><path class="cls-62" d="M236.07,128a.19.19,0,0,0-.18.12.18.18,0,0,0,0,.06.19.19,0,0,0,.12.18l1.19.43.13-.35-1.19-.43h-.06"/><path class="cls-60" d="M249.22,129.52h-.07a.89.89,0,0,0-.64.35l1,.37a.19.19,0,0,1,.12.18.18.18,0,0,1,0,.06.19.19,0,0,1-.18.12h-.06l-1.07-.38-.15.4,1.07.38a.19.19,0,0,1,.12.18.18.18,0,0,1,0,.06.19.19,0,0,1-.18.12h-.06l-1.07-.38-.15.4,1.07.38a.19.19,0,0,1,.12.18.18.18,0,0,1,0,.06.19.19,0,0,1-.18.12h-.06l-1.07-.38-.15.4,1.07.38a.19.19,0,0,1,.12.18.18.18,0,0,1,0,.06.19.19,0,0,1-.18.12h-.06l-1.05-.38a.87.87,0,0,0,0,.12.88.88,0,0,0,.58.83.87.87,0,0,0,.3.05.88.88,0,0,0,.83-.58l.79-2.2a.87.87,0,0,0,.05-.3.88.88,0,0,0-.58-.83.87.87,0,0,0-.3-.05"/><path class="cls-62" d="M248.35,129.82l-.13.35,1.19.43h.06a.19.19,0,0,0,.18-.12.18.18,0,0,0,0-.06.19.19,0,0,0-.12-.18l-1-.37-.16-.06"/><path class="cls-62" d="M248.08,130.58l-.13.35,1.19.43h.06a.19.19,0,0,0,.18-.12.18.18,0,0,0,0-.06.19.19,0,0,0-.12-.18l-1.07-.38-.12,0"/><path class="cls-62" d="M247.81,131.33l-.13.35,1.19.43h.06a.19.19,0,0,0,.18-.12.18.18,0,0,0,0-.06.19.19,0,0,0-.12-.18l-1.07-.38-.12,0"/><path class="cls-62" d="M247.54,132.09l-.13.35,1.19.43h.06a.19.19,0,0,0,.18-.12.18.18,0,0,0,0-.06.19.19,0,0,0-.12-.18l-1.07-.38-.12,0"/><polyline class="cls-62" points="240.85 133.69 238.74 139.57 239.46 139.83 241.57 133.95 240.85 133.69"/><path class="cls-62" d="M235.76,135.89a2.69,2.69,0,0,0-1.68.59.72.72,0,0,1-.68,1.25l1.38.5a.72.72,0,1,1,.25,0,.72.72,0,0,1-.25,0l1.38.5a.72.72,0,1,1,.26,0,.72.72,0,0,1-.26,0l1.38.49a.72.72,0,1,1,.82-1.12,2.69,2.69,0,0,0-2.64-2.22"/><path class="cls-62" d="M233.24,137.64v0l.16.06-.15-.08"/><path class="cls-62" d="M238.41,139a.72.72,0,0,1-.82.25l.69.25a2.7,2.7,0,0,0,.13-.5"/><path class="cls-62" d="M242.09,138.16a2.69,2.69,0,0,0-2.53,1.78l.85.31a.72.72,0,1,1,.25,0,.72.72,0,0,1-.25,0l1.38.5a.72.72,0,1,1,.25,0,.72.72,0,0,1-.25,0l1.38.5a.72.72,0,1,1,.25,0,.72.72,0,0,1-.25,0l1.39.5a.72.72,0,0,1,.12-1.39,2.69,2.69,0,0,0-2.64-2.2"/><polyline class="cls-62" points="237.73 133.09 236.3 134.03 238.23 134.72 237.73 133.09"/><polyline class="cls-62" points="244.06 135.37 242.63 136.3 244.56 136.99 244.06 135.37"/><path class="cls-60" d="M233.64,136.32a.72.72,0,0,0-.25,1.4h0a.72.72,0,0,0,.48-1.36l-.12,0h-.12"/><path class="cls-60" d="M235,136.82a.72.72,0,0,0-.25,1.4h0a.72.72,0,1,0,.24-1.4"/><path class="cls-60" d="M236.44,137.33a.72.72,0,0,0-.26,1.4h0a.72.72,0,1,0,.23-1.41"/><path class="cls-60" d="M237.83,137.83a.72.72,0,0,0-.25,1.4h0a.72.72,0,1,0,.24-1.4"/><path class="cls-60" d="M240.67,138.85a.72.72,0,0,0-.25,1.4h0a.72.72,0,1,0,.24-1.4"/><path class="cls-60" d="M242.06,139.35a.72.72,0,0,0-.25,1.4h0a.72.72,0,1,0,.24-1.41"/><path class="cls-60" d="M243.46,139.85a.72.72,0,0,0-.25,1.4h0a.72.72,0,1,0,.24-1.4"/><path class="cls-60" d="M244.86,140.35h-.13a.72.72,0,1,0,.13,0"/><rect class="cls-6" x="223.78" y="136.38" width="32.1" height="14.46"/><polygon class="cls-6" points="234.36 136.92 236.43 136.92 235.39 135.02 234.36 136.92"/><polygon class="cls-6" points="235.9 136.92 237.97 136.92 236.93 135.02 235.9 136.92"/><polygon class="cls-6" points="237.44 136.92 239.51 136.92 238.47 135.02 237.44 136.92"/><polygon class="cls-6" points="243.52 136.92 245.59 136.92 244.56 135.02 243.52 136.92"/><polyline class="cls-6" points="231.11 136.29 253.05 136.29 253.05 149.57"/><path class="cls-10" d="M198.22,112.55a.68.68,0,0,0-1.31-.33,14,14,0,0,0,.14,2.21A14.05,14.05,0,0,0,198.22,112.55Z"/><path class="cls-10" d="M201.45,109.14a.68.68,0,1,0-1.1.79,14,14,0,0,0,1.78,1.31A14,14,0,0,0,201.45,109.14Z"/><path class="cls-10" d="M202.41,120.24a.68.68,0,0,0-.63-1.2,14.06,14.06,0,0,0-1.55,1.58A14.06,14.06,0,0,0,202.41,120.24Z"/><path class="cls-21" d="M192.52,137.69c-3.63,0-6.57.76-6.57,1.7s2.94,1.7,6.57,1.7,6.57-.76,6.57-1.7-2.94-1.7-6.57-1.7"/><polygon class="cls-15" points="196.55 128.9 195.48 129.49 197.36 131.67 196.55 128.9"/><polygon class="cls-15" points="192.68 131.01 191.61 131.59 193.49 133.77 192.68 131.01"/><rect class="cls-10" x="185.76" y="116.87" width="9.79" height="14.88" rx="1.75" ry="1.75" transform="translate(-36.23 106.2) rotate(-28.54)"/><rect class="cls-19" x="185.98" y="114.77" width="1.61" height="4.75" rx="0.6" ry="0.6" transform="translate(-33.27 103.48) rotate(-28.54)"/><path class="cls-15" d="M188.71,123.7c.39.71,2.76,2,2.76,2s.2-2.7-.18-3.41a1.47,1.47,0,1,0-2.58,1.4Z"/><circle class="cls-30" cx="192.21" cy="119.44" r="0.29" transform="translate(-33.71 106.39) rotate(-28.55)"/><circle class="cls-30" cx="185.84" cy="122.91" r="0.29" transform="translate(-36.14 103.71) rotate(-28.54)"/><path class="cls-10" d="M195.09,118.56l1,.68.63-.94,1.09.83.88-1.22h.06c.82,5.36-4.93,8.86-5.17,9l-1.91-3.19S195.45,121.39,195.09,118.56Z"/><path class="cls-10" d="M182.66,125.32l0,1.21-1.13,0,.11,1.37-1.5.08,0,0c4.05,3.6,10.12.68,10.38.55l-1.64-3.34S184.84,127.15,182.66,125.32Z"/><path class="cls-10" d="M203.15,102.54a.68.68,0,1,0,.91,1,14,14,0,0,0,1.11-1.92A14.06,14.06,0,0,0,203.15,102.54Z"/><path class="cls-30" d="M75.7,56.72s.1,43-17.47,47.88c0,0,14.28-10.22,9.19-47.88"/><rect class="cls-30" x="21.02" y="21.31" width="159.57" height="43.33" rx="14.96" ry="14.96"/><polygon class="cls-15" points="40.98 40.16 40.98 36.64 37.81 36.64 37.81 40.16 36.81 40.16 36.81 32.89 37.81 32.89 37.81 35.8 40.98 35.8 40.98 32.89 41.97 32.89 41.97 40.16 40.98 40.16"/><path class="cls-15" d="M47.86,37.59H44A1.92,1.92,0,0,0,44.54,39a1.6,1.6,0,0,0,1.16.44A2,2,0,0,0,47.05,39l.4.68a1.77,1.77,0,0,1-.67.38,3.63,3.63,0,0,1-1.26.21,2.35,2.35,0,0,1-1.7-.68,2.66,2.66,0,0,1-.78-2,2.84,2.84,0,0,1,.8-2.11,2.32,2.32,0,0,1,1.69-.71,2.42,2.42,0,0,1,1.78.64A2.19,2.19,0,0,1,47.94,37,2.11,2.11,0,0,1,47.86,37.59Zm-2.29-2.05a1.49,1.49,0,0,0-1.52,1.37H47a1.34,1.34,0,0,0-.36-1A1.39,1.39,0,0,0,45.57,35.54Z"/><path class="cls-15" d="M49,38.65v-6h.94v5.83a.91.91,0,0,0,.25.67.87.87,0,0,0,.64.25v.84Q49,40.25,49,38.65Z"/><path class="cls-15" d="M52,38.65v-6h.94v5.83a.91.91,0,0,0,.25.67.87.87,0,0,0,.64.25v.84Q52,40.25,52,38.65Z"/><path class="cls-15" d="M54.57,37.49a2.91,2.91,0,0,1,.66-2,2.45,2.45,0,0,1,3.51,0,3.52,3.52,0,0,1,0,4,2.46,2.46,0,0,1-3.53,0A3,3,0,0,1,54.57,37.49Zm1,0q0,2,1.41,2a1.19,1.19,0,0,0,1-.54,2.52,2.52,0,0,0,.37-1.46q0-2-1.41-2a1.21,1.21,0,0,0-1,.53A2.41,2.41,0,0,0,55.57,37.49Z"/><path class="cls-15" d="M60.81,42l-.25-.36q.85-.7.85-1.19a.77.77,0,0,0-.15-.44.64.64,0,0,1-.43-.59A.54.54,0,0,1,61,39a.76.76,0,0,1,.51-.17A.65.65,0,0,1,62,39a.8.8,0,0,1,.22.56A2.53,2.53,0,0,1,62,40.76,4,4,0,0,1,60.81,42Z"/><rect class="cls-15" x="67.41" y="32.89" width="0.99" height="7.27"/><path class="cls-15" d="M76.05,39.54a2.08,2.08,0,0,1-1.73.71,1.49,1.49,0,0,1-1.08-.45,1.52,1.52,0,0,1-.46-1.13,1.68,1.68,0,0,1,.71-1.37,2.82,2.82,0,0,1,1.8-.56,2.11,2.11,0,0,1,.67.13q0-1.29-1.15-1.29a1.84,1.84,0,0,0-1.36.48l-.4-.79a2.33,2.33,0,0,1,.74-.37,2.89,2.89,0,0,1,.91-.16,1.89,1.89,0,0,1,2.2,2.2v1.91a1,1,0,0,0,.42.93v.47a1.78,1.78,0,0,1-.86-.16A.92.92,0,0,1,76.05,39.54Zm-.09-2a3.41,3.41,0,0,0-.63-.1,1.79,1.79,0,0,0-1.17.37,1.09,1.09,0,0,0-.45.87q0,.83,1,.83A1.6,1.6,0,0,0,76,38.83Z"/><path class="cls-15" d="M84.54,40.15V36.79q0-1.25-1.09-1.26a1.09,1.09,0,0,0-.64.21,1.11,1.11,0,0,0-.41.48v3.93h-.94V36.38a.74.74,0,0,0-.3-.62,1.25,1.25,0,0,0-.78-.23,1.08,1.08,0,0,0-.6.22,1.33,1.33,0,0,0-.45.48v3.92h-.94V34.84H79l.31.62a1.65,1.65,0,0,1,1.36-.71,1.75,1.75,0,0,1,1.6.71,1.22,1.22,0,0,1,.59-.51,2.06,2.06,0,0,1,.89-.2,1.65,1.65,0,0,1,1.27.49,2,2,0,0,1,.45,1.37v3.55Z"/><polygon class="cls-15" points="95.43 40.16 94.57 35.49 92.98 40.25 92.73 40.25 91.1 35.49 90.25 40.16 89.31 40.16 90.67 32.89 91.12 32.89 92.86 38.19 94.45 32.89 94.9 32.89 96.37 40.16 95.43 40.16"/><path class="cls-15" d="M100.09,39.54a2.08,2.08,0,0,1-1.73.71,1.49,1.49,0,0,1-1.08-.45,1.52,1.52,0,0,1-.46-1.13,1.68,1.68,0,0,1,.71-1.37,2.82,2.82,0,0,1,1.8-.56,2.11,2.11,0,0,1,.67.13q0-1.29-1.15-1.29a1.84,1.84,0,0,0-1.36.48l-.4-.79a2.33,2.33,0,0,1,.74-.37,2.89,2.89,0,0,1,.91-.16,1.89,1.89,0,0,1,2.2,2.2v1.91a1,1,0,0,0,.42.93v.47a1.78,1.78,0,0,1-.86-.16A.92.92,0,0,1,100.09,39.54Zm-.09-2a3.41,3.41,0,0,0-.63-.1,1.79,1.79,0,0,0-1.17.37,1.09,1.09,0,0,0-.45.87q0,.83,1,.83a1.6,1.6,0,0,0,1.26-.68Z"/><path class="cls-15" d="M102.08,39.84l.33-.89a2.56,2.56,0,0,0,1.27.52q.87,0,.87-.73,0-.53-.84-.9a6.88,6.88,0,0,1-.88-.45,1.94,1.94,0,0,1-.39-.35,1.39,1.39,0,0,1-.25-.42,1.35,1.35,0,0,1-.08-.47,1.22,1.22,0,0,1,.48-1,2,2,0,0,1,1.25-.37,4,4,0,0,1,1.46.37L105,36a1.81,1.81,0,0,0-1.13-.45,1,1,0,0,0-.57.16.47.47,0,0,0-.23.4.84.84,0,0,0,.58.77l.67.31a2.37,2.37,0,0,1,.9.64,1.43,1.43,0,0,1,.28.91,1.36,1.36,0,0,1-.5,1.12,2.15,2.15,0,0,1-1.39.4A3.16,3.16,0,0,1,102.08,39.84Z"/><path class="cls-15" d="M106.88,35.59h-.62v-.74h.62V33.73l.94-.36v1.47h1.46v.74h-1.46v2.64a1.55,1.55,0,0,0,.23,1,.88.88,0,0,0,.73.28,1.74,1.74,0,0,0,.75-.18l.14.83a5.21,5.21,0,0,1-1.28.15,1.39,1.39,0,0,1-1.06-.47,1.67,1.67,0,0,1-.43-1.18Z"/><path class="cls-15" d="M115,37.59h-3.83a1.92,1.92,0,0,0,.51,1.43,1.6,1.6,0,0,0,1.16.44,2,2,0,0,0,1.35-.47l.4.68A1.77,1.77,0,0,1,114,40a3.63,3.63,0,0,1-1.26.21,2.35,2.35,0,0,1-1.7-.68,2.66,2.66,0,0,1-.78-2,2.84,2.84,0,0,1,.8-2.11,2.32,2.32,0,0,1,1.69-.71,2.42,2.42,0,0,1,1.78.64,2.19,2.19,0,0,1,.62,1.63A2.11,2.11,0,0,1,115,37.59Zm-2.29-2.05a1.49,1.49,0,0,0-1.52,1.37h2.94a1.34,1.34,0,0,0-.36-1A1.39,1.39,0,0,0,112.76,35.54Z"/><path class="cls-15" d="M119,35.75a1.08,1.08,0,0,0-.62-.21,1.1,1.1,0,0,0-.88.46,1.71,1.71,0,0,0-.37,1.11v3h-.94V34.84h.94v.85a1.65,1.65,0,0,1,1.53-.95,4.27,4.27,0,0,1,.73.09Z"/><path class="cls-10" d="M130.08,41.66a5,5,0,0,1-.66,0,3.86,3.86,0,0,1-1.7-.37,2.88,2.88,0,0,1-1.21-1,3.54,3.54,0,0,1-.59,0,2.68,2.68,0,0,1-2.25-1.07,4.41,4.41,0,0,1-.82-2.76,4.17,4.17,0,0,1,.84-2.66,2.7,2.7,0,0,1,2.24-1.06,3,3,0,0,1,2.42,1,4.06,4.06,0,0,1,.85,2.74q0,2.6-1.71,3.48a2.33,2.33,0,0,0,1.8.6,2.86,2.86,0,0,0,.8-.1Zm-5.9-5.17a3.69,3.69,0,0,0,.46,1.91,1.42,1.42,0,0,0,1.28.77,1.65,1.65,0,0,0,1.44-.7,3.42,3.42,0,0,0,.49-2q0-2.57-1.93-2.57a1.44,1.44,0,0,0-1.29.69A3.47,3.47,0,0,0,124.19,36.48Z"/><polygon class="cls-10" points="136.26 40.25 135.72 40.25 134.14 35.67 132.59 40.25 132.06 40.25 129.68 32.89 131.02 32.89 132.39 37.27 133.86 32.89 134.43 32.89 135.9 37.27 137.26 32.89 138.61 32.89 136.26 40.25"/><polygon class="cls-10" points="140.67 34.03 140.67 35.73 143.07 35.73 143.07 36.83 140.67 36.83 140.67 39.01 143.96 39.01 143.96 40.16 139.38 40.16 139.38 32.89 144.01 32.89 144.01 34.03 140.67 34.03"/><path class="cls-10" d="M149.25,40.15l-1.94-3-.82,0v3h-1.34V32.89l.84,0,1.18,0q2.77,0,2.77,2.14a2,2,0,0,1-.38,1.18,2.06,2.06,0,0,1-1,.75l2.15,3.27ZM146.49,34v2l.55,0a2.35,2.35,0,0,0,1.18-.23,1,1,0,0,0,.37-.89.77.77,0,0,0-.4-.75,2.83,2.83,0,0,0-1.26-.21Z"/><polygon class="cls-10" points="153.91 34.03 153.91 40.16 152.62 40.16 152.62 34.03 150.31 34.03 150.31 32.89 156.32 32.89 156.32 34.03 153.91 34.03"/><polygon class="cls-10" points="160.19 37.17 160.19 40.16 158.9 40.16 158.9 37.17 156.45 32.89 157.81 32.89 159.54 35.99 161.26 32.89 162.63 32.89 160.19 37.17"/><polygon class="cls-10" points="38.1 46.23 38.1 47.93 40.51 47.93 40.51 49.02 38.1 49.02 38.1 51.2 41.4 51.2 41.4 52.35 36.81 52.35 36.81 45.08 41.45 45.08 41.45 46.23 38.1 46.23"/><polygon class="cls-10" points="47.36 52.45 43.83 47.85 43.83 52.35 42.59 52.35 42.59 45.08 43.21 45.08 46.65 49.46 46.65 45.08 47.89 45.08 47.89 52.45 47.36 52.45"/><polygon class="cls-10" points="52.33 46.23 52.33 52.35 51.04 52.35 51.04 46.23 48.73 46.23 48.73 45.08 54.75 45.08 54.75 46.23 52.33 46.23"/><polygon class="cls-10" points="56.88 46.23 56.88 47.93 59.28 47.93 59.28 49.02 56.88 49.02 56.88 51.2 60.17 51.2 60.17 52.35 55.59 52.35 55.59 45.08 60.23 45.08 60.23 46.23 56.88 46.23"/><path class="cls-10" d="M65.47,52.35l-1.94-3-.82,0v3H61.37V45.08l.84,0,1.18,0q2.77,0,2.77,2.14a2,2,0,0,1-.38,1.18,2.06,2.06,0,0,1-1,.75L67,52.35ZM62.71,46.2v2l.55,0A2.35,2.35,0,0,0,64.44,48a1,1,0,0,0,.37-.89.77.77,0,0,0-.4-.75,2.83,2.83,0,0,0-1.26-.21Z"/><path class="cls-15" d="M73.56,51.74a2.08,2.08,0,0,1-1.73.71A1.49,1.49,0,0,1,70.75,52a1.52,1.52,0,0,1-.46-1.13A1.68,1.68,0,0,1,71,49.5a2.82,2.82,0,0,1,1.8-.56,2.12,2.12,0,0,1,.67.13q0-1.29-1.15-1.29a1.84,1.84,0,0,0-1.36.48l-.4-.79a2.32,2.32,0,0,1,.74-.37,2.88,2.88,0,0,1,.91-.16,1.89,1.89,0,0,1,2.2,2.2V51a1,1,0,0,0,.42.93v.47a1.78,1.78,0,0,1-.86-.16A.92.92,0,0,1,73.56,51.74Zm-.09-2a3.41,3.41,0,0,0-.63-.1,1.79,1.79,0,0,0-1.17.37,1.09,1.09,0,0,0-.45.87q0,.83,1,.83A1.6,1.6,0,0,0,73.47,51Z"/><path class="cls-15" d="M79.17,52.35V49.26a2.05,2.05,0,0,0-.26-1.19,1,1,0,0,0-.86-.34,1.41,1.41,0,0,0-.67.19,1.5,1.5,0,0,0-.54.48v3.95H75.9V47h.64l.3.68a1.63,1.63,0,0,1,1.52-.78q1.75,0,1.75,2.12v3.29Z"/><path class="cls-15" d="M84.82,52.34v-.39a1.94,1.94,0,0,1-1.43.49,2,2,0,0,1-1.62-.71,2.8,2.8,0,0,1-.62-1.9,3.06,3.06,0,0,1,.71-2,2.16,2.16,0,0,1,1.7-.85,1.8,1.8,0,0,1,1.25.39V44.86h.94v7.49Zm0-4.08a1.12,1.12,0,0,0-1-.54,1.52,1.52,0,0,0-1.23.57,2.18,2.18,0,0,0-.47,1.44q0,1.92,1.75,1.92a1.34,1.34,0,0,0,.54-.14.78.78,0,0,0,.39-.3Z"/><rect class="cls-15" x="90.42" y="45.08" width="0.99" height="7.27"/><polygon class="cls-15" points="100.97 52.45 100.72 52.45 99.17 48.83 97.61 52.45 97.36 52.45 95.46 47.02 96.47 47.02 97.61 50.51 99.02 47.02 99.27 47.02 100.73 50.51 101.95 47.02 102.88 47.02 100.97 52.45"/><path class="cls-15" d="M104.08,52.35V47.83h-.73V47H105v5.31Zm.52-7.32a.58.58,0,1,1-.41.17A.56.56,0,0,1,104.59,45Z"/><path class="cls-15" d="M106.59,50.84v-6h.94v5.83a.91.91,0,0,0,.25.67.87.87,0,0,0,.64.25v.84Q106.59,52.45,106.59,50.84Z"/><path class="cls-15" d="M109.59,50.84v-6h.94v5.83a.91.91,0,0,0,.25.67.87.87,0,0,0,.64.25v.84Q109.59,52.45,109.59,50.84Z"/><path class="cls-15" d="M115.91,47.78h-.62V47h.62V45.92l.94-.36V47h1.46v.74h-1.46v2.64a1.55,1.55,0,0,0,.23,1,.88.88,0,0,0,.73.28,1.75,1.75,0,0,0,.75-.18l.14.83a5.21,5.21,0,0,1-1.28.15,1.39,1.39,0,0,1-1.06-.47,1.67,1.67,0,0,1-.43-1.18Z"/><path class="cls-15" d="M124.07,49.78h-3.83a1.92,1.92,0,0,0,.51,1.43,1.6,1.6,0,0,0,1.16.44,2,2,0,0,0,1.35-.47l.4.68a1.77,1.77,0,0,1-.67.38,3.62,3.62,0,0,1-1.26.21,2.35,2.35,0,0,1-1.7-.68,2.66,2.66,0,0,1-.78-2,2.84,2.84,0,0,1,.8-2.11,2.32,2.32,0,0,1,1.69-.71,2.42,2.42,0,0,1,1.78.64,2.19,2.19,0,0,1,.62,1.63A2.11,2.11,0,0,1,124.07,49.78Zm-2.29-2.05a1.49,1.49,0,0,0-1.52,1.37h2.94a1.34,1.34,0,0,0-.36-1A1.39,1.39,0,0,0,121.79,47.73Z"/><path class="cls-15" d="M128.14,51.74a2.08,2.08,0,0,1-1.73.71,1.49,1.49,0,0,1-1.08-.45,1.52,1.52,0,0,1-.46-1.13,1.68,1.68,0,0,1,.71-1.37,2.82,2.82,0,0,1,1.8-.56,2.12,2.12,0,0,1,.67.13q0-1.29-1.15-1.29a1.84,1.84,0,0,0-1.36.48l-.4-.79a2.32,2.32,0,0,1,.74-.37,2.88,2.88,0,0,1,.91-.16,1.89,1.89,0,0,1,2.2,2.2V51a1,1,0,0,0,.42.93v.47a1.78,1.78,0,0,1-.86-.16A.92.92,0,0,1,128.14,51.74Zm-.09-2a3.41,3.41,0,0,0-.63-.1,1.79,1.79,0,0,0-1.17.37,1.09,1.09,0,0,0-.45.87q0,.83,1,.83a1.6,1.6,0,0,0,1.26-.68Z"/><path class="cls-15" d="M134.49,47.46l-.47.66a1.41,1.41,0,0,0-.51-.27,2.15,2.15,0,0,0-.72-.13,1.51,1.51,0,0,0-1.22.54,2.23,2.23,0,0,0-.45,1.48,2,2,0,0,0,.46,1.42,1.67,1.67,0,0,0,1.28.49,2.11,2.11,0,0,0,1.28-.49l.37.79a3.39,3.39,0,0,1-1.88.49,2.4,2.4,0,0,1-1.8-.73,2.71,2.71,0,0,1-.71-2,2.82,2.82,0,0,1,.74-2,2.81,2.81,0,0,1,2.91-.6A2.53,2.53,0,0,1,134.49,47.46Z"/><path class="cls-15" d="M138.78,52.35V49a1.4,1.4,0,0,0-.29-.94,1,1,0,0,0-.82-.34,1.35,1.35,0,0,0-.69.2,1.6,1.6,0,0,0-.53.47v3.95h-.94V44.86h.94v2.76a1.4,1.4,0,0,1,.61-.49,2,2,0,0,1,.87-.2,1.65,1.65,0,0,1,1.32.56,2.25,2.25,0,0,1,.48,1.52v3.34Z"/><path class="cls-15" d="M146.15,53.25a1.63,1.63,0,0,1-.77.84,2.59,2.59,0,0,1-1.31.34v-.84a1.81,1.81,0,0,0,1-.28.8.8,0,0,0,.42-.67,2.51,2.51,0,0,0-.15-.86q-.15-.42-.4-1L143.51,47h1L146,51.14l1.4-4.11h1Z"/><path class="cls-15" d="M148.78,49.68a2.91,2.91,0,0,1,.66-2,2.45,2.45,0,0,1,3.51,0,3.52,3.52,0,0,1,0,4,2.46,2.46,0,0,1-3.53,0A3,3,0,0,1,148.78,49.68Zm1,0q0,2,1.41,2a1.19,1.19,0,0,0,1-.54,2.52,2.52,0,0,0,.37-1.46q0-2-1.41-2a1.21,1.21,0,0,0-1,.53A2.41,2.41,0,0,0,149.77,49.68Z"/><path class="cls-15" d="M155.47,47v3.39q0,1.23,1.07,1.23a1.47,1.47,0,0,0,.85-.27,1.29,1.29,0,0,0,.51-.62V47h.94v5.31h-.94v-.73a1.47,1.47,0,0,1-.64.57,2,2,0,0,1-.94.26,1.73,1.73,0,0,1-1.34-.5,2,2,0,0,1-.46-1.42V47Z"/><path class="cls-15" d="M161.37,51a.75.75,0,0,1,.74.74.73.73,0,0,1-.22.53.74.74,0,0,1-1.05,0,.72.72,0,0,1-.22-.53.75.75,0,0,1,.74-.74Zm.14-.5h-.35a27.14,27.14,0,0,1-.38-3.47v-2h1.12v2A27.55,27.55,0,0,1,161.51,50.45Z"/></svg>