<?xml version="1.0" encoding="utf-8"?>
<!-- Generator: Adobe Illustrator 16.0.0, SVG Export Plug-In . SVG Version: 6.00 Build 0)  -->
<!DOCTYPE svg PUBLIC "-//W3C//DTD SVG 1.1//EN" "http://www.w3.org/Graphics/SVG/1.1/DTD/svg11.dtd">
<svg version="1.1" id="Layer_1" xmlns="http://www.w3.org/2000/svg" xmlns:xlink="http://www.w3.org/1999/xlink" x="0px" y="0px"
	 width="842px" height="595px" viewBox="0 0 842 595" enable-background="new 0 0 842 595" xml:space="preserve">
<g id="Background">
</g>
<g id="Guides">
</g>
<g id="sketch" display="none">
</g>
<g id="black">
</g>
<g id="bg">
</g>
<g>
	<path fill="#F7F7F4" d="M499.766,277.301c0.272-2.454-4.364-3.272-4.638-1.637c-0.273,1.637-1.092,6.001-1.092,6.001
		s-0.817-6.547-0.817-8.183s-3.819-1.636-6.274-1.091c-2.454,0.546-4.364,2.455-4.364,4.637s0.273,11.184,0,15.275
		c-0.272,4.092-0.272,9.001-0.272,10.638s0.272,34.37,0,36.825s1.092,6.82,2.183,7.092c1.091,0.273,1.364-4.637,1.364-4.637
		s2.182,0.546,2.182,2.455c0,1.91,1.909,4.092,1.909,4.092s3.001,0.454,4.092,0.182c1.092-0.272,5.184,0,5.729-1.363
		c0.546-1.364,0.818-5.093,0.818-6.456c0-1.364-0.584-43.634-0.584-46.906C500,290.951,499.493,279.756,499.766,277.301z"/>
	<path fill="#F7F7F4" d="M502.532,236.741c-2.21-0.982-7.61-1.719-9.819-0.491c-1.178,0.654-2.493,1.657-3.683,2.701
		c0,0.115-0.021,0.23-0.059,0.349c-0.56,0.656-1.028,1.358-1.337,2.074c-0.468,0.687-1.009,1.561-1.55,2.732
		c-1.474,3.19-0.982,4.419-0.982,6.628s0.982,4.664,1.228,2.7c0.204-1.624,0.982-4.173,1.479-4.909
		c0.035,0.484,1.022,1.956,0.977,2.455c-0.245,2.7-1.473,5.4,0,6.137c1.474,0.737,4.91,2.319,6.874,2.811
		c1.965,0.489,4.662-1.093,6.626-3.057c1.965-1.964,3.192-6.874,3.684-10.064C506.461,243.615,504.742,237.723,502.532,236.741z"/>
	<path fill="#F7F7F4" d="M216.144,265.606l-2.065-2.438c0,0-1.778,1.155-2.438,2.066c-0.659,0.91-2.646,2.968-2.22,1.612
		c0.426-1.357,1.948-4.307,1.948-4.307l-3.438-3.761c0,0-1.783,0.931-2.433,2.291c-0.651,1.36-3.281,5.227-4.603,6.824
		c-1.32,1.596-4.503,6.381-6.201,8.928c-1.005,1.508-5.197,7.585-6.515,9.406c-1.317,1.82-12.837,17.209-15.033,20.17
		c-0.881,1.188-2.632,3.755-4.499,6.476c-0.045-0.082-0.081-0.149-0.1-0.192c-0.576-1.269-11.285-16.753-13.094-19.222
		c-1.812-2.468-10.007-15.116-10.007-15.116s-6.513-9.282-7.526-10.505c-0.254-0.307-0.644-0.837-1.085-1.458
		c-0.042-3.28-0.069-5.823-1.082-6.142c-1.276-0.401-4.939-0.616-6.635-0.797c-1.696-0.182-0.946,2.951-2.011,2.546
		c-1.064-0.404-1.813-2.683-1.813-2.683s-4.412,0.118-4.609,0.968c-0.196,0.849,0.066,5.458,0.092,6.938
		c0.026,1.48-0.172,14.391-0.172,14.391s-1.312-2.517-1.503-1.243c-0.188,1.272,0.207,11.845,0.01,12.693
		c-0.196,0.851-0.114,41.895,0.135,44.006c0.249,2.112-0.636,12.071,0.014,12.906s5.737,1.381,7.429,1.351
		c1.692-0.029,0.769-4.457,1.589-5.952c0.82-1.496,0.875,1.677,0.905,3.369s0.271,3.381,1.324,3.15
		c1.054-0.23,3.826,0.99,4.223-0.497c0.397-1.488,0.146-3.812,0.798-2.765c0.653,1.046-0.167,2.542,0.898,2.946
		s1.881-1.302,1.881-1.302s-0.204,0.429-0.245-1.897c-0.041-2.325-0.608-34.898-0.624-35.745c-0.011-0.647-0.334-12.06-0.5-18.24
		c2.329,3.686,4.24,6.789,4.553,7.413c0.841,1.684,15.491,25.17,16.506,26.393c1.015,1.222,4.553,7.495,5.083,8.325
		c0.529,0.83,3.043,3.667,3.596,4.716s2.985,5.223,4.23,4.428s5.628-5.464,6.85-6.479c1.222-1.016-1.982-6.214-1.982-6.214
		l1.107-2.11c0,0,3.35,2.703,3.88,3.533s0.253-1.811,0.253-1.811s-1.229-1.927-2.915-4.578c0.072-0.097,0.142-0.183,0.214-0.282
		c1.976-2.732,5.641-7.568,6.298-8.479c0.658-0.911,5.702-8.191,6.581-9.332c0.424-0.55,4.417-6.588,8.582-12.813
		c-0.141,2.832-0.403,5.925-0.377,7.434c0.038,2.159-0.057,9.069-0.008,11.875s0.239,6.316,0.288,9.122s0,9.157,0.077,11.813
		c0.053,1.844,0.692,2.578,0.507,4.309c-0.186,1.731,0.135,5.353,0.158,6.648c0.021,1.295,3.039,3.008,5.197,2.97
		c2.157-0.038,1.979-7.92,2.475-2.97c0.215,2.146,0.559,3.999,2.717,3.962s2.359-0.905,4.317-0.075
		c1.957,0.829,2.866-3.641,2.371-6.115c0,0,0.293-9.043,0.25-11.631c-0.045-2.59-0.461-24.293-0.495-26.235
		c-0.035-1.942-0.431-20.825-0.248-22.771c0.181-1.946,0.206-8.118-0.248-9.405c-0.319-0.904-1.24-1.719-2.06-2.052
		c1.647-3.189,3.084-6.068,3.28-6.374C218.415,266.915,216.144,265.606,216.144,265.606z"/>
	<path fill="#F7F7F4" d="M283.056,291.071c0-1.25-1.75-2-3.5-2s-4.75,0-4.75,0s-0.5,5.75-0.5,7s-2-3-2-4.75s-0.25-2.75-1.5-2.5
		s-4.306-1.096-4.056,0.904s0.75,16,0.5,19.5s-0.194,13.846-2.694,16.846s-8.352,3.546-10.806,0.904
		c-3.25-3.5-3.187-11.503-3.5-17.25c-0.307-5.596-0.25-18.5-0.25-22.5c0-1.521,0.25-9.5-1.5-10.25s-5.194-0.654-5.194-0.654l-3,0.75
		l-1,4.75c0,0-1.5-0.5-1.5-2.25s-1-2.25-2.75-2.25S233,280.975,233,284.725s0.438,34.75,0.5,38c0.25,13,6.556,17.846,12.056,20.846
		s20.75,1.75,23.5,0.5s8.25-5.25,11-10.75s4.25-20.5,3.75-24.75S283.056,292.321,283.056,291.071z"/>
	<path fill="#F7F7F4" d="M324.582,276.872c1.245,0,15.438,0.747,16.931,0.498s2.988-2.983,2.988-4.478s-4.481-1.494-5.479-1.494
		s-1.992-1.743,0-1.743s3.735,0,4.979,0c1.245,0,1.245-4.98,0.249-5.229c-0.996-0.248-4.73-0.746-4.73-0.746
		s3.983,0.249,3.983-1.245s-15.011-0.461-16.505-0.71c-0.514-0.086-4.082-0.201-8.652-0.326c0.012-0.678,0.02-1.14,0.023-1.3
		c0.021-1.244-3.442-2.551-3.459-1.554c-0.007,0.386-0.064,1.517-0.131,2.758c-0.871-0.022-1.755-0.045-2.645-0.068
		c-0.127-1.186-0.221-2.244-0.212-2.743c0.026-1.493-3.721-0.812-5.464-0.842s-5.455-1.341-5.739,0.646
		c-0.071,0.497-0.15,1.444-0.225,2.628c-2.521-0.076-4.38-0.145-4.996-0.201c-2.739-0.249-16.421-0.303-18.475-0.282
		c-3.275,0.032-6.474,0-6.474,1.494s-1.245,5.727-0.498,6.723s5.229,1.743,5.229,1.743s-4.232-0.498-5.229,1.245
		s0.498,2.987,0.498,2.987s2.49,0.249,3.984,0.249s0.499,1.245,2.988,1.245c1.806,0,14.863-0.002,22.763-0.003
		c0.056,11.731-0.169,45.251-0.203,47.155c-0.039,2.241-0.515,15.174-0.334,19.161c0.179,3.988,0.734,6.017,2.967,6.553
		c2.232,0.537,2.407-3.466,2.494-3.207c0.515,1.528,1.172,4.233,2.681,3.985c0.689-0.113,1.354-2.352,1.354-2.352
		s0.576,2.863,1.509,3.089c1.12,0.269,6.414,1.48,6.938-0.004c0.524-1.485,0.378-4.241,0.363-6.495
		c-0.023-3.878-0.184-15.873-0.067-17.629c0.215-3.201,0.021-45.621,0.021-45.621s0.03-1.718,0.073-4.158
		C321.326,276.749,324.078,276.872,324.582,276.872z"/>
	<path fill="#F7F7F4" d="M396.458,327.739c0.078-1.469,0.138-2.853,0.248-3.291c0.24-0.963,0.481-5.058-0.964-5.54
		c-0.424-0.142-1.354-0.198-2.488-0.223c-0.866-2.46-1.54-4.389-1.85-5.318c-1.444-4.335-9.876-31.794-10.598-34.203
		s-2.649-0.723-2.649-0.723l1.687,9.152c0,0-2.65-6.021-3.131-7.226c-0.33-0.822-1.669-0.854-3.022-0.717
		c0.641-1.696,1.069-2.838,1.178-3.127c0.567-1.513,0.24-4.627-1.272-5.195c-1.513-0.566-3.82-1.778-5.018-1.652
		c-1.198,0.127-2.599,2.938-2.599,2.938s0.341-3.668-0.668-4.047c-1.008-0.378-1.666-1.019-2.763,0.065s-1.479,2.29-2.474,4.332
		c-0.997,2.042-12.369,31.742-13.365,33.784s-9.68,24.424-10.891,26.73c-1.21,2.307-3.701,10.993-3.575,12.191
		c0.126,1.196,2.143,1.954,3.416,2.547c1.272,0.593,3.379-0.113,3.379-0.113s-0.594,1.273,1.424,2.03
		c2.017,0.757,4.501-0.958,5.384-1.777c0.452-0.42,3.807-8.899,7.4-17.962c6.614,0.428,16.553,1.038,19.373,1.038
		c2.14,0,6.391,0.234,10.323,0.473c2.282,7.062,4.595,14.177,4.851,14.942c0.868,2.595,2.167,0.48,2.167,0.48
		s2.409,1.928,4.095,1.445s2.03-2.797,2.03-2.797s1.608,3.465,4.455,2.599c2.276-0.692,2.097-2.997,1.855-3.96
		C402.26,344.078,399.299,335.747,396.458,327.739z M368.524,317.222c-1.444-0.16-6.407,0-10.063,0.125
		c1.437-3.533,2.652-6.429,3.391-7.97c1.561-3.258,4.592-10.876,7.339-17.965c0.778,2.232,1.404,4.187,1.5,4.854
		c0.241,1.686,7.133,19.536,7.708,21.437c0.009,0.03,0.022,0.073,0.033,0.106C374.32,317.566,369.733,317.357,368.524,317.222z"/>
	<path fill="#F7F7F4" d="M471.271,337.173c0,0,0.698-2.095-0.233-2.792c-0.931-0.697-13.553-0.466-16.576-0.232
		c-1.588,0.123-10.131-0.14-18.154-0.384c5.686-8.642,12.88-19.563,13.992-21.265c1.746-2.674,9.146-15.331,13.142-22.387
		c2.486,0,4.557,0,4.557,0s1-4.5-0.25-4.5c-0.446,0-1.085-0.128-1.721-0.292c0.101-0.303,0.112-0.623,0.06-0.946
		c1.095-0.225,2.161-0.66,2.161-1.512c0-1.75,0.25-4.5-0.25-5.75s-12.497-1.889-15.747-1.889s-39.612-0.86-42.612-0.86
		s-5.249-0.25-5.5,0.75c-0.25,1,2.75,2,2.75,2l-3,0.5c0,0-0.5,2.25-0.25,3.75s4.986,1.487,4.986,1.487s-4.75,0.125-4.75,1.625
		c0,1.499,0.514,3.387,2.264,3.887s14.616,0.25,21.865,0.25c3.426,0,10.367,0.335,17.08,0.688
		c-5.793,8.152-12.926,18.776-13.996,20.216c-1.746,2.348-12.807,18.953-13.405,20.469c-0.599,1.517,1.895-0.654,3.041-1.486
		c1.146-0.831,9.582-10.35,9.582-10.35s-0.272,2.463-2.459,5.337c-1.469,1.93-4.557,6.63-6.759,9.988
		c-1.91,0.207-5.242,0.227-8.585,0.674c-3.49,0.465-4.42,0.465-4.653,2.326s0.465,3.257,0.465,3.257l6.979,0.698
		c0,0-4.652,0.231-5.118,1.86c-0.466,1.63,0.465,5.468,0.465,5.468s3.481,0.276,6.281,0.349c4.535,0.116,24.076,0.232,27.799,0.232
		c3.722,0,22.455-0.233,23.851-0.698c1.396-0.465,0-4.42,0-4.42s1.163-0.931,2.326-0.931s1.306-0.931,1.771-2.326
		C473.132,338.568,471.271,337.173,471.271,337.173z"/>
	<path fill="#F7F7F4" d="M643.774,261.918c-1.469-0.024-1.494,1.443-1.494,1.443s-0.81-1.693-1.854-1.921
		c-1.045-0.229-1.202-0.898-2.688,0.125c-1.486,1.022-1.718,2.277-1.718,2.277s-0.169-2.311-1.214-2.538
		c-1.045-0.229-3.374,0.989-3.407,2.878c-0.033,1.887,0.042,6.702-0.024,10.483c-0.12,6.921-0.28,30.068-0.357,34.473
		c-0.002,0.107-0.004,0.234-0.006,0.363c-6.203-8.905-13.641-19.624-15.499-22.331c-1.688-2.458-13.755-19.626-14.7-20.808
		c-0.714-0.891-1.786-1.434-2.604-1.346c-0.003-1.335-0.046-2.271-0.558-2.655c-0.839-0.629-1.468,2.517-1.468,2.517l-0.419-2.517
		c0,0-1.259-0.838-2.309-0.629c-1.049,0.21-1.468,4.497-1.468,4.497l-0.839-4.287c0,0-3.986-0.21-5.874,0.419
		c-1.888,0.63-1.258,2.727-1.049,4.615c0.21,1.888-0.209,28.318,0,33.773c0.21,5.453,0.373,42.977,0.373,44.654
		c0,1.679,3.4,3.589,3.463,1.899c0.09-2.479,0.555-3.317,0.555-3.317l0.931,4.149c0,0,2.894,1.351,5.201,1.351
		s4.852-0.99,4.824-2.517c-0.05-2.807-0.486-20.808-0.663-24.614c-0.084-1.808-0.42-21.376-0.464-31.968
		c7.342,9.988,17.39,23.572,19.485,26.306c2.198,2.866,8.212,12.093,12.64,18.585c-0.044,2.539-0.077,4.506-0.093,5.391
		c-0.066,3.774,0.729,6.307,0.972,4.423c0.202-1.567,0.6-6.02,0.728-7.479c0.048,0.068,0.096,0.137,0.143,0.204l0.79,5.383
		l0.335,4.831c0,0,2.079,1.086,2.518,0.044c0.438-1.041,0.725-5.441,0.725-5.441s0.527,5.883,1.366,5.897
		c0.838,0.016,6.343,2.017,7.483-0.48c0.509-1.113,0.836-3.779,1.071-5.244c0.235-1.464-0.285-19.727-0.002-23.917
		c0.283-4.191-0.155-50.211,0.091-52.306C646.942,264.491,645.243,261.943,643.774,261.918z"/>
	<path fill="#F7F7F4" d="M721.563,343.118c-1.041-0.566-9.262-0.589-9.262-0.589s9.309-0.735,9.609-1.786
		c0.302-1.05,1.24-5.145-0.074-5.456c-1.315-0.311-8.678-0.708-12.158-0.526c-6.111,0.315-10.387,0.192-16.479-0.021
		c-2.304-0.08-9.796-0.041-15.719-0.016c-0.093-6.438-0.188-12.757-0.069-15.146c0.018-0.357,0.037-0.831,0.057-1.392
		c6.072,0.232,11.546,0.354,12.943,0.214c3.469-0.349,18.497-0.405,20.628-0.559c2.132-0.153,6.487-0.041,6.558-1.364
		c0.068-1.324-0.102-5.348-0.102-5.348l-2.257-2.508c0,0,2.131-0.153,2.479-1.728c0.348-1.574-1.186-2.716-3.023-3.078
		c-1.839-0.362-17.96,0.283-22.46,0.047c-2.783-0.146-8.819-0.259-14.4-0.333c0.181-8.712,0.341-18.113,0.368-21.088
		c4.036,0.069,8.691,0.072,11.762,0.179c3.973,0.14,11.699,0.118,14.879,0.229c3.178,0.11,10.86-0.313,12.44,0.007
		s1.929-2.054,2.249-3.634c0.321-1.58,2.732-2.291,2.532-4.155c-0.2-1.863-2.575-2.211-2.575-2.211s2.458-2.036,0.896-2.886
		c-1.562-0.851-12.573-0.875-17.615-0.786s-20.319,0.71-22.959,0.353c-2.639-0.356-7.179,0.545-8.778,0.754
		c-1.599,0.209-3.023,3.077-2.797,4.146c0.183,0.854-0.326,2.189,0.407,2.726c-0.173,1.291-0.243,2.466-0.243,2.466
		s-0.795-5.83-2.915-6.096c-2.121-0.265-2.811-1.59-2.811,2.65c0,3.514-0.183,19.033-0.245,27.568
		c-2.131,0.228-3.392,0.493-3.392,0.493s-1.002,3.929-0.542,5.28s1.756,1.95,1.756,1.95s-2.131,0.154-1.936,1.491
		c0.106,0.729,2.204,1.008,4.093,1.113c0,0.308,0,0.62,0,0.938c-2.238,0.689-4.856,1.581-4.564,1.906
		c0.121,0.135,1.901,0.312,4.564,0.497c0,7.49,0,16.416,0,18.854c0,3.71-0.265,12.192,0,14.047c0.266,1.855,7.848,2.65,7.848,1.325
		c0-0.331,0.083-1.027,0.207-1.885c0.398-0.008,0.85-0.027,1.337-0.055c0.075,0.882,0.175,1.602,0.311,1.939
		c0.53,1.325,4.771,2.65,5.3,0.265c0.08-0.36,0.13-1.237,0.157-2.472c0.84-0.002,1.651,0.025,2.387,0.104
		c3.698,0.395,9.678,0.243,12.855,0.354s17.633,0.257,23.214-0.079s5.626-1.661,3.782-1.99c-1.844-0.328-4.758-0.431-4.758-0.431
		s2.94-0.693,5.068-0.884C722.246,346.324,722.604,343.684,721.563,343.118z M671.573,343.214c0.003-0.015,0.007-0.035,0.007-0.038
		c0.001,0,0.001,0,0.002,0c0,0.003,0,0.023,0,0.037C671.578,343.214,671.576,343.214,671.573,343.214z"/>
	<path fill="#F7F7F4" d="M561.857,281.867c-1.307-0.087,3.587,3.952,5.704,8.893c2.116,4.94,1.364,12.86,1.364,12.86
		s0.185-4.153-2.222-11.559c-2.405-7.405-9.209-13.382-12.199-14.713c-1.827-0.812-4.286-1.8-6.872-2.139
		c-0.129-0.065-0.274-0.122-0.454-0.159c-1.922-0.399-6.469,0.566-9.628,1.081c-3.159,0.516-12.629,1.289-17.936,10.944
		c-5.306,9.655-7.943,12.56-6.793,23.188c1.15,10.627,2.405,17.639,8.208,23.686c5.802,6.046,16.236,8.853,22.47,7.775
		c8.321-1.438,12.85-4.918,17.5-9.5c0.175-0.172,0.346-0.353,0.518-0.531c0.664-0.429,1.327-0.914,1.983-1.468
		c5.422-4.576,7.234-11.587,8.508-17.117c1.272-5.531-0.421-15.47-2.227-21.024C567.977,286.53,563.163,281.954,561.857,281.867z
		 M525.389,286.735c-2.256,3.292-4.125,6.202-5.45,8.423c-1.325,2.222-0.979-3.008,1.897-6.757
		c2.875-3.749,6.296-8.187,13.007-10.366c1.726-0.561,3.125-0.861,4.297-1.003c-1.192,0.683-1.757,1.325-2.732,2.104
		c-0.527,0.42-0.813,0.792-0.986,1.16C531.768,281.33,527.395,283.808,525.389,286.735z M532.515,321.262
		c-2.661-4.252-4.992-11.426-4.031-16.344c0.96-4.917,3.929-10.744,8.106-13.636c1.047-0.725,1.942-1.224,2.756-1.568
		c1.699,0.446,3.89,1.108,5.738,1.951c3.604,1.644,8.787,8.146,9.018,18.306c0.217,9.547-5.296,13.272-8.017,15.204
		C539.761,328.144,535.054,325.321,532.515,321.262z"/>
</g>
<g id="FG">
</g>
<g id="Hilfslinien" display="none">
</g>
<g id="Plants">
</g>
<g id="Foreground">
</g>
<g id="Creatures">
</g>
<g id="default">
</g>
<g id="creatures">
</g>
</svg>
